<?xml version="1.0" encoding="utf-8"?><!DOCTYPE svg PUBLIC "-//W3C//DTD SVG 1.1//EN" "http://www.w3.org/Graphics/SVG/1.1/DTD/svg11.dtd"><svg xmlns="http://www.w3.org/2000/svg" xmlns:xlink="http://www.w3.org/1999/xlink"><symbol viewBox="0 0 153 39" id="brand-logo-01" xmlns="http://www.w3.org/2000/svg"><g clip-path="url(#aclip0_506_139)"><path d="M44.5537 27.4435H55.5037V24.1069H48.4456V11.5391H44.5537V27.4435Z"/><path d="M61.9915 25.2181C60.4304 25.2181 59.6168 23.839 59.6168 21.7703C59.6168 19.7016 60.4304 18.3002 61.9915 18.3002C63.5527 18.3002 64.3882 19.7016 64.3882 21.7703C64.3882 23.839 63.5527 25.2181 61.9915 25.2181ZM62.0135 27.7984C65.6415 27.7984 68.0162 25.1958 68.0162 21.7703C68.0162 18.3447 65.6415 15.7422 62.0135 15.7422C58.4074 15.7422 55.9888 18.3447 55.9888 21.7703C55.9888 25.1958 58.4074 27.7984 62.0135 27.7984Z"/><path d="M74.296 31.3785C75.9671 31.3785 77.4403 31.0003 78.4298 30.1106C79.3313 29.2875 79.9249 28.0419 79.9249 26.3291V16.0524H76.4948V17.2758H76.4508C75.7912 16.3193 74.7797 15.7188 73.2846 15.7188C70.4921 15.7188 68.5571 18.0766 68.5571 21.4132C68.5571 24.9055 70.9099 26.8185 73.4385 26.8185C74.8017 26.8185 75.6593 26.2624 76.3189 25.5061H76.4069V26.6405C76.4069 28.0196 75.7692 28.8204 74.252 28.8204C73.0647 28.8204 72.471 28.3088 72.2731 27.7082H68.799C69.1508 30.0883 71.1957 31.3785 74.296 31.3785ZM74.274 24.1269C72.9327 24.1269 72.0532 23.0148 72.0532 21.302C72.0532 19.5669 72.9327 18.4548 74.274 18.4548C75.7692 18.4548 76.5608 19.7449 76.5608 21.2797C76.5608 22.8813 75.8352 24.1269 74.274 24.1269Z"/><path d="M86.9778 25.2181C85.4167 25.2181 84.6031 23.839 84.6031 21.7703C84.6031 19.7016 85.4167 18.3002 86.9778 18.3002C88.539 18.3002 89.3745 19.7016 89.3745 21.7703C89.3745 23.839 88.539 25.2181 86.9778 25.2181ZM86.9998 27.7984C90.6278 27.7984 93.0028 25.1958 93.0028 21.7703C93.0028 18.3447 90.6278 15.7422 86.9998 15.7422C83.3938 15.7422 80.9751 18.3447 80.9751 21.7703C80.9751 25.1958 83.3938 27.7984 86.9998 27.7984Z"/><path d="M94.0493 27.4435H97.6334V16.0546H94.0493V27.4435ZM94.0493 14.4753H97.6334V11.5391H94.0493V14.4753Z"/><path d="M99.188 31.2005H102.772V26.2624H102.816C103.52 27.2188 104.553 27.7972 106.004 27.7972C108.951 27.7972 110.908 25.4393 110.908 21.7468C110.908 18.3213 109.083 15.7188 106.092 15.7188C104.553 15.7188 103.454 16.4083 102.684 17.4315H102.618V16.0524H99.188V31.2005ZM105.081 24.9945C103.542 24.9945 102.662 23.7266 102.662 21.8803C102.662 20.0341 103.454 18.6327 105.015 18.6327C106.554 18.6327 107.28 19.9228 107.28 21.8803C107.28 23.8155 106.444 24.9945 105.081 24.9945Z"/><path d="M116.744 27.7972C119.69 27.7972 121.867 26.507 121.867 24.0157C121.867 21.1018 119.536 20.5902 117.557 20.2565C116.128 19.9896 114.853 19.8784 114.853 19.0776C114.853 18.3658 115.534 18.0321 116.414 18.0321C117.403 18.0321 118.085 18.3435 118.217 19.3668H121.515C121.339 17.1201 119.624 15.7188 116.436 15.7188C113.775 15.7188 111.576 16.9644 111.576 19.3668C111.576 22.036 113.665 22.5699 115.622 22.9035C117.117 23.1705 118.481 23.2817 118.481 24.3049C118.481 25.0389 117.799 25.4393 116.722 25.4393C115.534 25.4393 114.787 24.8832 114.655 23.7488H111.269C111.378 26.2624 113.445 27.7972 116.744 27.7972Z"/><path d="M126.734 27.7772C128.295 27.7772 129.285 27.1544 130.098 26.0422H130.164V27.4436H133.594V16.0547H130.01V22.4164C130.01 23.7733 129.263 24.7076 128.031 24.7076C126.888 24.7076 126.338 24.018 126.338 22.7723V16.0547H122.776V23.5286C122.776 26.0644 124.14 27.7772 126.734 27.7772Z"/><path d="M135.154 27.4413H138.738V21.0573C138.738 19.7004 139.397 18.7439 140.519 18.7439C141.596 18.7439 142.102 19.4557 142.102 20.6791V27.4413H145.686V21.0573C145.686 19.7004 146.324 18.7439 147.467 18.7439C148.545 18.7439 149.05 19.4557 149.05 20.6791V27.4413H152.634V20.0341C152.634 17.476 151.359 15.7188 148.808 15.7188C147.357 15.7188 146.148 16.3416 145.268 17.7207H145.224C144.653 16.4973 143.531 15.7188 142.058 15.7188C140.431 15.7188 139.354 16.4973 138.65 17.6762H138.584V16.0524H135.154V27.4413Z"/><path fill-rule="evenodd" clip-rule="evenodd" d="M7.92851 4.36586C6.61778 5.29302 5.43254 6.38923 4.40364 7.62323C8.6082 7.22833 13.95 7.87315 20.1517 11.0101C26.7743 14.3599 32.1071 14.4731 35.8185 13.7489C35.4817 12.7174 35.0577 11.7261 34.5556 10.7837C30.307 11.237 24.8604 10.637 18.5128 7.42635C14.4821 5.38751 10.929 4.54765 7.92851 4.36586ZM32.0738 7.21009C28.7187 3.41783 23.8429 1.03125 18.4161 1.03125C16.8224 1.03125 15.2761 1.23711 13.802 1.62394C15.7985 2.17504 17.9194 2.98129 20.1517 4.11042C24.799 6.4611 28.8113 7.21798 32.0738 7.21009ZM36.612 17.3695C32.1283 18.2652 25.9367 18.0812 18.5128 14.326C11.5723 10.8154 6.04826 10.8596 2.32263 11.6972C2.13033 11.7404 1.94255 11.7858 1.75931 11.8331C1.27153 12.9062 0.882175 14.0347 0.602806 15.2066C0.901187 15.126 1.20952 15.0493 1.52764 14.9778C6.04747 13.9617 12.4336 14.0058 20.1517 17.9098C27.0923 21.4205 32.6163 21.3762 36.342 20.5387C36.4696 20.51 36.5954 20.4804 36.7191 20.4498C36.7327 20.1576 36.7394 19.8635 36.7394 19.5678C36.7394 18.824 36.6962 18.0904 36.612 17.3695ZM36.1208 24.3617C31.6806 25.147 25.6694 24.8455 18.5128 21.2257C11.5723 17.7151 6.04826 17.7593 2.32263 18.5969C1.49566 18.7827 0.751717 19.0091 0.0954578 19.2481C0.0936685 19.3545 0.0927734 19.461 0.0927734 19.5678C0.0927734 29.8053 8.2964 38.1044 18.4161 38.1044C26.8971 38.1044 34.0324 32.2755 36.1208 24.3617Z"/></g><defs><clipPath id="aclip0_506_139"><rect width="153" height="38" transform="translate(0 0.757812)"/></clipPath></defs></symbol><symbol viewBox="0 0 130 41" id="brand-logo-02" xmlns="http://www.w3.org/2000/svg"><path d="M19.9607 2.8125C17.6084 2.8125 15.2789 3.27681 13.1056 4.17876C10.9322 5.08081 8.95753 6.40286 7.29404 8.06953C5.63065 9.73629 4.31121 11.7149 3.41093 13.8925C2.51076 16.0701 2.04736 18.4042 2.04736 20.7612C2.04736 23.1182 2.51076 25.4523 3.41093 27.6299C4.31121 29.8076 5.63065 31.7861 7.29404 33.4529C8.95753 35.1196 10.9322 36.4416 13.1056 37.3437C15.2789 38.2456 17.6084 38.7099 19.9607 38.7099V29.7356C18.7845 29.7356 17.6198 29.5035 16.5332 29.0524C15.4465 28.6014 14.4591 27.9404 13.6274 27.1071C12.7957 26.2737 12.136 25.2844 11.6859 24.1956C11.2357 23.1068 11.0041 21.9398 11.0041 20.7612C11.0041 19.5827 11.2357 18.4157 11.6859 17.3269C12.136 16.238 12.7957 15.2487 13.6274 14.4154C14.4591 13.582 15.4465 12.921 16.5332 12.47C17.6198 12.019 18.7845 11.7869 19.9607 11.7869V2.8125Z"/><path d="M19.9608 26.7392C23.2586 26.7392 25.9319 24.0606 25.9319 20.7563C25.9319 17.452 23.2586 14.7734 19.9608 14.7734C16.663 14.7734 13.9897 17.452 13.9897 20.7563C13.9897 24.0606 16.663 26.7392 19.9608 26.7392Z"/><path d="M2.04736 20.7578C2.04736 23.1148 2.51076 25.4489 3.41093 27.6265C4.31121 29.8042 5.63065 31.7827 7.29404 33.4495C8.95753 35.1162 10.9322 36.4382 13.1056 37.3403C15.2789 38.2422 17.6084 38.7065 19.9607 38.7065C22.3131 38.7065 24.6426 38.2422 26.8159 37.3403C28.9893 36.4382 30.964 35.1162 32.6275 33.4495C34.2908 31.7827 35.6103 29.8042 36.5106 27.6265C37.4107 25.4489 37.8741 23.1148 37.8741 20.7578H28.9174C28.9174 21.9364 28.6858 23.1034 28.2356 24.1922C27.7855 25.281 27.1258 26.2703 26.2941 27.1037C25.4624 27.937 24.475 28.598 23.3883 29.049C22.3017 29.5001 21.137 29.7322 19.9607 29.7322C18.7845 29.7322 17.6198 29.5001 16.5332 29.049C15.4465 28.598 14.4591 27.937 13.6274 27.1037C12.7957 26.2703 12.136 25.281 11.6859 24.1922C11.2357 23.1034 11.0041 21.9364 11.0041 20.7578H2.04736Z"/><path d="M25.932 20.7564C25.932 19.1696 25.3029 17.6479 24.1832 16.5258C23.0633 15.4038 21.5446 14.7734 19.9609 14.7734C18.3773 14.7734 16.8585 15.4038 15.7387 16.5258C14.6189 17.6479 13.9897 19.1696 13.9897 20.7564H19.9609H25.932Z"/><path d="M47.2297 14.0156H45.0049V26.4002H47.2297V14.0156Z"/><path d="M48.6821 22.0104C48.6821 24.8765 50.6598 26.6458 53.2731 26.6458C55.8864 26.6458 57.864 24.8765 57.864 22.0104C57.864 19.1442 55.8864 17.375 53.2731 17.375C50.6598 17.375 48.6821 19.1442 48.6821 22.0104ZM50.907 22.0104C50.907 20.3119 51.8958 19.3212 53.2731 19.3212C54.6504 19.3212 55.6392 20.3119 55.6392 22.0104C55.6392 23.7088 54.6504 24.6996 53.2731 24.6996C51.8958 24.6996 50.907 23.7088 50.907 22.0104Z"/><path d="M65.8148 17.6227V18.808H65.6382C65.1085 18.0473 64.2609 17.375 62.7424 17.375C60.6588 17.375 58.7871 19.1442 58.7871 21.8688C58.7871 24.5935 60.6588 26.3627 62.7424 26.3627C64.2609 26.3627 65.1085 25.6726 65.6029 24.9827H65.7795V25.8319C65.7795 27.5304 64.7907 28.3088 63.3427 28.3088C61.8948 28.3088 61.1532 27.5304 60.853 26.5219L58.8577 27.3888C59.3168 28.7157 60.6588 30.1842 63.3781 30.1842C66.1679 30.1842 68.0043 28.7157 68.0043 25.8849V17.6227H65.8148ZM63.4134 24.4519C62.0361 24.4519 61.012 23.4612 61.012 21.8688C61.012 20.2765 62.0361 19.2858 63.4134 19.2858C64.7907 19.2858 65.8148 20.2765 65.8148 21.8688C65.8148 23.4612 64.7907 24.4519 63.4134 24.4519Z"/><path d="M69.4438 22.0104C69.4438 24.8765 71.4215 26.6458 74.0348 26.6458C76.6481 26.6458 78.6256 24.8765 78.6256 22.0104C78.6256 19.1442 76.6481 17.375 74.0348 17.375C71.4215 17.375 69.4438 19.1442 69.4438 22.0104ZM71.6687 22.0104C71.6687 20.3119 72.6575 19.3212 74.0348 19.3212C75.4121 19.3212 76.4009 20.3119 76.4009 22.0104C76.4009 23.7088 75.4121 24.6996 74.0348 24.6996C72.6575 24.6996 71.6687 23.7088 71.6687 22.0104Z"/><path d="M80.3716 15.0762C80.3716 15.9786 81.0605 16.5978 81.9439 16.5978C82.8262 16.5978 83.5151 15.9786 83.5151 15.0762C83.5151 14.174 82.8262 13.5547 81.9439 13.5547C81.0605 13.5547 80.3716 14.174 80.3716 15.0762ZM83.0555 17.6239H80.8312V26.3993H83.0555V17.6239Z"/><path d="M85.0386 29.9365H87.2639V25.2658H87.44C87.9344 25.9735 88.782 26.6458 90.301 26.6458C92.3841 26.6458 94.2563 24.8765 94.2563 22.0104C94.2563 19.1442 92.3841 17.375 90.301 17.375C88.782 17.375 87.9344 18.0473 87.4052 18.8081H87.2281V17.6227H85.0386V29.9365ZM89.6295 24.735C88.2527 24.735 87.2281 23.7442 87.2281 22.0104C87.2281 20.2765 88.2527 19.2858 89.6295 19.2858C91.0073 19.2858 92.0309 20.2765 92.0309 22.0104C92.0309 23.7442 91.0073 24.735 89.6295 24.735Z"/><path d="M95.5542 20.082C95.5542 21.8158 97.0016 22.4527 98.838 22.8066L99.2976 22.895C100.392 23.1073 100.886 23.3727 100.886 23.9389C100.886 24.5051 100.392 24.9473 99.3682 24.9473C98.3436 24.9473 97.5144 24.5227 97.2841 23.2488L95.2358 23.7796C95.5368 25.6196 97.0722 26.6458 99.3682 26.6458C101.593 26.6458 103.041 25.602 103.041 23.762C103.041 21.9219 101.558 21.4266 99.5801 21.0374L99.1205 20.9488C98.2023 20.7719 97.7079 20.5242 97.7079 19.9404C97.7079 19.4097 98.1675 19.0735 99.0151 19.0735C99.8626 19.0735 100.462 19.4273 100.674 20.3827L102.688 19.7635C102.264 18.3481 100.975 17.375 99.0151 17.375C96.931 17.375 95.5542 18.3481 95.5542 20.082Z"/><path d="M113.035 26.4004V17.625H110.81V22.1542C110.81 23.7819 110.016 24.7373 108.656 24.7373C107.455 24.7373 106.784 24.0827 106.784 22.7558V17.625H104.559V22.8619C104.559 25.0381 105.919 26.5419 107.968 26.5419C109.574 26.5419 110.316 25.8342 110.669 25.0912H110.845V26.4004H113.035Z"/><path d="M115.008 17.6259V26.4013H117.233V21.1644C117.233 19.9613 117.798 19.289 118.822 19.289C119.705 19.289 120.234 19.7844 120.234 20.7398V26.4013H122.46V21.1644C122.46 19.9613 123.025 19.289 124.048 19.289C124.932 19.289 125.461 19.7844 125.461 20.7398V26.4013H127.686V20.6336C127.686 18.5105 126.379 17.4844 124.755 17.4844C123.325 17.4844 122.672 18.1213 122.248 18.8644H122.071C121.664 18.0329 120.941 17.4844 119.669 17.4844C118.398 17.4844 117.709 18.0505 117.374 18.7228H117.197V17.6259H115.008Z"/></symbol><symbol viewBox="0 0 124 33" id="brand-logo-03" xmlns="http://www.w3.org/2000/svg"><path d="M36.8701 10.8275H39.8701V22.9575H36.8701V10.8275ZM41.0601 18.3775C41.0601 15.3775 42.9001 13.5875 45.7401 13.5875C48.5801 13.5875 50.4201 15.3775 50.4201 18.3775C50.4201 21.3775 48.6201 23.1775 45.7401 23.1775C42.8601 23.1775 41.0601 21.4275 41.0601 18.3775ZM47.4101 18.3775C47.4101 16.7275 46.7601 15.7575 45.7401 15.7575C44.7201 15.7575 44.0801 16.7575 44.0801 18.3775C44.0801 19.9975 44.7101 20.9775 45.7401 20.9775C46.7701 20.9775 47.4101 20.0575 47.4101 18.3875V18.3775ZM51.5501 23.5475H54.4301C54.5672 23.852 54.7989 24.1041 55.0908 24.2663C55.3827 24.4284 55.7192 24.492 56.0501 24.4475C57.1901 24.4475 57.7901 23.8275 57.7901 22.9275V21.2475H57.7301C57.4911 21.7624 57.1032 22.1938 56.6166 22.4862C56.13 22.7785 55.5669 22.9183 55.0001 22.8875C52.8101 22.8875 51.3601 21.2175 51.3601 18.3475C51.3601 15.4775 52.7401 13.6675 55.0401 13.6675C55.6247 13.6446 56.2023 13.8009 56.6956 14.1154C57.1889 14.43 57.5743 14.8878 57.8001 15.4275V13.7575H60.8001V22.8575C60.8001 25.0475 58.8701 26.4075 56.0201 26.4075C53.3701 26.4075 51.7201 25.2175 51.5501 23.5575V23.5475ZM57.8001 18.3675C57.8001 16.9075 57.1301 15.9875 56.0701 15.9875C55.0101 15.9875 54.3601 16.8975 54.3601 18.3675C54.3601 19.8375 55.0001 20.6675 56.0701 20.6675C57.1401 20.6675 57.8001 19.8575 57.8001 18.3775V18.3675ZM61.9301 18.3675C61.9301 15.3675 63.7701 13.5775 66.6101 13.5775C69.4501 13.5775 71.3001 15.3675 71.3001 18.3675C71.3001 21.3675 69.5001 23.1675 66.6101 23.1675C63.7201 23.1675 61.9301 21.4275 61.9301 18.3775V18.3675ZM68.2801 18.3675C68.2801 16.7175 67.6301 15.7475 66.6101 15.7475C65.5901 15.7475 65.0001 16.7575 65.0001 18.3875C65.0001 20.0175 65.6301 20.9875 66.6501 20.9875C67.6701 20.9875 68.2801 20.0575 68.2801 18.3875V18.3675ZM72.4401 11.5775C72.4322 11.2746 72.5145 10.9762 72.6764 10.7201C72.8384 10.464 73.0727 10.2618 73.3497 10.139C73.6267 10.0163 73.9339 9.97851 74.2324 10.0306C74.5309 10.0826 74.8072 10.2221 75.0263 10.4314C75.2455 10.6407 75.3975 10.9103 75.4632 11.2061C75.5289 11.5019 75.5053 11.8105 75.3953 12.0929C75.2854 12.3752 75.0941 12.6186 74.8457 12.7921C74.5974 12.9656 74.303 13.0615 74.0001 13.0675C73.7993 13.0813 73.5978 13.0534 73.4083 12.9856C73.2187 12.9178 73.0453 12.8116 72.8988 12.6735C72.7523 12.5355 72.6359 12.3686 72.557 12.1834C72.478 11.9983 72.4382 11.7988 72.4401 11.5975V11.5775ZM72.4401 13.7775H75.4401V22.9575H72.4401V13.7775ZM86.3301 18.3675C86.3301 21.3675 85.0001 23.0775 82.7201 23.0775C82.1355 23.115 81.5534 22.9721 81.0526 22.6681C80.5518 22.364 80.1565 21.9135 79.9201 21.3775H79.8601V25.8975H76.8601V13.7575H79.8601V15.3975H79.9201C80.1455 14.8526 80.5333 14.3904 81.0307 14.0737C81.5281 13.757 82.111 13.6012 82.7001 13.6275C85.0001 13.6675 86.3701 15.3875 86.3701 18.3875L86.3301 18.3675ZM83.3301 18.3675C83.3301 16.9075 82.6601 15.9775 81.6101 15.9775C80.5601 15.9775 79.8901 16.9175 79.8801 18.3675C79.8701 19.8175 80.5601 20.7475 81.6101 20.7475C82.6601 20.7475 83.3301 19.8375 83.3301 18.3875V18.3675ZM91.4801 13.5675C93.9701 13.5675 95.4801 14.7475 95.5501 16.6375H92.8201C92.8201 15.9875 92.2801 15.5775 91.4501 15.5775C90.6201 15.5775 90.2501 15.8975 90.2501 16.3675C90.2501 16.8375 90.5801 16.9875 91.2501 17.1275L93.1701 17.5175C95.0001 17.9075 95.7801 18.6475 95.7801 20.0375C95.7801 21.9375 94.0501 23.1575 91.5001 23.1575C88.9501 23.1575 87.2801 21.9375 87.1501 20.0675H90.0401C90.1301 20.7475 90.6701 21.1475 91.5501 21.1475C92.4301 21.1475 92.8301 20.8575 92.8301 20.3775C92.8301 19.8975 92.5501 19.7975 91.8301 19.6475L90.1001 19.2775C88.3101 18.9075 87.3701 17.9575 87.3701 16.5575C87.3901 14.7575 89.0001 13.5875 91.4801 13.5875V13.5675ZM105.79 22.9375H102.9V21.2275H102.84C102.681 21.8016 102.331 22.3041 101.847 22.6516C101.363 22.999 100.775 23.1705 100.18 23.1375C99.7243 23.1634 99.2683 23.0912 98.8428 22.9257C98.4173 22.7602 98.0323 22.5054 97.7138 22.1783C97.3953 21.8513 97.1506 21.4596 96.9965 21.0299C96.8423 20.6002 96.7822 20.1424 96.8201 19.6875V13.7575H99.8201V18.9975C99.8201 20.0875 100.38 20.6675 101.31 20.6675C101.528 20.6679 101.744 20.6218 101.943 20.5321C102.141 20.4424 102.319 20.3112 102.463 20.1474C102.606 19.9835 102.714 19.7908 102.777 19.5822C102.84 19.3735 102.859 19.1537 102.83 18.9375V13.7575H105.83L105.79 22.9375ZM107.24 13.7575H110.14V15.5275H110.2C110.359 14.961 110.702 14.4632 111.174 14.1122C111.646 13.7612 112.222 13.5766 112.81 13.5875C113.409 13.5396 114.003 13.7187 114.476 14.0893C114.948 14.4599 115.264 14.9947 115.36 15.5875H115.42C115.601 14.9884 115.977 14.4668 116.488 14.1047C116.998 13.7426 117.615 13.5606 118.24 13.5875C118.648 13.5738 119.054 13.6461 119.432 13.7997C119.811 13.9532 120.152 14.1847 120.435 14.4789C120.718 14.7732 120.936 15.1237 121.075 15.5076C121.213 15.8915 121.27 16.3004 121.24 16.7075V22.9575H118.24V17.5075C118.24 16.5075 117.79 16.0475 116.95 16.0475C116.763 16.0459 116.577 16.0845 116.406 16.1607C116.235 16.2369 116.082 16.3489 115.958 16.4892C115.834 16.6295 115.741 16.7947 115.686 16.9738C115.631 17.153 115.616 17.3418 115.64 17.5275V22.9575H112.79V17.4675C112.79 16.5475 112.34 16.0475 111.52 16.0475C111.331 16.0476 111.143 16.0878 110.971 16.1655C110.798 16.2433 110.643 16.3568 110.518 16.4985C110.392 16.6402 110.298 16.807 110.241 16.9879C110.185 17.1687 110.167 17.3594 110.19 17.5475V22.9575H107.19L107.24 13.7575Z"/><path d="M28.4801 11.3787C27.9712 10.215 27.2977 9.13061 26.4801 8.15868C25.2716 6.67902 23.7634 5.47207 22.0548 4.61728C20.3462 3.7625 18.4759 3.27925 16.5671 3.19934C14.6583 3.11943 12.7542 3.44467 10.9801 4.15367C9.20606 4.86266 7.60226 5.93933 6.27429 7.31281C4.94631 8.68628 3.92426 10.3254 3.27541 12.1224C2.62656 13.9193 2.36561 15.8333 2.50975 17.7383C2.6539 19.6434 3.19985 21.4963 4.11169 23.1751C5.02353 24.854 6.28059 26.3207 7.80011 27.4787C8.77511 28.2366 9.85246 28.8527 11.0001 29.3087C12.6091 29.9681 14.3312 30.3077 16.0701 30.3087C19.6595 30.3008 23.0993 28.87 25.6356 26.33C28.1718 23.79 29.5975 20.3481 29.6001 16.7587C29.6027 14.9072 29.2214 13.0753 28.4801 11.3787ZM16.0601 5.94867C17.6217 5.94851 19.1644 6.28981 20.5801 6.94867C20.2349 7.09784 19.8719 7.20203 19.5001 7.25868C18.2767 7.43577 17.1434 8.00375 16.2693 8.87785C15.3952 9.75194 14.8272 10.8853 14.6501 12.1087C14.5724 12.7948 14.2603 13.4331 13.7666 13.9159C13.2729 14.3987 12.6278 14.6963 11.9401 14.7587C10.7167 14.9358 9.58336 15.5038 8.70927 16.3779C7.83518 17.252 7.2672 18.3853 7.09011 19.6087C7.03015 20.2611 6.7518 20.8742 6.30011 21.3487C5.52076 19.702 5.17065 17.8848 5.28237 16.0664C5.39409 14.248 5.964 12.4874 6.93907 10.9484C7.91413 9.40947 9.26268 8.14219 10.8592 7.26452C12.4557 6.38685 14.2483 5.92732 16.0701 5.92867L16.0601 5.94867ZM7.7901 23.7587C7.9101 23.6487 8.03011 23.5487 8.1501 23.4287C9.03975 22.5662 9.61081 21.4276 9.7701 20.1987C9.83468 19.5079 10.1431 18.8627 10.6401 18.3787C11.1184 17.8809 11.7621 17.575 12.4501 17.5187C13.6735 17.3416 14.8068 16.7736 15.6809 15.8995C16.555 15.0254 17.123 13.8921 17.3001 12.6687C17.3434 11.9462 17.6534 11.2655 18.1701 10.7587C18.6602 10.2705 19.31 9.97578 20.0001 9.92867C21.124 9.77404 22.1722 9.27439 23.0001 8.49868C23.9428 9.28075 24.7414 10.2216 25.3601 11.2787C25.3221 11.33 25.2785 11.377 25.2301 11.4187C24.7528 11.9209 24.1099 12.2335 23.4201 12.2987C22.1954 12.4727 21.0604 13.0397 20.1857 13.9143C19.3111 14.789 18.7441 15.924 18.5701 17.1487C18.4996 17.8371 18.1933 18.48 17.7031 18.9684C17.2128 19.4569 16.5688 19.7608 15.8801 19.8287C14.6531 20.0044 13.5156 20.5713 12.6364 21.445C11.7573 22.3188 11.1834 23.4528 11.0001 24.6787C10.9463 25.1674 10.7784 25.6367 10.5101 26.0487C9.4841 25.4395 8.56519 24.6659 7.7901 23.7587ZM16.0601 27.6187C15.0454 27.6198 14.0355 27.4784 13.0601 27.1987C13.3938 26.5767 13.6107 25.8988 13.7001 25.1987C13.7702 24.5118 14.0751 23.8701 14.5633 23.3819C15.0515 22.8937 15.6932 22.5888 16.3801 22.5187C17.6053 22.3436 18.7409 21.7765 19.617 20.9022C20.493 20.028 21.0625 18.8935 21.2401 17.6687C21.3102 16.9818 21.6151 16.3401 22.1033 15.8519C22.5915 15.3637 23.2332 15.0588 23.9201 14.9887C24.8421 14.8688 25.7209 14.5255 26.4801 13.9887C26.9017 15.5866 26.9516 17.2598 26.6261 18.88C26.3006 20.5002 25.6082 22.0244 24.6022 23.3355C23.5962 24.6465 22.3033 25.7098 20.8225 26.4436C19.3418 27.1774 17.7127 27.5623 16.0601 27.5687V27.6187Z"/></symbol><symbol viewBox="0 0 134 36" id="brand-logo-04" xmlns="http://www.w3.org/2000/svg"><path d="M39.0933 11.515H42.3519V24.515H39.0933V11.515ZM43.6513 19.625C43.6513 16.405 45.6816 14.475 48.7271 14.475C51.7725 14.475 53.8028 16.405 53.8028 19.625C53.8028 22.845 51.8436 24.795 48.7271 24.795C45.6105 24.795 43.6513 22.915 43.6513 19.625ZM50.5746 19.625C50.5746 17.855 49.8742 16.815 48.7575 16.815C47.6408 16.815 46.9505 17.815 46.9505 19.625C46.9505 21.435 47.6408 22.425 48.7575 22.425C49.8742 22.425 50.5949 21.435 50.5949 19.635L50.5746 19.625ZM55.1022 25.185H58.2492C58.3924 25.5187 58.6426 25.7972 58.9616 25.9777C59.2806 26.1583 59.6507 26.2311 60.0155 26.185C61.2642 26.185 61.9139 25.525 61.9139 24.545V22.745H61.924C61.6551 23.3055 61.2202 23.7726 60.6767 24.085C60.1331 24.3974 59.5062 24.5403 58.8786 24.495C56.493 24.495 54.9093 22.705 54.9093 19.625C54.9093 16.545 56.4219 14.625 58.9699 14.625C59.6136 14.5911 60.2523 14.7546 60.7976 15.0931C61.343 15.4316 61.7685 15.9284 62.0154 16.515H61.924V14.705H65.1522V24.445C65.1522 26.795 63.0407 28.265 59.9343 28.265C57.1122 28.255 55.3052 26.985 55.1225 25.195L55.1022 25.185ZM61.924 19.625C61.924 18.055 61.1931 17.065 60.0358 17.065C58.8786 17.065 58.168 18.065 58.168 19.625C58.168 21.185 58.8684 22.105 60.0358 22.105C61.2033 22.105 61.924 21.255 61.924 19.625ZM66.4414 19.625C66.4414 16.405 68.4717 14.475 71.5172 14.475C74.5627 14.475 76.593 16.405 76.593 19.625C76.593 22.845 74.6236 24.795 71.5172 24.795C68.4108 24.795 66.4617 22.915 66.4617 19.625H66.4414ZM73.3648 19.625C73.3648 17.855 72.6542 16.815 71.5477 16.815C70.4411 16.815 69.7407 17.815 69.7407 19.625C69.7407 21.435 70.431 22.425 71.5477 22.425C72.6643 22.425 73.3851 21.435 73.3851 19.635L73.3648 19.625ZM77.9127 12.335C77.8984 12.008 77.9839 11.6843 78.158 11.4056C78.3321 11.1268 78.5869 10.9058 78.8896 10.7709C79.1924 10.6359 79.5291 10.5933 79.8566 10.6485C80.1841 10.7036 80.4873 10.854 80.7273 11.0803C80.9672 11.3067 81.133 11.5985 81.2033 11.9184C81.2734 12.2383 81.2449 12.5716 81.1212 12.8753C80.9976 13.1791 80.7845 13.4395 80.5094 13.623C80.2343 13.8065 79.9098 13.9047 79.5775 13.905C79.3652 13.9103 79.1539 13.874 78.9559 13.7983C78.758 13.7225 78.5772 13.6087 78.4242 13.4636C78.2712 13.3185 78.149 13.1449 78.0647 12.9528C77.9804 12.7608 77.9356 12.5542 77.933 12.345L77.9127 12.335ZM77.9127 14.695H81.2119V24.555H77.9634L77.9127 14.695ZM93.079 19.625C93.079 22.835 91.6172 24.695 89.1301 24.695C88.4934 24.7337 87.8599 24.5789 87.3153 24.2517C86.7707 23.9244 86.3412 23.4404 86.0846 22.865H86.0237V27.725H82.7651V14.725H86.0034V16.485H86.0643C86.312 15.8983 86.7374 15.401 87.2823 15.061C87.8273 14.721 88.4655 14.5548 89.1098 14.585C91.668 14.565 93.1399 16.415 93.1399 19.635L93.079 19.625ZM89.7595 19.625C89.7595 18.065 89.0184 17.055 87.8713 17.055C86.7242 17.055 86.0034 18.055 85.9933 19.625C85.9831 21.195 86.7242 22.185 87.8713 22.185C89.0184 22.185 89.8204 21.255 89.8204 19.635L89.7595 19.625ZM98.642 14.465C101.373 14.465 103.068 15.735 103.088 17.775H100.114C100.114 17.065 99.5151 16.625 98.6217 16.625C97.7284 16.625 97.302 16.965 97.302 17.475C97.302 17.985 97.6777 18.145 98.4289 18.295L100.52 18.715C102.55 19.135 103.363 19.935 103.363 21.425C103.363 23.425 101.484 24.785 98.6928 24.785C95.9011 24.785 94.084 23.465 93.9521 21.455H97.1092C97.2005 22.185 97.7893 22.615 98.7436 22.615C99.6978 22.615 100.144 22.315 100.144 21.785C100.144 21.255 99.8399 21.165 99.0583 21.005L97.1701 20.615C95.2108 20.205 94.1855 19.195 94.1855 17.685C94.2464 15.725 95.9519 14.475 98.703 14.475L98.642 14.465ZM114.275 24.545H111.118V22.695H111.057C110.881 23.3121 110.496 23.8514 109.966 24.224C109.436 24.5967 108.794 24.7804 108.144 24.745C107.654 24.7607 107.164 24.6741 106.71 24.4907C106.257 24.3074 105.847 24.0315 105.509 23.6812C105.169 23.3308 104.911 22.9139 104.747 22.4579C104.584 22.0019 104.52 21.5169 104.56 21.035V14.705H107.819V20.345C107.819 21.505 108.438 22.135 109.453 22.135C109.692 22.1332 109.926 22.0811 110.143 21.9823C110.359 21.8834 110.551 21.74 110.705 21.5618C110.86 21.3836 110.975 21.1747 111.041 20.9493C111.106 20.7238 111.122 20.4871 111.088 20.255V14.705H114.336L114.275 24.545ZM115.849 14.695H119.016V16.595H119.087C119.262 15.9863 119.637 15.452 120.153 15.0756C120.67 14.6993 121.298 14.5021 121.94 14.515C122.584 14.4598 123.227 14.6434 123.741 15.0299C124.255 15.4164 124.605 15.9781 124.721 16.605H124.863C125.066 15.9747 125.475 15.4281 126.026 15.0502C126.576 14.6722 127.239 14.4841 127.909 14.515C128.355 14.4983 128.799 14.5745 129.212 14.7386C129.627 14.9026 130 15.1509 130.31 15.4672C130.619 15.7834 130.857 16.1605 131.008 16.5737C131.16 16.9869 131.221 17.4269 131.188 17.865V24.555H127.909V18.685C127.909 17.685 127.432 17.125 126.508 17.125C126.303 17.1217 126.1 17.1621 125.912 17.2433C125.724 17.3246 125.558 17.4449 125.422 17.5959C125.286 17.747 125.184 17.9251 125.124 18.1183C125.065 18.3115 125.049 18.515 125.077 18.715V24.555H121.97V18.655C121.97 17.655 121.473 17.125 120.579 17.125C120.372 17.1234 120.167 17.1654 119.979 17.2482C119.789 17.3311 119.62 17.4528 119.482 17.6053C119.345 17.7578 119.243 17.9375 119.182 18.1323C119.12 18.3272 119.101 18.5327 119.128 18.735V24.555H115.869L115.849 14.695Z"/><path d="M32.6472 12.3649C32.6473 10.3746 32.0372 8.43061 30.8967 6.78767C29.7563 5.14473 28.1387 3.87938 26.2559 3.15738C24.3731 2.43537 22.3127 2.29037 20.3449 2.74136C18.3769 3.19235 16.5932 4.21831 15.2272 5.68485H2.55811V32.0249H29.3073V19.7149C30.3572 18.7899 31.1973 17.6572 31.7728 16.3907C32.3483 15.1242 32.6463 13.7525 32.6472 12.3649ZM27.5004 12.3649C27.5024 13.3186 27.2171 14.2515 26.6807 15.0455C26.1442 15.8394 25.3808 16.4588 24.4869 16.8251C23.5929 17.1915 22.6089 17.2884 21.659 17.1035C20.7092 16.9187 19.8364 16.4604 19.151 15.7867C18.4657 15.113 17.9987 14.2542 17.8091 13.3189C17.6195 12.3837 17.7158 11.414 18.0858 10.5327C18.4559 9.65131 19.083 8.89794 19.8878 8.36787C20.6928 7.8378 21.6392 7.55486 22.6073 7.55485C23.9033 7.55485 25.1463 8.0613 26.0636 8.96306C26.981 9.86482 27.4977 11.0883 27.5004 12.3649ZM24.1605 26.9549H7.70492V10.7549H12.7198C12.6229 11.2864 12.5719 11.825 12.5675 12.3649C12.5702 14.9871 13.6288 17.5011 15.5111 19.3553C17.3933 21.2094 19.9454 22.2523 22.6073 22.2549C23.1278 22.2522 23.6471 22.2087 24.1605 22.1249V26.9549Z"/></symbol><symbol viewBox="0 0 138 37" id="brand-logo-05" xmlns="http://www.w3.org/2000/svg"><path d="M11.3076 33.4093L8.05518 27.7759L12.8283 19.5312L15.8614 24.7852L33.7666 24.7756L28.6859 33.487L11.3076 33.4093Z"/><path d="M36.9643 19.1879L33.7119 24.8212L24.1853 24.81L27.2187 19.5562L18.2578 4.05469L28.3425 4.09894L36.9643 19.1879Z"/><path d="M11.8093 4.02344H18.3142L23.0677 12.2795L17.001 12.2792L8.05681 27.7904L3.05273 19.0347L11.8093 4.02344Z"/><path fill-rule="evenodd" clip-rule="evenodd" d="M19.1068 2.72115L19.0874 2.6875H11.0404L1.50732 19.0299L8.05126 30.4799L8.05929 30.466L10.5332 34.7509L29.4526 34.8355L36.0967 23.4432H36.0525L38.5069 19.1921L29.1205 2.76508L19.1068 2.72115ZM25.3316 13.6195H25.3818L20.6515 5.40406L27.5636 5.43437L35.4208 19.1852L32.9615 23.445L26.5165 23.4484L28.7636 19.5565L25.3316 13.6195ZM17.4681 5.36356L20.6935 10.9433L16.2277 10.9432L8.58213 24.2021L8.06061 25.103L4.59748 19.0435L12.5775 5.36356H17.4681ZM14.367 19.5271L17.7736 13.6193L22.2406 13.6195L25.673 19.5573L23.4254 23.4501L16.6339 23.4538L14.367 19.5271ZM9.60335 27.7882L10.8994 25.5407L12.8267 22.2116L15.0892 26.1307L21.8797 26.127L21.8687 26.146L31.4159 26.1573L27.9194 32.1526L12.0822 32.0817L9.60335 27.7882Z"/><path d="M87.2459 12.4737C88.1623 12.4737 88.9068 11.7291 88.9068 10.7937C88.9068 9.85826 88.1623 9.13281 87.2459 9.13281C86.3105 9.13281 85.5659 9.85826 85.5659 10.7937C85.5659 11.7291 86.3105 12.4737 87.2459 12.4737ZM85.7568 23.5082H88.7159V13.9628H85.7568V23.5082Z"/><path d="M90.4385 28.0969H93.3404V22.5605C93.894 23.286 95.154 23.7823 96.4713 23.7823C99.3158 23.7823 101.034 21.606 100.958 18.5896C100.881 15.5159 99.1058 13.6641 96.4522 13.6641C95.0967 13.6641 93.8176 14.2559 93.2831 15.1341L93.1304 13.9696H90.4385V28.0969ZM93.3976 18.7423C93.3976 17.3105 94.3522 16.356 95.7267 16.356C97.1204 16.356 97.9986 17.3296 97.9986 18.7423C97.9986 20.155 97.1204 21.1287 95.7267 21.1287C94.3522 21.1287 93.3976 20.1741 93.3976 18.7423Z"/><path d="M101.271 20.4987C101.347 22.4269 102.875 23.7632 105.28 23.7632C107.59 23.7632 109.194 22.5414 109.194 20.575C109.194 19.1623 108.354 18.2269 106.788 17.845L105.089 17.425C104.478 17.2723 104.096 17.1196 104.096 16.6232C104.096 16.1269 104.497 15.8023 105.089 15.8023C105.757 15.8023 106.196 16.2414 106.177 16.8905H108.831C108.755 14.905 107.246 13.6641 105.146 13.6641C103.027 13.6641 101.443 14.9241 101.443 16.8332C101.443 18.1123 102.149 19.1623 104.039 19.6587L105.719 20.0978C106.215 20.2314 106.425 20.4605 106.425 20.785C106.425 21.2623 105.986 21.5678 105.242 21.5678C104.383 21.5678 103.925 21.1669 103.925 20.4987H101.271Z"/><path d="M113.694 23.7623C114.858 23.7623 116.023 23.2278 116.615 22.4451L116.806 23.5141H119.574V13.9688H116.634V18.9323C116.634 20.3641 116.214 21.147 114.858 21.147C113.808 21.147 113.121 20.6697 113.121 18.8942V13.9688H110.181V19.9633C110.181 22.2352 111.441 23.7623 113.694 23.7623Z"/><path d="M124.236 23.5106V18.2988C124.236 16.6952 125.095 16.237 125.935 16.237C126.871 16.237 127.482 16.8097 127.482 17.9934V23.5106H130.383V18.2988C130.383 16.6761 131.223 16.2179 132.063 16.2179C132.999 16.2179 133.629 16.7906 133.629 17.9934V23.5106H136.492V17.2679C136.492 15.0915 135.347 13.6406 132.884 13.6406C131.51 13.6406 130.383 14.3088 129.887 15.3397C129.314 14.3088 128.322 13.6406 126.737 13.6406C125.687 13.6406 124.713 14.1179 124.141 14.8815L124.026 13.9652H121.277V23.5106H124.236Z"/><path d="M46.9239 9.38281H43.793V23.5101H52.4603V20.7419H46.9239V9.38281Z"/><path d="M52.7593 18.7198C52.7593 21.7361 54.783 23.7407 57.8375 23.7407C60.873 23.7407 62.8966 21.7361 62.8966 18.7198C62.8966 15.7034 60.873 13.6797 57.8375 13.6797C54.783 13.6797 52.7593 15.7034 52.7593 18.7198ZM55.7184 18.7007C55.7184 17.2688 56.5584 16.3143 57.8375 16.3143C59.0975 16.3143 59.9375 17.2688 59.9375 18.7007C59.9375 20.1516 59.0975 21.1061 57.8375 21.1061C56.5584 21.1061 55.7184 20.1516 55.7184 18.7007Z"/><path d="M63.3696 18.566C63.3696 21.4488 65.2406 23.396 67.8942 23.396C69.1733 23.396 70.2806 22.9379 70.8342 22.1933V23.5106C70.8342 24.8279 70.0133 25.706 68.5624 25.706C67.2642 25.706 66.3669 25.0951 66.3096 24.0069H63.3315C63.5987 26.6224 65.6224 28.3788 68.3906 28.3788C71.6551 28.3788 73.7169 26.2597 73.7169 22.8997V13.9651H71.0633L70.9106 14.9388C70.376 14.156 69.2497 13.6406 67.9515 13.6406C65.2787 13.6406 63.3696 15.6451 63.3696 18.566ZM66.3478 18.4897C66.3478 17.1151 67.2642 16.1988 68.4287 16.1988C69.7842 16.1988 70.7769 17.096 70.7769 18.4897C70.7769 19.8833 69.8033 20.8378 68.4478 20.8378C67.2833 20.8378 66.3478 19.8833 66.3478 18.4897Z"/><path d="M74.5737 18.7198C74.5737 21.7361 76.5973 23.7407 79.6519 23.7407C82.6873 23.7407 84.711 21.7361 84.711 18.7198C84.711 15.7034 82.6873 13.6797 79.6519 13.6797C76.5973 13.6797 74.5737 15.7034 74.5737 18.7198ZM77.5328 18.7007C77.5328 17.2688 78.3728 16.3143 79.6519 16.3143C80.9119 16.3143 81.7519 17.2688 81.7519 18.7007C81.7519 20.1516 80.9119 21.1061 79.6519 21.1061C78.3728 21.1061 77.5328 20.1516 77.5328 18.7007Z"/></symbol><symbol viewBox="0 0 171 33" id="brand-logo-06" xmlns="http://www.w3.org/2000/svg"><g clip-path="url(#fclip0_506_184)"><path d="M67.5821 7.03906H64V23.2023H73.9164V20.0352H67.5821V7.03906Z"/><path d="M74.2583 17.7195C74.2583 21.1706 76.5736 23.464 80.0683 23.464C83.5412 23.464 85.8565 21.1706 85.8565 17.7195C85.8565 14.2684 83.5412 11.9531 80.0683 11.9531C76.5736 11.9531 74.2583 14.2684 74.2583 17.7195ZM77.6438 17.6976C77.6438 16.0595 78.6049 14.9674 80.0683 14.9674C81.5099 14.9674 82.471 16.0595 82.471 17.6976C82.471 19.3577 81.5099 20.4498 80.0683 20.4498C78.6049 20.4498 77.6438 19.3577 77.6438 17.6976Z"/><path d="M86.3977 17.5494C86.3977 20.8475 88.5383 23.0754 91.5743 23.0754C93.0378 23.0754 94.3046 22.5512 94.938 21.6994V23.2065C94.938 24.7136 93.9988 25.7183 92.3388 25.7183C90.8535 25.7183 89.8269 25.0194 89.7614 23.7744H86.354C86.6598 26.7668 88.9751 28.7762 92.1422 28.7762C95.8772 28.7762 98.2362 26.3518 98.2362 22.5075V12.2854H95.2001L95.0254 13.3993C94.4138 12.5038 93.1251 11.9141 91.6399 11.9141C88.5819 11.9141 86.3977 14.2075 86.3977 17.5494ZM89.8051 17.462C89.8051 15.8893 90.8535 14.8409 92.1859 14.8409C93.7367 14.8409 94.8725 15.8675 94.8725 17.462C94.8725 19.0565 93.7585 20.1486 92.2077 20.1486C90.8754 20.1486 89.8051 19.0565 89.8051 17.462Z"/><path d="M99.2168 17.7195C99.2168 21.1706 101.532 23.464 105.027 23.464C108.5 23.464 110.815 21.1706 110.815 17.7195C110.815 14.2684 108.5 11.9531 105.027 11.9531C101.532 11.9531 99.2168 14.2684 99.2168 17.7195ZM102.602 17.6976C102.602 16.0595 103.563 14.9674 105.027 14.9674C106.468 14.9674 107.429 16.0595 107.429 17.6976C107.429 19.3577 106.468 20.4498 105.027 20.4498C103.563 20.4498 102.602 19.3577 102.602 17.6976Z"/><path d="M113.715 10.5802C114.763 10.5802 115.615 9.72835 115.615 8.65808C115.615 7.58781 114.763 6.75781 113.715 6.75781C112.645 6.75781 111.793 7.58781 111.793 8.65808C111.793 9.72835 112.645 10.5802 113.715 10.5802ZM112.011 23.205H115.397V12.2839H112.011V23.205Z"/><path d="M117.368 28.4502H120.688V22.116C121.321 22.946 122.763 23.5139 124.27 23.5139C127.524 23.5139 129.49 21.0239 129.403 17.5728C129.315 14.0562 127.284 11.9375 124.248 11.9375C122.697 11.9375 121.234 12.6146 120.622 13.6194L120.447 12.287H117.368V28.4502ZM120.753 17.7475C120.753 16.1094 121.845 15.0173 123.418 15.0173C125.012 15.0173 126.017 16.1312 126.017 17.7475C126.017 19.3639 125.012 20.4778 123.418 20.4778C121.845 20.4778 120.753 19.3857 120.753 17.7475Z"/><path d="M129.761 19.757C129.848 21.9631 131.596 23.492 134.348 23.492C136.991 23.492 138.826 22.0941 138.826 19.8444C138.826 18.2281 137.865 17.1578 136.073 16.7209L134.13 16.2404C133.431 16.0657 132.994 15.8909 132.994 15.323C132.994 14.7551 133.452 14.3838 134.13 14.3838C134.894 14.3838 135.396 14.8862 135.375 15.6288H138.411C138.323 13.3572 136.598 11.9375 134.195 11.9375C131.771 11.9375 129.958 13.3791 129.958 15.5633C129.958 17.0267 130.766 18.2281 132.928 18.796L134.85 19.2983C135.418 19.4512 135.658 19.7133 135.658 20.0846C135.658 20.6307 135.156 20.9802 134.304 20.9802C133.321 20.9802 132.797 20.5215 132.797 19.757H129.761Z"/><path d="M143.974 23.4862C145.307 23.4862 146.639 22.8747 147.316 21.9792L147.535 23.2024H150.702V12.2812H147.338V17.9602C147.338 19.5983 146.858 20.4939 145.307 20.4939C144.105 20.4939 143.319 19.9478 143.319 17.9165V12.2812H139.955V19.1397C139.955 21.739 141.397 23.4862 143.974 23.4862Z"/><path d="M156.036 23.2065V17.2436C156.036 15.4088 157.019 14.8846 157.98 14.8846C159.05 14.8846 159.749 15.5399 159.749 16.8941V23.2065H163.069V17.2436C163.069 15.387 164.03 14.8628 164.991 14.8628C166.061 14.8628 166.782 15.518 166.782 16.8941V23.2065H170.059V16.0641C170.059 13.5741 168.748 11.9141 165.93 11.9141C164.358 11.9141 163.069 12.6785 162.501 13.858C161.846 12.6785 160.71 11.9141 158.897 11.9141C157.696 11.9141 156.582 12.4601 155.927 13.3338L155.796 12.2854H152.65V23.2065H156.036Z"/><path d="M0 16.7578C0 7.92125 7.16344 0.757812 16 0.757812H37C45.8366 0.757812 53 7.92125 53 16.7578V32.7578H16C7.16344 32.7578 0 25.5944 0 16.7578Z"/><path d="M37 6.75781H16C10.4772 6.75781 6 11.235 6 16.7578C6 22.2807 10.4772 26.7578 16 26.7578H37C42.5228 26.7578 47 22.2807 47 16.7578C47 11.235 42.5228 6.75781 37 6.75781Z"/><path d="M16 21.7578C18.7614 21.7578 21 19.5192 21 16.7578C21 13.9964 18.7614 11.7578 16 11.7578C13.2386 11.7578 11 13.9964 11 16.7578C11 19.5192 13.2386 21.7578 16 21.7578Z"/><path d="M14 15.7578C14.5523 15.7578 15 15.3101 15 14.7578C15 14.2055 14.5523 13.7578 14 13.7578C13.4477 13.7578 13 14.2055 13 14.7578C13 15.3101 13.4477 15.7578 14 15.7578Z"/><path d="M38 21.7578C40.7614 21.7578 43 19.5192 43 16.7578C43 13.9964 40.7614 11.7578 38 11.7578C35.2386 11.7578 33 13.9964 33 16.7578C33 19.5192 35.2386 21.7578 38 21.7578Z"/><path d="M36 15.7578C36.5523 15.7578 37 15.3101 37 14.7578C37 14.2055 36.5523 13.7578 36 13.7578C35.4477 13.7578 35 14.2055 35 14.7578C35 15.3101 35.4477 15.7578 36 15.7578Z"/></g><defs><clipPath id="fclip0_506_184"><rect width="171" height="32" transform="translate(0 0.757812)"/></clipPath></defs></symbol><symbol viewBox="0 0 24 25" id="heart" xmlns="http://www.w3.org/2000/svg"><path fill-rule="evenodd" clip-rule="evenodd" d="M12.6924 7.58373C12.3055 7.95505 11.6945 7.95505 11.3076 7.58373L10.6152 6.91927C9.80477 6.14154 8.70994 5.66667 7.5 5.66667C5.01472 5.66667 3 7.68139 3 10.1667C3 12.5493 4.28979 14.5167 6.15176 16.1332C8.01532 17.7511 10.2434 18.8241 11.5746 19.3717C11.853 19.4862 12.147 19.4862 12.4254 19.3717C13.7566 18.8241 15.9847 17.7511 17.8482 16.1332C19.7102 14.5167 21 12.5493 21 10.1667C21 7.68139 18.9853 5.66667 16.5 5.66667C15.2901 5.66667 14.1952 6.14154 13.3848 6.91927L12.6924 7.58373ZM12 5.47624C10.8321 4.35548 9.24649 3.66667 7.5 3.66667C3.91015 3.66667 1 6.57682 1 10.1667C1 16.5349 7.97034 20.0517 10.8138 21.2214C11.5796 21.5364 12.4204 21.5364 13.1862 21.2214C16.0297 20.0517 23 16.5349 23 10.1667C23 6.57682 20.0899 3.66667 16.5 3.66667C14.7535 3.66667 13.1679 4.35548 12 5.47624Z"/></symbol><symbol viewBox="0 0 24 24" id="heart-line" xmlns="http://www.w3.org/2000/svg"><path d="M12.001 4.52853C14.35 2.42 17.98 2.49 20.2426 4.75736C22.5053 7.02472 22.583 10.637 20.4786 12.993L11.9999 21.485L3.52138 12.993C1.41705 10.637 1.49571 7.01901 3.75736 4.75736C6.02157 2.49315 9.64519 2.41687 12.001 4.52853ZM18.827 6.1701C17.3279 4.66794 14.9076 4.60701 13.337 6.01687L12.0019 7.21524L10.6661 6.01781C9.09098 4.60597 6.67506 4.66808 5.17157 6.17157C3.68183 7.66131 3.60704 10.0473 4.97993 11.6232L11.9999 18.6543L19.0201 11.6232C20.3935 10.0467 20.319 7.66525 18.827 6.1701Z"/></symbol><symbol viewBox="0 0 24 24" id="id-card-line" xmlns="http://www.w3.org/2000/svg"><path d="M3 6H21V18H3V6ZM2 4C1.44772 4 1 4.44772 1 5V19C1 19.5523 1.44772 20 2 20H22C22.5523 20 23 19.5523 23 19V5C23 4.44772 22.5523 4 22 4H2ZM13 8H19V10H13V8ZM18 12H13V14H18V12ZM10.5 10C10.5 11.3807 9.38071 12.5 8 12.5C6.61929 12.5 5.5 11.3807 5.5 10C5.5 8.61929 6.61929 7.5 8 7.5C9.38071 7.5 10.5 8.61929 10.5 10ZM8 13.5C6.067 13.5 4.5 15.067 4.5 17H11.5C11.5 15.067 9.933 13.5 8 13.5Z"/></symbol><symbol viewBox="0 0 24 24" id="search" xmlns="http://www.w3.org/2000/svg"><path d="M18.5 18.5L22 22M21 11.5C21 6.25329 16.7467 2 11.5 2C6.25329 2 2 6.25329 2 11.5C2 16.7467 6.25329 21 11.5 21C16.7467 21 21 16.7467 21 11.5Z" stroke-width="1.5" stroke-linecap="round" stroke-linejoin="round"/></symbol><symbol viewBox="0 0 24 24" id="search-line" xmlns="http://www.w3.org/2000/svg"><path d="M18.031 16.6168L22.3137 20.8995L20.8995 22.3137L16.6168 18.031C15.0769 19.263 13.124 20 11 20C6.032 20 2 15.968 2 11C2 6.032 6.032 2 11 2C15.968 2 20 6.032 20 11C20 13.124 19.263 15.0769 18.031 16.6168ZM16.0247 15.8748C17.2475 14.6146 18 12.8956 18 11C18 7.1325 14.8675 4 11 4C7.1325 4 4 7.1325 4 11C4 14.8675 7.1325 18 11 18C12.8956 18 14.6146 17.2475 15.8748 16.0247L16.0247 15.8748Z"/></symbol><symbol viewBox="0 0 19 12" id="slider--slider-left" xmlns="http://www.w3.org/2000/svg"><path d="M0.469669 6.28814C0.176776 5.99525 0.176776 5.52038 0.469669 5.22748L5.24264 0.454513C5.53553 0.16162 6.01041 0.16162 6.3033 0.454513C6.59619 0.747406 6.59619 1.22228 6.3033 1.51517L2.06066 5.75781L6.3033 10.0005C6.59619 10.2933 6.59619 10.7682 6.3033 11.0611C6.01041 11.354 5.53553 11.354 5.24264 11.0611L0.469669 6.28814ZM19 6.50781L0.999999 6.50781L0.999999 5.00781L19 5.00781L19 6.50781Z"/></symbol><symbol viewBox="0 0 19 12" id="slider--slider-right" xmlns="http://www.w3.org/2000/svg"><path d="M18.5303 6.28814C18.8232 5.99525 18.8232 5.52038 18.5303 5.22748L13.7574 0.454513C13.4645 0.16162 12.9896 0.16162 12.6967 0.454513C12.4038 0.747406 12.4038 1.22228 12.6967 1.51517L16.9393 5.75781L12.6967 10.0005C12.4038 10.2933 12.4038 10.7682 12.6967 11.0611C12.9896 11.354 13.4645 11.354 13.7574 11.0611L18.5303 6.28814ZM-6.55671e-08 6.50781L18 6.50781L18 5.00781L6.55671e-08 5.00781L-6.55671e-08 6.50781Z"/></symbol><symbol viewBox="0 0 12 15" id="slider--slider-top" xmlns="http://www.w3.org/2000/svg"><path d="M6.53033 0.329045C6.23744 0.0361519 5.76256 0.0361519 5.46967 0.329045L0.6967 5.10202C0.403807 5.39491 0.403807 5.86978 0.6967 6.16268C0.989593 6.45557 1.46447 6.45557 1.75736 6.16268L6 1.92004L10.2426 6.16268C10.5355 6.45557 11.0104 6.45557 11.3033 6.16268C11.5962 5.86978 11.5962 5.39491 11.3033 5.10202L6.53033 0.329045ZM6.75 14.8594L6.75 0.859375L5.25 0.859375L5.25 14.8594L6.75 14.8594Z"/></symbol><symbol shape-rendering="geometricPrecision" text-rendering="geometricPrecision" image-rendering="optimizeQuality" fill-rule="evenodd" clip-rule="evenodd" viewBox="0 0 512 490.72" id="timeline-book-icon" xmlns="http://www.w3.org/2000/svg"><path fill-rule="nonzero" d="M50.09 306.91c.55-96.5 1.09-192.97 1.64-289.09.02-6.41 4.57-11.74 10.6-12.99v-.02c65.64-13.7 151.75.77 194.37 57.41C301.6 7.12 384.41-5.06 450.97 4.66c6.64.97 11.43 6.68 11.42 13.21h.01v290.22c0 7.39-5.98 13.37-13.37 13.37-1.06 0-2.1-.13-3.09-.36-3.64-.57-7.25-1.03-10.85-1.39-1.99-9.64-5.71-19.33-11.48-27.32 3.99.12 12 4.34 16.06 4.66V25.71c-58.96-5.58-136.09 10.13-170.09 64.32V150c-8.24-2.32-18.19-2.78-26.74-1.44V89.63C210.98 33.51 131.58 17.1 72.8 25.08V297.9c14.12-.51 32.12-4.27 45.9-3.13l-.49 1.03c-3.59 7.92-5.18 16.47-5.28 25.13-16.02-1.14-32.25-.91-48.43.48-8.24.68-13.97-5.91-14.41-14.5zm182.36 52.78c0 4.3-3.5 7.79-7.8 7.79-4.31 0-7.8-3.49-7.8-7.79v-14.42c-.42-.22-.82-.48-1.2-.79-4.59-3.66-9.89-7.96-14.53-11.76l-20.08-16.4c-11.45-9.4-25.14-10.47-23.87 8.95.28 4.29 1.78 9 3.76 13.51 2.98 6.74 6.31 12.19 9.22 16.07l59.75 90.36c.69 1.05 1.1 2.21 1.24 3.37 1.18 9.76 3.25 17.07 6.31 21.65 2.21 3.32 5.09 5.01 8.67 4.92 29.45-.59 63.83-1.19 93.04-.01 5.75-.08 11.02-1.78 15.79-5.06 9.84-6.78 17.52-21.8 23.34-32.4 8.39-15.31 15.28-30.83 16.19-48.51-.26-11.29-.75-22.61-.6-33.9.15-12.64.33-26.2-5.59-34.5-5.35-7.5-12.17-6.21-20.23-6.21-.02 0-.7 13.48-.79 14.84-.27 4.36-.54 7.32-.54 11.29 0 4.3-3.49 7.8-7.8 7.8-4.3 0-7.8-3.5-7.8-7.8 0-4.02.3-8.69.6-13.51.74-11.72 1.56-23.43-2.75-30.81-4.26-7.29-11.26-5.78-18.47-5.78-.58 0-1.13-.07-1.68-.18.09 5.98-.29 10.92-.67 16.89-.27 4.36-.55 8.57-.55 12.55 0 4.3-3.49 7.8-7.8 7.8-4.3 0-7.79-3.5-7.79-7.8 0-4.02.29-8.7.6-13.53.82-12.98 1.73-26.24-4.34-32.98-4.33-4.81-11.03-3.6-16.88-3.6-.71 0-1.39-.09-2.05-.27v28.95c0 4.3-3.49 7.8-7.8 7.8-4.3 0-7.8-3.5-7.8-7.8v-74.98c0-36.58-41.3-37.43-41.3.32v135.93zm-15.6-34.28v-102.9c0-58.45 72.5-57.47 72.5-.32v30.98c.66-.18 1.34-.27 2.05-.27 10.22 0 18.85-.87 27.39 6.59 4.41 3.84 6.99 9.04 8.43 14.97 1-.46 2.11-.72 3.29-.72 11.66 0 22.47-.71 30.65 10.07 2.97 3.91 4.73 8.71 5.71 13.99.39-.07.78-.09 1.19-.09 12.03 0 22.03-.63 31.28 9.57 10.52 11.6 10.28 31.32 10.08 48.17-.05 11.46.5 22.86.6 34.3-1.01 20.59-8.43 37.71-17.48 54.32-7.44 13.65-15.87 29.92-28.76 38.8-7.4 5.1-15.59 7.72-24.56 7.81l-92.91.04c-9.27.15-16.48-3.9-21.78-11.84-4.26-6.38-7.1-15.33-8.62-26.61l-58.47-88.46c-3.44-4.66-8-11.7-11.39-19.38-6.81-15.46-9.46-41.17 9.68-48.94 11.68-4.76 25.48.66 34.58 8.2l26.54 21.72zm220.48 35.12c16.53 2.43 36.64 5.71 51.93 9.65 0-101.24-.01-206.51-.01-307.73 10.37 0 22.75-2.07 22.75 13.37v307.85c0 9.23-9.1 15.58-17.68 12.66-18.27-5.23-37.22-9.58-56.46-12.67-.17-9.04-.54-14.08-.53-23.13zm-303.77 17.91c-39.37.38-79 7.33-115.88 17.89C9.1 399.25 0 392.9 0 383.67V75.82c0-15.44 12.37-13.37 22.74-13.37v307.73c28.93-7.45 64.46-12.53 96.23-13.97 3.63 9.12 8.92 14.24 14.59 22.23z"/></symbol><symbol id="timeline-drive-icon" viewBox="0 0 451.043 451.043" xml:space="preserve" xmlns="http://www.w3.org/2000/svg"><g><path d="M384.99,66.054C342.394,23.459,285.761,0,225.521,0C165.283,0,108.649,23.459,66.054,66.054S0,165.283,0,225.522   S23.458,342.394,66.054,384.99s99.229,66.054,159.468,66.054c60.239,0,116.873-23.458,159.468-66.054   c42.595-42.595,66.054-99.229,66.054-159.468S427.585,108.649,384.99,66.054z M225.521,433.043   C111.094,433.043,18,339.949,18,225.522S111.094,18,225.521,18c114.428,0,207.522,93.094,207.522,207.521   S339.95,433.043,225.521,433.043z"/><path d="M225.521,38.13c-103.329,0-187.392,84.063-187.392,187.392s84.063,187.393,187.392,187.393s187.393-84.064,187.393-187.393   S328.85,38.13,225.521,38.13z M247.834,359.302h-44.641c-16.87-56.333-59.586-101.839-114.825-122.151l15.428-65.49   c39.619-9.641,80.54-14.541,121.728-14.541c41.202,0,82.119,4.902,121.724,14.551l15.425,65.474   C307.427,257.452,264.705,302.961,247.834,359.302z M56.129,225.522c0-14.331,1.796-28.25,5.163-41.55   c7.531-2.541,15.146-4.912,22.784-7.099l-12.931,54.889c-4.915-1.282-9.909-2.375-14.978-3.261   C56.15,227.509,56.129,226.518,56.129,225.522z M379.898,231.759l-12.929-54.881c7.645,2.187,15.26,4.558,22.784,7.1   c3.365,13.298,5.161,27.215,5.161,41.544c0,0.995-0.021,1.986-0.038,2.977C389.807,229.385,384.813,230.477,379.898,231.759z    M225.521,56.13c71.27,0,132.395,44.246,157.365,106.709c-8.598-2.664-17.266-5.112-25.917-7.308   c-42.686-10.888-86.91-16.409-131.445-16.409c-44.517,0-88.744,5.518-131.45,16.398c-8.646,2.2-17.313,4.651-25.917,7.317   C93.128,100.374,154.252,56.13,225.521,56.13z M57.492,247.061c70.855,14.342,125.07,72.703,134.195,144.456   C121.328,377.198,66.678,319.13,57.492,247.061z M210.102,394.205c-0.572-5.71-1.397-11.349-2.472-16.903h35.769   c-1.076,5.554-1.9,11.194-2.472,16.905c-5.076,0.46-10.211,0.708-15.405,0.708C220.323,394.914,215.182,394.666,210.102,394.205z    M259.341,391.52c9.125-71.766,63.347-130.129,134.211-144.462C384.366,319.134,329.708,377.205,259.341,391.52z"/><path d="M225.521,174.343c-28.22,0-51.179,22.959-51.179,51.179c0,28.221,22.959,51.18,51.179,51.18   c28.221,0,51.18-22.959,51.18-51.18C276.701,197.302,253.742,174.343,225.521,174.343z M225.521,258.701   c-18.295,0-33.179-14.884-33.179-33.18c0-18.295,14.884-33.179,33.179-33.179c18.295,0,33.18,14.884,33.18,33.179   C258.701,243.817,243.817,258.701,225.521,258.701z"/></g></symbol><symbol viewBox="-1.5 0 32 32" id="timeline-return-icon" xmlns="http://www.w3.org/2000/svg"><g id="nicomoon-ignore"/><path d="M5.867 15.467c-1.173 0-2.133 0.96-2.133 2.133s0.96 2.133 2.133 2.133 2.133-0.96 2.133-2.133-0.96-2.133-2.133-2.133zM5.867 18.667c-0.587 0-1.067-0.48-1.067-1.067s0.48-1.067 1.067-1.067c0.587 0 1.067 0.48 1.067 1.067s-0.48 1.067-1.067 1.067z"/><path d="M22.933 15.467c-1.173 0-2.133 0.96-2.133 2.133s0.96 2.133 2.133 2.133c1.173 0 2.133-0.96 2.133-2.133s-0.96-2.133-2.133-2.133zM22.933 18.667c-0.587 0-1.067-0.48-1.067-1.067s0.48-1.067 1.067-1.067c0.587 0 1.067 0.48 1.067 1.067s-0.48 1.067-1.067 1.067z"/><path d="M25.12 11.2l-0.907-4.267c-0.373-1.387-1.44-2.133-2.88-2.133h-13.867c-1.493 0-2.347 0.747-2.773 2.133l-0.96 4.267h-3.733v1.067h3.467v0.053c-1.653 0.107-2.933 1.493-2.933 3.2v7.413h1.6v1.6c0 1.493 1.173 2.667 2.667 2.667s2.667-1.173 2.667-2.667v-1.6h13.867v1.6c0 1.493 1.173 2.667 2.667 2.667s2.667-1.173 2.667-2.667v-1.6h1.6v-7.413c0-1.653-1.28-3.040-2.88-3.2v-0.053h3.413v-1.067h-3.68zM5.707 7.253c0.32-0.96 0.8-1.387 1.76-1.387h13.867c1.013 0 1.6 0.427 1.867 1.333l1.067 5.12h-19.733l1.173-5.067zM6.4 24.533c0 0.907-0.693 1.6-1.6 1.6s-1.6-0.693-1.6-1.6v-1.6h3.2v1.6zM25.6 24.533c0 0.907-0.693 1.6-1.6 1.6s-1.6-0.693-1.6-1.6v-1.6h3.2v1.6zM27.2 15.52v6.347h-25.6v-6.347c0-1.173 0.96-2.133 2.133-2.133h21.333c1.173 0 2.133 0.96 2.133 2.133z"/></symbol><symbol id="timeline-select-icon" viewBox="0 0 84.91 122.88" style="enable-background:new 0 0 84.91 122.88" xml:space="preserve" xmlns="http://www.w3.org/2000/svg"><g><path d="M26.6,80.57c-0.11-0.06-0.25-0.14-0.37-0.23c-1.49-1.18-3.13-2.51-4.54-3.66c-2.06-1.69-4.43-3.64-6.09-5.02 c-1.13-0.93-2.42-1.58-3.63-1.83c-0.79-0.14-1.49-0.14-2.06,0.08c-0.45,0.2-0.85,0.56-1.1,1.13c-0.34,0.76-0.51,1.83-0.42,3.3 c0.08,1.3,0.54,2.71,1.13,4.09c0.87,2,2.09,3.86,2.99,5.04c0.06,0.08,0.11,0.14,0.14,0.23l17.84,25.48 c0.23,0.34,0.37,0.71,0.39,1.07c0.37,2.93,0.99,5.16,1.89,6.54c0.68,1.01,1.52,1.52,2.62,1.49h28.07c1.75-0.03,3.33-0.53,4.79-1.55 c1.61-1.1,3.04-2.82,4.37-5.13c0.03-0.03,0.06-0.08,0.08-0.11c0.51-0.87,1.18-2,1.83-3.07c2.85-4.68,5.33-8.77,5.61-14.57l-0.17-8 c-0.03-0.11-0.03-0.23-0.03-0.34s0-0.87,0.03-1.89c0.06-5.3,0.14-11.84-4.71-12.65h-3.13c-0.03,1.49-0.11,3.02-0.2,4.48 c-0.08,1.32-0.17,2.56-0.17,3.78c0,1.3-1.04,2.34-2.34,2.34c-1.3,0-2.34-1.04-2.34-2.34c0-1.21,0.08-2.62,0.17-4.09 c0.31-4.99,0.68-10.71-3.3-11.41h-3.1c-0.17,0-0.34-0.03-0.51-0.06c0.03,1.8-0.08,3.66-0.2,5.47C60.08,70.46,60,71.7,60,72.91 c0,1.3-1.04,2.34-2.34,2.34c-1.3,0-2.34-1.04-2.34-2.34c0-1.21,0.08-2.62,0.17-4.09c0.31-4.99,0.68-10.71-3.3-11.41h-3.1 c-0.23,0-0.42-0.03-0.62-0.08v9.1c0,1.3-1.04,2.34-2.34,2.34c-1.3,0-2.34-1.04-2.34-2.34V41.99c0-4.09-1.66-6.68-3.8-7.75 c-0.79-0.4-1.63-0.59-2.45-0.59c-0.82,0-1.66,0.2-2.45,0.59c-2.11,1.07-3.75,3.66-3.75,7.86v42.81c0,1.3-1.04,2.34-2.34,2.34 c-1.3,0-2.34-1.04-2.34-2.34v-4.34H26.6L26.6,80.57z M39.29,13.99c0,1.55-1.26,2.78-2.78,2.78c-1.55,0-2.78-1.26-2.78-2.78V2.78 c0-1.55,1.26-2.78,2.78-2.78c1.55,0,2.78,1.26,2.78,2.78V13.99L39.29,13.99L39.29,13.99z M13.99,36.95c1.55,0,2.78,1.26,2.78,2.78 c0,1.55-1.26,2.78-2.78,2.78H2.78C1.23,42.5,0,41.24,0,39.73c0-1.55,1.26-2.78,2.78-2.78H13.99L13.99,36.95z M21.92,20.33 c1.08,1.08,1.08,2.85,0,3.93c-1.08,1.08-2.85,1.08-3.93,0l-7.9-7.93c-1.08-1.08-1.08-2.85,0-3.93c1.08-1.08,2.85-1.08,3.93,0 L21.92,20.33L21.92,20.33z M58.47,42.5c-1.55,0-2.78-1.26-2.78-2.78c0-1.55,1.26-2.78,2.78-2.78h11.21c1.55,0,2.78,1.26,2.78,2.78 c0,1.55-1.26,2.78-2.78,2.78H58.47L58.47,42.5z M54.47,23.65c-1.08,1.08-2.85,1.08-3.93,0c-1.08-1.08-1.08-2.85,0-3.93l7.9-7.93 c1.08-1.08,2.85-1.08,3.93,0c1.08,1.08,1.08,2.85,0,3.93L54.47,23.65L54.47,23.65z M48.47,52.79c0.2-0.06,0.39-0.08,0.62-0.08h3.24 c0.17,0,0.37,0.03,0.53,0.06c4.31,0.68,6.26,3.19,7.05,6.45c0.31-0.14,0.65-0.23,0.99-0.23h3.24c0.17,0,0.37,0.03,0.53,0.06 c4.65,0.73,6.51,3.58,7.19,7.19c0.11-0.03,0.23-0.03,0.37-0.03h3.24c0.17,0,0.37,0.03,0.54,0.06c8.91,1.38,8.79,10.23,8.71,17.36 v1.86l0.2,8.23v0.25c-0.34,7.02-3.1,11.56-6.28,16.8c-0.54,0.87-1.07,1.77-1.8,3.02c-0.03,0.03-0.03,0.06-0.06,0.08 c-1.66,2.9-3.58,5.13-5.78,6.65c-2.23,1.55-4.71,2.34-7.41,2.37H35.53c-2.79,0.06-4.96-1.16-6.57-3.55c-1.3-1.92-2.14-4.62-2.59-8 L8.9,86.35l-0.09-0.08c-1.04-1.38-2.45-3.55-3.52-5.95c-0.79-1.8-1.38-3.75-1.52-5.67c-0.14-2.28,0.17-4.09,0.82-5.52 c0.79-1.78,2.09-2.93,3.64-3.55c1.44-0.59,3.07-0.68,4.71-0.34c1.97,0.4,4,1.38,5.72,2.82c1.41,1.18,3.78,3.1,6.09,4.99l1.92,1.58 V42.13c0-6.23,2.76-10.23,6.34-12.04c1.44-0.73,2.99-1.1,4.57-1.1c1.58,0,3.13,0.37,4.56,1.1c3.58,1.8,6.4,5.83,6.4,11.95v10.76 L48.47,52.79L48.47,52.79z"/></g></symbol><symbol viewBox="0 0 24 24" id="user" xmlns="http://www.w3.org/2000/svg"><path d="M18.5588 19.5488C17.5654 16.8918 15.0036 15 12 15C8.99638 15 6.4346 16.8918 5.44117 19.5488M18.5588 19.5488C20.6672 17.7154 22 15.0134 22 12C22 6.47715 17.5228 2 12 2C6.47715 2 2 6.47715 2 12C2 15.0134 3.33285 17.7154 5.44117 19.5488M18.5588 19.5488C16.8031 21.0756 14.5095 22 12 22C9.49052 22 7.19694 21.0756 5.44117 19.5488M15 9C15 10.6569 13.6569 12 12 12C10.3431 12 9 10.6569 9 9C9 7.34315 10.3431 6 12 6C13.6569 6 15 7.34315 15 9Z" stroke-width="1.5" stroke-linejoin="round"/></symbol><symbol viewBox="0 0 24 24" id="user-star-line" xmlns="http://www.w3.org/2000/svg"><path d="M12 14V16C8.68629 16 6 18.6863 6 22H4C4 17.5817 7.58172 14 12 14ZM12 13C8.685 13 6 10.315 6 7C6 3.685 8.685 1 12 1C15.315 1 18 3.685 18 7C18 10.315 15.315 13 12 13ZM12 11C14.21 11 16 9.21 16 7C16 4.79 14.21 3 12 3C9.79 3 8 4.79 8 7C8 9.21 9.79 11 12 11ZM18 21.5L15.0611 23.0451L15.6224 19.7725L13.2447 17.4549L16.5305 16.9775L18 14L19.4695 16.9775L22.7553 17.4549L20.3776 19.7725L20.9389 23.0451L18 21.5Z"/></symbol><symbol id="website" enable-background="new 0 0 497 497" viewBox="0 0 497 497" xmlns="http://www.w3.org/2000/svg"><g><path d="m497 128.5v312c0 11.046-8.954 20-20 20h-457c-11.046 0-20-8.954-20-20v-312z"/><g><path d="m290.498 294.5c0-23.196-18.804-42-42-42-7.031 0-13.659 1.728-19.482 4.782-13.386 7.021-19.327 21.053-19.327 37.218 0 23.196 15.613 36.457 38.809 36.457 16.214 0 30.282-3.645 37.282-17.099 3.014-5.792 4.718-12.376 4.718-19.358z"/><path d="m286.468 312.47c-6.73 14.21-21.2 24.03-37.97 24.03-23.2 0-42-18.8-42-42 0-16.77 9.82-31.24 24.03-37.97-2.59 5.45-4.03 11.54-4.03 17.97 0 23.2 18.8 42 42 42 6.43 0 12.52-1.44 17.97-4.03z"/></g><g><path d="m429.496 294.5c0-23.196-18.804-42-42-42-7.031 0-13.659 1.728-19.482 4.782-13.386 7.021-19.327 21.053-19.327 37.218 0 23.196 15.613 36.457 38.809 36.457 16.214 0 30.282-3.645 37.282-17.099 3.014-5.792 4.718-12.376 4.718-19.358z"/><path d="m425.466 312.47c-6.73 14.21-21.2 24.03-37.97 24.03-23.2 0-42-18.8-42-42 0-16.77 9.82-31.24 24.03-37.97-2.59 5.45-4.03 11.54-4.03 17.97 0 23.2 18.8 42 42 42 6.43 0 12.52-1.44 17.97-4.03z"/></g><path d="m497 148.5v-20l-276.011-12.798-220.989 12.798v20 292c0 11.046 8.954 20 20 20h15c-8.28 0-15-6.72-15-15v-291c0-3.314 2.686-6 6-6z"/><g><path d="m497 56.5v72.5h-497v-72.5c0-11.046 8.954-20 20-20h457c11.046 0 20 8.954 20 20z"/><g><path d="m227.758 108.5c-8.255 0-14.947-6.716-14.947-15s6.692-15 14.947-15h208.315c8.255 0 14.947 6.716 14.947 15s-6.692 15-14.947 15z"/><ellipse cx="160.869" cy="93.5" rx="14.947" ry="15"/><path d="m171.361 104.184 12.874-12.869-13.139 1.179z"/><path d="m150.592 82.608 12.562-12.516-2.693 10.408z"/><ellipse cx="98.034" cy="93.5" rx="14.947" ry="15"/><path d="m108.553 104.157 12.382-12.499-12.674.836z"/><path d="m87.757 82.608 12.371-12.459-2.502 10.351z"/><ellipse cx="32.947" cy="93.5" rx="14.947" ry="15"/><path d="m43.769 103.846 12.721-13.186-13.139 1.381z"/><path d="m22.67 82.608 11.622-12.038-1.753 9.93z"/></g><ellipse cx="173.849" cy="80.5" rx="14.947" ry="15"/><path d="m217.514 82.577 12.971-12.991-3.025 14.276z"/><path d="m446.83 103.915 13.149-13.179-10.185 3.381z"/><ellipse cx="110.946" cy="80.5" rx="14.947" ry="15"/><ellipse cx="45.495" cy="80.5" rx="14.947" ry="15"/><path d="m240.737 95.5c-8.255 0-14.947-6.716-14.947-15s6.692-15 14.947-15h208.315c8.255 0 14.947 6.716 14.947 15s-6.692 15-14.947 15z"/></g><path d="m135.893 215 226.628 2c5.523 0 10-4.477 10-10l3.479-7v-30c0-5.523-4.477-10-10-10h-224l-6.107 5c-5.523 0-10 4.477-10 10v30c0 5.523 4.477 10 10 10z"/><path d="m376 200v10c0 5.523-4.477 10-10 10h-234c-5.523 0-10-4.477-10-10v-40c0-5.523 4.477-10 10-10h10v33c0 3.866 3.134 7 7 7z"/><g><path d="m151.5 294.5c0-23.196-18.804-42-42-42-7.031 0-13.659 1.728-19.482 4.782-13.386 7.021-19.327 21.053-19.327 37.218 0 23.196 15.613 36.457 38.809 36.457 16.214 0 30.282-3.645 37.282-17.099 3.014-5.792 4.718-12.376 4.718-19.358z"/><path d="m147.47 312.47c-6.73 14.21-21.2 24.03-37.97 24.03-23.2 0-42-18.8-42-42 0-16.77 9.82-31.24 24.03-37.97-2.59 5.45-4.03 11.54-4.03 17.97 0 23.2 18.8 42 42 42 6.43 0 12.52-1.44 17.97-4.03z"/></g><g><g><path d="m149.5 374h-70c-4.142 0-7.5-3.358-7.5-7.5s3.358-7.5 7.5-7.5h70c4.142 0 7.5 3.358 7.5 7.5s-3.358 7.5-7.5 7.5z"/></g><g><path d="m149.5 404h-80c-4.142 0-7.5-3.358-7.5-7.5s3.358-7.5 7.5-7.5h80c4.142 0 7.5 3.358 7.5 7.5s-3.358 7.5-7.5 7.5z"/></g><g><path d="m149.5 434h-80c-4.142 0-7.5-3.358-7.5-7.5s3.358-7.5 7.5-7.5h80c4.142 0 7.5 3.358 7.5 7.5s-3.358 7.5-7.5 7.5z"/></g></g><g><g><path d="m288.5 374h-70c-4.142 0-7.5-3.358-7.5-7.5s3.358-7.5 7.5-7.5h70c4.143 0 7.5 3.358 7.5 7.5s-3.357 7.5-7.5 7.5z"/></g><g><path d="m288.5 404h-80c-4.142 0-7.5-3.358-7.5-7.5s3.358-7.5 7.5-7.5h80c4.143 0 7.5 3.358 7.5 7.5s-3.357 7.5-7.5 7.5z"/></g><g><path d="m288.5 434h-80c-4.142 0-7.5-3.358-7.5-7.5s3.358-7.5 7.5-7.5h80c4.143 0 7.5 3.358 7.5 7.5s-3.357 7.5-7.5 7.5z"/></g></g><g><g><path d="m427.5 374h-70c-4.143 0-7.5-3.358-7.5-7.5s3.357-7.5 7.5-7.5h70c4.143 0 7.5 3.358 7.5 7.5s-3.357 7.5-7.5 7.5z"/></g><g><path d="m427.5 404h-80c-4.143 0-7.5-3.358-7.5-7.5s3.357-7.5 7.5-7.5h80c4.143 0 7.5 3.358 7.5 7.5s-3.357 7.5-7.5 7.5z"/></g><g><path d="m427.5 434h-80c-4.143 0-7.5-3.358-7.5-7.5s3.357-7.5 7.5-7.5h80c4.143 0 7.5 3.358 7.5 7.5s-3.357 7.5-7.5 7.5z"/></g></g></g></symbol></svg>