<svg width="63" height="63" viewBox="0 0 63 63" fill="none" xmlns="http://www.w3.org/2000/svg">
<g clip-path="url(#clip0_808_107)">
<path d="M18.1984 40.9516H44.0064C44.3652 40.9522 44.7181 40.8608 45.0315 40.6861C45.3449 40.5115 45.6084 40.2595 45.7967 39.9542C45.9851 39.6488 46.0921 39.3003 46.1075 38.9419C46.1229 38.5834 46.0463 38.227 45.8848 37.9066L42.5532 31.2517C42.1218 30.3773 41.4533 29.6418 40.6239 29.129C39.7946 28.6162 38.8379 28.3468 37.8628 28.3516H24.8218C23.8973 28.3526 22.9894 28.5971 22.1894 29.0605C21.3894 29.5239 20.7256 30.1898 20.2648 30.9913L16.3735 37.8163C16.1926 38.1356 16.0985 38.4968 16.1006 38.8638C16.1027 39.2308 16.201 39.5908 16.3856 39.908C16.5703 40.2252 16.8348 40.4885 17.1529 40.6716C17.4709 40.8547 17.8314 40.9512 18.1984 40.9516ZM32.5498 30.4516H37.8628C38.4473 30.449 39.0208 30.6109 39.5176 30.9187C40.0145 31.2266 40.4148 31.668 40.6726 32.1925L44.0116 38.8516H32.5498V30.4516ZM22.0897 32.034C22.3656 31.5531 22.7635 31.1536 23.2432 30.8758C23.7229 30.598 24.2675 30.4516 24.8218 30.4516H30.4498V38.8516H18.1984L22.0897 32.034Z" fill="#FD3B3B"/>
<path d="M35.6998 43.0469H33.5998C33.3213 43.0469 33.0543 43.1575 32.8573 43.3544C32.6604 43.5513 32.5498 43.8184 32.5498 44.0969C32.5498 44.3754 32.6604 44.6424 32.8573 44.8393C33.0543 45.0363 33.3213 45.1469 33.5998 45.1469H35.6998C35.9783 45.1469 36.2454 45.0363 36.4423 44.8393C36.6392 44.6424 36.7498 44.3754 36.7498 44.0969C36.7498 43.8184 36.6392 43.5513 36.4423 43.3544C36.2454 43.1575 35.9783 43.0469 35.6998 43.0469Z" fill="#FD3B3B"/>
<path d="M20.9996 43.0469H18.8996C18.6211 43.0469 18.3541 43.1575 18.1571 43.3544C17.9602 43.5513 17.8496 43.8184 17.8496 44.0969C17.8496 44.3754 17.9602 44.6424 18.1571 44.8393C18.3541 45.0363 18.6211 45.1469 18.8996 45.1469H20.9996C21.2781 45.1469 21.5452 45.0363 21.7421 44.8393C21.939 44.6424 22.0496 44.3754 22.0496 44.0969C22.0496 43.8184 21.939 43.5513 21.7421 43.3544C21.5452 43.1575 21.2781 43.0469 20.9996 43.0469Z" fill="#FD3B3B"/>
<path d="M14.6998 52.5C14.0768 52.5 13.4678 52.6847 12.9498 53.0309C12.4317 53.377 12.028 53.869 11.7896 54.4445C11.5512 55.0201 11.4888 55.6535 11.6103 56.2645C11.7319 56.8756 12.0319 57.4368 12.4724 57.8774C12.913 58.3179 13.4742 58.6179 14.0853 58.7395C14.6963 58.861 15.3297 58.7986 15.9053 58.5602C16.4808 58.3218 16.9728 57.9181 17.3189 57.4C17.6651 56.882 17.8498 56.273 17.8498 55.65C17.8498 54.8146 17.5179 54.0134 16.9272 53.4226C16.3365 52.8319 15.5352 52.5 14.6998 52.5ZM14.6998 56.7C14.4921 56.7 14.2891 56.6384 14.1165 56.523C13.9438 56.4077 13.8092 56.2437 13.7297 56.0518C13.6503 55.86 13.6295 55.6488 13.67 55.4452C13.7105 55.2415 13.8105 55.0544 13.9573 54.9075C14.1042 54.7607 14.2913 54.6607 14.495 54.6202C14.6986 54.5797 14.9098 54.6005 15.1016 54.6799C15.2935 54.7594 15.4575 54.894 15.5728 55.0667C15.6882 55.2393 15.7498 55.4423 15.7498 55.65C15.7498 55.9285 15.6392 56.1955 15.4423 56.3925C15.2454 56.5894 14.9783 56.7 14.6998 56.7Z" fill="#FD3B3B"/>
<path d="M47.2496 52.5C46.6266 52.5 46.0176 52.6847 45.4996 53.0309C44.9816 53.377 44.5778 53.869 44.3394 54.4445C44.101 55.0201 44.0386 55.6535 44.1601 56.2645C44.2817 56.8756 44.5817 57.4368 45.0222 57.8774C45.4628 58.3179 46.024 58.6179 46.6351 58.7395C47.2461 58.861 47.8795 58.7986 48.4551 58.5602C49.0306 58.3218 49.5226 57.9181 49.8687 57.4C50.2149 56.882 50.3996 56.273 50.3996 55.65C50.3996 54.8146 50.0677 54.0134 49.477 53.4226C48.8863 52.8319 48.085 52.5 47.2496 52.5ZM47.2496 56.7C47.0419 56.7 46.8389 56.6384 46.6663 56.523C46.4936 56.4077 46.359 56.2437 46.2795 56.0518C46.2001 55.86 46.1793 55.6488 46.2198 55.4452C46.2603 55.2415 46.3603 55.0544 46.5071 54.9075C46.654 54.7607 46.8411 54.6607 47.0448 54.6202C47.2484 54.5797 47.4596 54.6005 47.6514 54.6799C47.8433 54.7594 48.0073 54.894 48.1227 55.0667C48.238 55.2393 48.2996 55.4423 48.2996 55.65C48.2996 55.9285 48.189 56.1955 47.9921 56.3925C47.7952 56.5894 47.5281 56.7 47.2496 56.7Z" fill="#FD3B3B"/>
<path d="M18.8998 12.5969C18.8998 11.3509 18.5303 10.1328 17.8381 9.09679C17.1458 8.06076 16.1619 7.25327 15.0107 6.77644C13.8595 6.2996 12.5928 6.17484 11.3707 6.41793C10.1487 6.66102 9.02611 7.26103 8.14504 8.14211C7.26396 9.02318 6.66395 10.1457 6.42086 11.3678C6.17777 12.5899 6.30253 13.8566 6.77937 15.0078C7.2562 16.159 8.06369 17.1429 9.09971 17.8351C10.1357 18.5274 11.3538 18.8969 12.5998 18.8969C14.2702 18.8952 15.8716 18.2309 17.0527 17.0498C18.2339 15.8687 18.8981 14.2672 18.8998 12.5969ZM12.5998 16.7969C11.7691 16.7969 10.9571 16.5506 10.2664 16.0891C9.57573 15.6275 9.0374 14.9716 8.71951 14.2041C8.40163 13.4367 8.31845 12.5922 8.48051 11.7775C8.64257 10.9628 9.04258 10.2144 9.62996 9.62703C10.2173 9.03965 10.9657 8.63964 11.7804 8.47758C12.5951 8.31552 13.4396 8.3987 14.2071 8.71658C14.9745 9.03447 15.6305 9.5728 16.092 10.2635C16.5535 10.9542 16.7998 11.7662 16.7998 12.5969C16.7998 13.7108 16.3573 14.7791 15.5697 15.5667C14.782 16.3544 13.7137 16.7969 12.5998 16.7969Z" fill="#FD3B3B"/>
<path d="M12.5998 4.2C12.8783 4.2 13.1454 4.08938 13.3423 3.89246C13.5392 3.69555 13.6498 3.42848 13.6498 3.15V1.05C13.6498 0.771523 13.5392 0.504451 13.3423 0.307538C13.1454 0.110625 12.8783 0 12.5998 0C12.3213 0 12.0543 0.110625 11.8573 0.307538C11.6604 0.504451 11.5498 0.771523 11.5498 1.05V3.15C11.5498 3.42848 11.6604 3.69555 11.8573 3.89246C12.0543 4.08938 12.3213 4.2 12.5998 4.2Z" fill="#FD3B3B"/>
<path d="M6.96567 4.93869C7.10589 5.17789 7.33504 5.35191 7.6031 5.42278C7.87116 5.49365 8.15637 5.45562 8.3965 5.31698C8.63662 5.17834 8.81216 4.95036 8.8848 4.68277C8.95745 4.41519 8.92131 4.12973 8.78427 3.88869L7.73427 2.07009C7.66583 1.94972 7.57425 1.84407 7.46481 1.75922C7.35537 1.67438 7.23023 1.61203 7.09659 1.57574C6.96296 1.53946 6.82346 1.52997 6.68615 1.54782C6.54883 1.56567 6.41639 1.6105 6.29647 1.67974C6.17655 1.74898 6.07151 1.84126 5.9874 1.95126C5.90328 2.06126 5.84176 2.18681 5.80636 2.32068C5.77097 2.45456 5.7624 2.59411 5.78116 2.73131C5.79992 2.8685 5.84563 3.00064 5.91567 3.12009L6.96567 4.93869Z" fill="#FD3B3B"/>
<path d="M2.07302 7.73622L3.89162 8.78622C4.01108 8.85625 4.14322 8.90196 4.28041 8.92072C4.41761 8.93948 4.55716 8.93092 4.69104 8.89552C4.82491 8.86013 4.95046 8.7986 5.06046 8.71449C5.17046 8.63038 5.26274 8.52534 5.33198 8.40541C5.40121 8.28549 5.44605 8.15306 5.4639 8.01574C5.48175 7.87842 5.47226 7.73893 5.43597 7.60529C5.39969 7.47166 5.33734 7.34652 5.25249 7.23708C5.16765 7.12764 5.062 7.03606 4.94162 6.96762L3.12302 5.91762C3.00356 5.84759 2.87143 5.80188 2.73424 5.78312C2.59704 5.76436 2.45748 5.77292 2.32361 5.80832C2.18974 5.84371 2.06419 5.90524 1.95419 5.98935C1.84419 6.07346 1.75191 6.1785 1.68267 6.29843C1.61343 6.41835 1.5686 6.55078 1.55075 6.6881C1.5329 6.82542 1.54239 6.96491 1.57867 7.09855C1.61495 7.23218 1.67731 7.35732 1.76215 7.46676C1.847 7.5762 1.95265 7.66778 2.07302 7.73622Z" fill="#FD3B3B"/>
<path d="M1.05 13.6469H3.15C3.42848 13.6469 3.69555 13.5362 3.89246 13.3393C4.08938 13.1424 4.2 12.8754 4.2 12.5969C4.2 12.3184 4.08938 12.0513 3.89246 11.8544C3.69555 11.6575 3.42848 11.5469 3.15 11.5469H1.05C0.771523 11.5469 0.504451 11.6575 0.307538 11.8544C0.110625 12.0513 0 12.3184 0 12.5969C0 12.8754 0.110625 13.1424 0.307538 13.3393C0.504451 13.5362 0.771523 13.6469 1.05 13.6469Z" fill="#FD3B3B"/>
<path d="M3.89162 16.4176L2.07302 17.4676C1.95265 17.5361 1.847 17.6276 1.76215 17.7371C1.67731 17.8465 1.61495 17.9717 1.57867 18.1053C1.54239 18.2389 1.5329 18.3784 1.55075 18.5157C1.5686 18.6531 1.61343 18.7855 1.68267 18.9054C1.75191 19.0253 1.84419 19.1304 1.95419 19.2145C2.06419 19.2986 2.18974 19.3601 2.32361 19.3955C2.45748 19.4309 2.59704 19.4395 2.73424 19.4207C2.87143 19.402 3.00356 19.3563 3.12302 19.2862L4.94162 18.2362C5.062 18.1678 5.16765 18.0762 5.25249 17.9668C5.33734 17.8573 5.39969 17.7322 5.43597 17.5985C5.47226 17.4649 5.48175 17.3254 5.4639 17.1881C5.44605 17.0508 5.40121 16.9183 5.33198 16.7984C5.26274 16.6785 5.17046 16.5735 5.06046 16.4893C4.95046 16.4052 4.82491 16.3437 4.69104 16.3083C4.55716 16.2729 4.41761 16.2644 4.28041 16.2831C4.14322 16.3019 4.01108 16.3476 3.89162 16.4176Z" fill="#FD3B3B"/>
<path d="M6.29984 23.5151C6.41931 23.584 6.55119 23.6287 6.68794 23.6466C6.82468 23.6645 6.96362 23.6553 7.09681 23.6196C7.23001 23.5838 7.35485 23.5221 7.4642 23.4381C7.57355 23.354 7.66528 23.2493 7.73414 23.1298L8.78414 21.3112C8.92118 21.0701 8.95732 20.7847 8.88467 20.5171C8.81203 20.2495 8.63649 20.0215 8.39637 19.8829C8.15624 19.7442 7.87103 19.7062 7.60297 19.7771C7.33491 19.8479 7.10577 20.022 6.96554 20.2612L5.91554 22.0798C5.84643 22.1992 5.80155 22.3311 5.78347 22.4679C5.76538 22.6048 5.77445 22.7438 5.81014 22.8771C5.84583 23.0104 5.90745 23.1354 5.99148 23.2448C6.07551 23.3543 6.18029 23.4462 6.29984 23.5151Z" fill="#FD3B3B"/>
<path d="M11.5498 22.05V24.15C11.5498 24.4285 11.6604 24.6955 11.8573 24.8925C12.0543 25.0894 12.3213 25.2 12.5998 25.2C12.8783 25.2 13.1454 25.0894 13.3423 24.8925C13.5392 24.6955 13.6498 24.4285 13.6498 24.15V22.05C13.6498 21.7715 13.5392 21.5045 13.3423 21.3075C13.1454 21.1106 12.8783 21 12.5998 21C12.3213 21 12.0543 21.1106 11.8573 21.3075C11.6604 21.5045 11.5498 21.7715 11.5498 22.05Z" fill="#FD3B3B"/>
<path d="M16.8004 5.32299C17.0415 5.46223 17.3281 5.49996 17.5971 5.42789C17.8661 5.35582 18.0954 5.17985 18.2347 4.93869L19.2847 3.12009C19.3547 3.00064 19.4004 2.8685 19.4192 2.73131C19.4379 2.59411 19.4294 2.45456 19.394 2.32068C19.3586 2.18681 19.297 2.06126 19.2129 1.95126C19.1288 1.84126 19.0238 1.74898 18.9039 1.67974C18.7839 1.6105 18.6515 1.56567 18.5142 1.54782C18.3769 1.52997 18.2374 1.53946 18.1037 1.57574C17.9701 1.61203 17.845 1.67438 17.7355 1.75922C17.6261 1.84407 17.5345 1.94972 17.4661 2.07009L16.4161 3.88869C16.2768 4.12986 16.2391 4.41645 16.3112 4.68543C16.3832 4.95441 16.5592 5.18375 16.8004 5.32299Z" fill="#FD3B3B"/>
<path d="M20.7902 8.92692C20.9746 8.92731 21.1557 8.87876 21.3152 8.78622L23.1338 7.73622C23.2542 7.66778 23.3598 7.5762 23.4447 7.46676C23.5295 7.35732 23.5919 7.23218 23.6281 7.09855C23.6644 6.96491 23.6739 6.82542 23.6561 6.6881C23.6382 6.55078 23.5934 6.41835 23.5241 6.29843C23.4549 6.1785 23.3626 6.07346 23.2526 5.98935C23.1426 5.90524 23.0171 5.84371 22.8832 5.80832C22.7493 5.77292 22.6098 5.76436 22.4726 5.78312C22.3354 5.80188 22.2032 5.84759 22.0838 5.91762L20.2652 6.96762C20.065 7.0832 19.9086 7.26159 19.8201 7.47513C19.7317 7.68867 19.7162 7.92543 19.776 8.14868C19.8358 8.37194 19.9677 8.56922 20.151 8.70993C20.3344 8.85064 20.5591 8.92691 20.7902 8.92692Z" fill="#FD3B3B"/>
<path d="M21 12.5969C21 12.8754 21.1106 13.1424 21.3075 13.3393C21.5045 13.5362 21.7715 13.6469 22.05 13.6469H24.15C24.4285 13.6469 24.6955 13.5362 24.8925 13.3393C25.0894 13.1424 25.2 12.8754 25.2 12.5969C25.2 12.3184 25.0894 12.0513 24.8925 11.8544C24.6955 11.6575 24.4285 11.5469 24.15 11.5469H22.05C21.7715 11.5469 21.5045 11.6575 21.3075 11.8544C21.1106 12.0513 21 12.3184 21 12.5969Z" fill="#FD3B3B"/>
<path d="M20.2582 18.2371L22.0768 19.2871C22.1963 19.3571 22.3284 19.4028 22.4656 19.4216C22.6028 19.4403 22.7424 19.4318 22.8762 19.3964C23.0101 19.361 23.1357 19.2995 23.2457 19.2153C23.3557 19.1312 23.4479 19.0262 23.5172 18.9063C23.5864 18.7863 23.6313 18.6539 23.6491 18.5166C23.667 18.3793 23.6575 18.2398 23.6212 18.1061C23.5849 17.9725 23.5225 17.8474 23.4377 17.7379C23.3529 17.6285 23.2472 17.5369 23.1268 17.4685L21.3082 16.4185C21.0672 16.2814 20.7817 16.2453 20.5142 16.3179C20.2466 16.3906 20.0186 16.5661 19.8799 16.8062C19.7413 17.0464 19.7033 17.3316 19.7741 17.5996C19.845 17.8677 20.019 18.0968 20.2582 18.2371Z" fill="#FD3B3B"/>
<path d="M17.4655 23.1298C17.534 23.2501 17.6256 23.3558 17.735 23.4406C17.8444 23.5255 17.9696 23.5878 18.1032 23.6241C18.2369 23.6604 18.3763 23.6699 18.5137 23.652C18.651 23.6342 18.7834 23.5893 18.9033 23.5201C19.0233 23.4509 19.1283 23.3586 19.2124 23.2486C19.2965 23.1386 19.358 23.013 19.3934 22.8792C19.4288 22.7453 19.4374 22.6057 19.4186 22.4685C19.3999 22.3313 19.3542 22.1992 19.2841 22.0798L18.2341 20.2612C18.0939 20.022 17.8648 19.8479 17.5967 19.7771C17.3286 19.7062 17.0434 19.7442 16.8033 19.8829C16.5632 20.0215 16.3877 20.2495 16.315 20.5171C16.2424 20.7847 16.2785 21.0701 16.4155 21.3112L17.4655 23.1298Z" fill="#FD3B3B"/>
<path d="M60.8998 15.9241C60.8998 15.8653 60.905 15.8065 60.905 15.7466C60.901 15.3105 60.8071 14.8798 60.6294 14.4815C60.4516 14.0832 60.1938 13.7258 59.8719 13.4315C59.55 13.1371 59.1709 12.9122 58.7583 12.7708C58.3457 12.6293 57.9084 12.5743 57.4736 12.6092C57.1095 11.5523 56.3817 10.6591 55.4201 10.089C54.4585 9.51888 53.3256 9.30894 52.2236 9.49663C51.1215 9.68432 50.122 10.2574 49.4033 11.1137C48.6846 11.97 48.2935 13.0537 48.2998 14.1716C48.2998 14.358 48.3113 14.5442 48.3344 14.7292C47.4102 14.853 46.5675 15.3236 45.9773 16.0456C45.387 16.7676 45.0933 17.6869 45.1557 18.6174C45.218 19.5478 45.6318 20.4198 46.3131 21.0565C46.9944 21.6933 47.8922 22.0472 48.8248 22.0466H59.8498C60.5942 22.0485 61.3152 21.7866 61.885 21.3074C62.4547 20.8283 62.8363 20.1628 62.9622 19.4291C63.088 18.6954 62.9499 17.9408 62.5724 17.2992C62.1948 16.6576 61.6023 16.1704 60.8998 15.9241ZM59.8498 19.9466H48.8248C48.5918 19.947 48.3616 19.8958 48.1509 19.7965C47.9401 19.6972 47.754 19.5524 47.6059 19.3725C47.4579 19.1926 47.3516 18.9821 47.2947 18.7562C47.2379 18.5302 47.2318 18.2945 47.277 18.066C47.3222 17.8374 47.4176 17.6217 47.5562 17.4345C47.6949 17.2472 47.8733 17.0931 48.0787 16.9831C48.2841 16.8732 48.5113 16.8101 48.744 16.7986C48.9767 16.787 49.2091 16.8273 49.4243 16.9163C49.6255 16.9993 49.8476 17.0177 50.0597 16.969C50.2718 16.9202 50.4636 16.8068 50.6084 16.6443C50.7532 16.4818 50.844 16.2784 50.8681 16.0621C50.8923 15.8458 50.8486 15.6273 50.7431 15.4369C50.522 15.0516 50.4038 14.6159 50.3998 14.1716C50.3973 13.4897 50.6611 12.8336 51.1352 12.3433C51.6092 11.853 52.2559 11.5671 52.9376 11.5466C53.6193 11.5261 54.282 11.7725 54.7847 12.2334C55.2874 12.6943 55.5902 13.3332 55.6288 14.0141C55.6392 14.1946 55.6959 14.3692 55.7936 14.5213C55.8912 14.6734 56.0265 14.7976 56.1862 14.8821C56.346 14.9666 56.5249 15.0084 56.7055 15.0035C56.8862 14.9986 57.0625 14.9471 57.2174 14.8541C57.376 14.7608 57.5563 14.7109 57.7403 14.7092C57.9243 14.7075 58.1054 14.7542 58.2657 14.8446C58.4259 14.935 58.5596 15.0659 58.6534 15.2242C58.7471 15.3825 58.7976 15.5627 58.7998 15.7466C58.7984 15.9369 58.7443 16.123 58.6433 16.2842C58.541 16.4554 58.4895 16.6521 58.4949 16.8515C58.5003 17.0508 58.5623 17.2445 58.6738 17.4098C58.7862 17.5755 58.9431 17.706 59.1265 17.7864C59.3098 17.8669 59.5121 17.8939 59.7101 17.8645C59.8556 17.8382 60.0049 17.8429 60.1484 17.8782C60.2919 17.9136 60.4263 17.9789 60.5429 18.0698C60.6594 18.1607 60.7554 18.2751 60.8247 18.4057C60.894 18.5363 60.9349 18.68 60.9448 18.8274C60.9546 18.9749 60.9333 19.1228 60.8821 19.2614C60.8309 19.4001 60.751 19.5264 60.6477 19.632C60.5443 19.7376 60.4198 19.8203 60.2823 19.8745C60.1448 19.9287 59.9974 19.9533 59.8498 19.9466Z" fill="#FD3B3B"/>
<path d="M32.025 13.6485H43.05C43.7944 13.6503 44.5154 13.3884 45.0852 12.9093C45.6549 12.4301 46.0365 11.7647 46.1623 11.031C46.2882 10.2972 46.1501 9.54265 45.7726 8.90105C45.395 8.25944 44.8025 7.77227 44.1 7.52595C44.1 7.46715 44.1 7.40835 44.1 7.3485C44.0964 6.9122 44.0028 6.48134 43.8252 6.08281C43.6477 5.68428 43.3898 5.32664 43.0678 5.03223C42.7458 4.73781 42.3666 4.51294 41.9537 4.37166C41.5409 4.23038 41.1034 4.17572 40.6686 4.2111C40.3017 3.15798 39.5735 2.26896 38.6132 1.70193C37.6529 1.1349 36.5227 0.926558 35.4234 1.1139C34.324 1.30123 33.3266 1.87213 32.6084 2.7252C31.8901 3.57827 31.4974 4.6583 31.5 5.7735C31.4999 5.95989 31.5115 6.1461 31.5346 6.33105C30.6104 6.45489 29.7677 6.92547 29.1775 7.64744C28.5872 8.36941 28.2935 9.28876 28.3559 10.2192C28.4182 11.1497 28.832 12.0216 29.5133 12.6584C30.1946 13.2951 31.0924 13.6491 32.025 13.6485ZM32.025 8.3985C32.2307 8.39904 32.4344 8.4397 32.6245 8.5182C32.8257 8.60117 33.0478 8.61956 33.2599 8.57083C33.472 8.5221 33.6638 8.40865 33.8086 8.24618C33.9534 8.0837 34.0442 7.88024 34.0683 7.66393C34.0925 7.44762 34.0488 7.22915 33.9433 7.03875C33.7222 6.65344 33.604 6.21772 33.6 5.7735C33.5975 5.09152 33.8613 4.4355 34.3354 3.94519C34.8094 3.45487 35.4561 3.169 36.1378 3.14847C36.8195 3.12794 37.4822 3.37436 37.9849 3.83526C38.4876 4.29616 38.7904 4.9351 38.829 5.616C38.8393 5.79642 38.8961 5.9711 38.9938 6.12316C39.0914 6.27521 39.2267 6.39949 39.3864 6.48396C39.5462 6.56843 39.7251 6.61024 39.9057 6.60534C40.0864 6.60044 40.2627 6.549 40.4176 6.456C40.5765 6.36469 40.7564 6.31629 40.9397 6.31555C41.1229 6.31482 41.3032 6.36177 41.4629 6.4518C41.6225 6.54183 41.7559 6.67184 41.8501 6.82906C41.9443 6.98627 41.9959 7.16528 42 7.3485C41.9986 7.53873 41.9445 7.72485 41.8435 7.8861C41.7412 8.05725 41.6897 8.25399 41.6951 8.45333C41.7005 8.65266 41.7625 8.84633 41.874 9.0117C41.9864 9.17733 42.1433 9.30787 42.3267 9.38829C42.51 9.46872 42.7123 9.49578 42.9103 9.46635C43.0558 9.44003 43.2051 9.44471 43.3486 9.48008C43.4921 9.51546 43.6265 9.58072 43.7431 9.67162C43.8596 9.76252 43.9556 9.87699 44.0249 10.0076C44.0942 10.1381 44.1351 10.2818 44.145 10.4293C44.1548 10.5768 44.1335 10.7247 44.0823 10.8633C44.0311 11.0019 43.9512 11.1282 43.8478 11.2339C43.7445 11.3395 43.62 11.4221 43.4825 11.4764C43.345 11.5306 43.1976 11.5552 43.05 11.5485H32.025C31.6073 11.5485 31.2067 11.3826 30.9113 11.0872C30.6159 10.7918 30.45 10.3912 30.45 9.9735C30.45 9.55578 30.6159 9.15518 30.9113 8.85981C31.2067 8.56444 31.6073 8.3985 32.025 8.3985Z" fill="#FD3B3B"/>
<path d="M61.95 60.8985H52.3845C53.5377 59.7712 54.2869 58.2949 54.516 56.6985H58.8C59.6354 56.6985 60.4366 56.3666 61.0274 55.7759C61.6181 55.1852 61.95 54.3839 61.95 53.5485V49.3485C61.9482 48.5642 61.862 47.7823 61.6927 47.0165C61.152 44.7019 59.8472 42.637 57.9888 41.155C56.1304 39.6731 53.8269 38.8605 51.45 38.8485H51.0489L46.3102 29.3712C45.532 27.7974 44.3278 26.4736 42.8345 25.5503C41.3411 24.627 39.6187 24.1413 37.863 24.1485H24.822C23.1574 24.1502 21.5227 24.5913 20.0831 25.4273C18.6436 26.2632 17.4502 27.4643 16.6236 28.9092L10.9305 38.8664C8.25862 39.0273 5.74877 40.2014 3.91276 42.1492C2.07676 44.097 1.05291 46.6718 1.05 49.3485V54.5985C1.05 55.1555 1.27125 55.6896 1.66508 56.0834C2.0589 56.4773 2.59305 56.6985 3.15 56.6985H7.434C7.66305 58.2949 8.41225 59.7712 9.5655 60.8985H1.05C0.771523 60.8985 0.504451 61.0091 0.307538 61.2061C0.110625 61.403 0 61.67 0 61.9485C0 62.227 0.110625 62.4941 0.307538 62.691C0.504451 62.8879 0.771523 62.9985 1.05 62.9985H61.95C62.2285 62.9985 62.4955 62.8879 62.6925 62.691C62.8894 62.4941 63 62.227 63 61.9485C63 61.67 62.8894 61.403 62.6925 61.2061C62.4955 61.0091 62.2285 60.8985 61.95 60.8985ZM59.85 53.5485C59.85 53.827 59.7394 54.0941 59.5425 54.291C59.3455 54.4879 59.0785 54.5985 58.8 54.5985H54.516C54.4115 53.8705 54.1973 53.1624 53.8807 52.4985H59.85V53.5485ZM59.85 49.3485V50.3985H56.7V49.3485C56.7 49.07 56.8106 48.803 57.0075 48.6061C57.2044 48.4091 57.4715 48.2985 57.75 48.2985H59.7786C59.8241 48.6467 59.848 48.9974 59.85 49.3485ZM3.15 49.3485C3.1525 47.1215 4.0383 44.9863 5.61307 43.4116C7.18783 41.8368 9.32295 40.951 11.55 40.9485C11.7347 40.9489 11.9162 40.9005 12.0762 40.8084C12.2362 40.7162 12.3691 40.5834 12.4614 40.4235L18.4464 29.954C19.0885 28.8294 20.0163 27.8945 21.1359 27.2438C22.2555 26.5931 23.5271 26.2498 24.822 26.2485H37.863C39.2281 26.2426 40.5674 26.6201 41.7285 27.3379C42.8896 28.0557 43.8259 29.0851 44.4307 30.3089L49.4602 40.3679C49.5475 40.5424 49.6816 40.6892 49.8476 40.7918C50.0136 40.8943 50.2049 40.9486 50.4 40.9485H51.45C53.1212 40.9578 54.7523 41.4613 56.1381 42.3954C57.5239 43.3296 58.6024 44.6528 59.2378 46.1985H57.75C56.9146 46.1985 56.1134 46.5304 55.5226 47.1211C54.9319 47.7119 54.6 48.5131 54.6 49.3485V50.3985H52.3845C51.0144 49.0526 49.1706 48.2985 47.25 48.2985C45.3294 48.2985 43.4856 49.0526 42.1155 50.3985H19.8345C18.4644 49.0526 16.6206 48.2985 14.7 48.2985C12.7794 48.2985 10.9356 49.0526 9.5655 50.3985H3.15V49.3485ZM40.6193 52.4985C40.3027 53.1624 40.0885 53.8705 39.984 54.5985H21.966C21.8615 53.8705 21.6473 53.1624 21.3307 52.4985H40.6193ZM7.434 54.5985H3.15V52.4985H8.06925C7.75269 53.1624 7.53851 53.8705 7.434 54.5985ZM14.7 60.8985C13.6616 60.8985 12.6466 60.5906 11.7833 60.0137C10.9199 59.4369 10.247 58.6169 9.84963 57.6576C9.45227 56.6983 9.3483 55.6427 9.55088 54.6243C9.75345 53.6059 10.2535 52.6704 10.9877 51.9362C11.7219 51.202 12.6574 50.702 13.6758 50.4994C14.6942 50.2968 15.7498 50.4008 16.7091 50.7982C17.6684 51.1955 18.4883 51.8684 19.0652 52.7318C19.6421 53.5951 19.95 54.6102 19.95 55.6485C19.9483 57.0404 19.3947 58.3748 18.4105 59.359C17.4263 60.3432 16.0919 60.8969 14.7 60.8985ZM19.8345 60.8985C20.9877 59.7712 21.737 58.2949 21.966 56.6985H39.984C40.213 58.2949 40.9622 59.7712 42.1155 60.8985H19.8345ZM47.25 60.8985C46.2116 60.8985 45.1966 60.5906 44.3333 60.0137C43.4699 59.4369 42.797 58.6169 42.3996 57.6576C42.0023 56.6983 41.8983 55.6427 42.1009 54.6243C42.3034 53.6059 42.8035 52.6704 43.5377 51.9362C44.2719 51.202 45.2074 50.702 46.2258 50.4994C47.2442 50.2968 48.2998 50.4008 49.2591 50.7982C50.2184 51.1955 51.0383 51.8684 51.6152 52.7318C52.1921 53.5951 52.5 54.6102 52.5 55.6485C52.4983 57.0404 51.9447 58.3748 50.9605 59.359C49.9763 60.3432 48.6419 60.8969 47.25 60.8985Z" fill="#FD3B3B"/>
</g>
<defs>
<clipPath id="clip0_808_107">
<rect width="63" height="63" fill="white"/>
</clipPath>
</defs>
</svg>
