<svg width="63" height="63" viewBox="0 0 63 63" fill="none" xmlns="http://www.w3.org/2000/svg">
<path d="M57.1333 17.8896H47.1798L46.9576 17.0721L50.3527 14.3433C50.7895 13.9921 50.9598 13.4209 50.7866 12.8879C50.6133 12.3548 50.1397 11.9928 49.5801 11.9656L45.2295 11.7535L43.6836 7.68139C43.485 7.15832 42.9942 6.82031 42.4335 6.82031C41.8728 6.82031 41.3821 7.15845 41.1837 7.68139L39.6377 11.7535L35.2872 11.9655C34.7275 11.9927 34.254 12.3547 34.0806 12.8878C33.9075 13.4208 34.0778 13.992 34.5145 14.343L37.9096 17.0718L37.6874 17.8894H27.7339C24.9777 17.8894 22.7354 20.1316 22.7354 22.8878V23.7764H22.1981C22.1981 23.7764 22.1981 23.7764 22.198 23.7764C21.7596 23.7764 21.3339 23.8617 20.9394 24.024C21.2323 23.4228 21.3988 22.8584 21.4604 22.411C21.4666 22.3664 21.4697 22.3215 21.4697 22.2765V18.4736C21.4697 14.6888 18.3902 11.6097 14.6049 11.6097C14.0612 11.6097 13.6205 12.0504 13.6205 12.594V17.4967C13.6205 20.4385 11.3098 22.0674 8.8635 23.792C8.49645 24.0508 8.11993 24.3168 7.75214 24.5868H1.85254C1.30892 24.5868 0.868164 25.0276 0.868164 25.5712V41.721C0.868164 42.2646 1.30892 42.7053 1.85254 42.7053H7.69136C9.8117 44.6145 11.9444 45.2344 14.4218 45.2344C16.3241 45.2344 18.4299 44.8692 20.8884 44.443L21.4374 44.348C21.6839 44.4058 21.9385 44.4365 22.1977 44.4365H22.198H22.1981H22.944C23.5635 46.5213 25.4876 48.004 27.7337 48.004H30.1459V55.1962C30.1459 55.5979 30.3901 55.9593 30.7628 56.1093C30.882 56.1573 31.0065 56.1806 31.1301 56.1806C31.393 56.1806 31.6508 56.0752 31.8402 55.8781L39.4044 48.004H57.1333C59.8894 48.004 62.1317 45.7617 62.1317 43.0056V22.888C62.1317 20.1319 59.8896 17.8896 57.1333 17.8896ZM37.0447 13.8512L40.1463 13.7C40.6776 13.6741 41.1429 13.336 41.3313 12.839L42.4335 9.93586L43.536 12.8394C43.7248 13.3363 44.1899 13.674 44.7207 13.7L47.8225 13.8512L45.402 15.7967C44.9876 16.1299 44.8099 16.6766 44.9493 17.1896L45.764 20.1863L43.1656 18.4853C42.7211 18.1943 42.1463 18.1943 41.7013 18.4854L39.1031 20.1863L39.9178 17.1896C40.0574 16.6766 39.8796 16.1298 39.4651 15.7967L37.0447 13.8512ZM22.1977 25.7453C22.1978 25.7453 22.1978 25.7453 22.1977 25.7453H28.0185C28.764 25.7453 29.3704 26.3518 29.3704 27.0972C29.3704 27.8427 28.7639 28.4492 28.0185 28.4492H22.198C21.4524 28.4492 20.8459 27.8427 20.8459 27.0972C20.8459 26.7386 20.9872 26.3998 21.2439 26.1432C21.5004 25.8867 21.8392 25.7453 22.1977 25.7453ZM22.1978 37.7949C21.4524 37.7948 20.8459 37.1883 20.8459 36.4427C20.8459 35.6972 21.4526 35.0908 22.198 35.0908H27.3632C28.1088 35.0908 28.7151 35.6973 28.7151 36.4427C28.7151 37.1883 28.1087 37.7949 27.3632 37.7949H22.1978ZM21.2137 33.1221C20.4682 33.1221 19.8617 32.5156 19.8617 31.7702C19.8617 31.0246 20.4683 30.4181 21.2137 30.4181H29.0027C29.7483 30.4181 30.3546 31.0247 30.3547 31.77C30.3546 32.5156 29.7481 33.1221 29.0027 33.1221H21.2137ZM7.09852 40.7367H2.83691V26.5557H7.09421C7.10135 35.2496 7.10123 39.1521 7.09852 40.7367ZM9.06247 26.0674C9.3648 25.8477 9.67475 25.6288 9.99763 25.4011C12.6185 23.5535 15.589 21.4593 15.589 17.4967V13.6777C17.8184 14.1346 19.5007 16.1113 19.5007 18.4736V22.2024C19.4023 22.7865 18.9989 23.7329 18.158 24.5744C17.8232 24.9094 17.7746 25.4356 18.0422 25.8264C18.7454 26.8531 18.9835 27.8063 18.7703 28.7406C18.3588 30.5426 16.3369 31.873 15.4866 32.3613C15.0152 32.6321 14.8526 33.2337 15.1233 33.7051C15.3053 34.022 15.6369 34.1994 15.9778 34.1994C16.1441 34.1994 16.3126 34.1571 16.4672 34.0684C16.933 33.8009 17.5192 33.4249 18.109 32.9443C18.3672 33.6245 18.8411 34.1994 19.4489 34.582C19.0882 35.1131 18.8772 35.7538 18.8772 36.4429C18.8772 37.353 19.2452 38.1789 19.8404 38.7794C19.2452 39.3799 18.8772 40.2056 18.8772 41.1158C18.8772 41.6856 19.0216 42.2338 19.2919 42.7201C14.5203 43.5295 11.8436 43.7626 9.06579 41.2944L9.06247 26.0674ZM25.9697 39.7638C26.7153 39.7638 27.3216 40.3703 27.3216 41.1158C27.3216 41.4744 27.1804 41.8131 26.9237 42.0698C26.667 42.3265 26.3283 42.4677 25.9697 42.4677H25.9696H22.198H22.1978C21.8394 42.4677 21.5005 42.3265 21.244 42.0699C20.9873 41.8132 20.8461 41.4745 20.8461 41.1158C20.8461 40.3703 21.4527 39.7638 22.1981 39.7638H25.9697ZM60.163 43.0056C60.163 44.6762 58.8038 46.0352 57.1333 46.0352H38.985C38.717 46.0352 38.4607 46.1445 38.275 46.3377L32.1147 52.7506V47.0196C32.1147 46.476 31.6739 46.0352 31.1303 46.0352H27.7337C26.585 46.0352 25.576 45.3951 25.0627 44.4365H25.9695H25.9699C26.8542 44.4365 27.6873 44.0905 28.3157 43.4619C28.9441 42.8334 29.2904 42.0003 29.2904 41.1158C29.2904 40.4984 29.121 39.9196 28.8263 39.4238C29.9257 38.8819 30.684 37.7493 30.684 36.4429C30.684 35.8617 30.534 35.315 30.2706 34.8394C31.4746 34.3402 32.3236 33.1526 32.3237 31.7702C32.3236 30.5871 31.7017 29.5466 30.7677 28.9583C31.1283 28.4272 31.3394 27.7864 31.3394 27.0973C31.3394 25.2663 29.8498 23.7767 28.0187 23.7767H24.7041V22.888C24.7041 21.2174 26.0631 19.8584 27.7337 19.8584H37.1521L36.767 21.275C36.6198 21.8158 36.8175 22.378 37.2708 22.7075C37.7241 23.037 38.3201 23.0517 38.7894 22.7448L42.4336 20.3592L46.078 22.7448C46.3029 22.8921 46.5571 22.9653 46.8107 22.9653C47.0857 22.9653 47.3602 22.8792 47.5961 22.7078C48.0495 22.3784 48.2474 21.8162 48.1004 21.2754L47.7152 19.8585H57.1334C58.8039 19.8585 60.1631 21.2175 60.1631 22.8881V43.0056H60.163ZM57.6723 40.6073C57.6723 41.1509 57.2315 41.5916 56.6879 41.5916H34.5787C34.0351 41.5916 33.5943 41.1509 33.5943 40.6073C33.5943 40.0636 34.0351 39.6229 34.5787 39.6229H56.6879C57.2315 39.6229 57.6723 40.0635 57.6723 40.6073ZM33.5943 25.8415C33.5943 25.2979 34.0351 24.8571 34.5787 24.8571H48.8548C49.3985 24.8571 49.8392 25.2979 49.8392 25.8415C49.8392 26.3851 49.3985 26.8259 48.8548 26.8259H34.5787C34.0352 26.8259 33.5943 26.3851 33.5943 25.8415ZM33.5943 29.5329C33.5943 28.9893 34.0351 28.5485 34.5787 28.5485H46.3993C46.9429 28.5485 47.3837 28.9893 47.3837 29.5329C47.3837 30.0765 46.9429 30.5173 46.3993 30.5173H34.5787C34.0352 30.5173 33.5943 30.0765 33.5943 29.5329ZM33.5943 33.2243C33.5943 32.6807 34.0351 32.24 34.5787 32.24H54.1705C54.7141 32.24 55.1548 32.6807 55.1548 33.2243C55.1548 33.7679 54.7141 34.2087 54.1705 34.2087H34.5787C34.0352 34.2087 33.5943 33.7679 33.5943 33.2243ZM33.5943 36.9159C33.5943 36.3722 34.0351 35.9315 34.5787 35.9315H51.5437C52.0873 35.9315 52.528 36.3722 52.528 36.9159C52.528 37.4595 52.0873 37.9002 51.5437 37.9002H34.5787C34.0352 37.9002 33.5943 37.4595 33.5943 36.9159Z" fill="#FD3B3B"/>
</svg>
