<svg width="63" height="63" viewBox="0 0 63 63" fill="none" xmlns="http://www.w3.org/2000/svg">
<path d="M31.5 5.90625C31.2389 5.90625 30.9885 5.80254 30.8039 5.61793C30.6193 5.43333 30.5156 5.18295 30.5156 4.92188V2.95312C30.5156 2.69205 30.6193 2.44167 30.8039 2.25707C30.9885 2.07246 31.2389 1.96875 31.5 1.96875C31.7611 1.96875 32.0115 2.07246 32.1961 2.25707C32.3807 2.44167 32.4844 2.69205 32.4844 2.95312V4.92188C32.4844 5.18295 32.3807 5.43333 32.1961 5.61793C32.0115 5.80254 31.7611 5.90625 31.5 5.90625Z" fill="#FD3B3B"/>
<path d="M23.1325 8.1446C22.9595 8.14477 22.7896 8.09936 22.6398 8.01296C22.4899 7.92655 22.3655 7.8022 22.279 7.65241L21.2947 5.94747C21.1662 5.7215 21.1323 5.45389 21.2004 5.20302C21.2685 4.95216 21.4331 4.73843 21.6582 4.60845C21.8833 4.47848 22.1507 4.44282 22.402 4.50926C22.6533 4.57571 22.8681 4.73885 22.9996 4.9631L23.984 6.66804C24.0703 6.81761 24.1158 6.98726 24.1159 7.15997C24.1159 7.33268 24.0705 7.50236 23.9842 7.65197C23.8979 7.80159 23.7738 7.92587 23.6243 8.01234C23.4748 8.09881 23.3052 8.14442 23.1325 8.1446Z" fill="#FD3B3B"/>
<path d="M39.8672 8.1446C39.6944 8.14442 39.5248 8.09881 39.3753 8.01234C39.2258 7.92587 39.1017 7.80159 39.0154 7.65197C38.9291 7.50236 38.8837 7.33268 38.8838 7.15997C38.8838 6.98726 38.9293 6.81761 39.0157 6.66804L40 4.9631C40.1315 4.73885 40.3463 4.57571 40.5976 4.50926C40.8489 4.44282 41.1163 4.47848 41.3414 4.60845C41.5666 4.73843 41.7311 4.95216 41.7992 5.20302C41.8673 5.45389 41.8335 5.7215 41.705 5.94747L40.7206 7.65241C40.6341 7.8022 40.5097 7.92655 40.3599 8.01296C40.2101 8.09936 40.0401 8.14477 39.8672 8.1446Z" fill="#FD3B3B"/>
<path d="M58.7918 22.9993C58.8147 22.824 58.8262 22.6474 58.8262 22.4707C58.8227 21.5686 58.5104 20.695 57.9415 19.9949C57.3726 19.2949 56.5812 18.8107 55.6989 18.6228C54.6901 18.4351 53.6477 18.6388 52.7837 19.1923C51.9197 19.7458 51.299 20.6076 51.0477 21.6025L47.626 33.6867C47.249 33.7684 46.8861 33.9054 46.5491 34.0932L37.8473 39.1942C36.5165 39.9782 35.4129 41.0952 34.6452 42.4353C33.8774 43.7755 33.472 45.2925 33.4688 46.8369V59.0599C33.4688 59.321 33.5725 59.5714 33.7571 59.756C33.9417 59.9406 34.1921 60.0443 34.4531 60.0443C34.7142 60.0443 34.9646 59.9406 35.1492 59.756C35.3338 59.5714 35.4375 59.321 35.4375 59.0599V46.8369C35.44 45.6357 35.7554 44.4559 36.3526 43.4136C36.9499 42.3714 37.8083 41.5028 38.8434 40.8933L47.5394 35.7952C47.7634 35.6639 48.0111 35.5782 48.2684 35.543C48.5256 35.5078 48.7873 35.5239 49.0383 35.5902C49.2893 35.6566 49.5247 35.772 49.731 35.9297C49.9372 36.0874 50.1102 36.2843 50.2401 36.5092C50.3699 36.734 50.454 36.9824 50.4874 37.2398C50.5209 37.4973 50.5031 37.7589 50.4351 38.0094C50.367 38.26 50.2501 38.4946 50.091 38.6998C49.932 38.905 49.7339 39.0767 49.5082 39.2051L43.8667 42.4624C43.7538 42.5265 43.6548 42.6124 43.5753 42.715C43.4957 42.8176 43.4373 42.9349 43.4032 43.0602C43.3692 43.1855 43.3603 43.3162 43.3771 43.445C43.3938 43.5737 43.4358 43.6979 43.5007 43.8103C43.5657 43.9227 43.6522 44.0212 43.7553 44.1C43.8584 44.1789 43.9761 44.2366 44.1016 44.2698C44.2271 44.3029 44.358 44.311 44.4866 44.2934C44.6152 44.2758 44.7391 44.2329 44.8511 44.1673L50.4925 40.91C51.2985 40.447 51.9136 39.7124 52.2279 38.8377C52.5422 37.9629 52.5353 37.0049 52.2083 36.1348L54.9104 26.0666C55.0329 25.5571 55.3426 25.1123 55.7779 24.8205C56.2132 24.5288 56.7423 24.4114 57.2601 24.4916C57.7004 24.5849 58.0957 24.8257 58.3805 25.1742C58.6653 25.5228 58.8226 25.9581 58.8262 26.4082C58.8276 26.5813 58.8057 26.7538 58.7613 26.921L54.4802 42.8994C54.3304 43.457 54.0207 43.9587 53.5894 44.3425L46.934 50.2586C46.4139 50.7207 45.9977 51.2879 45.7128 51.9227C45.4279 52.5574 45.2808 53.2454 45.2812 53.9412V59.0599C45.2812 59.321 45.385 59.5714 45.5696 59.756C45.7542 59.9406 46.0046 60.0443 46.2656 60.0443C46.5267 60.0443 46.7771 59.9406 46.9617 59.756C47.1463 59.5714 47.25 59.321 47.25 59.0599V53.9412C47.25 53.5242 47.3384 53.1119 47.5093 52.7315C47.6801 52.3511 47.9296 52.0112 48.2413 51.7342L54.8986 45.8171C55.6178 45.1765 56.1332 44.339 56.3811 43.4083L60.6621 27.4319C60.7518 27.0978 60.7965 26.7532 60.795 26.4072C60.7906 25.7131 60.603 25.0325 60.2513 24.4341C59.8995 23.8357 59.3961 23.3408 58.7918 22.9993ZM53.0096 25.5587L50.6815 34.229C50.3648 34.0187 50.0193 33.8553 49.6558 33.7437L52.9456 22.1281C53.0702 21.6194 53.3806 21.1757 53.8158 20.8842C54.251 20.5928 54.7794 20.4747 55.2973 20.5531C55.7372 20.6464 56.132 20.8876 56.4159 21.2365C56.6997 21.5854 56.8556 22.0209 56.8575 22.4707V22.4845C55.9689 22.5071 55.112 22.8195 54.4174 23.3741C53.7228 23.9287 53.2284 24.6952 53.0096 25.5567V25.5587Z" fill="#FD3B3B"/>
<path d="M25.1525 39.1948L16.4447 34.0908C16.1097 33.9036 15.7487 33.7673 15.3737 33.6862L11.9559 21.6148C11.7072 20.6165 11.0866 19.7509 10.221 19.1949C9.35541 18.6389 8.31016 18.4344 7.29885 18.6233C6.41702 18.8118 5.62618 19.2962 5.05765 19.9962C4.48913 20.6961 4.17713 21.5695 4.17346 22.4712C4.17343 22.648 4.18494 22.8246 4.20791 22.9998C3.4492 23.4264 2.85376 24.093 2.51521 24.8948C2.17665 25.6967 2.11417 26.5883 2.3376 27.4295L6.61865 43.4089C6.86764 44.3379 7.38336 45.1736 8.1021 45.8127L14.7584 51.7288C15.0709 52.0065 15.3208 52.3473 15.4917 52.7288C15.6625 53.1103 15.7505 53.5237 15.7497 53.9417V59.0604C15.7497 59.3215 15.8534 59.5719 16.038 59.7565C16.2226 59.9411 16.473 60.0448 16.7341 60.0448C16.9952 60.0448 17.2455 59.9411 17.4301 59.7565C17.6147 59.5719 17.7185 59.3215 17.7185 59.0604V53.9417C17.7184 53.2466 17.571 52.5594 17.2861 51.9253C17.0013 51.2913 16.5853 50.7248 16.0657 50.2631L9.41132 44.347C8.9793 43.9635 8.66922 43.4618 8.51947 42.9039L4.23744 26.9196C4.17001 26.6611 4.15571 26.3916 4.1954 26.1274C4.23509 25.8632 4.32795 25.6098 4.46837 25.3825C4.60878 25.1553 4.79384 24.9588 5.01234 24.8051C5.23084 24.6514 5.47825 24.5436 5.7396 24.4882C6.25748 24.4077 6.78668 24.525 7.22202 24.8168C7.65736 25.1086 7.96697 25.5536 8.0893 26.0632L10.7914 36.1314C10.4645 37.0015 10.4575 37.9595 10.7718 38.8343C11.0861 39.709 11.7012 40.4435 12.5072 40.9066L18.1486 44.1639C18.2606 44.2295 18.3845 44.2724 18.5131 44.29C18.6417 44.3076 18.7726 44.2995 18.8981 44.2664C19.0236 44.2332 19.1413 44.1755 19.2444 44.0966C19.3475 44.0178 19.434 43.9193 19.499 43.8069C19.5639 43.6944 19.6059 43.5703 19.6226 43.4416C19.6394 43.3128 19.6305 43.182 19.5965 43.0568C19.5624 42.9315 19.504 42.8142 19.4244 42.7116C19.3449 42.609 19.2459 42.5231 19.133 42.4589L13.4916 39.2056C13.1068 38.9851 12.8081 38.6409 12.644 38.229C12.4799 37.8171 12.4601 37.3617 12.5878 36.9371C12.7155 36.5125 12.9833 36.1437 13.3474 35.8906C13.7115 35.6376 14.1506 35.5153 14.5931 35.5437H14.6009C14.901 35.559 15.1932 35.6443 15.4544 35.7928L24.1563 40.8938C25.1914 41.5033 26.0498 42.3719 26.6471 43.4142C27.2443 44.4564 27.5597 45.6362 27.5622 46.8374V59.0604C27.5622 59.3215 27.6659 59.5719 27.8505 59.7565C28.0351 59.9411 28.2855 60.0448 28.5466 60.0448C28.8077 60.0448 29.058 59.9411 29.2426 59.7565C29.4272 59.5719 29.531 59.3215 29.531 59.0604V46.8374C29.5277 45.293 29.1223 43.776 28.3545 42.4359C27.5868 41.0957 26.4832 39.9787 25.1525 39.1948ZM12.3182 34.2286L9.99013 25.5572C9.77218 24.6955 9.27834 23.9287 8.58395 23.3739C7.88957 22.819 7.03274 22.5065 6.14418 22.484V22.4712C6.14531 22.0212 6.30058 21.5852 6.58411 21.2357C6.86764 20.8863 7.26233 20.6445 7.70244 20.5507C8.22317 20.4707 8.75493 20.5898 9.19182 20.8842C9.62871 21.1786 9.93869 21.6268 10.06 22.1395L13.3439 33.7423C12.9802 33.8538 12.6347 34.0176 12.3182 34.2286Z" fill="#FD3B3B"/>
<path d="M38.989 34.9256C39.2993 34.9229 39.6047 34.8473 39.8805 34.7049C40.1563 34.5626 40.3948 34.3574 40.5768 34.106C40.7587 33.8546 40.8791 33.5639 40.9282 33.2575C40.9773 32.951 40.9537 32.6373 40.8593 32.3416L38.4407 24.8978L44.7722 20.2968C45.1083 20.0526 45.3585 19.7083 45.4871 19.3133C45.6156 18.9182 45.6159 18.4926 45.4879 18.0974C45.3599 17.7022 45.1101 17.3576 44.7743 17.1129C44.4385 16.8683 44.034 16.7361 43.6185 16.7354H35.7908L33.3702 9.29151C33.2407 8.89762 32.9902 8.55467 32.6544 8.31153C32.3185 8.0684 31.9145 7.9375 31.4999 7.9375C31.0853 7.9375 30.6812 8.0684 30.3454 8.31153C30.0095 8.55467 29.759 8.89762 29.6296 9.29151L27.209 16.7354H19.3812C18.9655 16.7355 18.5605 16.8672 18.2243 17.1116C17.888 17.356 17.6378 17.7006 17.5094 18.096C17.381 18.4914 17.381 18.9172 17.5095 19.3126C17.638 19.7079 17.8883 20.0525 18.2246 20.2968L24.5561 24.8978L22.1375 32.3416C22.0089 32.7371 22.0089 33.1631 22.1374 33.5585C22.2659 33.954 22.5163 34.2987 22.8527 34.543C23.1891 34.7874 23.5943 34.919 24.0101 34.919C24.4259 34.9189 24.831 34.7872 25.1674 34.5427L31.4999 29.9427L37.8324 34.5427C38.1674 34.7901 38.5725 34.9242 38.989 34.9256ZM31.4999 27.972C31.0839 27.9722 30.6786 28.1042 30.3422 28.349L24.0107 32.95L26.4294 25.5061C26.5578 25.1107 26.5577 24.6847 26.4291 24.2893C26.3006 23.8939 26.0501 23.5494 25.7137 23.3051L19.3812 18.7041H27.209C27.6244 18.7037 28.029 18.5718 28.365 18.3275C28.7009 18.0831 28.9509 17.7388 29.0793 17.3437L31.4999 9.88705V9.89985L33.9185 17.3437C34.0469 17.7391 34.2973 18.0837 34.6336 18.3281C34.97 18.5724 35.375 18.7041 35.7908 18.7041H43.6185L37.287 23.3041C36.9502 23.5483 36.6994 23.893 36.5707 24.2886C36.442 24.6842 36.4418 25.1105 36.5704 25.5061L38.989 32.95L32.6575 28.351C32.3214 28.1054 31.9161 27.9728 31.4999 27.972Z" fill="#FD3B3B"/>
<path d="M14.8108 13.1539L16.5147 14.1383C16.6267 14.2039 16.7506 14.2468 16.8792 14.2644C17.0078 14.282 17.1386 14.2739 17.2642 14.2407C17.3897 14.2076 17.5074 14.1499 17.6105 14.071C17.7136 13.9922 17.8001 13.8937 17.865 13.7813C17.9299 13.6688 17.972 13.5447 17.9887 13.4159C18.0054 13.2872 17.9966 13.1564 17.9625 13.0311C17.9285 12.9059 17.8701 12.7885 17.7905 12.6859C17.711 12.5833 17.6119 12.4975 17.4991 12.4333L15.7951 11.449C15.5692 11.3205 15.3015 11.2866 15.0507 11.3547C14.7998 11.4228 14.5861 11.5874 14.4561 11.8125C14.3261 12.0376 14.2905 12.305 14.3569 12.5563C14.4234 12.8076 14.5865 13.0224 14.8108 13.1539Z" fill="#FD3B3B"/>
<path d="M45.9941 14.2702C46.1669 14.2702 46.3366 14.2247 46.4863 14.1383L48.1902 13.1539C48.4145 13.0224 48.5776 12.8076 48.6441 12.5563C48.7105 12.305 48.6749 12.0376 48.5449 11.8125C48.4149 11.5874 48.2012 11.4228 47.9503 11.3547C47.6995 11.2866 47.4318 11.3205 47.2059 11.449L45.5019 12.4333C45.3143 12.5417 45.1676 12.7089 45.0847 12.9091C45.0018 13.1093 44.9872 13.3313 45.0433 13.5406C45.0994 13.7499 45.223 13.9348 45.3949 14.0667C45.5668 14.1987 45.7774 14.2702 45.9941 14.2702Z" fill="#FD3B3B"/>
</svg>
