<svg width="63" height="63" viewBox="0 0 63 63" fill="none" xmlns="http://www.w3.org/2000/svg">
<g clip-path="url(#clip0_808_40)">
<path d="M35.8232 42.1298C38.1862 40.6736 39.7653 38.0626 39.7653 35.0891V31.93V28.7728C39.7653 24.2155 36.0578 20.5078 31.5004 20.5078C26.9431 20.5078 23.2354 24.2155 23.2354 28.7728V31.9309V35.089C23.2354 38.0625 24.8143 40.6734 27.1775 42.1297C20.3699 44.0806 15.2168 50.2563 15.2168 57.2668V62.0745C15.2168 62.5852 15.6309 62.9994 16.1417 62.9994H22.3724C22.8831 62.9994 23.2973 62.5854 23.2973 62.0745C23.2973 61.5637 22.8832 61.1495 22.3724 61.1495H17.0664V57.2668C17.0664 53.6444 18.6122 50.181 21.4189 47.5143C23.0966 45.9202 25.1279 44.7327 27.295 44.0398L28.76 46.8862L26.7917 55.4303C26.7169 55.7551 26.8227 56.0951 27.0686 56.3202L30.8759 59.8048C31.0526 59.9664 31.2764 60.0473 31.5002 60.0473C31.7241 60.0473 31.948 59.9664 32.1246 59.8048L35.9319 56.3202C36.1778 56.0951 36.2836 55.7551 36.2088 55.4303L34.2405 46.886L35.7055 44.0398C37.8726 44.7327 39.9037 45.9204 41.5816 47.5143C44.3883 50.181 45.934 53.6445 45.934 57.2668V61.1497H25.4551C24.9443 61.1497 24.5301 61.5637 24.5301 62.0746C24.5301 62.5854 24.9442 62.9995 25.4551 62.9995H46.8591C47.3699 62.9995 47.784 62.5855 47.784 62.0746V57.2668C47.7838 50.2564 42.6308 44.0807 35.8232 42.1298ZM25.0851 28.7729C25.0851 25.2357 27.963 22.3577 31.5002 22.3577C35.0376 22.3577 37.9154 25.2357 37.9154 28.7729V30.9171C35.0081 30.3654 33.8303 27.4067 33.7778 27.2713C33.6496 26.9327 33.3355 26.7003 32.9742 26.6762C32.6128 26.6518 32.2709 26.8412 32.099 27.1599C32.0794 27.1962 30.184 30.5978 25.0851 30.9726V28.7729ZM34.2852 55.3201L31.5001 57.869L28.7152 55.3201L30.4732 47.6888H32.5271L34.2852 55.3201ZM29.137 43.5768C29.214 43.5627 29.2913 43.5495 29.3684 43.5364C29.4202 43.528 29.4721 43.5195 29.524 43.5115C29.6382 43.4936 29.7525 43.4771 29.867 43.4621C29.9821 43.4472 30.0973 43.4331 30.2125 43.4209C30.2739 43.4144 30.3354 43.4081 30.3968 43.4023C30.5528 43.3879 30.7089 43.3754 30.8648 43.366C30.9021 43.3638 30.9394 43.3622 30.9767 43.3602C31.0834 43.3547 31.1899 43.352 31.2966 43.3489C31.3645 43.3505 31.4319 43.3541 31.5002 43.3541C31.5685 43.3541 31.636 43.3505 31.7039 43.3489C31.8104 43.352 31.9171 43.3548 32.0238 43.3602C32.0611 43.3622 32.0984 43.3638 32.1358 43.366C32.2918 43.3753 32.4479 43.3878 32.6038 43.4023C32.6652 43.4081 32.7266 43.4144 32.788 43.4209C32.9033 43.4331 33.0184 43.4472 33.1336 43.4621C33.248 43.4771 33.3624 43.4938 33.4766 43.5115C33.5285 43.5195 33.5803 43.528 33.6322 43.5364C33.7093 43.5494 33.7866 43.5625 33.8636 43.5768L32.699 45.839H30.3014L29.137 43.5768ZM31.7481 41.4979C31.6698 41.4957 31.5915 41.4929 31.5129 41.4918C31.5045 41.4917 31.4961 41.4917 31.4877 41.4918C31.4092 41.4929 31.3309 41.4957 31.2527 41.4979C27.8299 41.3673 25.0852 38.5433 25.0852 35.0891V32.8264C29.1702 32.5704 31.5819 30.6519 32.7794 29.3204C33.6222 30.6298 35.2448 32.4351 37.9155 32.7917V35.089C37.9154 38.5433 35.1709 41.3671 31.7481 41.4979Z" fill="#FD3B3B"/>
<path d="M21.0961 13.3448C20.8911 12.714 20.3561 12.2628 19.6995 12.1674L15.494 11.5563L13.6132 7.74557C13.3198 7.15076 12.7252 6.78125 12.0618 6.78125C11.3986 6.78125 10.8041 7.15088 10.5106 7.74557L8.6303 11.5562L4.4248 12.1673C3.76834 12.2626 3.23333 12.7138 3.02834 13.3447C2.82334 13.9754 2.99118 14.6549 3.46614 15.1179L6.50934 18.0842L5.79087 22.2728C5.67877 22.9265 5.94246 23.5748 6.47907 23.9647C6.78226 24.1849 7.13713 24.2969 7.49421 24.2969C7.7691 24.2969 8.04558 24.2306 8.30091 24.0962L12.0623 22.1187L15.8236 24.0962C16.4108 24.405 17.1087 24.3546 17.6455 23.9647C18.1822 23.5747 18.4458 22.9265 18.3336 22.2728L17.6151 18.0844L20.6583 15.1181C21.1334 14.6552 21.3011 13.9756 21.0961 13.3448ZM16.279 16.8036C15.8714 17.201 15.6853 17.7733 15.7814 18.3348L16.4694 22.346L12.8671 20.4522C12.3631 20.1872 11.7611 20.1871 11.2571 20.4522L7.65491 22.346L8.34286 18.3348C8.43921 17.7734 8.25304 17.201 7.84526 16.8036L4.93101 13.9628L8.95847 13.3776C9.5219 13.2957 10.0089 12.942 10.261 12.4313L12.0622 8.78175L13.8633 12.4312C14.1154 12.9418 14.6021 13.2956 15.1657 13.3774L19.1932 13.9626L16.279 16.8036Z" fill="#FD3B3B"/>
<path d="M40.5517 6.5637C40.3467 5.93296 39.8117 5.48175 39.1552 5.38639L34.9497 4.77521L33.0688 0.964443C32.7752 0.369633 32.1808 0 31.5174 0C30.8541 0 30.2596 0.369633 29.9661 0.96432L28.0853 4.77509L23.8798 5.38626C23.2233 5.48163 22.6883 5.93284 22.4834 6.56358C22.2784 7.19432 22.4462 7.87378 22.9211 8.33693L25.9644 11.3031L25.2461 15.4916C25.134 16.1454 25.3977 16.7937 25.9343 17.1835C26.4709 17.5735 27.1688 17.6239 27.7561 17.3152L31.5176 15.3377L35.2791 17.3152C35.5346 17.4493 35.8108 17.5158 36.0856 17.5158C36.4426 17.5158 36.7975 17.4038 37.1007 17.1835C37.6374 16.7936 37.901 16.1453 37.7889 15.4916L37.0706 11.3032L40.1138 8.33693C40.5888 7.87403 40.7566 7.19444 40.5517 6.5637ZM35.7343 10.0227C35.3265 10.4202 35.1404 10.9927 35.2367 11.5539L35.9246 15.5651L32.3222 13.6712C32.0702 13.5388 31.7938 13.4724 31.5174 13.4724C31.2409 13.4724 30.9645 13.5388 30.7125 13.6712L27.1101 15.565L27.7981 11.5539C27.8944 10.9925 27.7083 10.4201 27.3006 10.0227L24.3864 7.18189L28.4137 6.59668C28.9773 6.51473 29.4643 6.16097 29.7161 5.65032L31.5172 2.00087L33.3182 5.6502C33.5704 6.16097 34.0571 6.51473 34.6208 6.59668L38.6483 7.18189L35.7343 10.0227Z" fill="#FD3B3B"/>
<path d="M59.9715 13.3448C59.7665 12.714 59.2314 12.2629 58.575 12.1674L54.3695 11.5563L52.4888 7.74557C52.1954 7.15076 51.6008 6.78125 50.9375 6.78125C50.2741 6.78125 49.6797 7.15088 49.3861 7.74557L47.5054 11.5563L43.2998 12.1674C42.6433 12.2628 42.1083 12.714 41.9033 13.3448C41.6983 13.9757 41.8662 14.6552 42.3411 15.1181L45.3843 18.0844L44.666 22.2729C44.5539 22.9266 44.8176 23.575 45.3542 23.9648C45.6574 24.185 46.0121 24.297 46.3693 24.297C46.6442 24.297 46.9206 24.2307 47.1759 24.0963L50.9373 22.1188L54.6988 24.0962C55.2857 24.4049 55.9839 24.3545 56.5206 23.9647C57.0573 23.5747 57.3209 22.9264 57.2088 22.2728L56.4904 18.0842L59.5335 15.1179C60.0086 14.6553 60.1763 13.9757 59.9715 13.3448ZM55.1543 16.8037C54.7465 17.2012 54.5605 17.7735 54.6567 18.3349L55.3446 22.3461L51.7424 20.4524C51.4903 20.3199 51.2139 20.2534 50.9373 20.2534C50.6608 20.2534 50.3844 20.3198 50.1324 20.4523L46.53 22.3461L47.218 18.335C47.3143 17.7737 47.1283 17.2013 46.7205 16.8038L43.8063 13.963L47.8338 13.3778C48.3974 13.296 48.8843 12.9421 49.1363 12.4316L50.9373 8.782L52.7385 12.4317C52.9906 12.9422 53.4774 13.2959 54.0408 13.3778L58.0683 13.963L55.1543 16.8037Z" fill="#FD3B3B"/>
</g>
<defs>
<clipPath id="clip0_808_40">
<rect width="63" height="63" fill="white"/>
</clipPath>
</defs>
</svg>
