<svg width="46" height="46" viewBox="0 0 46 46" fill="none" xmlns="http://www.w3.org/2000/svg">
<path d="M17.679 6.62283C17.8545 6.7983 18.0844 6.88598 18.3143 6.88598C18.5442 6.88598 18.7742 6.7983 18.9496 6.62283C19.3004 6.27199 19.3004 5.7031 18.9496 5.35217L16.9151 3.31775C16.5643 2.967 15.9954 2.967 15.6445 3.31775C15.2936 3.66859 15.2936 4.23748 15.6445 4.58841L17.679 6.62283Z" fill="#222222"/>
<path d="M26.7882 6.88598C27.0181 6.88598 27.2481 6.7983 27.4234 6.62283L29.4579 4.58841C29.8087 4.23757 29.8087 3.66868 29.4579 3.31775C29.107 2.967 28.5381 2.967 28.1872 3.31775L26.1528 5.35217C25.8019 5.70301 25.8019 6.2719 26.1528 6.62283C26.3282 6.7983 26.5582 6.88598 26.7882 6.88598Z" fill="#222222"/>
<path d="M22.5508 4.67394C23.047 4.67394 23.4492 4.27171 23.4492 3.7755V0.898438C23.4492 0.402231 23.047 0 22.5508 0C22.0546 0 21.6523 0.402231 21.6523 0.898438V3.7755C21.6523 4.27171 22.0546 4.67394 22.5508 4.67394Z" fill="#222222"/>
<path d="M38.5047 24.7416C38.1324 24.3694 37.6854 24.0993 37.1974 23.9455C37.5554 23.4167 37.7473 22.7942 37.7463 22.1432C37.7463 21.2815 37.4109 20.4714 36.8019 19.8624C36.3607 19.4212 35.8145 19.1236 35.2197 18.9929C35.3442 18.6465 35.4088 18.2777 35.4083 17.8993C35.4083 17.0375 35.0729 16.2275 34.4639 15.6184C34.1076 15.2622 33.6828 14.9995 33.2192 14.8427L36.9322 11.1297C37.5424 10.5194 37.8778 9.70904 37.8766 8.84897C37.8766 7.97182 37.531 7.15173 36.9035 6.53962C35.646 5.31361 33.5933 5.3456 32.3278 6.61096L22.5172 16.4215C22.4427 15.9623 22.3683 15.503 22.2935 15.0435C22.0139 13.3209 21.093 11.7945 19.6995 10.7447C18.8506 10.1067 17.6886 10.1892 16.9366 10.9412C16.5868 11.2909 16.372 11.7595 16.3316 12.2609L15.638 20.9268C15.5046 22.5911 14.781 24.1578 13.6003 25.3384L12.9044 26.0344L12.7165 25.8465C12.3656 25.4958 11.7968 25.4958 11.446 25.8465L6.81442 30.4779C6.64596 30.6465 6.55127 30.875 6.55127 31.1132C6.55127 31.3515 6.64596 31.5801 6.81442 31.7485L10.949 35.8831C11.2999 36.2339 11.8688 36.2339 12.2197 35.8831C12.5705 35.5323 12.5705 34.9634 12.2197 34.6125L8.72037 31.1132L12.0814 27.7523L24.7975 40.4684L21.4366 43.8294L17.9373 40.33C17.5865 39.9792 17.0176 39.9792 16.6667 40.33C16.3158 40.6809 16.3158 41.2498 16.6667 41.6007L20.8013 45.7353C20.9768 45.9107 21.2067 45.9985 21.4366 45.9985C21.6665 45.9985 21.8965 45.9107 22.0719 45.7353L26.7034 41.1038C27.0542 40.7529 27.0542 40.184 26.7034 39.8331L26.5214 39.6511C26.7941 39.4035 27.0901 39.1815 27.4062 38.9918L29.2874 37.8636C30.3751 37.2116 31.3818 36.426 32.2796 35.5283L38.5048 29.3031C39.115 28.6928 39.4503 27.8825 39.4492 27.0223C39.4491 26.1606 39.1138 25.3507 38.5047 24.7416ZM37.2342 28.0326L31.0089 34.2579C30.2153 35.0515 29.3252 35.7462 28.3634 36.3227L26.4821 37.451C26.0399 37.7162 25.6264 38.0279 25.2488 38.3786L14.1751 27.3048L14.8711 26.6089C16.3532 25.1268 17.2617 23.1597 17.4293 21.0702L18.1229 12.4046C18.1292 12.3264 18.1576 12.2614 18.2073 12.2117C18.2746 12.1444 18.4476 12.0514 18.6193 12.1805C19.64 12.9495 20.315 14.0685 20.52 15.3316C20.6886 16.369 20.8565 17.4055 21.0243 18.4419C21.0782 18.7749 21.314 19.0496 21.635 19.1532C21.956 19.257 22.308 19.1721 22.5465 18.9337L33.5984 7.88162C34.172 7.30796 35.0919 7.28308 35.649 7.82609C35.9267 8.09706 36.0797 8.46039 36.0797 8.85031C36.0802 9.23071 35.9317 9.5891 35.6616 9.85917C33.77 11.7507 28.8947 16.626 27.069 18.4518C26.7181 18.8027 26.7181 19.3716 27.069 19.7224C27.2444 19.8979 27.4744 19.9855 27.7043 19.9855C27.9342 19.9855 28.1642 19.8978 28.3395 19.7224L31.1729 16.889C31.7298 16.3321 32.6363 16.332 33.1933 16.8891C33.4629 17.1587 33.6114 17.5174 33.6114 17.9005C33.6119 18.281 33.4634 18.6393 33.1933 18.9095C32.5902 19.5124 30.983 21.1197 30.3599 21.7428C30.009 22.0936 30.009 22.6625 30.3599 23.0135C30.5353 23.1889 30.7652 23.2766 30.9951 23.2766C31.2251 23.2766 31.4551 23.1889 31.6304 23.0135L33.5109 21.133C33.7808 20.8631 34.1396 20.7143 34.5211 20.7143C34.9025 20.7143 35.2613 20.863 35.5313 21.133C35.8009 21.4027 35.9494 21.7614 35.9494 22.1445C35.9499 22.525 35.8014 22.8833 35.5313 23.1533C35.3222 23.3624 33.8172 24.8674 33.6508 25.0338C33.3 25.3846 33.3 25.9535 33.6508 26.3044C33.8263 26.4799 34.0562 26.5676 34.2861 26.5676C34.516 26.5676 34.746 26.4799 34.9214 26.3044L35.2136 26.0123C35.4836 25.7423 35.8424 25.5935 36.2238 25.5935C36.6053 25.5935 36.964 25.7422 37.234 26.0123C37.5036 26.2818 37.6521 26.6406 37.6521 27.0237C37.6528 27.4041 37.5042 27.7624 37.2342 28.0326Z" fill="#222222"/>
<path d="M14.4434 39.0078C14.9396 39.0078 15.3418 38.6056 15.3418 38.1094C15.3418 37.6132 14.9396 37.2109 14.4434 37.2109C13.9472 37.2109 13.5449 37.6132 13.5449 38.1094C13.5449 38.6056 13.9472 39.0078 14.4434 39.0078Z" fill="#222222"/>
</svg>
