<svg width="46" height="46" viewBox="0 0 46 46" fill="none" xmlns="http://www.w3.org/2000/svg">
<g clip-path="url(#clip0_766_138)">
<path d="M45.5431 19.151C45.3503 17.3907 43.9263 16.0233 42.1576 15.8997C40.6068 15.7905 39.0549 15.7036 37.5454 15.6416C34.8557 15.5286 32.1317 15.4827 29.436 15.5029C29.6149 11.6661 29.497 7.81282 29.0787 3.99762C28.8923 2.29206 27.5137 0.96701 25.8009 0.846968C19.9433 0.436346 14.0061 0.352783 8.15458 0.598798C6.69278 0.659537 5.20025 0.74301 3.71842 0.846968C2.00566 0.96701 0.626436 2.29188 0.438825 3.99753C-0.14593 9.33707 -0.14629 14.7538 0.437837 20.0975C0.625807 21.8063 2.00548 23.1335 3.71797 23.2533L4.06282 23.2778C4.55314 23.3106 4.93717 23.7209 4.93717 24.2119V27.4159C4.93717 28.1731 5.35839 28.852 6.03668 29.1879C6.31693 29.3267 6.61713 29.395 6.91543 29.395C7.33837 29.395 7.75744 29.2576 8.10993 28.989C8.77923 28.4796 9.41619 27.9607 10.0031 27.4465C10.283 27.2013 10.3112 26.7755 10.0659 26.4956C9.8207 26.2156 9.3949 26.1875 9.11501 26.4327C8.55128 26.9266 7.9384 27.4258 7.29335 27.9167C7.09927 28.0646 6.85317 28.0882 6.63474 27.9801C6.41568 27.8715 6.28485 27.6606 6.28485 27.4159V24.2119C6.28485 23.014 5.34833 22.0129 4.15528 21.9331L3.81249 21.9088C2.74999 21.8345 1.89407 21.0107 1.77762 19.9506C1.20409 14.7045 1.20445 9.38649 1.77852 4.14453C1.89478 3.08724 2.75026 2.26582 3.81276 2.19133C5.28193 2.08827 6.76143 2.00552 8.21092 1.94532C14.0122 1.70155 19.8989 1.78421 25.7067 2.19133C26.7686 2.26582 27.6234 3.08706 27.739 4.14426C28.3141 9.39089 28.3141 14.711 27.739 19.9569C27.7153 20.1733 27.6602 20.383 27.5747 20.5816C27.2489 21.3425 26.5325 21.851 25.7047 21.9088C21.8242 22.1819 17.8733 22.3102 13.961 22.2907C13.9557 22.2907 13.9505 22.2907 13.9453 22.2907C13.1954 22.2907 12.4958 22.6545 12.0715 23.2654C11.7736 23.6938 11.4096 24.1458 10.9897 24.6093C10.7398 24.885 10.7607 25.3112 11.0365 25.5612C11.3122 25.811 11.7384 25.7902 11.9884 25.5143C12.447 25.0083 12.8472 24.5106 13.1783 24.0347C13.3506 23.7863 13.6369 23.6386 13.9463 23.6386H13.9529C14.4523 23.6411 14.9523 23.6411 15.4527 23.6389C15.2468 27.7092 15.3672 31.8288 15.8122 35.897C15.8526 36.2597 15.9451 36.6102 16.0862 36.9364C16.6285 38.2044 17.8211 39.0514 19.1976 39.1469C23.2722 39.4335 27.4172 39.5675 31.5167 39.5475H31.5234C31.8532 39.5475 32.1597 39.7056 32.3443 39.9716C33.7305 41.9664 35.9724 43.8708 37.609 45.117C37.971 45.3928 38.4011 45.5339 38.8353 45.5339C39.1415 45.5339 39.4497 45.4638 39.7373 45.3213C40.4333 44.9766 40.8658 44.2798 40.8658 43.5028V40.1711C40.8658 39.6463 41.2759 39.2075 41.8003 39.1722L41.8154 39.1712C41.9305 39.1633 42.0456 39.1555 42.1579 39.1469C43.9268 39.0235 45.3506 37.6531 45.5439 35.8883C45.5638 35.7065 45.5827 35.5247 45.6018 35.342C45.6402 34.9718 45.3714 34.6405 45.0011 34.6021C44.6299 34.5633 44.2996 34.8325 44.2612 35.2027C44.2425 35.383 44.2237 35.5625 44.2041 35.7418C44.082 36.8578 43.182 37.7244 42.0605 37.8028C41.9476 37.8113 41.8355 37.8189 41.7235 37.8266L41.709 37.8276C40.4804 37.9104 39.518 38.9398 39.518 40.1712V43.5029C39.518 43.7678 39.3764 43.9961 39.1393 44.1136C38.9025 44.2308 38.6358 44.2051 38.4258 44.0449C36.8662 42.8573 34.7371 41.0532 33.4514 39.2028C33.0148 38.574 32.295 38.1998 31.5245 38.1998C31.5193 38.1998 31.5142 38.1998 31.509 38.1998C27.4433 38.2201 23.3333 38.0867 19.2917 37.8025C18.4213 37.7421 17.668 37.2071 17.3244 36.4041C17.2355 36.1984 17.1774 35.9775 17.1519 35.749C16.7119 31.7263 16.5952 27.6515 16.8032 23.6265C19.8108 23.5871 22.8256 23.4625 25.7988 23.2532C27.1327 23.1602 28.2879 22.3398 28.813 21.1136C28.9511 20.7932 29.0405 20.4533 29.0786 20.1036C29.1972 19.0222 29.2905 17.9376 29.361 16.8512C32.0618 16.8295 34.7928 16.8747 37.4893 16.988C38.9863 17.0496 40.5251 17.1357 42.0631 17.2439C43.1813 17.3221 44.0813 18.1857 44.2031 19.2974C44.6847 23.6962 44.7794 28.1531 44.4845 32.5442C44.4596 32.9155 44.7404 33.2368 45.1116 33.2616C45.1271 33.2627 45.1423 33.2633 45.1575 33.2633C45.509 33.2633 45.8053 32.9905 45.8293 32.6345C46.1297 28.1649 46.0333 23.6283 45.5431 19.151Z" fill="#222222"/>
<path d="M39.3177 28.8523C39.3284 28.3224 39.127 27.8191 38.7505 27.4349C38.684 27.367 38.613 27.3042 38.5382 27.2468C38.7335 26.9392 38.8468 26.5745 38.8468 26.1837C38.8468 25.652 38.6397 25.1526 38.2647 24.7782C37.8899 24.4028 37.3906 24.1961 36.8589 24.1961H34.2026L35.202 22.0671C35.7682 20.862 35.2481 19.4206 34.0425 18.8542C33.7186 18.7022 33.3738 18.625 33.0173 18.625C32.0849 18.625 31.226 19.1703 30.8295 20.0144L30.2135 21.327C29.9006 21.9932 29.4108 22.5356 28.7973 22.8956C28.2007 23.2452 27.7316 23.7581 27.4308 24.3809C27.2168 24.2838 26.98 24.2283 26.73 24.2283H24.7008C23.7619 24.2283 22.998 24.9922 22.998 25.9312V34.1263C22.998 35.0653 23.7619 35.8291 24.7008 35.8291H26.73C27.0506 35.8291 27.3498 35.7384 27.6061 35.5837C28.0859 35.8912 28.6439 36.0567 29.2269 36.0567H36.3872C37.4831 36.0567 38.3748 35.1648 38.3748 34.0686C38.3748 33.8235 38.3306 33.584 38.2437 33.3564C38.2415 33.3504 38.2392 33.3443 38.2368 33.3383C38.1917 33.2245 38.137 33.1161 38.0728 33.0138C38.5434 32.6499 38.8469 32.0799 38.8469 31.4404C38.8469 31.0602 38.741 30.6964 38.5434 30.383C39.0034 30.0259 39.3056 29.4725 39.3177 28.8523ZM24.7006 34.4813C24.5048 34.4813 24.3456 34.3221 24.3456 34.1263V25.9312C24.3456 25.7354 24.5048 25.5761 24.7006 25.5761H26.7298C26.9256 25.5761 27.0849 25.7354 27.0849 25.9312V34.1263C27.0849 34.3221 26.9256 34.4813 26.7298 34.4813H24.7006ZM37.3308 29.4527H36.8587C36.4864 29.4527 36.1848 29.7544 36.1848 30.1266C36.1848 30.4987 36.4864 30.8005 36.8587 30.8005C37.03 30.8005 37.1906 30.8667 37.3115 30.9878C37.4324 31.1085 37.499 31.2691 37.499 31.4403C37.499 31.7933 37.2118 32.0806 36.8587 32.0806H36.387C36.0148 32.0806 35.7132 32.3823 35.7132 32.7545C35.7132 33.1266 36.0148 33.4284 36.387 33.4284C36.5582 33.4284 36.719 33.4949 36.8397 33.6156C36.9002 33.6761 36.9473 33.7466 36.9799 33.8254C36.9808 33.8277 36.9817 33.8301 36.9826 33.8324C37.0119 33.9074 37.0268 33.9868 37.0268 34.0686C37.0268 34.4216 36.7398 34.7088 36.387 34.7088H29.2268C28.9295 34.7088 28.6448 34.6297 28.3941 34.4843C28.4189 34.3687 28.4327 34.2491 28.4327 34.1262C28.4327 34.1262 28.4327 25.9209 28.4326 25.9186C28.427 25.61 28.4874 25.3109 28.6123 25.0296C28.7947 24.6195 29.0941 24.2836 29.4788 24.0582C30.3282 23.5599 31.0041 22.8135 31.4332 21.8999L32.0493 20.5873C32.2247 20.214 32.6046 19.9728 33.0171 19.9728C33.1739 19.9728 33.326 20.0068 33.4691 20.074C34.0021 20.3245 34.2321 20.9614 33.9818 21.4941L32.5405 24.5645C32.4451 24.7678 32.4571 25.0055 32.5728 25.198C32.5833 25.2153 32.5894 25.2244 32.5958 25.2342C32.7198 25.4271 32.9334 25.5439 33.1628 25.5439H36.8587C37.03 25.5439 37.1906 25.6101 37.3115 25.7313C37.4325 25.8519 37.499 26.0126 37.499 26.1837C37.499 26.537 37.2118 26.8243 36.8587 26.8243C36.4864 26.8243 36.1848 27.1261 36.1848 27.4982C36.1848 27.8704 36.4864 28.1721 36.8587 28.1721H37.3011C37.4822 28.1721 37.6595 28.2472 37.7879 28.3781C37.9089 28.5016 37.9736 28.6603 37.9702 28.8254C37.9635 29.1714 37.6766 29.4527 37.3308 29.4527Z" fill="#222222"/>
<path d="M20.9837 9.14829C20.9837 7.77419 20.311 6.65625 19.484 6.65625C18.6571 6.65625 17.9844 7.77419 17.9844 9.14829C17.9844 10.5224 18.6571 11.6403 19.484 11.6403C20.311 11.6403 20.9837 10.5224 20.9837 9.14829Z" fill="#222222"/>
<path d="M11.5335 9.14829C11.5335 7.77419 10.8608 6.65625 10.0338 6.65625C9.2069 6.65625 8.53418 7.77419 8.53418 9.14829C8.53418 10.5224 9.2069 11.6403 10.0338 11.6403C10.8608 11.6403 11.5335 10.5224 11.5335 9.14829Z" fill="#222222"/>
<path d="M14.7594 18.0253C17.176 18.0253 19.3446 16.5857 20.2839 14.3577C20.4285 14.0147 20.2676 13.6196 19.9248 13.4749C19.5815 13.3305 19.1865 13.4912 19.042 13.8341C18.3138 15.5614 16.6328 16.6775 14.7594 16.6775C12.8859 16.6775 11.2048 15.5614 10.4767 13.8341C10.3322 13.4912 9.93666 13.3306 9.59387 13.4749C9.251 13.6195 9.09016 14.0147 9.23473 14.3577C10.174 16.5857 12.3425 18.0253 14.7594 18.0253Z" fill="#222222"/>
</g>
<defs>
<clipPath id="clip0_766_138">
<rect width="46" height="46" fill="white"/>
</clipPath>
</defs>
</svg>
