<svg width="153" height="39" viewBox="0 0 153 39" fill="none" xmlns="http://www.w3.org/2000/svg">
<g clip-path="url(#clip0_506_139)">
<path d="M44.5537 27.4435H55.5037V24.1069H48.4456V11.5391H44.5537V27.4435Z" fill="#222222"/>
<path d="M61.9915 25.2181C60.4304 25.2181 59.6168 23.839 59.6168 21.7703C59.6168 19.7016 60.4304 18.3002 61.9915 18.3002C63.5527 18.3002 64.3882 19.7016 64.3882 21.7703C64.3882 23.839 63.5527 25.2181 61.9915 25.2181ZM62.0135 27.7984C65.6415 27.7984 68.0162 25.1958 68.0162 21.7703C68.0162 18.3447 65.6415 15.7422 62.0135 15.7422C58.4074 15.7422 55.9888 18.3447 55.9888 21.7703C55.9888 25.1958 58.4074 27.7984 62.0135 27.7984Z" fill="#222222"/>
<path d="M74.296 31.3785C75.9671 31.3785 77.4403 31.0003 78.4298 30.1106C79.3313 29.2875 79.9249 28.0419 79.9249 26.3291V16.0524H76.4948V17.2758H76.4508C75.7912 16.3193 74.7797 15.7188 73.2846 15.7188C70.4921 15.7188 68.5571 18.0766 68.5571 21.4132C68.5571 24.9055 70.9099 26.8185 73.4385 26.8185C74.8017 26.8185 75.6593 26.2624 76.3189 25.5061H76.4069V26.6405C76.4069 28.0196 75.7692 28.8204 74.252 28.8204C73.0647 28.8204 72.471 28.3088 72.2731 27.7082H68.799C69.1508 30.0883 71.1957 31.3785 74.296 31.3785ZM74.274 24.1269C72.9327 24.1269 72.0532 23.0148 72.0532 21.302C72.0532 19.5669 72.9327 18.4548 74.274 18.4548C75.7692 18.4548 76.5608 19.7449 76.5608 21.2797C76.5608 22.8813 75.8352 24.1269 74.274 24.1269Z" fill="#222222"/>
<path d="M86.9778 25.2181C85.4167 25.2181 84.6031 23.839 84.6031 21.7703C84.6031 19.7016 85.4167 18.3002 86.9778 18.3002C88.539 18.3002 89.3745 19.7016 89.3745 21.7703C89.3745 23.839 88.539 25.2181 86.9778 25.2181ZM86.9998 27.7984C90.6278 27.7984 93.0028 25.1958 93.0028 21.7703C93.0028 18.3447 90.6278 15.7422 86.9998 15.7422C83.3938 15.7422 80.9751 18.3447 80.9751 21.7703C80.9751 25.1958 83.3938 27.7984 86.9998 27.7984Z" fill="#222222"/>
<path d="M94.0493 27.4435H97.6334V16.0546H94.0493V27.4435ZM94.0493 14.4753H97.6334V11.5391H94.0493V14.4753Z" fill="#222222"/>
<path d="M99.188 31.2005H102.772V26.2624H102.816C103.52 27.2188 104.553 27.7972 106.004 27.7972C108.951 27.7972 110.908 25.4393 110.908 21.7468C110.908 18.3213 109.083 15.7188 106.092 15.7188C104.553 15.7188 103.454 16.4083 102.684 17.4315H102.618V16.0524H99.188V31.2005ZM105.081 24.9945C103.542 24.9945 102.662 23.7266 102.662 21.8803C102.662 20.0341 103.454 18.6327 105.015 18.6327C106.554 18.6327 107.28 19.9228 107.28 21.8803C107.28 23.8155 106.444 24.9945 105.081 24.9945Z" fill="#222222"/>
<path d="M116.744 27.7972C119.69 27.7972 121.867 26.507 121.867 24.0157C121.867 21.1018 119.536 20.5902 117.557 20.2565C116.128 19.9896 114.853 19.8784 114.853 19.0776C114.853 18.3658 115.534 18.0321 116.414 18.0321C117.403 18.0321 118.085 18.3435 118.217 19.3668H121.515C121.339 17.1201 119.624 15.7188 116.436 15.7188C113.775 15.7188 111.576 16.9644 111.576 19.3668C111.576 22.036 113.665 22.5699 115.622 22.9035C117.117 23.1705 118.481 23.2817 118.481 24.3049C118.481 25.0389 117.799 25.4393 116.722 25.4393C115.534 25.4393 114.787 24.8832 114.655 23.7488H111.269C111.378 26.2624 113.445 27.7972 116.744 27.7972Z" fill="#222222"/>
<path d="M126.734 27.7772C128.295 27.7772 129.285 27.1544 130.098 26.0422H130.164V27.4436H133.594V16.0547H130.01V22.4164C130.01 23.7733 129.263 24.7076 128.031 24.7076C126.888 24.7076 126.338 24.018 126.338 22.7723V16.0547H122.776V23.5286C122.776 26.0644 124.14 27.7772 126.734 27.7772Z" fill="#222222"/>
<path d="M135.154 27.4413H138.738V21.0573C138.738 19.7004 139.397 18.7439 140.519 18.7439C141.596 18.7439 142.102 19.4557 142.102 20.6791V27.4413H145.686V21.0573C145.686 19.7004 146.324 18.7439 147.467 18.7439C148.545 18.7439 149.05 19.4557 149.05 20.6791V27.4413H152.634V20.0341C152.634 17.476 151.359 15.7188 148.808 15.7188C147.357 15.7188 146.148 16.3416 145.268 17.7207H145.224C144.653 16.4973 143.531 15.7188 142.058 15.7188C140.431 15.7188 139.354 16.4973 138.65 17.6762H138.584V16.0524H135.154V27.4413Z" fill="#222222"/>
<path fill-rule="evenodd" clip-rule="evenodd" d="M7.92851 4.36586C6.61778 5.29302 5.43254 6.38923 4.40364 7.62323C8.6082 7.22833 13.95 7.87315 20.1517 11.0101C26.7743 14.3599 32.1071 14.4731 35.8185 13.7489C35.4817 12.7174 35.0577 11.7261 34.5556 10.7837C30.307 11.237 24.8604 10.637 18.5128 7.42635C14.4821 5.38751 10.929 4.54765 7.92851 4.36586ZM32.0738 7.21009C28.7187 3.41783 23.8429 1.03125 18.4161 1.03125C16.8224 1.03125 15.2761 1.23711 13.802 1.62394C15.7985 2.17504 17.9194 2.98129 20.1517 4.11042C24.799 6.4611 28.8113 7.21798 32.0738 7.21009ZM36.612 17.3695C32.1283 18.2652 25.9367 18.0812 18.5128 14.326C11.5723 10.8154 6.04826 10.8596 2.32263 11.6972C2.13033 11.7404 1.94255 11.7858 1.75931 11.8331C1.27153 12.9062 0.882175 14.0347 0.602806 15.2066C0.901187 15.126 1.20952 15.0493 1.52764 14.9778C6.04747 13.9617 12.4336 14.0058 20.1517 17.9098C27.0923 21.4205 32.6163 21.3762 36.342 20.5387C36.4696 20.51 36.5954 20.4804 36.7191 20.4498C36.7327 20.1576 36.7394 19.8635 36.7394 19.5678C36.7394 18.824 36.6962 18.0904 36.612 17.3695ZM36.1208 24.3617C31.6806 25.147 25.6694 24.8455 18.5128 21.2257C11.5723 17.7151 6.04826 17.7593 2.32263 18.5969C1.49566 18.7827 0.751717 19.0091 0.0954578 19.2481C0.0936685 19.3545 0.0927734 19.461 0.0927734 19.5678C0.0927734 29.8053 8.2964 38.1044 18.4161 38.1044C26.8971 38.1044 34.0324 32.2755 36.1208 24.3617Z" fill="#222222"/>
</g>
<defs>
<clipPath id="clip0_506_139">
<rect width="153" height="38" fill="white" transform="translate(0 0.757812)"/>
</clipPath>
</defs>
</svg>
