<svg width="138" height="37" viewBox="0 0 138 37" fill="none" xmlns="http://www.w3.org/2000/svg">
<path d="M11.3076 33.4093L8.05518 27.7759L12.8283 19.5312L15.8614 24.7852L33.7666 24.7756L28.6859 33.487L11.3076 33.4093Z" fill="#222222"/>
<path d="M36.9643 19.1879L33.7119 24.8212L24.1853 24.81L27.2187 19.5562L18.2578 4.05469L28.3425 4.09894L36.9643 19.1879Z" fill="#222222"/>
<path d="M11.8093 4.02344H18.3142L23.0677 12.2795L17.001 12.2792L8.05681 27.7904L3.05273 19.0347L11.8093 4.02344Z" fill="#222222"/>
<path fill-rule="evenodd" clip-rule="evenodd" d="M19.1068 2.72115L19.0874 2.6875H11.0404L1.50732 19.0299L8.05126 30.4799L8.05929 30.466L10.5332 34.7509L29.4526 34.8355L36.0967 23.4432H36.0525L38.5069 19.1921L29.1205 2.76508L19.1068 2.72115ZM25.3316 13.6195H25.3818L20.6515 5.40406L27.5636 5.43437L35.4208 19.1852L32.9615 23.445L26.5165 23.4484L28.7636 19.5565L25.3316 13.6195ZM17.4681 5.36356L20.6935 10.9433L16.2277 10.9432L8.58213 24.2021L8.06061 25.103L4.59748 19.0435L12.5775 5.36356H17.4681ZM14.367 19.5271L17.7736 13.6193L22.2406 13.6195L25.673 19.5573L23.4254 23.4501L16.6339 23.4538L14.367 19.5271ZM9.60335 27.7882L10.8994 25.5407L12.8267 22.2116L15.0892 26.1307L21.8797 26.127L21.8687 26.146L31.4159 26.1573L27.9194 32.1526L12.0822 32.0817L9.60335 27.7882Z" fill="#222222"/>
<path d="M87.2459 12.4737C88.1623 12.4737 88.9068 11.7291 88.9068 10.7937C88.9068 9.85826 88.1623 9.13281 87.2459 9.13281C86.3105 9.13281 85.5659 9.85826 85.5659 10.7937C85.5659 11.7291 86.3105 12.4737 87.2459 12.4737ZM85.7568 23.5082H88.7159V13.9628H85.7568V23.5082Z" fill="#222222"/>
<path d="M90.4385 28.0969H93.3404V22.5605C93.894 23.286 95.154 23.7823 96.4713 23.7823C99.3158 23.7823 101.034 21.606 100.958 18.5896C100.881 15.5159 99.1058 13.6641 96.4522 13.6641C95.0967 13.6641 93.8176 14.2559 93.2831 15.1341L93.1304 13.9696H90.4385V28.0969ZM93.3976 18.7423C93.3976 17.3105 94.3522 16.356 95.7267 16.356C97.1204 16.356 97.9986 17.3296 97.9986 18.7423C97.9986 20.155 97.1204 21.1287 95.7267 21.1287C94.3522 21.1287 93.3976 20.1741 93.3976 18.7423Z" fill="#222222"/>
<path d="M101.271 20.4987C101.347 22.4269 102.875 23.7632 105.28 23.7632C107.59 23.7632 109.194 22.5414 109.194 20.575C109.194 19.1623 108.354 18.2269 106.788 17.845L105.089 17.425C104.478 17.2723 104.096 17.1196 104.096 16.6232C104.096 16.1269 104.497 15.8023 105.089 15.8023C105.757 15.8023 106.196 16.2414 106.177 16.8905H108.831C108.755 14.905 107.246 13.6641 105.146 13.6641C103.027 13.6641 101.443 14.9241 101.443 16.8332C101.443 18.1123 102.149 19.1623 104.039 19.6587L105.719 20.0978C106.215 20.2314 106.425 20.4605 106.425 20.785C106.425 21.2623 105.986 21.5678 105.242 21.5678C104.383 21.5678 103.925 21.1669 103.925 20.4987H101.271Z" fill="#222222"/>
<path d="M113.694 23.7623C114.858 23.7623 116.023 23.2278 116.615 22.4451L116.806 23.5141H119.574V13.9688H116.634V18.9323C116.634 20.3641 116.214 21.147 114.858 21.147C113.808 21.147 113.121 20.6697 113.121 18.8942V13.9688H110.181V19.9633C110.181 22.2352 111.441 23.7623 113.694 23.7623Z" fill="#222222"/>
<path d="M124.236 23.5106V18.2988C124.236 16.6952 125.095 16.237 125.935 16.237C126.871 16.237 127.482 16.8097 127.482 17.9934V23.5106H130.383V18.2988C130.383 16.6761 131.223 16.2179 132.063 16.2179C132.999 16.2179 133.629 16.7906 133.629 17.9934V23.5106H136.492V17.2679C136.492 15.0915 135.347 13.6406 132.884 13.6406C131.51 13.6406 130.383 14.3088 129.887 15.3397C129.314 14.3088 128.322 13.6406 126.737 13.6406C125.687 13.6406 124.713 14.1179 124.141 14.8815L124.026 13.9652H121.277V23.5106H124.236Z" fill="#222222"/>
<path d="M46.9239 9.38281H43.793V23.5101H52.4603V20.7419H46.9239V9.38281Z" fill="#222222"/>
<path d="M52.7593 18.7198C52.7593 21.7361 54.783 23.7407 57.8375 23.7407C60.873 23.7407 62.8966 21.7361 62.8966 18.7198C62.8966 15.7034 60.873 13.6797 57.8375 13.6797C54.783 13.6797 52.7593 15.7034 52.7593 18.7198ZM55.7184 18.7007C55.7184 17.2688 56.5584 16.3143 57.8375 16.3143C59.0975 16.3143 59.9375 17.2688 59.9375 18.7007C59.9375 20.1516 59.0975 21.1061 57.8375 21.1061C56.5584 21.1061 55.7184 20.1516 55.7184 18.7007Z" fill="#222222"/>
<path d="M63.3696 18.566C63.3696 21.4488 65.2406 23.396 67.8942 23.396C69.1733 23.396 70.2806 22.9379 70.8342 22.1933V23.5106C70.8342 24.8279 70.0133 25.706 68.5624 25.706C67.2642 25.706 66.3669 25.0951 66.3096 24.0069H63.3315C63.5987 26.6224 65.6224 28.3788 68.3906 28.3788C71.6551 28.3788 73.7169 26.2597 73.7169 22.8997V13.9651H71.0633L70.9106 14.9388C70.376 14.156 69.2497 13.6406 67.9515 13.6406C65.2787 13.6406 63.3696 15.6451 63.3696 18.566ZM66.3478 18.4897C66.3478 17.1151 67.2642 16.1988 68.4287 16.1988C69.7842 16.1988 70.7769 17.096 70.7769 18.4897C70.7769 19.8833 69.8033 20.8378 68.4478 20.8378C67.2833 20.8378 66.3478 19.8833 66.3478 18.4897Z" fill="#222222"/>
<path d="M74.5737 18.7198C74.5737 21.7361 76.5973 23.7407 79.6519 23.7407C82.6873 23.7407 84.711 21.7361 84.711 18.7198C84.711 15.7034 82.6873 13.6797 79.6519 13.6797C76.5973 13.6797 74.5737 15.7034 74.5737 18.7198ZM77.5328 18.7007C77.5328 17.2688 78.3728 16.3143 79.6519 16.3143C80.9119 16.3143 81.7519 17.2688 81.7519 18.7007C81.7519 20.1516 80.9119 21.1061 79.6519 21.1061C78.3728 21.1061 77.5328 20.1516 77.5328 18.7007Z" fill="#222222"/>
</svg>
