<svg width="14" height="15" viewBox="0 0 14 15" fill="none" xmlns="http://www.w3.org/2000/svg">
<path d="M13.8672 13.7774L10.2526 10.2206C11.1991 9.1922 11.7807 7.83214 11.7807 6.33554C11.7803 3.13403 9.14327 0.539062 5.89013 0.539062C2.63699 0.539062 0 3.13403 0 6.33554C0 9.53705 2.63699 12.132 5.89013 12.132C7.29571 12.132 8.58488 11.6458 9.59751 10.8376L13.2261 14.4084C13.4029 14.5826 13.6899 14.5826 13.8668 14.4084C14.044 14.2343 14.044 13.9516 13.8672 13.7774ZM5.89013 11.2402C3.13762 11.2402 0.906279 9.04431 0.906279 6.33554C0.906279 3.62677 3.13762 1.43088 5.89013 1.43088C8.64266 1.43088 10.874 3.62677 10.874 6.33554C10.874 9.04431 8.64266 11.2402 5.89013 11.2402Z" fill="#222222"/>
</svg>
