<svg width="23" height="16" viewBox="0 0 23 16" fill="none" xmlns="http://www.w3.org/2000/svg">
<path d="M12.1517 0.354207C8.41064 0.143351 4.80127 1.76766 2.47812 4.70757C0.154964 7.64749 -0.590856 11.5346 0.479219 15.1256C0.579237 15.4484 0.877621 15.6687 1.2156 15.6691H21.7849C22.1229 15.6686 22.4212 15.4481 22.5209 15.1252C23.5272 11.7541 22.935 8.10782 20.9137 5.22838C18.8923 2.34895 15.6642 0.553166 12.1517 0.354207ZM21.7849 14.9025L1.21369 14.9052C0.24449 11.6575 0.866154 8.14282 2.89058 5.42465C4.915 2.70647 8.10432 1.10414 11.4935 1.10247C11.698 1.10247 11.9033 1.1081 12.1096 1.11934C15.3873 1.30442 18.4 2.98 20.2862 5.66705C22.1724 8.3541 22.7246 11.7568 21.7849 14.9025Z" fill="#FD3B3B"/>
<path d="M11.5001 1.86719C8.5078 1.86923 5.67455 3.21464 3.78189 5.53228C1.88922 7.84992 1.13714 10.8949 1.73311 13.8272C1.77964 14.03 1.97952 14.1587 2.18343 14.1171C2.38733 14.0754 2.52077 13.8787 2.48406 13.6739C2.38734 13.1937 2.32901 12.7066 2.30964 12.2172H3.45006C3.66177 12.2172 3.83339 12.0456 3.83339 11.8339C3.83339 11.6221 3.66177 11.4505 3.45006 11.4505H2.30964C2.36461 10.0963 2.72025 8.7713 3.35078 7.57157L4.33671 8.14082C4.45538 8.21039 4.60223 8.21104 4.72151 8.14253C4.84079 8.07401 4.91421 7.94684 4.91391 7.80928C4.91361 7.67173 4.83962 7.54488 4.72004 7.47689L3.73564 6.9084C4.46322 5.76606 5.43226 4.79701 6.57461 4.06944L7.14309 5.05384C7.21108 5.17342 7.33793 5.2474 7.47549 5.24771C7.61305 5.24801 7.74022 5.17458 7.80873 5.0553C7.87725 4.93602 7.8766 4.78917 7.80703 4.6705L7.23778 3.68457C9.90662 2.28362 13.0935 2.28362 15.7623 3.68457L15.1931 4.6705C15.1235 4.78917 15.1229 4.93602 15.1914 5.0553C15.2599 5.17458 15.3871 5.24801 15.5246 5.24771C15.6622 5.2474 15.789 5.17342 15.857 5.05384L16.4255 4.06944C17.5679 4.79701 18.5369 5.76606 19.2645 6.9084L18.2801 7.47689C18.1605 7.54488 18.0865 7.67173 18.0862 7.80928C18.0859 7.94684 18.1593 8.07401 18.2786 8.14253C18.3979 8.21104 18.5447 8.21039 18.6634 8.14082L19.6493 7.57157C20.2799 8.7713 20.6355 10.0963 20.6905 11.4505H19.5501C19.3384 11.4505 19.1667 11.6221 19.1667 11.8339C19.1667 12.0456 19.3384 12.2172 19.5501 12.2172H20.6905C20.6711 12.7066 20.6128 13.1937 20.5161 13.6739C20.4741 13.8811 20.6079 14.0831 20.8151 14.1254C20.8403 14.1307 20.866 14.1334 20.8917 14.1335C21.0738 14.1333 21.2306 14.0052 21.267 13.8268C21.8628 10.8946 21.1107 7.8497 19.2181 5.53215C17.3254 3.21461 14.4922 1.86925 11.5001 1.86719Z" fill="#FD3B3B"/>
<path d="M12.8317 9.96552L12.3 4.13885C12.2636 3.72429 11.9165 3.40625 11.5004 3.40625C11.0842 3.40625 10.7371 3.72429 10.7007 4.13885L10.169 9.96552C9.3527 10.545 9.00494 11.5859 9.30905 12.5397C9.61315 13.4935 10.4993 14.141 11.5004 14.141C12.5015 14.141 13.3876 13.4935 13.6917 12.5397C13.9958 11.5859 13.648 10.545 12.8317 9.96552ZM11.4643 4.2044C11.4698 4.18924 11.4842 4.17915 11.5004 4.17915C11.5165 4.17915 11.5309 4.18924 11.5364 4.2044L12.0286 9.59982C11.6816 9.51494 11.3192 9.51494 10.9721 9.59982L11.4643 4.2044ZM11.5004 13.3711C10.6535 13.3711 9.96702 12.6846 9.96702 11.8377C9.96702 10.9909 10.6535 10.3044 11.5004 10.3044C12.3472 10.3044 13.0337 10.9909 13.0337 11.8377C13.0337 12.6846 12.3472 13.3711 11.5004 13.3711Z" fill="#FD3B3B"/>
</svg>
