<svg width="23" height="24" viewBox="0 0 23 24" fill="none" xmlns="http://www.w3.org/2000/svg">
<g clip-path="url(#clip0_888_382)">
<path d="M22.5099 6.67347L18.4828 2.64642C17.8968 2.06032 16.9872 1.99195 16.3201 2.48385L14.1447 4.08784C14.0657 4.14606 14.016 4.23586 14.0087 4.3337C14.0013 4.43154 14.037 4.52772 14.1064 4.59712L14.6306 5.12137L12.3275 7.42448H10.6724L8.36918 5.12123L8.89351 4.59685C8.96292 4.52745 8.99854 4.43127 8.99122 4.33343C8.98385 4.23559 8.93417 4.14579 8.8552 4.08757L6.67988 2.48394C6.01301 1.9919 5.10343 2.06028 4.51715 2.6466L3.87947 3.28432C3.74794 3.41585 3.74794 3.62914 3.87947 3.76067C4.01101 3.8922 4.2243 3.8922 4.35583 3.76067L4.99355 3.12296C5.34237 2.77413 5.88332 2.73339 6.28007 3.0261L7.00386 3.55969L1.40323 9.16028L0.869639 8.43672C0.577151 8.03947 0.61785 7.49816 0.966402 7.1496L3.40325 4.7128C3.53479 4.58127 3.53479 4.36802 3.40325 4.23644C3.27177 4.10491 3.05848 4.10491 2.9269 4.23644L0.490047 6.67325C-0.0957843 7.25908 -0.164291 8.16871 0.327338 8.8363L1.93156 11.0117C1.98978 11.0907 2.07957 11.1404 2.17742 11.1477C2.18586 11.1484 2.19426 11.1487 2.20266 11.1487C2.29161 11.1487 2.37741 11.1134 2.44084 11.05L2.96513 10.5257L3.35626 10.9168C2.52988 11.6283 2.04638 12.6667 2.04638 13.7666C2.04638 15.5726 3.33533 17.1148 5.08402 17.4564C5.27417 18.4641 5.9919 19.2874 6.93863 19.627V20.8369C6.93863 21.3902 7.38857 21.8403 7.94166 21.8403C8.37682 21.8403 8.74806 21.5618 8.88678 21.1737H9.36902C9.50769 21.5618 9.8787 21.8403 10.3137 21.8403C10.7488 21.8403 11.1201 21.5618 11.2588 21.1737H11.7412C11.8799 21.5617 12.251 21.8402 12.6861 21.8402C13.1211 21.8402 13.4922 21.5617 13.6309 21.1737H14.1133C14.252 21.5617 14.6232 21.8402 15.0582 21.8402C15.6114 21.8402 16.0614 21.3902 16.0614 20.837V18.1889C16.5897 18.116 17.0645 17.8742 17.4298 17.5197C18.1032 17.4775 18.7502 17.2556 19.3089 16.874C19.4625 16.7691 19.502 16.5595 19.3971 16.4059C19.2922 16.2523 19.0826 16.2128 18.929 16.3177C18.6331 16.5198 18.3068 16.6669 17.9642 16.7554C18.0723 16.5126 18.1421 16.2494 18.1658 15.973C19.0356 15.5907 19.6052 14.7319 19.6052 13.7666C19.6052 13.0188 19.2617 12.3267 18.6868 11.8738L19.1658 11.3947C19.868 11.9792 20.2799 12.8468 20.2799 13.7665C20.2799 14.3686 20.1057 14.9522 19.776 15.4545C19.674 15.61 19.7173 15.8188 19.8728 15.9209C19.9298 15.9583 19.9939 15.9761 20.0573 15.9761C20.167 15.9761 20.2745 15.9226 20.3392 15.8241C20.7411 15.2118 20.9536 14.5003 20.9536 13.7666C20.9536 12.6665 20.47 11.6281 19.6436 10.9171L20.0349 10.5257L20.5592 11.05C20.6226 11.1134 20.7084 11.1486 20.7974 11.1486C20.8058 11.1486 20.8142 11.1483 20.8226 11.1477C20.9205 11.1403 21.0103 11.0907 21.0685 11.0117L22.6725 8.83634C23.1644 8.16911 23.096 7.25953 22.5099 6.67347ZM17.0792 9.78452C17.0792 9.69997 17.1122 9.62046 17.172 9.56067L18.121 8.61164L18.5686 9.05929L17.6196 10.0083C17.5598 10.0681 17.4804 10.101 17.3958 10.101C17.3113 10.101 17.2318 10.0681 17.172 10.0083C17.1122 9.94857 17.0792 9.86906 17.0792 9.78452ZM16.2454 6.7361L16.5447 7.03537L15.5956 7.98439C15.5358 8.04419 15.4564 8.07711 15.3718 8.07711C15.2872 8.07711 15.2078 8.04419 15.1479 7.98439C15.0245 7.86099 15.0245 7.66015 15.1479 7.53674L16.097 6.58772L16.2454 6.7361ZM15.107 5.59772L15.6207 6.11136L14.6716 7.06039C14.2856 7.44645 14.2856 8.07464 14.6716 8.4607C14.8586 8.64772 15.1073 8.75072 15.3718 8.75072C15.6363 8.75072 15.8849 8.64772 16.072 8.4607L17.021 7.51168L17.6446 8.13533L16.6956 9.08436C16.5086 9.27137 16.4056 9.52006 16.4056 9.78452C16.4056 10.049 16.5086 10.2977 16.6956 10.4847C16.8826 10.6717 17.1313 10.7747 17.3958 10.7747C17.6603 10.7747 17.9089 10.6717 18.0959 10.4847L19.045 9.53565L19.5586 10.0493L17.395 12.2129L12.9434 7.76136L15.107 5.59772ZM13.6892 18.2128H14.055V20.5001H13.6892V18.2128ZM11.3771 17.5392L13.2758 15.6752C13.2748 15.704 13.2736 15.7327 13.2736 15.7617C13.2736 16.4609 13.5684 17.0922 14.0397 17.5392H11.3771ZM8.94508 19.5995C9.07154 19.5503 9.19364 19.4924 9.31071 19.4264V20.5001H8.94508V19.5995ZM11.3172 18.2128H11.6829V20.5001H11.3172V18.2128ZM10.7645 17.1966C10.7731 17.1064 10.7779 17.0152 10.7779 16.9228C10.7779 15.3392 9.48941 14.0507 7.90572 14.0507C7.84368 14.0507 7.78227 14.0533 7.72118 14.0573L9.59906 12.221C9.66932 13.2086 10.4948 13.9909 11.5 13.9909C12.5512 13.9909 13.4064 13.1357 13.4064 12.0845C13.4064 12.0395 13.4042 11.9951 13.4011 11.9508L15.3331 13.3424C14.8143 13.426 14.3494 13.6727 13.9933 14.0285L13.9937 14.0264L10.7645 17.1966ZM4.794 12.3546L5.30957 12.8702L5.94109 14.8306C5.74357 15.0162 5.57219 15.2291 5.43324 15.4637C4.65268 15.2904 4.06819 14.5832 4.06819 13.7666C4.06824 13.2009 4.34119 12.6791 4.794 12.3546ZM11.5 10.8518C12.1797 10.8518 12.7327 11.4048 12.7327 12.0845C12.7327 12.7643 12.1797 13.3172 11.5 13.3172C10.8203 13.3172 10.2673 12.7643 10.2673 12.0845C10.2673 11.4048 10.8203 10.8518 11.5 10.8518ZM16.7636 13.5426C16.7636 13.5426 12.6916 10.5963 12.6441 10.5606C12.3252 10.3206 11.9289 10.1782 11.5 10.1782C11.004 10.1782 10.5517 10.3688 10.2122 10.6804L6.48546 14.3234L5.98884 12.7818L10.6725 8.09814H12.3275L17.0111 12.7817L16.7659 13.5436C16.7651 13.5433 16.7643 13.5429 16.7636 13.5426ZM4.87904 8.61169L5.82807 9.56072C5.88786 9.62051 5.92079 9.69997 5.92079 9.78452C5.92079 9.86906 5.88786 9.94857 5.82807 10.0083C5.76827 10.0681 5.68881 10.101 5.60422 10.101C5.51967 10.101 5.44021 10.0681 5.38042 10.0083L4.43139 9.05929L4.87904 8.61169ZM2.24134 10.2968L1.80757 9.7086L7.55223 3.96394L8.1403 4.39744L2.24134 10.2968ZM3.95508 9.53569L4.90406 10.4847C5.09107 10.6717 5.33972 10.7747 5.60422 10.7747C5.86872 10.7747 6.11736 10.6717 6.30438 10.4847C6.49139 10.2977 6.59439 10.049 6.59439 9.78452C6.59439 9.52006 6.49139 9.27137 6.30438 9.08436L5.35535 8.13533L5.36317 8.12752L5.979 7.51168L6.92803 8.4607C7.11504 8.64772 7.36369 8.75072 7.62819 8.75072C7.89269 8.75072 8.14134 8.64772 8.32835 8.4607C8.71441 8.07464 8.71441 7.44645 8.32835 7.06039L7.37932 6.11136L7.89296 5.59772L10.0566 7.76136L5.60498 12.2129L3.44144 10.0494L3.95508 9.53569ZM6.90301 6.58772L7.85204 7.53674C7.97544 7.66015 7.97544 7.86099 7.85204 7.98439C7.79225 8.04419 7.71273 8.07711 7.62819 8.07711C7.54365 8.07711 7.46413 8.04419 7.40434 7.98439L6.45536 7.03537L6.90301 6.58772ZM2.72003 13.7666C2.72003 12.8471 3.13188 11.9794 3.83397 11.3945L4.31311 11.8737C3.73806 12.3266 3.39454 13.0188 3.39454 13.7666C3.39454 14.3712 3.62018 14.9499 4.02992 15.3962C4.33737 15.731 4.72779 15.9692 5.15724 16.0893C5.09251 16.3023 5.05194 16.5256 5.03869 16.7562C3.69305 16.4111 2.72003 15.1884 2.72003 13.7666ZM5.70722 16.9228C5.70722 15.7106 6.69349 14.7243 7.90572 14.7243C9.11794 14.7243 10.1042 15.7106 10.1042 16.9228C10.1042 18.1351 9.11794 19.1213 7.90572 19.1213C6.69349 19.1213 5.70722 18.1351 5.70722 16.9228ZM7.94166 21.1667C7.76008 21.1667 7.61229 21.0188 7.61229 20.8369V19.7801C7.70878 19.79 7.80662 19.795 7.90567 19.795C8.02966 19.795 8.15153 19.7862 8.27143 19.7709V20.8369C8.27143 21.0188 8.1235 21.1667 7.94166 21.1667ZM10.3137 21.1667C10.1321 21.1667 9.98436 21.0188 9.98436 20.8369V18.9065L10.6435 18.2594V20.8369C10.6435 21.0188 10.4956 21.1667 10.3137 21.1667ZM12.6861 21.1666C12.5044 21.1666 12.3565 21.0187 12.3565 20.837V18.2128H13.0156V20.837C13.0156 21.0187 12.8678 21.1666 12.6861 21.1666ZM15.0582 21.1666C14.8765 21.1666 14.7287 21.0187 14.7287 20.837V18.2128H15.3877V20.837C15.3877 21.0187 15.2399 21.1666 15.0582 21.1666ZM15.7246 17.539C14.7446 17.539 13.9473 16.7417 13.9473 15.7617C13.9473 14.7817 14.7445 13.9844 15.7246 13.9844C16.7045 13.9844 17.5019 14.7817 17.5019 15.7617C17.5019 16.7417 16.7045 17.539 15.7246 17.539ZM18.9315 13.7666C18.9315 14.3753 18.6172 14.9254 18.1186 15.238C18.0059 14.7226 17.7307 14.2674 17.3494 13.929L17.6903 12.8703L18.2059 12.3547C18.6586 12.6791 18.9315 13.2009 18.9315 13.7666ZM20.7586 10.2967L14.8596 4.39767L15.4478 3.96399L21.1923 9.70851L20.7586 10.2967ZM22.1303 8.43645L21.5966 9.16014L15.9961 3.55964L16.7198 3.02601C17.1168 2.73334 17.6578 2.77404 18.0065 3.12273L22.0335 7.14978C22.3822 7.49847 22.4229 8.0396 22.1303 8.43645Z" fill="#FD3B3B"/>
<path d="M8.92193 16.9229C8.92193 16.3623 8.46588 15.9062 7.9053 15.9062C7.34472 15.9062 6.88867 16.3623 6.88867 16.9229C6.88867 17.4835 7.34472 17.9395 7.9053 17.9395C8.46588 17.9395 8.92193 17.4835 8.92193 16.9229ZM7.56232 16.9229C7.56232 16.7338 7.71618 16.5799 7.9053 16.5799C8.09442 16.5799 8.24828 16.7338 8.24828 16.9229C8.24828 17.112 8.09442 17.2659 7.9053 17.2659C7.71618 17.2659 7.56232 17.112 7.56232 16.9229Z" fill="#FD3B3B"/>
<path d="M15.7246 14.75C15.1641 14.75 14.708 15.206 14.708 15.7666C14.708 16.3272 15.1641 16.7833 15.7246 16.7833C16.2852 16.7833 16.7413 16.3272 16.7413 15.7666C16.7413 15.206 16.2852 14.75 15.7246 14.75ZM15.7246 16.1096C15.5355 16.1096 15.3817 15.9557 15.3817 15.7666C15.3817 15.5775 15.5355 15.4236 15.7246 15.4236C15.9138 15.4236 16.0676 15.5775 16.0676 15.7666C16.0676 15.9557 15.9138 16.1096 15.7246 16.1096Z" fill="#FD3B3B"/>
</g>
<defs>
<clipPath id="clip0_888_382">
<rect width="23" height="23" fill="white" transform="translate(0 0.5)"/>
</clipPath>
</defs>
</svg>
