<?xml version="1.0" encoding="utf-8"?><!DOCTYPE svg PUBLIC "-//W3C//DTD SVG 1.1//EN" "http://www.w3.org/Graphics/SVG/1.1/DTD/svg11.dtd"><svg viewBox="0 0 800 800" xmlns="http://www.w3.org/2000/svg" xmlns:xlink="http://www.w3.org/1999/xlink"><style>:root>svg{display:none}:root>svg:target{display:block}</style><svg fill="none" viewBox="0 0 153 39" id="brand-logo-01" xmlns="http://www.w3.org/2000/svg">
    <g clip-path="url(#aa)" fill="#222">
        <path d="M44.554 27.444h10.95v-3.337h-7.058V11.539h-3.892v15.905ZM61.992 25.218c-1.562 0-2.375-1.379-2.375-3.448 0-2.068.813-3.47 2.375-3.47 1.56 0 2.396 1.402 2.396 3.47 0 2.069-.835 3.448-2.397 3.448Zm.022 2.58c3.627 0 6.002-2.602 6.002-6.028 0-3.425-2.375-6.028-6.003-6.028-3.606 0-6.024 2.603-6.024 6.028 0 3.426 2.418 6.028 6.025 6.028ZM74.296 31.378c1.671 0 3.144-.378 4.134-1.267.901-.823 1.495-2.07 1.495-3.782V16.052h-3.43v1.224h-.044c-.66-.957-1.671-1.557-3.166-1.557-2.793 0-4.728 2.358-4.728 5.694 0 3.492 2.353 5.405 4.882 5.405 1.363 0 2.22-.556 2.88-1.312h.088v1.134c0 1.38-.638 2.18-2.155 2.18-1.187 0-1.781-.511-1.979-1.112H68.8c.352 2.38 2.397 3.67 5.497 3.67Zm-.022-7.251c-1.341 0-2.22-1.112-2.22-2.825 0-1.735.879-2.847 2.22-2.847 1.495 0 2.287 1.29 2.287 2.825 0 1.601-.726 2.847-2.287 2.847ZM86.978 25.218c-1.561 0-2.375-1.379-2.375-3.448 0-2.068.814-3.47 2.375-3.47s2.397 1.402 2.397 3.47c0 2.069-.836 3.448-2.397 3.448Zm.022 2.58c3.628 0 6.003-2.602 6.003-6.028 0-3.425-2.375-6.028-6.003-6.028-3.606 0-6.025 2.603-6.025 6.028 0 3.426 2.419 6.028 6.025 6.028ZM94.05 27.444h3.583v-11.39H94.05v11.39Zm0-12.969h3.583V11.54H94.05v2.936ZM99.188 31.2h3.584v-4.938h.044c.704.957 1.737 1.535 3.188 1.535 2.947 0 4.904-2.358 4.904-6.05 0-3.426-1.825-6.028-4.816-6.028-1.539 0-2.638.69-3.408 1.713h-.066v-1.38h-3.43v15.149Zm5.893-6.206c-1.539 0-2.419-1.267-2.419-3.114 0-1.846.792-3.247 2.353-3.247 1.539 0 2.265 1.29 2.265 3.247 0 1.936-.836 3.114-2.199 3.114ZM116.744 27.797c2.946 0 5.123-1.29 5.123-3.781 0-2.914-2.331-3.426-4.31-3.76-1.429-.266-2.704-.378-2.704-1.178 0-.712.681-1.046 1.561-1.046.989 0 1.671.311 1.803 1.335h3.298c-.176-2.247-1.891-3.648-5.079-3.648-2.661 0-4.86 1.245-4.86 3.648 0 2.669 2.089 3.203 4.046 3.537 1.495.267 2.859.378 2.859 1.4 0 .735-.682 1.135-1.759 1.135-1.188 0-1.935-.556-2.067-1.69h-3.386c.109 2.513 2.176 4.048 5.475 4.048ZM126.734 27.777c1.561 0 2.551-.623 3.364-1.735h.066v1.402h3.43v-11.39h-3.584v6.362c0 1.357-.747 2.292-1.979 2.292-1.143 0-1.693-.69-1.693-1.936v-6.717h-3.562v7.474c0 2.535 1.364 4.248 3.958 4.248ZM135.154 27.441h3.584v-6.384c0-1.357.659-2.313 1.781-2.313 1.077 0 1.583.712 1.583 1.935v6.762h3.584v-6.384c0-1.357.638-2.313 1.781-2.313 1.078 0 1.583.712 1.583 1.935v6.762h3.584v-7.407c0-2.558-1.275-4.315-3.826-4.315-1.451 0-2.66.623-3.54 2.002h-.044c-.571-1.224-1.693-2.002-3.166-2.002-1.627 0-2.704.778-3.408 1.957h-.066v-1.624h-3.43v11.39Z"/>
        <path fill-rule="evenodd" clip-rule="evenodd" d="M7.929 4.366a18.508 18.508 0 0 0-3.525 3.257c4.204-.395 9.546.25 15.748 3.387 6.622 3.35 11.955 3.463 15.666 2.739a18.551 18.551 0 0 0-1.262-2.965c-4.249.453-9.696-.147-16.043-3.358-4.03-2.038-7.584-2.878-10.584-3.06ZM32.074 7.21c-3.355-3.792-8.231-6.179-13.658-6.179-1.594 0-3.14.206-4.614.593 1.997.551 4.117 1.357 6.35 2.486 4.647 2.351 8.66 3.108 11.922 3.1Zm4.538 10.16c-4.484.895-10.675.711-18.1-3.044-6.94-3.51-12.464-3.466-16.19-2.629-.192.043-.38.089-.563.136a18.54 18.54 0 0 0-1.156 3.374c.298-.081.607-.158.925-.23 4.52-1.015 10.906-.971 18.624 2.933 6.94 3.51 12.464 3.466 16.19 2.629.128-.029.253-.059.377-.09a18.972 18.972 0 0 0-.107-3.08Zm-.491 6.992c-4.44.785-10.452.484-17.608-3.136-6.94-3.51-12.465-3.467-16.19-2.63-.827.187-1.571.413-2.228.652l-.002.32c0 10.237 8.203 18.536 18.323 18.536 8.481 0 15.616-5.828 17.705-13.742Z"/>
    </g>
    <defs>
        <clipPath id="aa">
            <path fill="#fff" transform="translate(0 .758)" d="M0 0h153v38H0z"/>
        </clipPath>
    </defs>
</svg><svg fill="none" viewBox="0 0 130 41" id="brand-logo-02" xmlns="http://www.w3.org/2000/svg">
    <path d="M19.96 2.813A17.884 17.884 0 0 0 7.295 8.07 17.953 17.953 0 0 0 2.047 20.76a17.98 17.98 0 0 0 5.247 12.692 17.885 17.885 0 0 0 12.667 5.257v-8.974a8.939 8.939 0 0 1-6.334-2.629 8.976 8.976 0 0 1-2.623-6.346 8.988 8.988 0 0 1 2.623-6.346 8.954 8.954 0 0 1 6.334-2.628V2.812Z" fill="#222"/>
    <path d="M19.96 26.74c3.299 0 5.972-2.68 5.972-5.984s-2.673-5.983-5.971-5.983-5.971 2.679-5.971 5.983c0 3.305 2.673 5.983 5.97 5.983Z" fill="#222"/>
    <path d="M2.047 20.758A17.98 17.98 0 0 0 7.294 33.45a17.885 17.885 0 0 0 25.333 0 17.954 17.954 0 0 0 5.247-12.692h-8.957a8.988 8.988 0 0 1-2.623 6.346 8.956 8.956 0 0 1-6.333 2.628 8.939 8.939 0 0 1-6.334-2.628 8.976 8.976 0 0 1-2.623-6.346H2.047ZM25.932 20.756a5.99 5.99 0 0 0-1.749-4.23 5.966 5.966 0 0 0-8.444 0 5.99 5.99 0 0 0-1.75 4.23H25.933ZM47.23 14.016h-2.225V26.4h2.225V14.016ZM48.682 22.01c0 2.866 1.978 4.636 4.591 4.636 2.613 0 4.591-1.77 4.591-4.636s-1.978-4.635-4.59-4.635c-2.614 0-4.592 1.77-4.592 4.635Zm2.225 0c0-1.698.989-2.689 2.366-2.689 1.377 0 2.366.99 2.366 2.69 0 1.698-.989 2.689-2.366 2.689-1.377 0-2.366-.991-2.366-2.69ZM65.815 17.623v1.185h-.177c-.53-.76-1.377-1.433-2.896-1.433-2.083 0-3.955 1.77-3.955 4.494 0 2.724 1.872 4.494 3.955 4.494 1.519 0 2.367-.69 2.86-1.38h.177v.849c0 1.698-.988 2.477-2.436 2.477s-2.19-.779-2.49-1.787l-1.995.867c.459 1.327 1.8 2.795 4.52 2.795 2.79 0 4.626-1.468 4.626-4.3v-8.261h-2.19Zm-2.402 6.829c-1.377 0-2.401-.99-2.401-2.583 0-1.593 1.024-2.583 2.401-2.583 1.378 0 2.402.99 2.402 2.583 0 1.592-1.024 2.583-2.402 2.583ZM69.444 22.01c0 2.866 1.977 4.636 4.59 4.636 2.614 0 4.592-1.77 4.592-4.636s-1.978-4.635-4.591-4.635c-2.614 0-4.591 1.77-4.591 4.635Zm2.225 0c0-1.698.989-2.689 2.366-2.689 1.377 0 2.366.99 2.366 2.69 0 1.698-.989 2.689-2.366 2.689-1.377 0-2.366-.991-2.366-2.69ZM80.372 15.076c0 .903.689 1.522 1.572 1.522.882 0 1.571-.62 1.571-1.522s-.689-1.521-1.571-1.521c-.883 0-1.572.619-1.572 1.521Zm2.683 2.548h-2.224v8.775h2.224v-8.775ZM85.039 29.936h2.225v-4.67h.176c.494.708 1.342 1.38 2.861 1.38 2.083 0 3.955-1.77 3.955-4.636s-1.872-4.635-3.955-4.635c-1.519 0-2.367.672-2.896 1.433h-.177v-1.185h-2.19v12.313Zm4.59-5.201c-1.376 0-2.4-.99-2.4-2.725 0-1.734 1.024-2.724 2.4-2.724 1.378 0 2.402.99 2.402 2.724 0 1.734-1.024 2.725-2.402 2.725ZM95.554 20.082c0 1.734 1.448 2.37 3.284 2.725l.46.088c1.094.212 1.588.478 1.588 1.044 0 .566-.494 1.008-1.518 1.008s-1.854-.424-2.084-1.698l-2.048.53c.3 1.84 1.836 2.867 4.132 2.867 2.225 0 3.673-1.044 3.673-2.884 0-1.84-1.483-2.335-3.46-2.725l-.46-.088c-.919-.177-1.413-.425-1.413-1.009 0-.53.46-.867 1.307-.867.848 0 1.447.354 1.659 1.31l2.014-.62c-.424-1.415-1.713-2.388-3.673-2.388-2.084 0-3.46.973-3.46 2.707ZM113.035 26.4v-8.775h-2.225v4.53c0 1.627-.794 2.582-2.154 2.582-1.201 0-1.872-.654-1.872-1.981v-5.131h-2.225v5.237c0 2.176 1.36 3.68 3.409 3.68 1.606 0 2.348-.708 2.701-1.45h.176V26.4h2.19ZM115.008 17.626V26.4h2.225v-5.237c0-1.203.565-1.875 1.589-1.875.883 0 1.412.495 1.412 1.45v5.662h2.226v-5.237c0-1.203.565-1.875 1.588-1.875.884 0 1.413.495 1.413 1.45v5.662h2.225v-5.767c0-2.123-1.307-3.15-2.931-3.15-1.43 0-2.083.637-2.507 1.38h-.177c-.407-.831-1.13-1.38-2.402-1.38-1.271 0-1.96.566-2.295 1.239h-.177v-1.097h-2.189Z" fill="#222"/>
</svg><svg fill="none" viewBox="0 0 124 33" id="brand-logo-03" xmlns="http://www.w3.org/2000/svg">
    <path d="M36.87 10.828h3v12.13h-3v-12.13Zm4.19 7.55c0-3 1.84-4.79 4.68-4.79s4.68 1.79 4.68 4.79-1.8 4.8-4.68 4.8-4.68-1.75-4.68-4.8Zm6.35 0c0-1.65-.65-2.62-1.67-2.62s-1.66 1-1.66 2.62.63 2.6 1.66 2.6c1.03 0 1.67-.92 1.67-2.59v-.01Zm4.14 5.17h2.88a1.55 1.55 0 0 0 1.62.9c1.14 0 1.74-.62 1.74-1.52v-1.68h-.06a2.84 2.84 0 0 1-2.73 1.64c-2.19 0-3.64-1.67-3.64-4.54s1.38-4.68 3.68-4.68a2.87 2.87 0 0 1 2.76 1.76v-1.67h3v9.1c0 2.19-1.93 3.55-4.78 3.55-2.65 0-4.3-1.19-4.47-2.85v-.01Zm6.25-5.18c0-1.46-.67-2.38-1.73-2.38s-1.71.91-1.71 2.38c0 1.47.64 2.3 1.71 2.3 1.07 0 1.73-.81 1.73-2.29v-.01Zm4.13 0c0-3 1.84-4.79 4.68-4.79s4.69 1.79 4.69 4.79-1.8 4.8-4.69 4.8c-2.89 0-4.68-1.74-4.68-4.79v-.01Zm6.35 0c0-1.65-.65-2.62-1.67-2.62S65 16.758 65 18.387c0 1.63.63 2.6 1.65 2.6s1.63-.93 1.63-2.6v-.02Zm4.16-6.79a1.53 1.53 0 1 1 1.56 1.49 1.46 1.46 0 0 1-1.56-1.47v-.02Zm0 2.2h3v9.18h-3v-9.18Zm13.89 4.59c0 3-1.33 4.71-3.61 4.71a2.86 2.86 0 0 1-2.8-1.7h-.06v4.52h-3v-12.14h3v1.64h.06a2.87 2.87 0 0 1 2.78-1.77c2.3.04 3.67 1.76 3.67 4.76l-.04-.02Zm-3 0c0-1.46-.67-2.39-1.72-2.39-1.05 0-1.72.94-1.73 2.39-.01 1.45.68 2.38 1.73 2.38 1.05 0 1.72-.91 1.72-2.36v-.02Zm8.15-4.8c2.49 0 4 1.18 4.07 3.07h-2.73c0-.65-.54-1.06-1.37-1.06-.83 0-1.2.32-1.2.79 0 .47.33.62 1 .76l1.92.39c1.83.39 2.61 1.13 2.61 2.52 0 1.9-1.73 3.12-4.28 3.12-2.55 0-4.22-1.22-4.35-3.09h2.89c.09.68.63 1.08 1.51 1.08s1.28-.29 1.28-.77c0-.48-.28-.58-1-.73l-1.73-.37c-1.79-.37-2.73-1.32-2.73-2.72.02-1.8 1.63-2.97 4.11-2.97v-.02Zm14.31 9.37h-2.89v-1.71h-.06a2.61 2.61 0 0 1-2.66 1.91 3.19 3.19 0 0 1-3.36-3.45v-5.93h3v5.24c0 1.09.56 1.67 1.49 1.67a1.534 1.534 0 0 0 1.153-.52 1.538 1.538 0 0 0 .367-1.21v-5.18h3l-.04 9.18Zm1.45-9.18h2.9v1.77h.06a2.66 2.66 0 0 1 2.61-1.94 2.39 2.39 0 0 1 2.55 2h.06a2.816 2.816 0 0 1 2.82-2 2.907 2.907 0 0 1 2.835 1.92c.138.384.195.792.165 1.2v6.25h-3v-5.45c0-1-.45-1.46-1.29-1.46a1.31 1.31 0 0 0-1.31 1.48v5.43h-2.85v-5.49c0-.92-.45-1.42-1.27-1.42a1.338 1.338 0 0 0-1.33 1.5v5.41h-3l.05-9.2ZM28.48 11.379a13.247 13.247 0 0 0-2-3.22A13.53 13.53 0 1 0 7.8 27.479a13.09 13.09 0 0 0 3.2 1.83 13.39 13.39 0 0 0 5.07 1 13.56 13.56 0 0 0 13.53-13.55 13.39 13.39 0 0 0-1.12-5.38Zm-12.42-5.43c1.562 0 3.104.34 4.52 1a4.39 4.39 0 0 1-1.08.31 5.73 5.73 0 0 0-4.85 4.85 3 3 0 0 1-2.71 2.65 5.73 5.73 0 0 0-4.85 4.85 2.91 2.91 0 0 1-.79 1.74 10.8 10.8 0 0 1 9.77-15.42l-.01.02Zm-8.27 17.81c.12-.11.24-.21.36-.33a5.48 5.48 0 0 0 1.62-3.23 2.92 2.92 0 0 1 .87-1.82 2.83 2.83 0 0 1 1.81-.86 5.73 5.73 0 0 0 4.85-4.85 2.92 2.92 0 0 1 .87-1.91 2.87 2.87 0 0 1 1.83-.83 5.48 5.48 0 0 0 3-1.43 10.51 10.51 0 0 1 2.36 2.78.862.862 0 0 1-.13.14 2.87 2.87 0 0 1-1.81.88 5.71 5.71 0 0 0-4.85 4.85 3 3 0 0 1-2.69 2.68 5.76 5.76 0 0 0-4.88 4.85 3.14 3.14 0 0 1-.49 1.37 10.89 10.89 0 0 1-2.72-2.29Zm8.27 3.86a10.841 10.841 0 0 1-3-.42c.334-.622.55-1.3.64-2a3 3 0 0 1 2.68-2.68 5.73 5.73 0 0 0 4.86-4.85 3 3 0 0 1 2.68-2.68 5.71 5.71 0 0 0 2.56-1 10.82 10.82 0 0 1-10.42 13.58v.05Z" fill="#222"/>
</svg><svg fill="none" viewBox="0 0 134 36" id="brand-logo-04" xmlns="http://www.w3.org/2000/svg">
    <path d="M39.093 11.515h3.259v13h-3.259v-13Zm4.558 8.11c0-3.22 2.03-5.15 5.076-5.15s5.076 1.93 5.076 5.15c0 3.22-1.96 5.17-5.076 5.17-3.116 0-5.076-1.88-5.076-5.17Zm6.924 0c0-1.77-.7-2.81-1.818-2.81-1.116 0-1.806 1-1.806 2.81s.69 2.8 1.806 2.8c1.117 0 1.838-.99 1.838-2.79l-.02-.01Zm4.527 5.56h3.147c.143.334.394.612.713.793.319.18.689.253 1.053.207 1.25 0 1.899-.66 1.899-1.64v-1.8h.01a3.088 3.088 0 0 1-1.247 1.34 3.155 3.155 0 0 1-1.798.41c-2.386 0-3.97-1.79-3.97-4.87s1.513-5 4.06-5a3.153 3.153 0 0 1 1.829.468c.545.339.97.835 1.217 1.422h-.091v-1.81h3.228v9.74c0 2.35-2.111 3.82-5.218 3.82-2.822-.01-4.629-1.28-4.811-3.07l-.02-.01Zm6.822-5.56c0-1.57-.73-2.56-1.888-2.56-1.157 0-1.868 1-1.868 2.56s.7 2.48 1.868 2.48c1.167 0 1.888-.85 1.888-2.48Zm4.517 0c0-3.22 2.03-5.15 5.076-5.15s5.076 1.93 5.076 5.15c0 3.22-1.97 5.17-5.076 5.17s-5.055-1.88-5.055-5.17h-.02Zm6.924 0c0-1.77-.71-2.81-1.817-2.81s-1.807 1-1.807 2.81.69 2.8 1.807 2.8c1.116 0 1.837-.99 1.837-2.79l-.02-.01Zm4.548-7.29a1.62 1.62 0 0 1 .245-.93c.174-.278.429-.5.732-.634a1.687 1.687 0 0 1 1.837.31 1.617 1.617 0 0 1 .394 1.795 1.645 1.645 0 0 1-.612.747c-.275.184-.6.282-.931.282a1.627 1.627 0 0 1-1.154-.441 1.578 1.578 0 0 1-.491-1.119l-.02-.01Zm0 2.36h3.299v9.86h-3.249l-.05-9.86Zm15.166 4.93c0 3.21-1.462 5.07-3.949 5.07a3.154 3.154 0 0 1-1.815-.443 3.086 3.086 0 0 1-1.23-1.387h-.061v4.86h-3.259v-13h3.238v1.76h.061a3.103 3.103 0 0 1 1.218-1.424 3.173 3.173 0 0 1 1.828-.476c2.558-.02 4.03 1.83 4.03 5.05l-.061-.01Zm-3.32 0c0-1.56-.74-2.57-1.888-2.57-1.147 0-1.868 1-1.878 2.57-.01 1.57.731 2.56 1.878 2.56 1.147 0 1.95-.93 1.95-2.55l-.061-.01Zm8.883-5.16c2.731 0 4.426 1.27 4.446 3.31h-2.974c0-.71-.599-1.15-1.492-1.15-.894 0-1.32.34-1.32.85s.376.67 1.127.82l2.091.42c2.03.42 2.843 1.22 2.843 2.71 0 2-1.879 3.36-4.67 3.36-2.792 0-4.609-1.32-4.74-3.33h3.156c.092.73.68 1.16 1.635 1.16.954 0 1.4-.3 1.4-.83s-.304-.62-1.086-.78l-1.888-.39c-1.96-.41-2.984-1.42-2.984-2.93.06-1.96 1.766-3.21 4.517-3.21l-.061-.01Zm15.633 10.08h-3.157v-1.85h-.061a2.814 2.814 0 0 1-1.091 1.529 2.894 2.894 0 0 1-1.822.521c-.49.016-.98-.07-1.434-.254a3.487 3.487 0 0 1-1.201-.81 3.412 3.412 0 0 1-.949-2.646v-6.33h3.259v5.64c0 1.16.619 1.79 1.634 1.79.239-.002.473-.054.69-.153a1.65 1.65 0 0 0 .898-1.033c.065-.225.081-.462.047-.694v-5.55h3.248l-.061 9.84Zm1.574-9.85h3.167v1.9h.071a2.86 2.86 0 0 1 1.066-1.52 2.937 2.937 0 0 1 1.787-.56 2.627 2.627 0 0 1 1.801.515c.514.386.864.948.98 1.575h.142a3.004 3.004 0 0 1 1.163-1.555 3.078 3.078 0 0 1 1.883-.535 3.205 3.205 0 0 1 2.401.952 3.112 3.112 0 0 1 .878 2.398v6.69h-3.279v-5.87c0-1-.477-1.56-1.401-1.56a1.413 1.413 0 0 0-1.384.993 1.385 1.385 0 0 0-.047.597v5.84h-3.107v-5.9c0-1-.497-1.53-1.391-1.53a1.462 1.462 0 0 0-1.097.48 1.426 1.426 0 0 0-.354 1.13v5.82h-3.259l-.02-9.86ZM32.647 12.365c0-1.99-.61-3.934-1.75-5.577a10.005 10.005 0 0 0-4.641-3.63 10.173 10.173 0 0 0-5.911-.417 10.063 10.063 0 0 0-5.118 2.944H2.558v26.34h26.75v-12.31a9.878 9.878 0 0 0 2.465-3.324 9.744 9.744 0 0 0 .874-4.026Zm-5.147 0a4.77 4.77 0 0 1-.82 2.68 4.878 4.878 0 0 1-2.193 1.78 4.961 4.961 0 0 1-2.828.279 4.917 4.917 0 0 1-2.508-1.317 4.798 4.798 0 0 1-1.342-2.468 4.754 4.754 0 0 1 .277-2.786 4.837 4.837 0 0 1 1.802-2.165 4.947 4.947 0 0 1 2.72-.813 4.93 4.93 0 0 1 3.456 1.408 4.784 4.784 0 0 1 1.436 3.402Zm-3.34 14.59H7.706v-16.2h5.015a9.403 9.403 0 0 0-.152 1.61 9.826 9.826 0 0 0 2.943 6.99 10.127 10.127 0 0 0 7.096 2.9 9.962 9.962 0 0 0 1.553-.13v4.83Z" fill="#222"/>
</svg><svg fill="none" viewBox="0 0 138 37" id="brand-logo-05" xmlns="http://www.w3.org/2000/svg">
    <path d="m11.308 33.41-3.253-5.634 4.773-8.245 3.033 5.254 17.906-.01-5.081 8.712-17.378-.078Z" fill="#222"/>
    <path d="m36.964 19.188-3.252 5.633-9.527-.011 3.034-5.254-8.961-15.501 10.085.044 8.621 15.089Z" fill="#222"/>
    <path d="M11.81 4.023h6.504l4.754 8.257H17L8.057 27.79l-5.004-8.755 8.756-15.012Z" fill="#222"/>
    <path fill-rule="evenodd" clip-rule="evenodd" d="m19.107 2.721-.02-.034H11.04L1.507 19.03l6.544 11.45.008-.014 2.474 4.285 18.92.085 6.644-11.393h-.044l2.454-4.25L29.12 2.764l-10.014-.044Zm6.225 10.899h.05l-4.73-8.216 6.912.03 7.857 13.751-2.46 4.26-6.444.003 2.247-3.892-3.432-5.937Zm-7.864-8.256 3.226 5.58h-4.466L8.582 24.201l-.521.901-3.464-6.06 7.98-13.68h4.891Zm-3.101 14.163 3.407-5.908h4.467l3.432 5.938-2.248 3.893-6.791.004-2.267-3.927Zm-4.764 8.261 1.296-2.247 1.928-3.33 2.262 3.92 6.79-.004-.01.019 9.547.011-3.497 5.996-15.837-.071-2.479-4.294Z" fill="#222"/>
    <path d="M87.246 12.474c.916 0 1.66-.745 1.66-1.68a1.65 1.65 0 0 0-1.66-1.661c-.935 0-1.68.725-1.68 1.66 0 .936.745 1.68 1.68 1.68Zm-1.49 11.034h2.96v-9.545h-2.96v9.545ZM90.439 28.097h2.901V22.56c.554.726 1.814 1.222 3.131 1.222 2.845 0 4.563-2.176 4.487-5.192-.077-3.074-1.852-4.926-4.506-4.926-1.355 0-2.634.592-3.169 1.47l-.153-1.164H90.44v14.127Zm2.959-9.355c0-1.431.954-2.386 2.329-2.386 1.393 0 2.272.974 2.272 2.386 0 1.413-.879 2.387-2.272 2.387-1.375 0-2.33-.955-2.33-2.387ZM101.271 20.499c.076 1.928 1.604 3.264 4.009 3.264 2.31 0 3.914-1.222 3.914-3.188 0-1.413-.84-2.348-2.406-2.73l-1.699-.42c-.611-.153-.993-.305-.993-.802 0-.496.401-.82.993-.82.668 0 1.107.438 1.088 1.087h2.654c-.076-1.985-1.585-3.226-3.685-3.226-2.119 0-3.703 1.26-3.703 3.17 0 1.278.706 2.328 2.596 2.825l1.68.439c.496.133.706.363.706.687 0 .477-.439.783-1.183.783-.859 0-1.317-.401-1.317-1.07h-2.654ZM113.694 23.762c1.164 0 2.329-.534 2.921-1.317l.191 1.07h2.768v-9.546h-2.94v4.963c0 1.432-.42 2.215-1.776 2.215-1.05 0-1.737-.477-1.737-2.253V13.97h-2.94v5.994c0 2.272 1.26 3.8 3.513 3.8ZM124.236 23.51V18.3c0-1.604.859-2.062 1.699-2.062.936 0 1.547.573 1.547 1.756v5.518h2.901v-5.212c0-1.623.84-2.081 1.68-2.081.936 0 1.566.573 1.566 1.775v5.518h2.863v-6.243c0-2.177-1.145-3.627-3.608-3.627-1.374 0-2.501.668-2.997 1.699-.573-1.031-1.565-1.7-3.15-1.7-1.05 0-2.024.478-2.596 1.242l-.115-.917h-2.749v9.546h2.959ZM46.924 9.383h-3.131V23.51h8.667v-2.768h-5.536V9.382ZM52.76 18.72c0 3.016 2.023 5.02 5.078 5.02 3.035 0 5.059-2.004 5.059-5.02 0-3.017-2.024-5.04-5.06-5.04-3.054 0-5.078 2.023-5.078 5.04Zm2.958-.02c0-1.431.84-2.386 2.12-2.386 1.26 0 2.1.955 2.1 2.387 0 1.45-.84 2.405-2.1 2.405-1.28 0-2.12-.954-2.12-2.405ZM63.37 18.566c0 2.883 1.87 4.83 4.524 4.83 1.28 0 2.387-.458 2.94-1.203v1.318c0 1.317-.82 2.195-2.272 2.195-1.298 0-2.195-.61-2.252-1.7H63.33c.268 2.616 2.291 4.373 5.06 4.373 3.264 0 5.326-2.12 5.326-5.48v-8.934h-2.654l-.152.974c-.535-.783-1.661-1.298-2.96-1.298-2.672 0-4.581 2.004-4.581 4.925Zm2.978-.076c0-1.375.916-2.291 2.08-2.291 1.356 0 2.349.897 2.349 2.29 0 1.394-.974 2.349-2.33 2.349-1.164 0-2.1-.955-2.1-2.348ZM74.574 18.72c0 3.016 2.023 5.02 5.078 5.02 3.035 0 5.059-2.004 5.059-5.02 0-3.017-2.024-5.04-5.06-5.04-3.054 0-5.077 2.023-5.077 5.04Zm2.959-.02c0-1.431.84-2.386 2.119-2.386 1.26 0 2.1.955 2.1 2.387 0 1.45-.84 2.405-2.1 2.405-1.28 0-2.12-.954-2.12-2.405Z" fill="#222"/>
</svg><svg fill="none" viewBox="0 0 171 33" id="brand-logo-06" xmlns="http://www.w3.org/2000/svg">
    <g clip-path="url(#fa)">
        <path d="M67.582 7.04H64v16.162h9.916v-3.167h-6.334V7.04ZM74.258 17.72c0 3.45 2.316 5.744 5.81 5.744 3.473 0 5.788-2.293 5.788-5.744 0-3.452-2.315-5.767-5.788-5.767-3.494 0-5.81 2.315-5.81 5.767Zm3.386-.022c0-1.639.96-2.73 2.424-2.73 1.442 0 2.403 1.091 2.403 2.73 0 1.66-.961 2.752-2.403 2.752-1.463 0-2.424-1.092-2.424-2.752ZM86.398 17.55c0 3.297 2.14 5.525 5.176 5.525 1.464 0 2.73-.524 3.364-1.376v1.507c0 1.508-.94 2.512-2.6 2.512-1.484 0-2.511-.699-2.577-1.944h-3.407c.306 2.993 2.621 5.002 5.788 5.002 3.735 0 6.094-2.424 6.094-6.268V12.284H95.2l-.175 1.114c-.611-.895-1.9-1.485-3.385-1.485-3.058 0-5.242 2.293-5.242 5.635Zm3.407-.088c0-1.573 1.048-2.621 2.38-2.621 1.552 0 2.688 1.027 2.688 2.621 0 1.595-1.115 2.687-2.665 2.687-1.333 0-2.403-1.093-2.403-2.687ZM99.217 17.72c0 3.45 2.315 5.744 5.81 5.744 3.473 0 5.788-2.293 5.788-5.744 0-3.452-2.315-5.767-5.788-5.767-3.495 0-5.81 2.315-5.81 5.767Zm3.385-.022c0-1.639.961-2.73 2.425-2.73 1.441 0 2.402 1.091 2.402 2.73 0 1.66-.961 2.752-2.402 2.752-1.464 0-2.425-1.092-2.425-2.752ZM113.715 10.58c1.048 0 1.9-.852 1.9-1.922 0-1.07-.852-1.9-1.9-1.9-1.07 0-1.922.83-1.922 1.9 0 1.07.852 1.922 1.922 1.922Zm-1.704 12.625h3.386V12.284h-3.386v10.921ZM117.368 28.45h3.32v-6.334c.633.83 2.075 1.398 3.582 1.398 3.254 0 5.22-2.49 5.133-5.941-.088-3.517-2.119-5.636-5.155-5.636-1.551 0-3.014.678-3.626 1.682l-.175-1.332h-3.079V28.45Zm3.385-10.703c0-1.638 1.092-2.73 2.665-2.73 1.594 0 2.599 1.114 2.599 2.73 0 1.617-1.005 2.73-2.599 2.73-1.573 0-2.665-1.091-2.665-2.73ZM129.761 19.757c.087 2.206 1.835 3.735 4.587 3.735 2.643 0 4.478-1.398 4.478-3.648 0-1.616-.961-2.686-2.753-3.123l-1.943-.48c-.699-.175-1.136-.35-1.136-.918 0-.568.458-.94 1.136-.94.764 0 1.266.503 1.245 1.246h3.036c-.088-2.272-1.813-3.691-4.216-3.691-2.424 0-4.237 1.441-4.237 3.625 0 1.464.808 2.665 2.97 3.233l1.922.502c.568.153.808.415.808.787 0 .546-.502.895-1.354.895-.983 0-1.507-.459-1.507-1.223h-3.036ZM143.974 23.486c1.333 0 2.665-.611 3.342-1.507l.219 1.223h3.167v-10.92h-3.364v5.678c0 1.638-.48 2.534-2.031 2.534-1.202 0-1.988-.546-1.988-2.578v-5.635h-3.364v6.859c0 2.599 1.442 4.346 4.019 4.346ZM156.036 23.206v-5.962c0-1.835.983-2.36 1.944-2.36 1.07 0 1.769.656 1.769 2.01v6.313h3.32v-5.963c0-1.857.961-2.381 1.922-2.381 1.07 0 1.791.655 1.791 2.031v6.313h3.277v-7.143c0-2.49-1.311-4.15-4.129-4.15-1.572 0-2.861.764-3.429 1.944-.655-1.18-1.791-1.944-3.604-1.944-1.201 0-2.315.546-2.97 1.42l-.131-1.049h-3.146v10.921h3.386ZM0 16.758c0-8.837 7.163-16 16-16h21c8.837 0 16 7.163 16 16v16H16c-8.837 0-16-7.164-16-16Z" fill="#222"/>
        <path d="M37 6.758H16c-5.523 0-10 4.477-10 10s4.477 10 10 10h21c5.523 0 10-4.477 10-10s-4.477-10-10-10Z" fill="#222"/>
        <path d="M16 21.758a5 5 0 1 0 0-10 5 5 0 0 0 0 10Z" fill="#222"/>
        <path d="M14 15.758a1 1 0 1 0 0-2 1 1 0 0 0 0 2Z" fill="#fff"/>
        <path d="M38 21.758a5 5 0 1 0 0-10 5 5 0 0 0 0 10Z" fill="#222"/>
        <path d="M36 15.758a1 1 0 1 0 0-2 1 1 0 0 0 0 2Z" fill="#fff"/>
    </g>
    <defs>
        <clipPath id="fa">
            <path fill="#fff" transform="translate(0 .758)" d="M0 0h171v32H0z"/>
        </clipPath>
    </defs>
</svg><svg fill="none" viewBox="0 0 24 25" id="heart" xmlns="http://www.w3.org/2000/svg">
    <path fill-rule="evenodd" clip-rule="evenodd" d="M12.692 7.584a1 1 0 0 1-1.384 0l-.693-.665A4.5 4.5 0 0 0 3 10.166c0 2.383 1.29 4.35 3.152 5.967 1.863 1.618 4.091 2.691 5.423 3.239.278.114.572.114.85 0 1.332-.548 3.56-1.62 5.423-3.239C19.71 14.517 21 12.55 21 10.167a4.5 4.5 0 0 0-7.615-3.248l-.693.665ZM12 5.476a6.5 6.5 0 0 0-11 4.69c0 6.369 6.97 9.886 9.814 11.055a3.096 3.096 0 0 0 2.372 0C16.03 20.051 23 16.535 23 10.167a6.5 6.5 0 0 0-11-4.69Z" fill="#141718"/>
</svg><svg fill="none" viewBox="0 0 24 24" id="heart-line" xmlns="http://www.w3.org/2000/svg">
    <path d="M12.001 4.529a5.998 5.998 0 0 1 8.242.228 6 6 0 0 1 .236 8.236l-8.48 8.492-8.478-8.492a6 6 0 0 1 8.48-8.464Zm6.826 1.641a3.998 3.998 0 0 0-5.49-.153l-1.335 1.198-1.336-1.197a4 4 0 0 0-5.686 5.605L12 18.654l7.02-7.03a4 4 0 0 0-.193-5.454Z" fill="#000"/>
</svg><svg fill="none" viewBox="0 0 24 24" id="id-card-line" xmlns="http://www.w3.org/2000/svg">
    <path d="M3 6h18v12H3V6ZM2 4a1 1 0 0 0-1 1v14a1 1 0 0 0 1 1h20a1 1 0 0 0 1-1V5a1 1 0 0 0-1-1H2Zm11 4h6v2h-6V8Zm5 4h-5v2h5v-2Zm-7.5-2a2.5 2.5 0 1 1-5 0 2.5 2.5 0 0 1 5 0ZM8 13.5A3.5 3.5 0 0 0 4.5 17h7A3.5 3.5 0 0 0 8 13.5Z" fill="#000"/>
</svg><svg fill="none" viewBox="0 0 24 24" id="search" xmlns="http://www.w3.org/2000/svg">
    <path d="M18.5 18.5 22 22m-1-10.5a9.5 9.5 0 1 0-19 0 9.5 9.5 0 0 0 19 0Z" stroke="#141718" stroke-width="1.5" stroke-linecap="round" stroke-linejoin="round"/>
</svg><svg fill="none" viewBox="0 0 24 24" id="search-line" xmlns="http://www.w3.org/2000/svg">
    <path d="m18.031 16.617 4.283 4.282-1.415 1.415-4.282-4.283A8.96 8.96 0 0 1 11 20c-4.968 0-9-4.032-9-9s4.032-9 9-9 9 4.032 9 9a8.96 8.96 0 0 1-1.969 5.617Zm-2.006-.742A6.977 6.977 0 0 0 18 11c0-3.867-3.133-7-7-7s-7 3.133-7 7 3.133 7 7 7a6.977 6.977 0 0 0 4.875-1.975l.15-.15Z" fill="#000"/>
</svg><svg fill="none" viewBox="0 0 19 12" id="slider--slider-left" xmlns="http://www.w3.org/2000/svg">
    <path d="M.47 6.288a.75.75 0 0 1 0-1.06L5.243.454a.75.75 0 0 1 1.06 1.06L2.061 5.758 6.303 10a.75.75 0 1 1-1.06 1.06L.47 6.288Zm18.53.22H1v-1.5h18v1.5Z" fill="#fff"/>
</svg><svg fill="none" viewBox="0 0 19 12" id="slider--slider-right" xmlns="http://www.w3.org/2000/svg">
    <path d="M18.53 6.288a.75.75 0 0 0 0-1.06L13.757.454a.75.75 0 0 0-1.06 1.06l4.242 4.243L12.697 10a.75.75 0 1 0 1.06 1.06l4.773-4.773ZM0 6.508h18v-1.5H0v1.5Z" fill="#fff"/>
</svg><svg fill="none" viewBox="0 0 12 15" id="slider--slider-top" xmlns="http://www.w3.org/2000/svg">
    <path d="M6.53.329a.75.75 0 0 0-1.06 0L.697 5.102a.75.75 0 0 0 1.06 1.06L6 1.92l4.243 4.243a.75.75 0 0 0 1.06-1.061L6.53.329Zm.22 14.53v-14h-1.5v14h1.5Z" fill="#fff"/>
</svg><svg shape-rendering="geometricPrecision" text-rendering="geometricPrecision" image-rendering="optimizeQuality" fill-rule="evenodd" clip-rule="evenodd" viewBox="0 0 512 490.72" id="timeline-book-icon" xmlns="http://www.w3.org/2000/svg">
    <path fill-rule="nonzero" d="M50.09 306.91c.55-96.5 1.09-192.97 1.64-289.09.02-6.41 4.57-11.74 10.6-12.99v-.02c65.64-13.7 151.75.77 194.37 57.41C301.6 7.12 384.41-5.06 450.97 4.66c6.64.97 11.43 6.68 11.42 13.21h.01v290.22c0 7.39-5.98 13.37-13.37 13.37-1.06 0-2.1-.13-3.09-.36-3.64-.57-7.25-1.03-10.85-1.39-1.99-9.64-5.71-19.33-11.48-27.32 3.99.12 12 4.34 16.06 4.66V25.71c-58.96-5.58-136.09 10.13-170.09 64.32V150c-8.24-2.32-18.19-2.78-26.74-1.44V89.63C210.98 33.51 131.58 17.1 72.8 25.08V297.9c14.12-.51 32.12-4.27 45.9-3.13l-.49 1.03c-3.59 7.92-5.18 16.47-5.28 25.13-16.02-1.14-32.25-.91-48.43.48-8.24.68-13.97-5.91-14.41-14.5zm182.36 52.78c0 4.3-3.5 7.79-7.8 7.79-4.31 0-7.8-3.49-7.8-7.79v-14.42c-.42-.22-.82-.48-1.2-.79-4.59-3.66-9.89-7.96-14.53-11.76l-20.08-16.4c-11.45-9.4-25.14-10.47-23.87 8.95.28 4.29 1.78 9 3.76 13.51 2.98 6.74 6.31 12.19 9.22 16.07l59.75 90.36c.69 1.05 1.1 2.21 1.24 3.37 1.18 9.76 3.25 17.07 6.31 21.65 2.21 3.32 5.09 5.01 8.67 4.92 29.45-.59 63.83-1.19 93.04-.01 5.75-.08 11.02-1.78 15.79-5.06 9.84-6.78 17.52-21.8 23.34-32.4 8.39-15.31 15.28-30.83 16.19-48.51-.26-11.29-.75-22.61-.6-33.9.15-12.64.33-26.2-5.59-34.5-5.35-7.5-12.17-6.21-20.23-6.21-.02 0-.7 13.48-.79 14.84-.27 4.36-.54 7.32-.54 11.29 0 4.3-3.49 7.8-7.8 7.8-4.3 0-7.8-3.5-7.8-7.8 0-4.02.3-8.69.6-13.51.74-11.72 1.56-23.43-2.75-30.81-4.26-7.29-11.26-5.78-18.47-5.78-.58 0-1.13-.07-1.68-.18.09 5.98-.29 10.92-.67 16.89-.27 4.36-.55 8.57-.55 12.55 0 4.3-3.49 7.8-7.8 7.8-4.3 0-7.79-3.5-7.79-7.8 0-4.02.29-8.7.6-13.53.82-12.98 1.73-26.24-4.34-32.98-4.33-4.81-11.03-3.6-16.88-3.6-.71 0-1.39-.09-2.05-.27v28.95c0 4.3-3.49 7.8-7.8 7.8-4.3 0-7.8-3.5-7.8-7.8v-74.98c0-36.58-41.3-37.43-41.3.32v135.93zm-15.6-34.28v-102.9c0-58.45 72.5-57.47 72.5-.32v30.98c.66-.18 1.34-.27 2.05-.27 10.22 0 18.85-.87 27.39 6.59 4.41 3.84 6.99 9.04 8.43 14.97 1-.46 2.11-.72 3.29-.72 11.66 0 22.47-.71 30.65 10.07 2.97 3.91 4.73 8.71 5.71 13.99.39-.07.78-.09 1.19-.09 12.03 0 22.03-.63 31.28 9.57 10.52 11.6 10.28 31.32 10.08 48.17-.05 11.46.5 22.86.6 34.3-1.01 20.59-8.43 37.71-17.48 54.32-7.44 13.65-15.87 29.92-28.76 38.8-7.4 5.1-15.59 7.72-24.56 7.81l-92.91.04c-9.27.15-16.48-3.9-21.78-11.84-4.26-6.38-7.1-15.33-8.62-26.61l-58.47-88.46c-3.44-4.66-8-11.7-11.39-19.38-6.81-15.46-9.46-41.17 9.68-48.94 11.68-4.76 25.48.66 34.58 8.2l26.54 21.72zm220.48 35.12c16.53 2.43 36.64 5.71 51.93 9.65 0-101.24-.01-206.51-.01-307.73 10.37 0 22.75-2.07 22.75 13.37v307.85c0 9.23-9.1 15.58-17.68 12.66-18.27-5.23-37.22-9.58-56.46-12.67-.17-9.04-.54-14.08-.53-23.13zm-303.77 17.91c-39.37.38-79 7.33-115.88 17.89C9.1 399.25 0 392.9 0 383.67V75.82c0-15.44 12.37-13.37 22.74-13.37v307.73c28.93-7.45 64.46-12.53 96.23-13.97 3.63 9.12 8.92 14.24 14.59 22.23z"/>
</svg><svg viewBox="0 0 451.043 451.043" xml:space="preserve" id="timeline-drive-icon" xmlns="http://www.w3.org/2000/svg">
    <path d="M384.99 66.054C342.394 23.459 285.761 0 225.521 0 165.283 0 108.649 23.459 66.054 66.054S0 165.283 0 225.522 23.458 342.394 66.054 384.99s99.229 66.054 159.468 66.054c60.239 0 116.873-23.458 159.468-66.054 42.595-42.595 66.054-99.229 66.054-159.468S427.585 108.649 384.99 66.054zM225.521 433.043C111.094 433.043 18 339.949 18 225.522S111.094 18 225.521 18c114.428 0 207.522 93.094 207.522 207.521S339.95 433.043 225.521 433.043z"/>
    <path d="M225.521 38.13c-103.329 0-187.392 84.063-187.392 187.392s84.063 187.393 187.392 187.393 187.393-84.064 187.393-187.393S328.85 38.13 225.521 38.13zm22.313 321.172h-44.641c-16.87-56.333-59.586-101.839-114.825-122.151l15.428-65.49c39.619-9.641 80.54-14.541 121.728-14.541 41.202 0 82.119 4.902 121.724 14.551l15.425 65.474c-55.246 20.307-97.968 65.816-114.839 122.157zM56.129 225.522c0-14.331 1.796-28.25 5.163-41.55a513.41 513.41 0 0 1 22.784-7.099l-12.931 54.889a186.7 186.7 0 0 0-14.978-3.261c-.017-.992-.038-1.983-.038-2.979zm323.769 6.237-12.929-54.881a506.414 506.414 0 0 1 22.784 7.1 169.155 169.155 0 0 1 5.161 41.544c0 .995-.021 1.986-.038 2.977a186.696 186.696 0 0 0-14.978 3.26zM225.521 56.13c71.27 0 132.395 44.246 157.365 106.709a520.07 520.07 0 0 0-25.917-7.308c-42.686-10.888-86.91-16.409-131.445-16.409-44.517 0-88.744 5.518-131.45 16.398a525.748 525.748 0 0 0-25.917 7.317C93.128 100.374 154.252 56.13 225.521 56.13zM57.492 247.061c70.855 14.342 125.07 72.703 134.195 144.456-70.359-14.319-125.009-72.387-134.195-144.456zm152.61 147.144a187.06 187.06 0 0 0-2.472-16.903h35.769a186.697 186.697 0 0 0-2.472 16.905c-5.076.46-10.211.708-15.405.708a170.899 170.899 0 0 1-15.42-.71zm49.239-2.685c9.125-71.766 63.347-130.129 134.211-144.462-9.186 72.076-63.844 130.147-134.211 144.462z"/>
    <path d="M225.521 174.343c-28.22 0-51.179 22.959-51.179 51.179 0 28.221 22.959 51.18 51.179 51.18 28.221 0 51.18-22.959 51.18-51.18 0-28.22-22.959-51.179-51.18-51.179zm0 84.358c-18.295 0-33.179-14.884-33.179-33.18 0-18.295 14.884-33.179 33.179-33.179s33.18 14.884 33.18 33.179c0 18.296-14.884 33.18-33.18 33.18z"/>
</svg><svg viewBox="-1.5 0 32 32" id="timeline-return-icon" xmlns="http://www.w3.org/2000/svg">
    <path d="M5.867 15.467c-1.173 0-2.133.96-2.133 2.133s.96 2.133 2.133 2.133S8 18.773 8 17.6s-.96-2.133-2.133-2.133zm0 3.2c-.587 0-1.067-.48-1.067-1.067s.48-1.067 1.067-1.067 1.067.48 1.067 1.067-.48 1.067-1.067 1.067zM22.933 15.467c-1.173 0-2.133.96-2.133 2.133s.96 2.133 2.133 2.133 2.133-.96 2.133-2.133-.96-2.133-2.133-2.133zm0 3.2c-.587 0-1.067-.48-1.067-1.067s.48-1.067 1.067-1.067S24 17.013 24 17.6s-.48 1.067-1.067 1.067z"/>
    <path d="m25.12 11.2-.907-4.267c-.373-1.387-1.44-2.133-2.88-2.133H7.466c-1.493 0-2.347.747-2.773 2.133l-.96 4.267H0v1.067h3.467v.053c-1.653.107-2.933 1.493-2.933 3.2v7.413h1.6v1.6c0 1.493 1.173 2.667 2.667 2.667s2.667-1.173 2.667-2.667v-1.6h13.867v1.6c0 1.493 1.173 2.667 2.667 2.667s2.667-1.173 2.667-2.667v-1.6h1.6V15.52c0-1.653-1.28-3.04-2.88-3.2v-.053h3.413V11.2h-3.68zM5.707 7.253c.32-.96.8-1.387 1.76-1.387h13.867c1.013 0 1.6.427 1.867 1.333l1.067 5.12H4.535l1.173-5.067zm.693 17.28c0 .907-.693 1.6-1.6 1.6s-1.6-.693-1.6-1.6v-1.6h3.2v1.6zm19.2 0c0 .907-.693 1.6-1.6 1.6s-1.6-.693-1.6-1.6v-1.6h3.2v1.6zm1.6-9.013v6.347H1.6V15.52a2.14 2.14 0 0 1 2.133-2.133h21.333a2.14 2.14 0 0 1 2.133 2.133z"/>
</svg><svg viewBox="0 0 84.91 122.88" style="enable-background:new 0 0 84.91 122.88" xml:space="preserve" id="timeline-select-icon" xmlns="http://www.w3.org/2000/svg">
    <path d="M26.6 80.57a3.13 3.13 0 0 1-.37-.23c-1.49-1.18-3.13-2.51-4.54-3.66-2.06-1.69-4.43-3.64-6.09-5.02-1.13-.93-2.42-1.58-3.63-1.83-.79-.14-1.49-.14-2.06.08-.45.2-.85.56-1.1 1.13-.34.76-.51 1.83-.42 3.3.08 1.3.54 2.71 1.13 4.09.87 2 2.09 3.86 2.99 5.04.06.08.11.14.14.23l17.84 25.48c.23.34.37.71.39 1.07.37 2.93.99 5.16 1.89 6.54.68 1.01 1.52 1.52 2.62 1.49h28.07c1.75-.03 3.33-.53 4.79-1.55 1.61-1.1 3.04-2.82 4.37-5.13.03-.03.06-.08.08-.11.51-.87 1.18-2 1.83-3.07 2.85-4.68 5.33-8.77 5.61-14.57l-.17-8c-.03-.11-.03-.23-.03-.34s0-.87.03-1.89c.06-5.3.14-11.84-4.71-12.65h-3.13c-.03 1.49-.11 3.02-.2 4.48-.08 1.32-.17 2.56-.17 3.78 0 1.3-1.04 2.34-2.34 2.34a2.33 2.33 0 0 1-2.34-2.34c0-1.21.08-2.62.17-4.09.31-4.99.68-10.71-3.3-11.41h-3.1c-.17 0-.34-.03-.51-.06.03 1.8-.08 3.66-.2 5.47-.06 1.32-.14 2.56-.14 3.77 0 1.3-1.04 2.34-2.34 2.34a2.33 2.33 0 0 1-2.34-2.34c0-1.21.08-2.62.17-4.09.31-4.99.68-10.71-3.3-11.41h-3.1c-.23 0-.42-.03-.62-.08v9.1c0 1.3-1.04 2.34-2.34 2.34a2.33 2.33 0 0 1-2.34-2.34V41.99c0-4.09-1.66-6.68-3.8-7.75a5.42 5.42 0 0 0-2.45-.59c-.82 0-1.66.2-2.45.59-2.11 1.07-3.75 3.66-3.75 7.86v42.81c0 1.3-1.04 2.34-2.34 2.34a2.33 2.33 0 0 1-2.34-2.34v-4.34h-.06zm12.69-66.58a2.78 2.78 0 0 1-5.56 0V2.78a2.78 2.78 0 0 1 5.56 0v11.21zm-25.3 22.96a2.78 2.78 0 0 1 0 5.56H2.78A2.793 2.793 0 0 1 0 39.73a2.78 2.78 0 0 1 2.78-2.78h11.21zm7.93-16.62a2.788 2.788 0 0 1 0 3.93 2.788 2.788 0 0 1-3.93 0l-7.9-7.93a2.788 2.788 0 0 1 0-3.93 2.788 2.788 0 0 1 3.93 0l7.9 7.93zM58.47 42.5a2.78 2.78 0 0 1 0-5.56h11.21a2.78 2.78 0 0 1 0 5.56H58.47zm-4-18.85a2.788 2.788 0 0 1-3.93 0 2.788 2.788 0 0 1 0-3.93l7.9-7.93a2.788 2.788 0 0 1 3.93 0 2.788 2.788 0 0 1 0 3.93l-7.9 7.93zm-6 29.14c.2-.06.39-.08.62-.08h3.24c.17 0 .37.03.53.06 4.31.68 6.26 3.19 7.05 6.45.31-.14.65-.23.99-.23h3.24c.17 0 .37.03.53.06 4.65.73 6.51 3.58 7.19 7.19.11-.03.23-.03.37-.03h3.24c.17 0 .37.03.54.06 8.91 1.38 8.79 10.23 8.71 17.36v1.86l.2 8.23v.25c-.34 7.02-3.1 11.56-6.28 16.8-.54.87-1.07 1.77-1.8 3.02-.03.03-.03.06-.06.08-1.66 2.9-3.58 5.13-5.78 6.65-2.23 1.55-4.71 2.34-7.41 2.37H35.53c-2.79.06-4.96-1.16-6.57-3.55-1.3-1.92-2.14-4.62-2.59-8L8.9 86.35l-.09-.08c-1.04-1.38-2.45-3.55-3.52-5.95-.79-1.8-1.38-3.75-1.52-5.67-.14-2.28.17-4.09.82-5.52.79-1.78 2.09-2.93 3.64-3.55 1.44-.59 3.07-.68 4.71-.34 1.97.4 4 1.38 5.72 2.82 1.41 1.18 3.78 3.1 6.09 4.99l1.92 1.58v-32.5c0-6.23 2.76-10.23 6.34-12.04 1.44-.73 2.99-1.1 4.57-1.1s3.13.37 4.56 1.1c3.58 1.8 6.4 5.83 6.4 11.95V52.8l-.07-.01z"/>
</svg><svg fill="none" viewBox="0 0 24 24" id="user" xmlns="http://www.w3.org/2000/svg">
    <path d="M18.559 19.549a7.003 7.003 0 0 0-13.118 0m13.118 0A9.976 9.976 0 0 0 22 12c0-5.523-4.477-10-10-10S2 6.477 2 12a9.977 9.977 0 0 0 3.441 7.549m13.118 0A9.961 9.961 0 0 1 12 22a9.961 9.961 0 0 1-6.559-2.451M15 9a3 3 0 1 1-6 0 3 3 0 0 1 6 0Z" stroke="#141718" stroke-width="1.5" stroke-linejoin="round"/>
</svg><svg fill="none" viewBox="0 0 24 24" id="user-star-line" xmlns="http://www.w3.org/2000/svg">
    <path d="M12 14v2a6 6 0 0 0-6 6H4a8 8 0 0 1 8-8Zm0-1c-3.315 0-6-2.685-6-6s2.685-6 6-6 6 2.685 6 6-2.685 6-6 6Zm0-2c2.21 0 4-1.79 4-4s-1.79-4-4-4-4 1.79-4 4 1.79 4 4 4Zm6 10.5-2.939 1.545.561-3.273-2.377-2.317 3.286-.477L18 14l1.47 2.977 3.285.478-2.377 2.318.56 3.272L18 21.5Z" fill="#000"/>
</svg><svg viewBox="0 0 497 497" id="website" xmlns="http://www.w3.org/2000/svg">
    <path d="M497 128.5v312c0 11.046-8.954 20-20 20H20c-11.046 0-20-8.954-20-20v-312z" fill="#faf8f8"/>
    <path d="M290.498 294.5c0-23.196-18.804-42-42-42a41.823 41.823 0 0 0-19.482 4.782c-13.386 7.021-19.327 21.053-19.327 37.218 0 23.196 15.613 36.457 38.809 36.457 16.214 0 30.282-3.645 37.282-17.099a41.814 41.814 0 0 0 4.718-19.358z" fill="#dc4955"/>
    <path d="M286.468 312.47c-6.73 14.21-21.2 24.03-37.97 24.03-23.2 0-42-18.8-42-42 0-16.77 9.82-31.24 24.03-37.97-2.59 5.45-4.03 11.54-4.03 17.97 0 23.2 18.8 42 42 42 6.43 0 12.52-1.44 17.97-4.03z" fill="#d82f3c"/>
    <path d="M429.496 294.5c0-23.196-18.804-42-42-42a41.823 41.823 0 0 0-19.482 4.782c-13.386 7.021-19.327 21.053-19.327 37.218 0 23.196 15.613 36.457 38.809 36.457 16.214 0 30.282-3.645 37.282-17.099a41.814 41.814 0 0 0 4.718-19.358z" fill="#b7e546"/>
    <path d="M425.466 312.47c-6.73 14.21-21.2 24.03-37.97 24.03-23.2 0-42-18.8-42-42 0-16.77 9.82-31.24 24.03-37.97-2.59 5.45-4.03 11.54-4.03 17.97 0 23.2 18.8 42 42 42 6.43 0 12.52-1.44 17.97-4.03z" fill="#abd641"/>
    <path d="M497 148.5v-20l-276.011-12.798L0 128.5v312c0 11.046 8.954 20 20 20h15c-8.28 0-15-6.72-15-15v-291a6 6 0 0 1 6-6z" fill="#f0e9e6"/>
    <path d="M497 56.5V129H0V56.5c0-11.046 8.954-20 20-20h457c11.046 0 20 8.954 20 20z" fill="#5d748a"/>
    <g fill="#3f597d">
        <path d="M227.758 108.5c-8.255 0-14.947-6.716-14.947-15s6.692-15 14.947-15h208.315c8.255 0 14.947 6.716 14.947 15s-6.692 15-14.947 15z"/>
        <ellipse cx="160.869" cy="93.5" rx="14.947" ry="15"/>
        <path d="m171.361 104.184 12.874-12.869-13.139 1.179zM150.592 82.608l12.562-12.516-2.693 10.408z"/>
        <ellipse cx="98.034" cy="93.5" rx="14.947" ry="15"/>
        <path d="m108.553 104.157 12.382-12.499-12.674.836zM87.757 82.608l12.371-12.459L97.626 80.5z"/>
        <ellipse cx="32.947" cy="93.5" rx="14.947" ry="15"/>
        <path d="M43.769 103.846 56.49 90.66l-13.139 1.381zM22.67 82.608 34.292 70.57l-1.753 9.93z"/>
    </g>
    <ellipse cx="173.849" cy="80.5" fill="#b7e546" rx="14.947" ry="15"/>
    <path d="m217.514 82.577 12.971-12.991-3.025 14.276zM446.83 103.915l13.149-13.179-10.185 3.381z" fill="#3f597d"/>
    <ellipse cx="110.946" cy="80.5" fill="#ffbf54" rx="14.947" ry="15"/>
    <ellipse cx="45.495" cy="80.5" fill="#dc4955" rx="14.947" ry="15"/>
    <path d="M240.737 95.5c-8.255 0-14.947-6.716-14.947-15s6.692-15 14.947-15h208.315c8.255 0 14.947 6.716 14.947 15s-6.692 15-14.947 15z" fill="#faf8f8"/>
    <path d="m135.893 215 226.628 2c5.523 0 10-4.477 10-10l3.479-7v-30c0-5.523-4.477-10-10-10H142l-6.107 5c-5.523 0-10 4.477-10 10v30c0 5.523 4.477 10 10 10z" fill="#aad8de"/>
    <path d="M376 200v10c0 5.523-4.477 10-10 10H132c-5.523 0-10-4.477-10-10v-40c0-5.523 4.477-10 10-10h10v33a7 7 0 0 0 7 7z" fill="#94ccd4"/>
    <path d="M151.5 294.5c0-23.196-18.804-42-42-42a41.823 41.823 0 0 0-19.482 4.782c-13.386 7.021-19.327 21.053-19.327 37.218 0 23.196 15.613 36.457 38.809 36.457 16.214 0 30.282-3.645 37.282-17.099A41.814 41.814 0 0 0 151.5 294.5z" fill="#ffbf54"/>
    <path d="M147.47 312.47c-6.73 14.21-21.2 24.03-37.97 24.03-23.2 0-42-18.8-42-42 0-16.77 9.82-31.24 24.03-37.97-2.59 5.45-4.03 11.54-4.03 17.97 0 23.2 18.8 42 42 42 6.43 0 12.52-1.44 17.97-4.03z" fill="#ffa442"/>
    <path d="M149.5 374h-70a7.5 7.5 0 0 1 0-15h70a7.5 7.5 0 0 1 0 15zM149.5 404h-80a7.5 7.5 0 0 1 0-15h80a7.5 7.5 0 0 1 0 15zM149.5 434h-80a7.5 7.5 0 0 1 0-15h80a7.5 7.5 0 0 1 0 15zM288.5 374h-70a7.5 7.5 0 0 1 0-15h70c4.143 0 7.5 3.358 7.5 7.5s-3.357 7.5-7.5 7.5zM288.5 404h-80a7.5 7.5 0 0 1 0-15h80c4.143 0 7.5 3.358 7.5 7.5s-3.357 7.5-7.5 7.5zM288.5 434h-80a7.5 7.5 0 0 1 0-15h80c4.143 0 7.5 3.358 7.5 7.5s-3.357 7.5-7.5 7.5zM427.5 374h-70c-4.143 0-7.5-3.358-7.5-7.5s3.357-7.5 7.5-7.5h70c4.143 0 7.5 3.358 7.5 7.5s-3.357 7.5-7.5 7.5zM427.5 404h-80c-4.143 0-7.5-3.358-7.5-7.5s3.357-7.5 7.5-7.5h80c4.143 0 7.5 3.358 7.5 7.5s-3.357 7.5-7.5 7.5zM427.5 434h-80c-4.143 0-7.5-3.358-7.5-7.5s3.357-7.5 7.5-7.5h80c4.143 0 7.5 3.358 7.5 7.5s-3.357 7.5-7.5 7.5z" fill="#f0e9e6"/>
</svg></svg>