<?xml version="1.0" encoding="utf-8"?><!DOCTYPE svg PUBLIC "-//W3C//DTD SVG 1.1//EN" "http://www.w3.org/Graphics/SVG/1.1/DTD/svg11.dtd"><svg viewBox="0 0 800 800" xmlns="http://www.w3.org/2000/svg" xmlns:xlink="http://www.w3.org/1999/xlink"><style>:root>svg{display:none}:root>svg:target{display:block}</style><svg fill="none" viewBox="0 0 63 63" id="achievement-01" xmlns="http://www.w3.org/2000/svg">
    <path d="M57.133 17.89H47.18l-.222-.818 3.395-2.729c.436-.35.607-.922.434-1.455a1.327 1.327 0 0 0-1.207-.922l-4.35-.212-1.546-4.073a1.327 1.327 0 0 0-1.25-.86c-.561 0-1.052.337-1.25.86l-1.546 4.073-4.35.212c-.56.027-1.034.389-1.207.922a1.327 1.327 0 0 0 .433 1.455l3.396 2.729-.223.817h-9.953a5.004 5.004 0 0 0-4.999 4.999v.888h-.537c-.438 0-.864.086-1.259.248.293-.601.46-1.166.521-1.613a.976.976 0 0 0 .01-.135v-3.802a6.872 6.872 0 0 0-6.865-6.864.984.984 0 0 0-.985.984v4.903c0 2.942-2.31 4.57-4.756 6.295-.368.259-.744.525-1.112.795h-5.9a.984.984 0 0 0-.984.984v16.15c0 .544.44.984.985.984H7.69c2.12 1.91 4.253 2.53 6.73 2.53 1.903 0 4.009-.366 6.467-.792l.55-.095c.246.058.5.089.76.089h.746a4.993 4.993 0 0 0 4.79 3.567h2.412v7.192a.984.984 0 0 0 1.694.682l7.564-7.874h17.73a5.004 5.004 0 0 0 4.998-4.998V22.888a5.004 5.004 0 0 0-4.999-4.998ZM37.045 13.85l3.101-.151a1.337 1.337 0 0 0 1.185-.861l1.102-2.903 1.103 2.903c.189.497.654.835 1.185.861l3.102.151-2.421 1.946c-.414.333-.592.88-.453 1.393l.815 2.996-2.598-1.7a1.337 1.337 0 0 0-1.465 0l-2.598 1.7.815-2.996a1.337 1.337 0 0 0-.453-1.393l-2.42-1.946ZM22.198 25.745h5.82c.746 0 1.352.607 1.352 1.352 0 .746-.606 1.352-1.352 1.352h-5.82a1.354 1.354 0 0 1-1.352-1.352c0-.358.141-.697.398-.954.256-.256.595-.398.954-.398Zm0 12.05a1.354 1.354 0 0 1-1.352-1.352c0-.746.607-1.352 1.352-1.352h5.165c.746 0 1.352.606 1.352 1.352 0 .745-.606 1.352-1.352 1.352h-5.165Zm-.984-4.673a1.354 1.354 0 0 1-1.352-1.352c0-.745.606-1.352 1.352-1.352h7.789c.745 0 1.352.607 1.352 1.352 0 .746-.607 1.352-1.352 1.352h-7.79ZM7.099 40.737H2.837V26.556h4.257c.007 8.694.007 12.596.005 14.18Zm1.963-14.67c.303-.22.613-.438.936-.666 2.62-1.848 5.591-3.942 5.591-7.904v-3.82a4.904 4.904 0 0 1 3.912 4.797v3.728c-.099.584-.502 1.53-1.343 2.372a.984.984 0 0 0-.116 1.252c.703 1.027.941 1.98.728 2.915-.411 1.802-2.433 3.132-3.283 3.62a.984.984 0 0 0 .98 1.707 12.408 12.408 0 0 0 1.642-1.124c.258.68.732 1.255 1.34 1.638a3.31 3.31 0 0 0 .392 4.197 3.31 3.31 0 0 0-.55 3.941c-4.77.81-7.447 1.043-10.225-1.426l-.004-15.227ZM25.97 39.764c.745 0 1.352.606 1.352 1.352 0 .358-.142.697-.398.954a1.341 1.341 0 0 1-.954.398h-3.772c-.359 0-.698-.142-.954-.398a1.342 1.342 0 0 1-.398-.954c0-.746.607-1.352 1.352-1.352h3.772Zm34.193 3.242c0 1.67-1.36 3.03-3.03 3.03H38.985a.985.985 0 0 0-.71.302l-6.16 6.413V47.02a.984.984 0 0 0-.985-.985h-3.396a3.027 3.027 0 0 1-2.671-1.598h.907c.884 0 1.717-.346 2.346-.975a3.298 3.298 0 0 0 .974-2.346c0-.618-.169-1.196-.464-1.692a3.325 3.325 0 0 0 1.445-4.585 3.326 3.326 0 0 0 2.053-3.069 3.322 3.322 0 0 0-1.556-2.812c.36-.53.571-1.172.571-1.86 0-1.832-1.49-3.321-3.32-3.321h-3.315v-.889c0-1.67 1.36-3.03 3.03-3.03h9.418l-.385 1.417c-.147.54.05 1.103.504 1.433.453.329 1.05.344 1.518.037l3.645-2.386 3.644 2.386a1.333 1.333 0 0 0 1.518-.037c.454-.33.651-.892.504-1.433l-.385-1.416h9.418c1.67 0 3.03 1.358 3.03 3.03v20.117Zm-2.49-2.399c0 .544-.442.985-.985.985h-22.11a.984.984 0 0 1 0-1.97h22.11c.543 0 .984.441.984.985ZM33.593 25.842c0-.544.441-.985.985-.985h14.276a.984.984 0 0 1 0 1.969H34.579a.985.985 0 0 1-.985-.985Zm0 3.69c0-.543.441-.983.985-.983h11.82a.984.984 0 0 1 0 1.968H34.58a.985.985 0 0 1-.985-.984Zm0 3.692c0-.543.441-.984.985-.984H54.17a.984.984 0 0 1 0 1.969H34.58a.985.985 0 0 1-.985-.985Zm0 3.692c0-.544.441-.984.985-.984h16.965a.984.984 0 0 1 0 1.968H34.579a.984.984 0 0 1-.985-.984Z" fill="#FD3B3B"/>
</svg><svg fill="none" viewBox="0 0 63 63" id="achievement-02" xmlns="http://www.w3.org/2000/svg">
    <path d="M45.281 42.328h4.795A7.018 7.018 0 0 0 54.57 29.92l-8-6.666a6.909 6.909 0 0 0-4.411-1.597H20.84a6.909 6.909 0 0 0-4.412 1.597L8.43 29.919a7.019 7.019 0 0 0 4.494 12.41h4.795a13.598 13.598 0 0 0 1.215 5.61 3.771 3.771 0 0 0-.093 2.311l-8.958-4.1a4.202 4.202 0 0 0-5.945 3.82v.213a4.18 4.18 0 0 0 2.322 3.76l11.478 5.74a12.873 12.873 0 0 0 5.723 1.348h35.602v-1.968H45.28V47.25h13.782v-1.969H44.96c.214-.97.321-1.96.321-2.953Zm-1.968 16.734H23.46a10.886 10.886 0 0 1-4.843-1.142L7.14 52.18a2.22 2.22 0 0 1-1.235-1.997v-.213a2.23 2.23 0 0 1 3.163-2.03l11.193 5.126c.129.06.268.09.41.09h9.844a.984.984 0 0 0 0-1.968H22.64a1.969 1.969 0 1 1 0-3.938h7.547a.978.978 0 0 0 .472-.121l.25-.137a13.136 13.136 0 0 1 12.402-.142v12.212ZM19.686 42.328h1.97a9.928 9.928 0 0 0 .473 3.004 3.894 3.894 0 0 0-1.826.736 11.675 11.675 0 0 1-.616-3.74Zm14.62.111 3.4-2.547a3.95 3.95 0 0 0 1.63 1.87c.013.19.038.394.038.568a7.881 7.881 0 0 1-.098 1.204 15.02 15.02 0 0 0-4.858.135c.018-.118.03-.237.034-.356a2.915 2.915 0 0 0-.147-.874ZM31.5 40.36a2.938 2.938 0 0 0-1.634.493l-4.353-3.26c-.019-.09-.056-.171-.08-.259a7.826 7.826 0 0 1 12.135 0c-.025.088-.062.169-.081.258l-4.353 3.26a2.939 2.939 0 0 0-1.634-.492Zm.984 2.953a.984.984 0 1 1-1.968 0 .984.984 0 0 1 1.968 0Zm6.142-7.758a9.806 9.806 0 0 0-14.252 0 3.925 3.925 0 0 0-1.772-.973 11.77 11.77 0 0 1 17.796 0c-.666.164-1.277.5-1.772.973Zm-13.327 4.338 3.4 2.547a2.833 2.833 0 0 0 .609 2.828l-5.1.014a7.882 7.882 0 0 1-.583-2.953c0-.177.025-.379.037-.568a3.95 3.95 0 0 0 1.637-1.868Zm17.795 4.684a15.254 15.254 0 0 0-1.889-.652 9.9 9.9 0 0 0 .139-1.596h1.968a11.826 11.826 0 0 1-.223 2.248h.005Zm-1.75-4.217a1.968 1.968 0 1 1 0-3.937h8.86a.985.985 0 0 0 .63-1.741l-5.906-4.922a.984.984 0 0 0-1.615.757v3.937h-.537a13.716 13.716 0 0 0-22.552 0h-.537v-3.937a.984.984 0 0 0-1.615-.757l-5.906 4.922a.985.985 0 0 0 .63 1.74h8.86a1.969 1.969 0 1 1 0 3.938h-8.732a5.05 5.05 0 0 1-3.232-8.927l8-6.666a4.921 4.921 0 0 1 3.15-1.141h21.317c1.15 0 2.266.404 3.15 1.14l7.999 6.667a5.048 5.048 0 0 1-3.232 8.927h-8.732Zm3.937-5.906v-1.836l2.203 1.836h-2.203ZM17.72 32.617v1.836h-2.203l2.203-1.836Z" fill="#FD3B3B"/>
    <path d="M49.219 55.125H47.25v1.969h1.969v-1.969ZM40.36 10.828a8.86 8.86 0 1 0-8.86 8.86 8.87 8.87 0 0 0 8.86-8.86Zm-15.75 0a6.89 6.89 0 1 1 6.89 6.89 6.9 6.9 0 0 1-6.89-6.89Z" fill="#FD3B3B"/>
</svg><svg fill="none" viewBox="0 0 63 63" id="achievement-03" xmlns="http://www.w3.org/2000/svg">
    <path d="M31.5 5.906a.984.984 0 0 1-.984-.984V2.953a.984.984 0 1 1 1.968 0v1.969a.984.984 0 0 1-.984.984ZM23.133 8.145a.984.984 0 0 1-.854-.493l-.984-1.705A.984.984 0 0 1 23 4.963l.984 1.705a.986.986 0 0 1-.852 1.477ZM39.867 8.145a.984.984 0 0 1-.851-1.477L40 4.963a.985.985 0 0 1 1.705.984l-.984 1.705a.985.985 0 0 1-.854.493ZM58.792 23a3.95 3.95 0 0 0-3.093-4.377 4.036 4.036 0 0 0-4.651 2.98l-3.422 12.084c-.377.081-.74.218-1.077.406l-8.702 5.101a8.892 8.892 0 0 0-4.378 7.643V59.06a.984.984 0 1 0 1.968 0V46.837a6.915 6.915 0 0 1 3.406-5.944l8.696-5.098a1.97 1.97 0 1 1 1.97 3.41l-5.642 3.257a.982.982 0 0 0-.366 1.348.986.986 0 0 0 1.35.357l5.642-3.257a3.918 3.918 0 0 0 1.715-4.775l2.702-10.068a2.088 2.088 0 0 1 2.35-1.575 1.976 1.976 0 0 1 1.501 2.429l-4.28 15.978a2.96 2.96 0 0 1-.892 1.444l-6.655 5.916a4.922 4.922 0 0 0-1.653 3.682v5.119a.985.985 0 0 0 1.969 0V53.94a2.952 2.952 0 0 1 .991-2.207l6.658-5.917a4.922 4.922 0 0 0 1.482-2.409l4.281-15.976c.09-.334.135-.679.133-1.025A3.943 3.943 0 0 0 58.792 23Zm-5.782 2.559-2.328 8.67a3.95 3.95 0 0 0-1.026-.485l3.29-11.616a2.098 2.098 0 0 1 2.351-1.575 1.969 1.969 0 0 1 1.56 1.918v.014a4.077 4.077 0 0 0-3.847 3.072v.002ZM25.152 39.195l-8.707-5.104a3.874 3.874 0 0 0-1.071-.405l-3.418-12.071a4.036 4.036 0 0 0-4.657-2.992A3.951 3.951 0 0 0 4.208 23a3.926 3.926 0 0 0-1.87 4.43l4.28 15.979a4.922 4.922 0 0 0 1.484 2.404l6.656 5.916a2.952 2.952 0 0 1 .992 2.213v5.118a.984.984 0 1 0 1.968 0v-5.118a4.922 4.922 0 0 0-1.652-3.679L9.41 44.347a2.953 2.953 0 0 1-.892-1.443L4.237 26.92a1.976 1.976 0 0 1 1.503-2.432 2.087 2.087 0 0 1 2.35 1.575l2.701 10.068a3.918 3.918 0 0 0 1.716 4.776l5.642 3.257a.986.986 0 0 0 1.447-1.107.985.985 0 0 0-.463-.598l-5.641-3.253a1.963 1.963 0 0 1 1.101-3.662h.008c.3.015.592.1.853.249l8.702 5.1a6.914 6.914 0 0 1 3.406 5.944V59.06a.984.984 0 1 0 1.969 0V46.837a8.892 8.892 0 0 0-4.378-7.642Zm-12.834-4.966L9.99 25.557a4.073 4.073 0 0 0-3.846-3.073v-.013a1.969 1.969 0 0 1 1.558-1.92 2.096 2.096 0 0 1 2.358 1.589l3.284 11.602a3.92 3.92 0 0 0-1.026.487Z" fill="#FD3B3B"/>
    <path d="M38.989 34.926a1.98 1.98 0 0 0 1.87-2.584l-2.418-7.444 6.331-4.601a1.97 1.97 0 0 0-1.154-3.562h-7.827l-2.42-7.443a1.97 1.97 0 0 0-3.741 0l-2.421 7.443h-7.828a1.968 1.968 0 0 0-1.156 3.562l6.331 4.6-2.419 7.445a1.968 1.968 0 0 0 3.03 2.2l6.333-4.6 6.332 4.6c.335.248.74.382 1.157.384Zm-7.49-6.954a1.97 1.97 0 0 0-1.157.377l-6.331 4.601 2.418-7.444a1.969 1.969 0 0 0-.715-2.2l-6.333-4.602h7.828a1.969 1.969 0 0 0 1.87-1.36l2.42-7.457V9.9l2.42 7.444a1.969 1.969 0 0 0 1.872 1.36h7.828l-6.332 4.6a1.968 1.968 0 0 0-.717 2.202l2.419 7.444-6.331-4.599a1.968 1.968 0 0 0-1.158-.379ZM14.81 13.154l1.705.984a.986.986 0 0 0 1.447-1.107.984.984 0 0 0-.463-.598l-1.704-.984a.984.984 0 0 0-.984 1.705ZM45.994 14.27a.985.985 0 0 0 .492-.132l1.704-.984a.985.985 0 0 0-.984-1.705l-1.704.984a.985.985 0 0 0 .492 1.837Z" fill="#FD3B3B"/>
</svg><svg fill="none" viewBox="0 0 63 63" id="achievement-04" xmlns="http://www.w3.org/2000/svg">
    <g clip-path="url(#ada)" fill="#FD3B3B">
        <path d="M18.198 40.952h25.808a2.098 2.098 0 0 0 1.879-3.045l-3.332-6.655a5.201 5.201 0 0 0-4.69-2.9H24.822a5.263 5.263 0 0 0-4.557 2.64l-3.892 6.824a2.1 2.1 0 0 0 1.825 3.136Zm14.352-10.5h5.313a3.116 3.116 0 0 1 2.81 1.74l3.339 6.66H32.55v-8.4Zm-10.46 1.582a3.15 3.15 0 0 1 2.732-1.582h5.628v8.4H18.198l3.892-6.818ZM35.7 43.047h-2.1a1.05 1.05 0 0 0 0 2.1h2.1a1.05 1.05 0 1 0 0-2.1ZM21 43.047h-2.1a1.05 1.05 0 0 0 0 2.1H21a1.05 1.05 0 1 0 0-2.1ZM14.7 52.5a3.15 3.15 0 1 0 0 6.299 3.15 3.15 0 0 0 0-6.299Zm0 4.2a1.05 1.05 0 1 1 0-2.099 1.05 1.05 0 0 1 0 2.099ZM47.25 52.5a3.15 3.15 0 1 0 0 6.299 3.15 3.15 0 0 0 0-6.299Zm0 4.2a1.05 1.05 0 1 1 0-2.099 1.05 1.05 0 0 1 0 2.099ZM18.9 12.597a6.3 6.3 0 1 0-6.3 6.3 6.306 6.306 0 0 0 6.3-6.3Zm-6.3 4.2a4.2 4.2 0 1 1 0-8.4 4.2 4.2 0 0 1 0 8.4ZM12.6 4.2a1.05 1.05 0 0 0 1.05-1.05v-2.1a1.05 1.05 0 1 0-2.1 0v2.1A1.05 1.05 0 0 0 12.6 4.2ZM6.966 4.939a1.05 1.05 0 0 0 1.818-1.05L7.734 2.07a1.05 1.05 0 1 0-1.818 1.05l1.05 1.819ZM2.073 7.736l1.819 1.05a1.05 1.05 0 1 0 1.05-1.818l-1.819-1.05a1.05 1.05 0 1 0-1.05 1.818ZM1.05 13.647h2.1a1.05 1.05 0 0 0 0-2.1h-2.1a1.05 1.05 0 1 0 0 2.1ZM3.892 16.418l-1.819 1.05a1.05 1.05 0 1 0 1.05 1.818l1.819-1.05a1.05 1.05 0 1 0-1.05-1.818ZM6.3 23.515a1.05 1.05 0 0 0 1.434-.385l1.05-1.819a1.05 1.05 0 0 0-1.818-1.05l-1.05 1.819a1.05 1.05 0 0 0 .384 1.435ZM11.55 22.05v2.1a1.05 1.05 0 0 0 2.1 0v-2.1a1.05 1.05 0 0 0-2.1 0ZM16.8 5.323a1.05 1.05 0 0 0 1.435-.384l1.05-1.819a1.051 1.051 0 0 0-1.55-1.36 1.05 1.05 0 0 0-.269.31l-1.05 1.819a1.05 1.05 0 0 0 .384 1.434ZM20.79 8.927c.185 0 .366-.048.525-.14l1.819-1.05a1.05 1.05 0 1 0-1.05-1.82l-1.819 1.05a1.05 1.05 0 0 0 .525 1.96ZM21 12.597a1.05 1.05 0 0 0 1.05 1.05h2.1a1.05 1.05 0 0 0 0-2.1h-2.1a1.05 1.05 0 0 0-1.05 1.05ZM20.258 18.237l1.819 1.05a1.052 1.052 0 0 0 1.544-1.18 1.052 1.052 0 0 0-.494-.639l-1.819-1.05a1.05 1.05 0 0 0-1.05 1.82ZM17.465 23.13a1.052 1.052 0 0 0 1.747.119 1.05 1.05 0 0 0 .072-1.17l-1.05-1.818a1.05 1.05 0 0 0-1.819 1.05l1.05 1.819ZM60.9 15.924c0-.059.005-.117.005-.177a3.177 3.177 0 0 0-3.431-3.138 4.715 4.715 0 0 0-9.14 2.12 3.675 3.675 0 0 0 .49 7.318H59.85a3.15 3.15 0 0 0 1.05-6.123Zm-1.05 4.023H48.825a1.574 1.574 0 1 1 .6-3.03 1.05 1.05 0 0 0 1.318-1.48 2.589 2.589 0 0 1-.343-1.265 2.616 2.616 0 0 1 5.229-.158 1.05 1.05 0 0 0 1.588.84 1.05 1.05 0 0 1 1.583.893c-.002.19-.056.376-.157.537a1.05 1.05 0 0 0 .483 1.502c.184.08.386.108.584.078a1.052 1.052 0 0 1 1.172 1.397 1.05 1.05 0 0 1-1.032.686ZM32.025 13.649H43.05a3.15 3.15 0 0 0 1.05-6.123v-.178a3.174 3.174 0 0 0-3.431-3.137 4.716 4.716 0 0 0-9.134 2.12 3.675 3.675 0 0 0 .49 7.317Zm0-5.25c.206 0 .41.04.6.12a1.05 1.05 0 0 0 1.318-1.48 2.589 2.589 0 0 1-.343-1.265 2.616 2.616 0 0 1 5.229-.158 1.049 1.049 0 0 0 1.589.84A1.056 1.056 0 0 1 42 7.348c-.001.19-.056.377-.157.538a1.05 1.05 0 0 0 .484 1.502c.183.08.385.108.583.078a1.05 1.05 0 1 1 .14 2.083H32.025a1.575 1.575 0 1 1 0-3.15Z"/>
        <path d="M61.95 60.898h-9.566a7.33 7.33 0 0 0 2.132-4.2H58.8a3.15 3.15 0 0 0 3.15-3.15v-4.2a10.92 10.92 0 0 0-.257-2.331 10.573 10.573 0 0 0-10.243-8.169h-.401l-4.739-9.477a9.38 9.38 0 0 0-8.447-5.223H24.822a9.456 9.456 0 0 0-8.198 4.761l-5.693 9.957A10.512 10.512 0 0 0 1.05 49.35v5.25a2.1 2.1 0 0 0 2.1 2.1h4.284a7.329 7.329 0 0 0 2.131 4.2H1.05a1.05 1.05 0 1 0 0 2.1h60.9a1.05 1.05 0 0 0 0-2.1Zm-2.1-7.35a1.05 1.05 0 0 1-1.05 1.05h-4.284a7.283 7.283 0 0 0-.635-2.1h5.969v1.05Zm0-4.2v1.05H56.7v-1.05a1.05 1.05 0 0 1 1.05-1.05h2.029c.045.349.069.7.071 1.05Zm-56.7 0a8.41 8.41 0 0 1 8.4-8.4 1.05 1.05 0 0 0 .911-.525l5.985-10.469a7.35 7.35 0 0 1 6.376-3.706h13.041a7.291 7.291 0 0 1 6.568 4.06l5.03 10.06a1.051 1.051 0 0 0 .939.58h1.05a8.472 8.472 0 0 1 7.788 5.25H57.75a3.15 3.15 0 0 0-3.15 3.15v1.05h-2.215a7.327 7.327 0 0 0-10.27 0h-22.28a7.327 7.327 0 0 0-10.27 0H3.15v-1.05Zm37.47 3.15a7.283 7.283 0 0 0-.636 2.1H21.966a7.283 7.283 0 0 0-.635-2.1h19.288Zm-33.186 2.1H3.15v-2.1h4.92a7.285 7.285 0 0 0-.636 2.1Zm7.266 6.3a5.25 5.25 0 1 1 0-10.498 5.25 5.25 0 0 1 0 10.498Zm5.134 0a7.329 7.329 0 0 0 2.132-4.2h18.018a7.328 7.328 0 0 0 2.131 4.2h-22.28Zm27.416 0a5.25 5.25 0 1 1 0-10.498 5.25 5.25 0 0 1 0 10.498Z"/>
    </g>
    <defs>
        <clipPath id="ada">
            <path fill="#fff" d="M0 0h63v63H0z"/>
        </clipPath>
    </defs>
</svg><svg fill="none" viewBox="0 0 63 63" id="achievement-05" xmlns="http://www.w3.org/2000/svg">
    <g clip-path="url(#aea)" fill="#FD3B3B">
        <path d="M35.823 42.13a8.267 8.267 0 0 0 3.942-7.04v-6.317c0-4.558-3.707-8.265-8.265-8.265-4.557 0-8.265 3.707-8.265 8.265v6.316a8.266 8.266 0 0 0 3.942 7.04c-6.807 1.952-11.96 8.127-11.96 15.138v4.807c0 .511.414.925.925.925h6.23a.925.925 0 0 0 0-1.85h-5.306v-3.882c0-3.623 1.546-7.086 4.353-9.753a15.35 15.35 0 0 1 5.876-3.474l1.465 2.846-1.968 8.544a.925.925 0 0 0 .277.89l3.807 3.485a.923.923 0 0 0 1.249 0l3.807-3.485a.925.925 0 0 0 .277-.89l-1.969-8.544 1.465-2.846a15.353 15.353 0 0 1 5.877 3.474c2.806 2.667 4.352 6.13 4.352 9.753v3.883H25.455a.925.925 0 1 0 0 1.85H46.86c.51 0 .925-.414.925-.925v-4.808c0-7.01-5.153-13.186-11.96-15.137ZM25.085 28.773a6.423 6.423 0 0 1 6.415-6.415 6.423 6.423 0 0 1 6.415 6.415v2.144c-2.907-.552-4.085-3.51-4.137-3.646a.925.925 0 0 0-1.679-.111c-.02.036-1.915 3.438-7.014 3.813v-2.2Zm9.2 26.547L31.5 57.87l-2.785-2.549 1.758-7.631h2.054l1.758 7.631Zm-5.148-11.743.231-.04.156-.026a13.742 13.742 0 0 1 1.34-.145l.113-.006c.106-.005.213-.008.32-.011.067.002.135.005.203.005.069 0 .136-.004.204-.005.106.003.213.006.32.011l.112.006a14.147 14.147 0 0 1 1.34.145l.156.025.232.04-1.165 2.263h-2.398l-1.164-2.262Zm2.611-2.08-.235-.005h-.025c-.079 0-.157.004-.235.006a6.422 6.422 0 0 1-6.168-6.409v-2.263c4.085-.256 6.497-2.174 7.694-3.506.843 1.31 2.466 3.115 5.136 3.472v2.297a6.422 6.422 0 0 1-6.167 6.409ZM21.096 13.345a1.72 1.72 0 0 0-1.396-1.178l-4.206-.61-1.88-3.811a1.72 1.72 0 0 0-1.552-.965 1.72 1.72 0 0 0-1.551.965l-1.88 3.81-4.206.611a1.719 1.719 0 0 0-1.397 1.178 1.72 1.72 0 0 0 .438 1.773l3.043 2.966-.718 4.189a1.72 1.72 0 0 0 .688 1.692 1.725 1.725 0 0 0 1.822.131l3.761-1.977 3.762 1.977a1.719 1.719 0 0 0 1.821-.131c.537-.39.8-1.038.689-1.692l-.719-4.189 3.043-2.966a1.719 1.719 0 0 0 .438-1.773Zm-4.817 3.459a1.73 1.73 0 0 0-.498 1.53l.688 4.012-3.602-1.894a1.73 1.73 0 0 0-1.61 0l-3.602 1.894.688-4.011a1.73 1.73 0 0 0-.498-1.531l-2.914-2.841 4.027-.585a1.73 1.73 0 0 0 1.303-.947l1.801-3.65 1.801 3.65c.252.51.74.865 1.303.946l4.027.586-2.914 2.84ZM40.552 6.564a1.72 1.72 0 0 0-1.397-1.178l-4.205-.61L33.069.963A1.72 1.72 0 0 0 31.517 0a1.72 1.72 0 0 0-1.55.964l-1.882 3.811-4.205.611a1.719 1.719 0 0 0-1.397 1.178 1.72 1.72 0 0 0 .438 1.773l3.043 2.966-.718 4.189a1.72 1.72 0 0 0 .688 1.691c.537.39 1.235.44 1.822.132l3.762-1.977 3.761 1.977a1.724 1.724 0 0 0 1.822-.132c.536-.39.8-1.038.688-1.691l-.718-4.189 3.043-2.966a1.72 1.72 0 0 0 .438-1.773Zm-4.818 3.459a1.73 1.73 0 0 0-.497 1.53l.688 4.012-3.603-1.894a1.73 1.73 0 0 0-1.61 0l-3.602 1.894.688-4.011a1.73 1.73 0 0 0-.497-1.531l-2.915-2.841 4.028-.585a1.73 1.73 0 0 0 1.302-.947L31.517 2l1.801 3.65c.252.511.74.865 1.303.947l4.027.585-2.914 2.84ZM59.971 13.345a1.72 1.72 0 0 0-1.396-1.178l-4.206-.61-1.88-3.811a1.72 1.72 0 0 0-1.551-.965 1.72 1.72 0 0 0-1.552.965l-1.88 3.81-4.206.611a1.72 1.72 0 0 0-1.397 1.178 1.72 1.72 0 0 0 .438 1.773l3.043 2.966-.718 4.189a1.72 1.72 0 0 0 .688 1.692 1.724 1.724 0 0 0 1.822.131l3.761-1.977 3.762 1.977a1.72 1.72 0 0 0 1.822-.131c.536-.39.8-1.039.688-1.692l-.719-4.189 3.043-2.966a1.719 1.719 0 0 0 .438-1.773Zm-4.817 3.459a1.73 1.73 0 0 0-.497 1.53l.688 4.012-3.603-1.894a1.73 1.73 0 0 0-1.61 0l-3.602 1.894.688-4.011a1.73 1.73 0 0 0-.498-1.531l-2.914-2.841 4.028-.585a1.73 1.73 0 0 0 1.302-.946l1.801-3.65 1.802 3.65c.252.51.738.864 1.302.946l4.027.585-2.914 2.84Z"/>
    </g>
    <defs>
        <clipPath id="aea">
            <path fill="#fff" d="M0 0h63v63H0z"/>
        </clipPath>
    </defs>
</svg><svg fill="none" viewBox="0 0 63 63" id="achievement-06" xmlns="http://www.w3.org/2000/svg">
    <g clip-path="url(#afa)">
        <path d="M59.442 8.47 56.75 6.097l2.692-2.37a1.32 1.32 0 0 0 .365-1.466 1.32 1.32 0 0 0-1.243-.86h-11.14V.923a.923.923 0 1 0-1.847 0v12.453l-7.584 4.118a2.922 2.922 0 0 0-.3-.97l-1.068-2.086a2.921 2.921 0 0 0-3.927-1.267l-.826.423a2.899 2.899 0 0 0-1.447 1.701 2.897 2.897 0 0 0 .18 2.226l1.069 2.087a2.9 2.9 0 0 0 1.051 1.142c-.567.764-.836 1.703-1.113 2.679l-.2.705a.923.923 0 1 0 1.778.502l.199-.703c.405-1.427.653-2.192 1.444-2.621l1.419-.77.175-.09c.058-.03.112-.064.167-.097l10.11-5.49a3.908 3.908 0 0 1-1.865 3.138l-6.573 3.994-.023.014-2.046 1.243a.924.924 0 0 0 .882 1.62l-1.552 4.693-1.135.465-3.086 1.265.89-3.144a.924.924 0 0 0-1.778-.503l-1.405 4.969a.885.885 0 0 0-.033.2l-.368 6.755c-.01.258.044.744-.075.996l-4.084 8.591h-2.967a3.156 3.156 0 0 0-3.153 3.152v2.665a3.127 3.127 0 0 0-1.305-.284H9.49a3.155 3.155 0 0 0-3.152 3.152v3.307H4.123a.923.923 0 1 0 0 1.847h54.44a.923.923 0 1 0 0-1.847h-2.401v-23.8a3.156 3.156 0 0 0-3.152-3.151h-5.587V18.094a5.758 5.758 0 0 0 .928-4.935.922.922 0 0 0-.928-.678v-1.686h11.14c.559 0 1.047-.337 1.244-.859a1.32 1.32 0 0 0-.365-1.467Zm-27.26 7.392c.088-.272.277-.494.532-.624l.826-.423a1.073 1.073 0 0 1 1.441.465l1.07 2.086c.249.487.087 1.078-.356 1.377l-.301.162-.635.326c-.526.269-1.173.06-1.442-.465l-1.069-2.086a1.064 1.064 0 0 1-.066-.818Zm-1.855 33.583a3.137 3.137 0 0 0-1.014-.27l1.014-1.346v1.616Zm4.384-7.44c.444-.532.567-1.154.666-1.654.025-.12.48-2.608.48-2.608s.432.268.477.288a.098.098 0 0 1 .057.08l.502 5.106h-3.095l.913-1.212Zm5.46-5.096-.78 6.304h-.643l-.52-5.282a1.946 1.946 0 0 0-1.087-1.562l-.929-.588.619-3.429s2.606 3.096 2.666 3.175c.54.701.724.982.674 1.382Zm-9.973 4.468a5.003 5.003 0 0 0 .258-1.714l.336-6.16 4.27-1.75-.776 4.3a.488.488 0 0 0-.006.035l-.642 3.556c-.084.368-.157.926-.387 1.23l-6.239 8.287h-.514l3.7-7.784ZM8.186 57.846c0-.72.585-1.305 1.305-1.305h7.537c.72 0 1.306.585 1.306 1.305v3.307H8.186v-3.307Zm11.994 0v-5.533c0-.72.586-1.305 1.306-1.305h7.536c.72 0 1.305.585 1.305 1.305v8.84H20.18v-3.307Zm34.135-20.492v23.8H44.168v-5.537a.923.923 0 1 0-1.847 0v5.536H32.174V46.37c0-.72.585-1.305 1.305-1.305h7.536c.72 0 1.306.585 1.306 1.305v4.629a.923.923 0 1 0 1.846 0V37.354c0-.72.586-1.306 1.306-1.306h7.537c.72 0 1.305.586 1.305 1.306Zm-8.842-3.152a3.156 3.156 0 0 0-3.152 3.152V43.5a3.124 3.124 0 0 0-1.07-.274l.753-6.09c.148-1.188-.457-1.975-1.043-2.736-.062-.081-3.65-4.343-3.65-4.343l2.2-6.657 6.066-3.684v14.485h-.104Zm1.95-25.254V3.25h9.769l-2.104 1.853a1.33 1.33 0 0 0 0 1.994l2.104 1.853h-9.769Z" fill="#FD3B3B"/>
    </g>
    <defs>
        <clipPath id="afa">
            <path fill="#fff" d="M0 0h63v63H0z"/>
        </clipPath>
    </defs>
</svg><svg fill="none" viewBox="0 0 63 63" id="achievement-07" xmlns="http://www.w3.org/2000/svg">
    <g clip-path="url(#aga)">
        <path d="M63 26.42h-2.283l-3.403 1.79a5.053 5.053 0 0 0-1.212-.498l-4.28-1.071v-.487a7.136 7.136 0 0 0 3.049-5.831v-1.777c0-3.947-3.093-7.25-6.895-7.366a7.616 7.616 0 0 0-.574.012l1.11-2.599-5.38-5.379L39.96 5.28A17.188 17.188 0 0 0 36.155 3.7L35.373 0h-7.744l-.784 3.702c-1.324.37-2.6.899-3.803 1.578L19.87 3.215l-5.377 5.376 1.091 2.6c-.041-.001-.081-.009-.123-.01a7.06 7.06 0 0 0-5.17 2.005 7.047 7.047 0 0 0-2.162 5.104v2.033a7.133 7.133 0 0 0 3.048 5.83v.488l-2.792.698-5.061-2.952H0v21.056l9.997 3.331h1.947l.243-.851 3.064 1.839a3.164 3.164 0 0 0 3.05 3.065 3.164 3.164 0 0 0 3.05 3.049 3.164 3.164 0 0 0 3.047 3.048 3.17 3.17 0 0 0 3.16 3.06 3.2 3.2 0 0 0 1.782-.55l.9.794c.564.497 1.29.772 2.044.772h.188a3.094 3.094 0 0 0 3.089-3.052 3.09 3.09 0 0 0 3.048-3.049 3.09 3.09 0 0 0 3.048-3.051 3.125 3.125 0 0 0 3.037-3.423L63 41.273V26.42Zm-10.161-7.874v1.777a5.1 5.1 0 0 1-2.544 4.396l-.508.294.004 3.216 5.077 1.268-11.174 5.882V32.64a5.056 5.056 0 0 0-1.456-3.54l3.488-.872V25.01l-.507-.293a5.095 5.095 0 0 1-2.542-4.395V18.29c0-1.385.548-2.681 1.544-3.646a5.01 5.01 0 0 1 3.694-1.431c2.715.081 4.924 2.474 4.924 5.333ZM33.032 34.58l-4.6-1.47a12.549 12.549 0 0 0-6.51-.297l-.583.129v-.3c0-1.402.95-2.619 2.308-2.959l5.82-1.454V25.01l-.506-.293a5.095 5.095 0 0 1-2.542-4.395V18.29c0-1.385.548-2.681 1.544-3.646a5.023 5.023 0 0 1 3.694-1.431c2.715.081 4.924 2.474 4.924 5.333v1.777a5.1 5.1 0 0 1-2.544 4.396l-.508.294.004 3.216 5.82 1.454a3.046 3.046 0 0 1 2.308 2.958v3.808l-.25.132h-.623l-6.247-1.786a6.41 6.41 0 0 0-1.509-.215ZM21.566 15.208A11.212 11.212 0 0 1 31.5 9.145c4.145 0 7.97 2.334 9.892 5.981a7.066 7.066 0 0 0-.747 3.164v2.033a7.133 7.133 0 0 0 3.049 5.83v.488l-4.065 1.017-4.066-1.017v-.487a7.135 7.135 0 0 0 3.05-5.831v-1.777c0-3.947-3.093-7.25-6.895-7.366a7.06 7.06 0 0 0-5.17 2.005 7.054 7.054 0 0 0-2.16 5.105v2.033a7.133 7.133 0 0 0 3.047 5.83v.488l-4.064 1.017-4.066-1.017v-.487a7.136 7.136 0 0 0 3.05-5.831v-1.777c0-1.195-.288-2.33-.789-3.338Zm-4.673-6.145 3.247-3.247 2.857 1.86.547-.335c1.37-.84 2.85-1.455 4.4-1.825l.625-.15.707-3.334h4.45l.704 3.333.626.15c1.549.37 3.03.985 4.4 1.825l.546.335 2.857-1.86 3.243 3.244-1.153 2.698a7.102 7.102 0 0 0-2.145 1.426c-.041.041-.077.085-.118.126C40.292 9.504 36.06 7.113 31.5 7.113c-4.593 0-8.837 2.413-11.225 6.257a7.169 7.169 0 0 0-2.242-1.589l-1.14-2.718ZM13.21 28.229V25.01l-.507-.293a5.095 5.095 0 0 1-2.542-4.395V18.29c0-1.385.548-2.681 1.544-3.646a5.015 5.015 0 0 1 3.694-1.431c2.715.081 4.924 2.474 4.924 5.333v1.777a5.1 5.1 0 0 1-2.544 4.396l-.508.294.004 3.216 3.487.871a5.056 5.056 0 0 0-1.456 3.541v.753l-3.169.704.082-.287.04-1.878-5.36-3.127 2.31-.577Zm-11.178-1.81h.741l7.308 4.263-3.688 14.75-4.36-1.455V26.419Zm8.294 20.323-2-.666 3.582-14.328 2.318 1.352v.29L10.41 46.742h-.085Zm6.948 2.925c0-.3.121-.593.334-.806l1.786-1.786a1.14 1.14 0 0 1 1.611 1.611l-1.786 1.787a1.14 1.14 0 0 1-1.945-.806Zm3.049 3.049c0-.3.12-.594.333-.806l1.786-1.786a1.14 1.14 0 0 1 1.611 1.612l-1.786 1.785a1.14 1.14 0 0 1-1.945-.806Zm3.048 3.048c0-.3.121-.593.333-.806l1.787-1.786a1.14 1.14 0 0 1 1.611 1.611l-1.786 1.787a1.14 1.14 0 0 1-1.945-.806Zm4.188 4.188a1.14 1.14 0 0 1-.806-1.945l1.786-1.786a1.14 1.14 0 0 1 1.612 1.611l-1.787 1.786a1.147 1.147 0 0 1-.806.334Zm4.913 1.016h-.188c-.259 0-.507-.095-.7-.266l-.76-.67.763-.763a3.16 3.16 0 0 0 .64-.944l.924.769a1.06 1.06 0 0 1-.679 1.874Zm9.113-9.145h-.176a1.09 1.09 0 0 1-.699-.254l-5.51-4.592-1.302 1.562 5.351 4.458a1.06 1.06 0 0 1-.68 1.874h-.222a1.06 1.06 0 0 1-.677-.246l-5.52-4.599-1.301 1.562 5.35 4.459c.242.2.382.497.382.813 0 .584-.476 1.06-1.06 1.06-.39 0-.77-.14-1.07-.388l-2.267-1.89a3.16 3.16 0 0 0-2.729-1.776 3.163 3.163 0 0 0-3.048-3.048 3.163 3.163 0 0 0-3.048-3.048 3.168 3.168 0 0 0-3.16-3.06c-.835 0-1.652.338-2.242.928l-1.786 1.787c-.107.106-.195.227-.285.348L12.765 45.9l2.736-9.577 6.86-1.526c1.8-.402 3.697-.315 5.452.247l1.497.479-5.075 2.537a3.387 3.387 0 0 0-1.88 3.045v.2a3.408 3.408 0 0 0 3.404 3.405c.617 0 1.224-.168 1.75-.486l3.785-2.269a2.097 2.097 0 0 1 2.436.235l8.586 7.726a1.093 1.093 0 0 1-.73 1.906Zm19.383-11.806-17.12 8.56a2.86 2.86 0 0 0-.174-.17l-8.584-7.726a4.093 4.093 0 0 0-4.843-.468l-3.785 2.27a1.373 1.373 0 0 1-2.075-1.177v-.201c0-.524.29-.993.758-1.227l5.668-2.834a4.417 4.417 0 0 1 3.167-.294l6.386 1.824 1.546.039 19.056-10.03v11.434Z" fill="#FD3B3B"/>
    </g>
    <defs>
        <clipPath id="aga">
            <path fill="#fff" d="M0 0h63v63H0z"/>
        </clipPath>
    </defs>
</svg><svg fill="none" viewBox="0 0 63 63" id="achievement-08" xmlns="http://www.w3.org/2000/svg">
    <g clip-path="url(#aha)" fill="#FD3B3B">
        <path d="M54.526 41.84a6.21 6.21 0 0 0 1.282-3.784v-2.18a6.25 6.25 0 0 0-6.243-6.242 6.25 6.25 0 0 0-6.243 6.243v2.18a6.21 6.21 0 0 0 1.28 3.781h-6.984a8.832 8.832 0 0 0 2.741-6.398v-5.667c0-4.885-3.974-8.859-8.859-8.859s-8.86 3.974-8.86 8.86v5.666a8.832 8.832 0 0 0 2.742 6.398h-6.984a6.21 6.21 0 0 0 1.28-3.782v-2.18a6.25 6.25 0 0 0-6.243-6.242 6.25 6.25 0 0 0-6.243 6.243v2.18a6.21 6.21 0 0 0 1.282 3.783C3.794 41.885 0 45.705 0 50.396v4.66c0 .679.551 1.23 1.23 1.23h9.844v5.486c0 .68.551 1.23 1.23 1.23h3.446a1.23 1.23 0 0 0 0-2.46h-2.215v-5.995c0-5.378 4.165-9.799 9.439-10.213L29.66 60.54h-2.837a1.23 1.23 0 0 0 0 2.461h23.871c.68 0 1.23-.55 1.23-1.23v-5.486h9.845c.679 0 1.23-.551 1.23-1.23v-4.66c0-4.691-3.794-8.51-8.474-8.556Zm-8.743-3.784v-2.18a3.786 3.786 0 0 1 3.782-3.782 3.786 3.786 0 0 1 3.782 3.783v2.18a3.786 3.786 0 0 1-3.782 3.781 3.786 3.786 0 0 1-3.782-3.782ZM31.5 23.375a6.406 6.406 0 0 1 6.398 6.398v.013h-.005a10.42 10.42 0 0 1-5.72-1.706 1.23 1.23 0 0 0-1.347 0 10.42 10.42 0 0 1-5.719 1.706h-.005v-.013a6.406 6.406 0 0 1 6.398-6.398ZM25.102 35.44v-3.193h.005c2.252 0 4.446-.584 6.393-1.695a12.869 12.869 0 0 0 6.393 1.695h.005v3.193a6.406 6.406 0 0 1-6.398 6.398 6.406 6.406 0 0 1-6.398-6.398Zm-15.449.437a3.786 3.786 0 0 1 3.782-3.783 3.786 3.786 0 0 1 3.782 3.783v2.18a3.786 3.786 0 0 1-3.782 3.781 3.786 3.786 0 0 1-3.782-3.782v-2.18Zm1.442 17.948H2.461v-3.43A6.104 6.104 0 0 1 8.557 44.3h7.719a12.704 12.704 0 0 0-5.18 9.526Zm14.545-9.526h4.63v2.953a1.23 1.23 0 0 0 2.46 0V44.3h4.649L31.5 58.546l-5.879-14.247h.019Zm23.825 16.242H33.339l6.687-16.207c5.274.414 9.439 4.835 9.439 10.212v5.995Zm11.074-6.716h-8.634a12.704 12.704 0 0 0-5.18-9.526h7.718a6.104 6.104 0 0 1 6.096 6.097v3.429ZM23.047 9.48l2.937 2.124-1.124 3.433a2.38 2.38 0 0 0 .877 2.707 2.38 2.38 0 0 0 2.846-.003l2.917-2.13 2.916 2.13a2.41 2.41 0 0 0 1.426.474c.494 0 .989-.157 1.42-.471a2.38 2.38 0 0 0 .877-2.708l-1.123-3.432 2.937-2.124a2.38 2.38 0 0 0 .883-2.703 2.38 2.38 0 0 0-2.3-1.673H34.91l-1.11-3.43A2.381 2.381 0 0 0 31.5 0a2.38 2.38 0 0 0-2.3 1.674l-1.108 3.43h-3.628a2.38 2.38 0 0 0-2.3 1.673 2.38 2.38 0 0 0 .884 2.703Zm5.94-1.915a1.23 1.23 0 0 0 1.17-.852L31.5 2.56l1.342 4.153a1.23 1.23 0 0 0 1.171.852h4.388l-3.555 2.571a1.23 1.23 0 0 0-.449 1.38l1.36 4.157-3.532-2.579a1.229 1.229 0 0 0-1.45 0l-3.534 2.579 1.36-4.157a1.23 1.23 0 0 0-.447-1.38l-3.555-2.57 4.387-.001Z"/>
        <path d="M21.287 60.54c-.323 0-.641.13-.87.36a1.24 1.24 0 0 0-.36.87c0 .323.131.64.36.87.229.228.546.36.87.36.324 0 .641-.132.87-.36.229-.23.36-.547.36-.87a1.24 1.24 0 0 0-.36-.87 1.239 1.239 0 0 0-.87-.36Z"/>
    </g>
    <defs>
        <clipPath id="aha">
            <path fill="#fff" d="M0 0h63v63H0z"/>
        </clipPath>
    </defs>
</svg><svg fill="none" viewBox="0 0 46 46" id="advantage-01" xmlns="http://www.w3.org/2000/svg">
    <path fill-rule="evenodd" clip-rule="evenodd" d="M23 14.138c4.4 0 8.382 1.783 11.264 4.667a15.881 15.881 0 0 1 4.667 11.264c0 4.4-1.783 8.381-4.667 11.264a15.881 15.881 0 0 1-11.263 4.665 15.884 15.884 0 0 1-11.265-4.665 15.88 15.88 0 0 1-4.665-11.264c0-4.398 1.783-8.381 4.665-11.264a15.88 15.88 0 0 1 11.265-4.667ZM7.827 5.418a.641.641 0 0 0-1.224-.005L5.445 8.997l-3.72-.007a.643.643 0 0 0-.424 1.162l3.051 2.208-1.17 3.58.001.002a.64.64 0 0 0 .986.717l3.045-2.222 3.004 2.192a.642.642 0 0 0 1.028-.689l-1.171-3.58 3.052-2.208-.001-.001a.641.641 0 0 0-.376-1.161l-3.768.007-1.156-3.58Zm.077 4.417L7.213 7.7l-.69 2.136a.641.641 0 0 1-.611.446l-2.247-.005 1.82 1.317c.22.159.322.447.234.72l-.699 2.135 1.805-1.316a.642.642 0 0 1 .766-.008l1.815 1.324-.69-2.112a.643.643 0 0 1 .225-.743l1.82-1.317-2.216.005a.643.643 0 0 1-.642-.446ZM39.4 5.418a.641.641 0 0 0-1.225-.005L37.02 8.997 33.3 8.99a.643.643 0 0 0-.425 1.162l3.052 2.208-1.171 3.58.002.002a.64.64 0 0 0 .986.717l3.044-2.222 3.005 2.192a.642.642 0 0 0 1.027-.689l-1.17-3.58 3.05-2.208v-.001a.641.641 0 0 0-.376-1.161l-3.768.007-1.155-3.58Zm.077 4.417-.69-2.136-.69 2.136a.641.641 0 0 1-.61.446l-2.248-.005 1.82 1.317c.22.159.322.447.234.72l-.698 2.135 1.805-1.316a.642.642 0 0 1 .765-.008l1.815 1.324-.69-2.112a.643.643 0 0 1 .226-.743l1.82-1.317-2.217.005a.641.641 0 0 1-.642-.446ZM23.614.451l1.155 3.58 3.768-.008a.641.641 0 0 1 .376 1.16v.002l-3.05 2.208 1.17 3.58a.642.642 0 0 1-1.027.689L23 9.47l-3.044 2.221a.64.64 0 0 1-.987-.717h-.002l1.172-3.581-3.052-2.208a.643.643 0 0 1 .424-1.162l3.72.007L22.39.446a.642.642 0 0 1 1.224.005Zm.077 4.417L23 2.732l-.69 2.136a.641.641 0 0 1-.611.446l-2.246-.005 1.82 1.317c.22.159.322.447.234.719l-.699 2.136 1.805-1.316a.641.641 0 0 1 .766-.008l1.815 1.324-.69-2.112a.642.642 0 0 1 .226-.743l1.82-1.317-2.217.005a.643.643 0 0 1-.643-.446ZM19.475 27.44l.013 8.34h8.377c.28 0 .535-.093.732-.255.198-.161.341-.391.398-.664l1.244-6.062a1.14 1.14 0 0 0-.004-.508 1.153 1.153 0 0 0-.233-.454 1.136 1.136 0 0 0-.395-.316 1.147 1.147 0 0 0-.498-.105h-4.4a.644.644 0 0 1-.588-.905l.14-.397c.697-1.986 1.067-3.039.097-3.94a.757.757 0 0 0-.315-.182.766.766 0 0 0-.366-.003.767.767 0 0 0-.331.153.749.749 0 0 0-.21.297l-1.73 4.138c-.347.831-1.183.89-1.93.863Zm-1.27 8.896-.014-9.505c-.126-.677-1.267-.833-1.267.36v8.877c0 1.078.994 1.25 1.282.268Zm9.66.732c.581 0 1.119-.201 1.543-.546.422-.345.727-.832.845-1.403l1.245-6.062c.075-.368.07-.729-.015-1.073a2.431 2.431 0 0 0-.484-.957 2.425 2.425 0 0 0-.842-.668 2.418 2.418 0 0 0-1.047-.231h-3.494c.782-2.243 1.114-3.505-.382-4.895a2.028 2.028 0 0 0-1.828-.503 2.035 2.035 0 0 0-1.458 1.215l-1.73 4.139c-.041.102-.504.084-.902.064-.806-1.807-3.68-1.42-3.68 1.044v8.877c0 2.382 2.735 3.005 3.663 1h8.566ZM23 16.827a13.198 13.198 0 0 0-9.363 3.878 13.2 13.2 0 0 0-3.879 9.363c0 3.656 1.482 6.967 3.879 9.363a13.2 13.2 0 0 0 9.363 3.879c3.656 0 6.967-1.483 9.363-3.88a13.2 13.2 0 0 0 3.878-9.362c0-3.656-1.482-6.967-3.878-9.363A13.198 13.198 0 0 0 23 16.827Zm8.452 4.789A11.916 11.916 0 0 0 23 18.114c-3.301 0-6.29 1.338-8.453 3.502a11.916 11.916 0 0 0-3.502 8.452c0 3.301 1.338 6.29 3.502 8.453A11.918 11.918 0 0 0 23 42.023c3.3 0 6.289-1.338 8.452-3.502a11.918 11.918 0 0 0 3.501-8.453c0-3.3-1.337-6.29-3.501-8.452Zm1.902-1.902A14.596 14.596 0 0 0 23 15.426a14.596 14.596 0 0 0-10.354 4.288A14.596 14.596 0 0 0 8.36 30.068c0 4.043 1.639 7.704 4.288 10.354a14.596 14.596 0 0 0 10.354 4.288c4.043 0 7.704-1.639 10.354-4.288a14.596 14.596 0 0 0 4.288-10.354c0-4.043-1.639-7.704-4.288-10.354Z" fill="#222"/>
</svg><svg data-name="Layer 1" viewBox="0 0 122.88 118.19" id="advantage-02" xmlns="http://www.w3.org/2000/svg">
    <path d="M103.91 75.47 79.13 88.28 77.39 85l17.71-9.14.23-.11A3.49 3.49 0 0 0 96.78 71l-.84-1.58H96l-4.07-7.52-15.81-29.79 3.73-1.94 24.06 45.3Zm7.18 8.66h10.74a1 1 0 0 1 1 1.05v26.06a1.07 1.07 0 0 1-1 1.06h-10.74a1.07 1.07 0 0 1-1.06-1.06V85.18a1.06 1.06 0 0 1 1.06-1.05Zm-4.5 25.87V86.47H96c-4.49.81-9 3.24-13.47 6.07h-8.22c-3.73.22-5.68 4-2.06 6.48 2.89 2.11 6.69 2 10.59 1.64 2.69-.13 2.81 3.48 0 3.49-1 .08-2-.15-3-.15-4.87 0-8.87-.94-11.32-4.78l-1.24-2.88-12.19-6.06c-6.12-2-10.47 4.39-6 8.84a160.53 160.53 0 0 0 27.24 16c6.75 4.11 13.51 4 20.25 0l10-5.15ZM14.49 9.5a1.9 1.9 0 0 1 .31-1.18c.65-.87 2.2-.62 3.2-.62a14.49 14.49 0 0 0 3.08-.24A35.78 35.78 0 0 0 25.48 6c3.73-1.34 7.08-2.33 10.64-3.62 8-2.87 5.6-3.49 13.81 0a89.24 89.24 0 0 1 10.31 5.17 6.45 6.45 0 0 1 1.31.94 6.19 6.19 0 0 1 1 1.32c3.14 4.57 5.83 9.2 8.41 13.83.87 1.63 1.23 3.17.64 4.14-2.43 4-6.8-1.69-11.5-5.46-2-1.59-4.67-3-7-4.61-3-1.24-4.36-2.42-7.55-3.09-4.89-.42-5.29 6.6 1.14 6.86 4.31.17 13.31 4.13 15.87 7.77 2.36 3.4 1.06 6.74-3.74 6.62l-4-.75c-6.39-1.2-6.21-1.44-12.86-.2-3.57.66-7.31 1.35-11 .66-2.24-.41-3.42-1.31-5.42-2.84a17.81 17.81 0 0 0-3.18-2.22 12 12 0 0 0-2.92-1.24c-1.53-.37-3.69.15-4.58-1.17a2.4 2.4 0 0 1-.37-1.31V9.5ZM1 5.16h10a1 1 0 0 1 1 1v24.28a1 1 0 0 1-1 1H1a1 1 0 0 1-1-1V6.15a1 1 0 0 1 1-1Zm68 45.59a6.79 6.79 0 1 1-6.78 6.78A6.79 6.79 0 0 1 69 50.75Zm3.12-19L94 73 67.6 86.66 43.89 42.07l8.33-4.31.29.06 5.75 1.07a2.63 2.63 0 0 0 .49 0 10.47 10.47 0 0 0 3.12-.35l-7.56 3.96a4.4 4.4 0 0 1-1.88 5.93L67.34 76a4.4 4.4 0 0 1 5.93 1.88l10.44-5.41a4.39 4.39 0 0 1 1.88-5.92L70.69 39a4.4 4.4 0 0 1-5.93-1.89l-.14.08a6 6 0 0 0 1.45-1.79 6.37 6.37 0 0 0 .71-2.79 7 7 0 0 0 0-1c2 1 3.75 1.18 5.35.15Z" style="fill-rule:evenodd"/>
</svg><svg fill="none" viewBox="0 0 46 46" id="advantage-03" xmlns="http://www.w3.org/2000/svg">
    <path d="M17.679 6.623a.896.896 0 0 0 1.27 0c.351-.351.351-.92 0-1.27l-2.034-2.035a.899.899 0 0 0-1.27 1.27l2.034 2.035ZM26.788 6.886c.23 0 .46-.088.635-.263l2.035-2.035a.899.899 0 0 0-1.27-1.27l-2.035 2.034a.898.898 0 0 0 .635 1.534ZM22.55 4.674a.898.898 0 0 0 .9-.899V.899a.898.898 0 1 0-1.798 0v2.877c0 .497.403.899.899.899ZM38.505 24.742a3.211 3.211 0 0 0-1.308-.797c.358-.528.55-1.15.55-1.802 0-.861-.336-1.672-.945-2.28a3.204 3.204 0 0 0-1.582-.87c.124-.346.189-.715.188-1.094 0-.861-.335-1.672-.944-2.28a3.215 3.215 0 0 0-1.245-.776l3.713-3.713a3.2 3.2 0 0 0 .945-2.281 3.2 3.2 0 0 0-.974-2.31c-1.257-1.225-3.31-1.193-4.575.072l-9.81 9.81-.224-1.377a6.701 6.701 0 0 0-2.595-4.3 2.097 2.097 0 0 0-2.762.197c-.35.35-.565.818-.605 1.32l-.694 8.666a7.04 7.04 0 0 1-2.038 4.411l-.696.696-.188-.188a.899.899 0 0 0-1.27 0l-4.632 4.632a.899.899 0 0 0 0 1.27l4.135 4.135a.899.899 0 0 0 1.27-1.27l-3.499-3.5 3.361-3.36 12.716 12.715-3.36 3.361-3.5-3.499a.899.899 0 0 0-1.27 1.27l4.134 4.135a.896.896 0 0 0 1.27 0l4.632-4.631c.351-.351.351-.92 0-1.27l-.182-.183c.273-.248.57-.47.885-.66l1.881-1.127a15.523 15.523 0 0 0 2.993-2.336l6.225-6.225a3.2 3.2 0 0 0 .944-2.28c0-.862-.335-1.672-.944-2.281Zm-1.27 3.29-6.226 6.226a13.72 13.72 0 0 1-2.646 2.065l-1.88 1.128a7.428 7.428 0 0 0-1.234.928L14.175 27.305l.696-.696a8.84 8.84 0 0 0 2.558-5.539l.694-8.665a.298.298 0 0 1 .084-.193c.068-.068.24-.16.412-.031a4.912 4.912 0 0 1 1.901 3.15l.504 3.11a.898.898 0 0 0 1.523.493L33.598 7.882c.574-.574 1.494-.599 2.051-.056.278.271.43.634.43 1.024.001.38-.147.74-.417 1.01-1.892 1.89-6.767 6.766-8.593 8.592a.898.898 0 1 0 1.27 1.27l2.834-2.833a1.43 1.43 0 0 1 2.438 1.012c0 .38-.148.738-.418 1.009l-2.833 2.833a.899.899 0 0 0 1.27 1.27l1.88-1.88a1.42 1.42 0 0 1 1.011-.419c.382 0 .74.149 1.01.419s.418.628.418 1.012c0 .38-.148.738-.418 1.008l-1.88 1.88a.899.899 0 0 0 1.27 1.271l.293-.292a1.42 1.42 0 0 1 1.01-.419c.381 0 .74.15 1.01.42.27.269.418.628.418 1.01 0 .381-.148.74-.418 1.01Z" fill="#222"/>
    <path d="M14.443 39.008a.898.898 0 1 0 0-1.797.898.898 0 0 0 0 1.797Z" fill="#222"/>
</svg><svg fill="none" viewBox="0 0 46 46" id="advantage-04" xmlns="http://www.w3.org/2000/svg">
    <g clip-path="url(#ala)" fill="#222">
        <path d="M45.543 19.151a3.658 3.658 0 0 0-3.385-3.251 164.54 164.54 0 0 0-12.722-.397 74.02 74.02 0 0 0-.357-11.505A3.543 3.543 0 0 0 25.8.847a158.265 158.265 0 0 0-22.083 0 3.546 3.546 0 0 0-3.28 3.15 74.139 74.139 0 0 0 0 16.1 3.55 3.55 0 0 0 3.28 3.156l.345.025c.49.033.874.443.874.934v3.204c0 .757.421 1.436 1.1 1.772a1.967 1.967 0 0 0 2.073-.199c.67-.51 1.306-1.028 1.893-1.543a.674.674 0 0 0-.888-1.013c-.564.494-1.177.993-1.822 1.484a.616.616 0 0 1-.658.063.618.618 0 0 1-.35-.564v-3.204a2.29 2.29 0 0 0-2.13-2.279l-.343-.024a2.202 2.202 0 0 1-2.034-1.958 72.782 72.782 0 0 1 0-15.806A2.199 2.199 0 0 1 3.814 2.19a156.951 156.951 0 0 1 21.894 0 2.197 2.197 0 0 1 2.032 1.953 72.678 72.678 0 0 1 0 15.813 2.19 2.19 0 0 1-2.034 1.952c-3.88.273-7.832.401-11.744.382h-.016c-.75 0-1.45.363-1.873.974-.298.429-.662.88-1.082 1.344a.674.674 0 1 0 .998.905 14.92 14.92 0 0 0 1.19-1.48.93.93 0 0 1 .768-.395h.007c.5.002 1 .002 1.5 0-.206 4.07-.086 8.19.36 12.258.04.363.132.713.273 1.04a3.644 3.644 0 0 0 3.112 2.21c4.074.287 8.22.42 12.319.4h.006c.33 0 .637.159.821.425 1.386 1.994 3.628 3.899 5.265 5.145a2.02 2.02 0 0 0 2.128.204 2.017 2.017 0 0 0 1.129-1.818V40.17c0-.525.41-.963.934-.999h.015l.343-.025a3.662 3.662 0 0 0 3.386-3.259l.058-.546a.674.674 0 1 0-1.34-.14l-.058.54a2.316 2.316 0 0 1-2.144 2.06c-.112.01-.224.017-.337.025h-.014a2.355 2.355 0 0 0-2.191 2.344v3.332a.669.669 0 0 1-.379.61.667.667 0 0 1-.713-.068c-1.56-1.188-3.689-2.992-4.975-4.842a2.343 2.343 0 0 0-1.927-1.003h-.015c-4.066.02-8.176-.113-12.217-.398a2.304 2.304 0 0 1-2.14-2.053 75.802 75.802 0 0 1-.349-12.123c3.008-.039 6.023-.164 8.996-.373a3.532 3.532 0 0 0 3.014-2.14c.138-.32.228-.66.266-1.01.118-1.08.212-2.165.282-3.252a163.141 163.141 0 0 1 12.702.393 2.312 2.312 0 0 1 2.14 2.053 75.54 75.54 0 0 1 .281 13.247.674.674 0 1 0 1.345.09c.3-4.47.204-9.006-.286-13.483Z"/>
        <path d="M39.318 28.852a1.956 1.956 0 0 0-.78-1.605c.196-.308.309-.672.309-1.063 0-.532-.207-1.031-.582-1.406a1.973 1.973 0 0 0-1.406-.582h-2.656l.999-2.129a2.418 2.418 0 0 0-2.185-3.442c-.932 0-1.791.545-2.188 1.39l-.616 1.312a3.556 3.556 0 0 1-1.416 1.569 3.448 3.448 0 0 0-1.366 1.485 1.691 1.691 0 0 0-.701-.153H24.7c-.938 0-1.702.764-1.702 1.703v8.195c0 .94.764 1.703 1.703 1.703h2.029c.32 0 .62-.09.876-.245.48.307 1.038.473 1.62.473h7.161a1.99 1.99 0 0 0 1.686-3.043 1.986 1.986 0 0 0 .47-2.631c.46-.357.763-.91.775-1.53ZM24.7 34.482a.355.355 0 0 1-.355-.356v-8.195c0-.196.159-.355.355-.355h2.029c.196 0 .355.16.355.355v8.195c0 .196-.16.355-.355.355H24.7Zm12.63-5.03h-.472a.674.674 0 1 0 0 1.348c.171 0 .332.067.453.188a.641.641 0 0 1-.453 1.093h-.472a.674.674 0 1 0 0 1.347.636.636 0 0 1 .593.397c0 .003.002.005.003.007a.64.64 0 0 1-.596.876h-7.16c-.297 0-.582-.078-.833-.224.025-.115.039-.235.039-.358V25.92a2.113 2.113 0 0 1 1.046-1.86 4.898 4.898 0 0 0 1.954-2.16l.616-1.312a1.074 1.074 0 0 1 1.42-.513c.533.25.763.887.513 1.42l-1.441 3.07a.674.674 0 0 0 .032.634l.023.036c.124.193.337.31.567.31h3.696c.171 0 .332.066.453.187a.641.641 0 0 1-.453 1.093.674.674 0 1 0 0 1.348h.442c.181 0 .358.075.487.206a.619.619 0 0 1 .182.447.643.643 0 0 1-.64.628ZM20.984 9.148c0-1.374-.673-2.492-1.5-2.492s-1.5 1.118-1.5 2.492c0 1.374.673 2.492 1.5 2.492s1.5-1.118 1.5-2.492ZM11.534 9.148c0-1.374-.673-2.492-1.5-2.492s-1.5 1.118-1.5 2.492c0 1.374.673 2.492 1.5 2.492s1.5-1.118 1.5-2.492ZM14.76 18.025a5.984 5.984 0 0 0 5.524-3.667.674.674 0 0 0-1.242-.524 4.639 4.639 0 0 1-4.283 2.843 4.639 4.639 0 0 1-4.282-2.843.674.674 0 0 0-1.242.524 5.984 5.984 0 0 0 5.524 3.667Z"/>
    </g>
    <defs>
        <clipPath id="ala">
            <path fill="#fff" d="M0 0h46v46H0z"/>
        </clipPath>
    </defs>
</svg><svg fill="none" viewBox="0 0 153 39" id="brand-logo-01" xmlns="http://www.w3.org/2000/svg">
    <g clip-path="url(#ama)" fill="#222">
        <path d="M44.554 27.444h10.95v-3.337h-7.058V11.539h-3.892v15.905ZM61.992 25.218c-1.562 0-2.375-1.379-2.375-3.448 0-2.068.813-3.47 2.375-3.47 1.56 0 2.396 1.402 2.396 3.47 0 2.069-.835 3.448-2.397 3.448Zm.022 2.58c3.627 0 6.002-2.602 6.002-6.028 0-3.425-2.375-6.028-6.003-6.028-3.606 0-6.024 2.603-6.024 6.028 0 3.426 2.418 6.028 6.025 6.028ZM74.296 31.378c1.671 0 3.144-.378 4.134-1.267.901-.823 1.495-2.07 1.495-3.782V16.052h-3.43v1.224h-.044c-.66-.957-1.671-1.557-3.166-1.557-2.793 0-4.728 2.358-4.728 5.694 0 3.492 2.353 5.405 4.882 5.405 1.363 0 2.22-.556 2.88-1.312h.088v1.134c0 1.38-.638 2.18-2.155 2.18-1.187 0-1.781-.511-1.979-1.112H68.8c.352 2.38 2.397 3.67 5.497 3.67Zm-.022-7.251c-1.341 0-2.22-1.112-2.22-2.825 0-1.735.879-2.847 2.22-2.847 1.495 0 2.287 1.29 2.287 2.825 0 1.601-.726 2.847-2.287 2.847ZM86.978 25.218c-1.561 0-2.375-1.379-2.375-3.448 0-2.068.814-3.47 2.375-3.47s2.397 1.402 2.397 3.47c0 2.069-.836 3.448-2.397 3.448Zm.022 2.58c3.628 0 6.003-2.602 6.003-6.028 0-3.425-2.375-6.028-6.003-6.028-3.606 0-6.025 2.603-6.025 6.028 0 3.426 2.419 6.028 6.025 6.028ZM94.05 27.444h3.583v-11.39H94.05v11.39Zm0-12.969h3.583V11.54H94.05v2.936ZM99.188 31.2h3.584v-4.938h.044c.704.957 1.737 1.535 3.188 1.535 2.947 0 4.904-2.358 4.904-6.05 0-3.426-1.825-6.028-4.816-6.028-1.539 0-2.638.69-3.408 1.713h-.066v-1.38h-3.43v15.149Zm5.893-6.206c-1.539 0-2.419-1.267-2.419-3.114 0-1.846.792-3.247 2.353-3.247 1.539 0 2.265 1.29 2.265 3.247 0 1.936-.836 3.114-2.199 3.114ZM116.744 27.797c2.946 0 5.123-1.29 5.123-3.781 0-2.914-2.331-3.426-4.31-3.76-1.429-.266-2.704-.378-2.704-1.178 0-.712.681-1.046 1.561-1.046.989 0 1.671.311 1.803 1.335h3.298c-.176-2.247-1.891-3.648-5.079-3.648-2.661 0-4.86 1.245-4.86 3.648 0 2.669 2.089 3.203 4.046 3.537 1.495.267 2.859.378 2.859 1.4 0 .735-.682 1.135-1.759 1.135-1.188 0-1.935-.556-2.067-1.69h-3.386c.109 2.513 2.176 4.048 5.475 4.048ZM126.734 27.777c1.561 0 2.551-.623 3.364-1.735h.066v1.402h3.43v-11.39h-3.584v6.362c0 1.357-.747 2.292-1.979 2.292-1.143 0-1.693-.69-1.693-1.936v-6.717h-3.562v7.474c0 2.535 1.364 4.248 3.958 4.248ZM135.154 27.441h3.584v-6.384c0-1.357.659-2.313 1.781-2.313 1.077 0 1.583.712 1.583 1.935v6.762h3.584v-6.384c0-1.357.638-2.313 1.781-2.313 1.078 0 1.583.712 1.583 1.935v6.762h3.584v-7.407c0-2.558-1.275-4.315-3.826-4.315-1.451 0-2.66.623-3.54 2.002h-.044c-.571-1.224-1.693-2.002-3.166-2.002-1.627 0-2.704.778-3.408 1.957h-.066v-1.624h-3.43v11.39Z"/>
        <path fill-rule="evenodd" clip-rule="evenodd" d="M7.929 4.366a18.508 18.508 0 0 0-3.525 3.257c4.204-.395 9.546.25 15.748 3.387 6.622 3.35 11.955 3.463 15.666 2.739a18.551 18.551 0 0 0-1.262-2.965c-4.249.453-9.696-.147-16.043-3.358-4.03-2.038-7.584-2.878-10.584-3.06ZM32.074 7.21c-3.355-3.792-8.231-6.179-13.658-6.179-1.594 0-3.14.206-4.614.593 1.997.551 4.117 1.357 6.35 2.486 4.647 2.351 8.66 3.108 11.922 3.1Zm4.538 10.16c-4.484.895-10.675.711-18.1-3.044-6.94-3.51-12.464-3.466-16.19-2.629-.192.043-.38.089-.563.136a18.54 18.54 0 0 0-1.156 3.374c.298-.081.607-.158.925-.23 4.52-1.015 10.906-.971 18.624 2.933 6.94 3.51 12.464 3.466 16.19 2.629.128-.029.253-.059.377-.09a18.972 18.972 0 0 0-.107-3.08Zm-.491 6.992c-4.44.785-10.452.484-17.608-3.136-6.94-3.51-12.465-3.467-16.19-2.63-.827.187-1.571.413-2.228.652l-.002.32c0 10.237 8.203 18.536 18.323 18.536 8.481 0 15.616-5.828 17.705-13.742Z"/>
    </g>
    <defs>
        <clipPath id="ama">
            <path fill="#fff" transform="translate(0 .758)" d="M0 0h153v38H0z"/>
        </clipPath>
    </defs>
</svg><svg fill="none" viewBox="0 0 130 41" id="brand-logo-02" xmlns="http://www.w3.org/2000/svg">
    <path d="M19.96 2.813A17.884 17.884 0 0 0 7.295 8.07 17.953 17.953 0 0 0 2.047 20.76a17.98 17.98 0 0 0 5.247 12.692 17.885 17.885 0 0 0 12.667 5.257v-8.974a8.939 8.939 0 0 1-6.334-2.629 8.976 8.976 0 0 1-2.623-6.346 8.988 8.988 0 0 1 2.623-6.346 8.954 8.954 0 0 1 6.334-2.628V2.812Z" fill="#222"/>
    <path d="M19.96 26.74c3.299 0 5.972-2.68 5.972-5.984s-2.673-5.983-5.971-5.983-5.971 2.679-5.971 5.983c0 3.305 2.673 5.983 5.97 5.983Z" fill="#222"/>
    <path d="M2.047 20.758A17.98 17.98 0 0 0 7.294 33.45a17.885 17.885 0 0 0 25.333 0 17.954 17.954 0 0 0 5.247-12.692h-8.957a8.988 8.988 0 0 1-2.623 6.346 8.956 8.956 0 0 1-6.333 2.628 8.939 8.939 0 0 1-6.334-2.628 8.976 8.976 0 0 1-2.623-6.346H2.047ZM25.932 20.756a5.99 5.99 0 0 0-1.749-4.23 5.966 5.966 0 0 0-8.444 0 5.99 5.99 0 0 0-1.75 4.23H25.933ZM47.23 14.016h-2.225V26.4h2.225V14.016ZM48.682 22.01c0 2.866 1.978 4.636 4.591 4.636 2.613 0 4.591-1.77 4.591-4.636s-1.978-4.635-4.59-4.635c-2.614 0-4.592 1.77-4.592 4.635Zm2.225 0c0-1.698.989-2.689 2.366-2.689 1.377 0 2.366.99 2.366 2.69 0 1.698-.989 2.689-2.366 2.689-1.377 0-2.366-.991-2.366-2.69ZM65.815 17.623v1.185h-.177c-.53-.76-1.377-1.433-2.896-1.433-2.083 0-3.955 1.77-3.955 4.494 0 2.724 1.872 4.494 3.955 4.494 1.519 0 2.367-.69 2.86-1.38h.177v.849c0 1.698-.988 2.477-2.436 2.477s-2.19-.779-2.49-1.787l-1.995.867c.459 1.327 1.8 2.795 4.52 2.795 2.79 0 4.626-1.468 4.626-4.3v-8.261h-2.19Zm-2.402 6.829c-1.377 0-2.401-.99-2.401-2.583 0-1.593 1.024-2.583 2.401-2.583 1.378 0 2.402.99 2.402 2.583 0 1.592-1.024 2.583-2.402 2.583ZM69.444 22.01c0 2.866 1.977 4.636 4.59 4.636 2.614 0 4.592-1.77 4.592-4.636s-1.978-4.635-4.591-4.635c-2.614 0-4.591 1.77-4.591 4.635Zm2.225 0c0-1.698.989-2.689 2.366-2.689 1.377 0 2.366.99 2.366 2.69 0 1.698-.989 2.689-2.366 2.689-1.377 0-2.366-.991-2.366-2.69ZM80.372 15.076c0 .903.689 1.522 1.572 1.522.882 0 1.571-.62 1.571-1.522s-.689-1.521-1.571-1.521c-.883 0-1.572.619-1.572 1.521Zm2.683 2.548h-2.224v8.775h2.224v-8.775ZM85.039 29.936h2.225v-4.67h.176c.494.708 1.342 1.38 2.861 1.38 2.083 0 3.955-1.77 3.955-4.636s-1.872-4.635-3.955-4.635c-1.519 0-2.367.672-2.896 1.433h-.177v-1.185h-2.19v12.313Zm4.59-5.201c-1.376 0-2.4-.99-2.4-2.725 0-1.734 1.024-2.724 2.4-2.724 1.378 0 2.402.99 2.402 2.724 0 1.734-1.024 2.725-2.402 2.725ZM95.554 20.082c0 1.734 1.448 2.37 3.284 2.725l.46.088c1.094.212 1.588.478 1.588 1.044 0 .566-.494 1.008-1.518 1.008s-1.854-.424-2.084-1.698l-2.048.53c.3 1.84 1.836 2.867 4.132 2.867 2.225 0 3.673-1.044 3.673-2.884 0-1.84-1.483-2.335-3.46-2.725l-.46-.088c-.919-.177-1.413-.425-1.413-1.009 0-.53.46-.867 1.307-.867.848 0 1.447.354 1.659 1.31l2.014-.62c-.424-1.415-1.713-2.388-3.673-2.388-2.084 0-3.46.973-3.46 2.707ZM113.035 26.4v-8.775h-2.225v4.53c0 1.627-.794 2.582-2.154 2.582-1.201 0-1.872-.654-1.872-1.981v-5.131h-2.225v5.237c0 2.176 1.36 3.68 3.409 3.68 1.606 0 2.348-.708 2.701-1.45h.176V26.4h2.19ZM115.008 17.626V26.4h2.225v-5.237c0-1.203.565-1.875 1.589-1.875.883 0 1.412.495 1.412 1.45v5.662h2.226v-5.237c0-1.203.565-1.875 1.588-1.875.884 0 1.413.495 1.413 1.45v5.662h2.225v-5.767c0-2.123-1.307-3.15-2.931-3.15-1.43 0-2.083.637-2.507 1.38h-.177c-.407-.831-1.13-1.38-2.402-1.38-1.271 0-1.96.566-2.295 1.239h-.177v-1.097h-2.189Z" fill="#222"/>
</svg><svg fill="none" viewBox="0 0 124 33" id="brand-logo-03" xmlns="http://www.w3.org/2000/svg">
    <path d="M36.87 10.828h3v12.13h-3v-12.13Zm4.19 7.55c0-3 1.84-4.79 4.68-4.79s4.68 1.79 4.68 4.79-1.8 4.8-4.68 4.8-4.68-1.75-4.68-4.8Zm6.35 0c0-1.65-.65-2.62-1.67-2.62s-1.66 1-1.66 2.62.63 2.6 1.66 2.6c1.03 0 1.67-.92 1.67-2.59v-.01Zm4.14 5.17h2.88a1.55 1.55 0 0 0 1.62.9c1.14 0 1.74-.62 1.74-1.52v-1.68h-.06a2.84 2.84 0 0 1-2.73 1.64c-2.19 0-3.64-1.67-3.64-4.54s1.38-4.68 3.68-4.68a2.87 2.87 0 0 1 2.76 1.76v-1.67h3v9.1c0 2.19-1.93 3.55-4.78 3.55-2.65 0-4.3-1.19-4.47-2.85v-.01Zm6.25-5.18c0-1.46-.67-2.38-1.73-2.38s-1.71.91-1.71 2.38c0 1.47.64 2.3 1.71 2.3 1.07 0 1.73-.81 1.73-2.29v-.01Zm4.13 0c0-3 1.84-4.79 4.68-4.79s4.69 1.79 4.69 4.79-1.8 4.8-4.69 4.8c-2.89 0-4.68-1.74-4.68-4.79v-.01Zm6.35 0c0-1.65-.65-2.62-1.67-2.62S65 16.758 65 18.387c0 1.63.63 2.6 1.65 2.6s1.63-.93 1.63-2.6v-.02Zm4.16-6.79a1.53 1.53 0 1 1 1.56 1.49 1.46 1.46 0 0 1-1.56-1.47v-.02Zm0 2.2h3v9.18h-3v-9.18Zm13.89 4.59c0 3-1.33 4.71-3.61 4.71a2.86 2.86 0 0 1-2.8-1.7h-.06v4.52h-3v-12.14h3v1.64h.06a2.87 2.87 0 0 1 2.78-1.77c2.3.04 3.67 1.76 3.67 4.76l-.04-.02Zm-3 0c0-1.46-.67-2.39-1.72-2.39-1.05 0-1.72.94-1.73 2.39-.01 1.45.68 2.38 1.73 2.38 1.05 0 1.72-.91 1.72-2.36v-.02Zm8.15-4.8c2.49 0 4 1.18 4.07 3.07h-2.73c0-.65-.54-1.06-1.37-1.06-.83 0-1.2.32-1.2.79 0 .47.33.62 1 .76l1.92.39c1.83.39 2.61 1.13 2.61 2.52 0 1.9-1.73 3.12-4.28 3.12-2.55 0-4.22-1.22-4.35-3.09h2.89c.09.68.63 1.08 1.51 1.08s1.28-.29 1.28-.77c0-.48-.28-.58-1-.73l-1.73-.37c-1.79-.37-2.73-1.32-2.73-2.72.02-1.8 1.63-2.97 4.11-2.97v-.02Zm14.31 9.37h-2.89v-1.71h-.06a2.61 2.61 0 0 1-2.66 1.91 3.19 3.19 0 0 1-3.36-3.45v-5.93h3v5.24c0 1.09.56 1.67 1.49 1.67a1.534 1.534 0 0 0 1.153-.52 1.538 1.538 0 0 0 .367-1.21v-5.18h3l-.04 9.18Zm1.45-9.18h2.9v1.77h.06a2.66 2.66 0 0 1 2.61-1.94 2.39 2.39 0 0 1 2.55 2h.06a2.816 2.816 0 0 1 2.82-2 2.907 2.907 0 0 1 2.835 1.92c.138.384.195.792.165 1.2v6.25h-3v-5.45c0-1-.45-1.46-1.29-1.46a1.31 1.31 0 0 0-1.31 1.48v5.43h-2.85v-5.49c0-.92-.45-1.42-1.27-1.42a1.338 1.338 0 0 0-1.33 1.5v5.41h-3l.05-9.2ZM28.48 11.379a13.247 13.247 0 0 0-2-3.22A13.53 13.53 0 1 0 7.8 27.479a13.09 13.09 0 0 0 3.2 1.83 13.39 13.39 0 0 0 5.07 1 13.56 13.56 0 0 0 13.53-13.55 13.39 13.39 0 0 0-1.12-5.38Zm-12.42-5.43c1.562 0 3.104.34 4.52 1a4.39 4.39 0 0 1-1.08.31 5.73 5.73 0 0 0-4.85 4.85 3 3 0 0 1-2.71 2.65 5.73 5.73 0 0 0-4.85 4.85 2.91 2.91 0 0 1-.79 1.74 10.8 10.8 0 0 1 9.77-15.42l-.01.02Zm-8.27 17.81c.12-.11.24-.21.36-.33a5.48 5.48 0 0 0 1.62-3.23 2.92 2.92 0 0 1 .87-1.82 2.83 2.83 0 0 1 1.81-.86 5.73 5.73 0 0 0 4.85-4.85 2.92 2.92 0 0 1 .87-1.91 2.87 2.87 0 0 1 1.83-.83 5.48 5.48 0 0 0 3-1.43 10.51 10.51 0 0 1 2.36 2.78.862.862 0 0 1-.13.14 2.87 2.87 0 0 1-1.81.88 5.71 5.71 0 0 0-4.85 4.85 3 3 0 0 1-2.69 2.68 5.76 5.76 0 0 0-4.88 4.85 3.14 3.14 0 0 1-.49 1.37 10.89 10.89 0 0 1-2.72-2.29Zm8.27 3.86a10.841 10.841 0 0 1-3-.42c.334-.622.55-1.3.64-2a3 3 0 0 1 2.68-2.68 5.73 5.73 0 0 0 4.86-4.85 3 3 0 0 1 2.68-2.68 5.71 5.71 0 0 0 2.56-1 10.82 10.82 0 0 1-10.42 13.58v.05Z" fill="#222"/>
</svg><svg fill="none" viewBox="0 0 134 36" id="brand-logo-04" xmlns="http://www.w3.org/2000/svg">
    <path d="M39.093 11.515h3.259v13h-3.259v-13Zm4.558 8.11c0-3.22 2.03-5.15 5.076-5.15s5.076 1.93 5.076 5.15c0 3.22-1.96 5.17-5.076 5.17-3.116 0-5.076-1.88-5.076-5.17Zm6.924 0c0-1.77-.7-2.81-1.818-2.81-1.116 0-1.806 1-1.806 2.81s.69 2.8 1.806 2.8c1.117 0 1.838-.99 1.838-2.79l-.02-.01Zm4.527 5.56h3.147c.143.334.394.612.713.793.319.18.689.253 1.053.207 1.25 0 1.899-.66 1.899-1.64v-1.8h.01a3.088 3.088 0 0 1-1.247 1.34 3.155 3.155 0 0 1-1.798.41c-2.386 0-3.97-1.79-3.97-4.87s1.513-5 4.06-5a3.153 3.153 0 0 1 1.829.468c.545.339.97.835 1.217 1.422h-.091v-1.81h3.228v9.74c0 2.35-2.111 3.82-5.218 3.82-2.822-.01-4.629-1.28-4.811-3.07l-.02-.01Zm6.822-5.56c0-1.57-.73-2.56-1.888-2.56-1.157 0-1.868 1-1.868 2.56s.7 2.48 1.868 2.48c1.167 0 1.888-.85 1.888-2.48Zm4.517 0c0-3.22 2.03-5.15 5.076-5.15s5.076 1.93 5.076 5.15c0 3.22-1.97 5.17-5.076 5.17s-5.055-1.88-5.055-5.17h-.02Zm6.924 0c0-1.77-.71-2.81-1.817-2.81s-1.807 1-1.807 2.81.69 2.8 1.807 2.8c1.116 0 1.837-.99 1.837-2.79l-.02-.01Zm4.548-7.29a1.62 1.62 0 0 1 .245-.93c.174-.278.429-.5.732-.634a1.687 1.687 0 0 1 1.837.31 1.617 1.617 0 0 1 .394 1.795 1.645 1.645 0 0 1-.612.747c-.275.184-.6.282-.931.282a1.627 1.627 0 0 1-1.154-.441 1.578 1.578 0 0 1-.491-1.119l-.02-.01Zm0 2.36h3.299v9.86h-3.249l-.05-9.86Zm15.166 4.93c0 3.21-1.462 5.07-3.949 5.07a3.154 3.154 0 0 1-1.815-.443 3.086 3.086 0 0 1-1.23-1.387h-.061v4.86h-3.259v-13h3.238v1.76h.061a3.103 3.103 0 0 1 1.218-1.424 3.173 3.173 0 0 1 1.828-.476c2.558-.02 4.03 1.83 4.03 5.05l-.061-.01Zm-3.32 0c0-1.56-.74-2.57-1.888-2.57-1.147 0-1.868 1-1.878 2.57-.01 1.57.731 2.56 1.878 2.56 1.147 0 1.95-.93 1.95-2.55l-.061-.01Zm8.883-5.16c2.731 0 4.426 1.27 4.446 3.31h-2.974c0-.71-.599-1.15-1.492-1.15-.894 0-1.32.34-1.32.85s.376.67 1.127.82l2.091.42c2.03.42 2.843 1.22 2.843 2.71 0 2-1.879 3.36-4.67 3.36-2.792 0-4.609-1.32-4.74-3.33h3.156c.092.73.68 1.16 1.635 1.16.954 0 1.4-.3 1.4-.83s-.304-.62-1.086-.78l-1.888-.39c-1.96-.41-2.984-1.42-2.984-2.93.06-1.96 1.766-3.21 4.517-3.21l-.061-.01Zm15.633 10.08h-3.157v-1.85h-.061a2.814 2.814 0 0 1-1.091 1.529 2.894 2.894 0 0 1-1.822.521c-.49.016-.98-.07-1.434-.254a3.487 3.487 0 0 1-1.201-.81 3.412 3.412 0 0 1-.949-2.646v-6.33h3.259v5.64c0 1.16.619 1.79 1.634 1.79.239-.002.473-.054.69-.153a1.65 1.65 0 0 0 .898-1.033c.065-.225.081-.462.047-.694v-5.55h3.248l-.061 9.84Zm1.574-9.85h3.167v1.9h.071a2.86 2.86 0 0 1 1.066-1.52 2.937 2.937 0 0 1 1.787-.56 2.627 2.627 0 0 1 1.801.515c.514.386.864.948.98 1.575h.142a3.004 3.004 0 0 1 1.163-1.555 3.078 3.078 0 0 1 1.883-.535 3.205 3.205 0 0 1 2.401.952 3.112 3.112 0 0 1 .878 2.398v6.69h-3.279v-5.87c0-1-.477-1.56-1.401-1.56a1.413 1.413 0 0 0-1.384.993 1.385 1.385 0 0 0-.047.597v5.84h-3.107v-5.9c0-1-.497-1.53-1.391-1.53a1.462 1.462 0 0 0-1.097.48 1.426 1.426 0 0 0-.354 1.13v5.82h-3.259l-.02-9.86ZM32.647 12.365c0-1.99-.61-3.934-1.75-5.577a10.005 10.005 0 0 0-4.641-3.63 10.173 10.173 0 0 0-5.911-.417 10.063 10.063 0 0 0-5.118 2.944H2.558v26.34h26.75v-12.31a9.878 9.878 0 0 0 2.465-3.324 9.744 9.744 0 0 0 .874-4.026Zm-5.147 0a4.77 4.77 0 0 1-.82 2.68 4.878 4.878 0 0 1-2.193 1.78 4.961 4.961 0 0 1-2.828.279 4.917 4.917 0 0 1-2.508-1.317 4.798 4.798 0 0 1-1.342-2.468 4.754 4.754 0 0 1 .277-2.786 4.837 4.837 0 0 1 1.802-2.165 4.947 4.947 0 0 1 2.72-.813 4.93 4.93 0 0 1 3.456 1.408 4.784 4.784 0 0 1 1.436 3.402Zm-3.34 14.59H7.706v-16.2h5.015a9.403 9.403 0 0 0-.152 1.61 9.826 9.826 0 0 0 2.943 6.99 10.127 10.127 0 0 0 7.096 2.9 9.962 9.962 0 0 0 1.553-.13v4.83Z" fill="#222"/>
</svg><svg fill="none" viewBox="0 0 138 37" id="brand-logo-05" xmlns="http://www.w3.org/2000/svg">
    <path d="m11.308 33.41-3.253-5.634 4.773-8.245 3.033 5.254 17.906-.01-5.081 8.712-17.378-.078Z" fill="#222"/>
    <path d="m36.964 19.188-3.252 5.633-9.527-.011 3.034-5.254-8.961-15.501 10.085.044 8.621 15.089Z" fill="#222"/>
    <path d="M11.81 4.023h6.504l4.754 8.257H17L8.057 27.79l-5.004-8.755 8.756-15.012Z" fill="#222"/>
    <path fill-rule="evenodd" clip-rule="evenodd" d="m19.107 2.721-.02-.034H11.04L1.507 19.03l6.544 11.45.008-.014 2.474 4.285 18.92.085 6.644-11.393h-.044l2.454-4.25L29.12 2.764l-10.014-.044Zm6.225 10.899h.05l-4.73-8.216 6.912.03 7.857 13.751-2.46 4.26-6.444.003 2.247-3.892-3.432-5.937Zm-7.864-8.256 3.226 5.58h-4.466L8.582 24.201l-.521.901-3.464-6.06 7.98-13.68h4.891Zm-3.101 14.163 3.407-5.908h4.467l3.432 5.938-2.248 3.893-6.791.004-2.267-3.927Zm-4.764 8.261 1.296-2.247 1.928-3.33 2.262 3.92 6.79-.004-.01.019 9.547.011-3.497 5.996-15.837-.071-2.479-4.294Z" fill="#222"/>
    <path d="M87.246 12.474c.916 0 1.66-.745 1.66-1.68a1.65 1.65 0 0 0-1.66-1.661c-.935 0-1.68.725-1.68 1.66 0 .936.745 1.68 1.68 1.68Zm-1.49 11.034h2.96v-9.545h-2.96v9.545ZM90.439 28.097h2.901V22.56c.554.726 1.814 1.222 3.131 1.222 2.845 0 4.563-2.176 4.487-5.192-.077-3.074-1.852-4.926-4.506-4.926-1.355 0-2.634.592-3.169 1.47l-.153-1.164H90.44v14.127Zm2.959-9.355c0-1.431.954-2.386 2.329-2.386 1.393 0 2.272.974 2.272 2.386 0 1.413-.879 2.387-2.272 2.387-1.375 0-2.33-.955-2.33-2.387ZM101.271 20.499c.076 1.928 1.604 3.264 4.009 3.264 2.31 0 3.914-1.222 3.914-3.188 0-1.413-.84-2.348-2.406-2.73l-1.699-.42c-.611-.153-.993-.305-.993-.802 0-.496.401-.82.993-.82.668 0 1.107.438 1.088 1.087h2.654c-.076-1.985-1.585-3.226-3.685-3.226-2.119 0-3.703 1.26-3.703 3.17 0 1.278.706 2.328 2.596 2.825l1.68.439c.496.133.706.363.706.687 0 .477-.439.783-1.183.783-.859 0-1.317-.401-1.317-1.07h-2.654ZM113.694 23.762c1.164 0 2.329-.534 2.921-1.317l.191 1.07h2.768v-9.546h-2.94v4.963c0 1.432-.42 2.215-1.776 2.215-1.05 0-1.737-.477-1.737-2.253V13.97h-2.94v5.994c0 2.272 1.26 3.8 3.513 3.8ZM124.236 23.51V18.3c0-1.604.859-2.062 1.699-2.062.936 0 1.547.573 1.547 1.756v5.518h2.901v-5.212c0-1.623.84-2.081 1.68-2.081.936 0 1.566.573 1.566 1.775v5.518h2.863v-6.243c0-2.177-1.145-3.627-3.608-3.627-1.374 0-2.501.668-2.997 1.699-.573-1.031-1.565-1.7-3.15-1.7-1.05 0-2.024.478-2.596 1.242l-.115-.917h-2.749v9.546h2.959ZM46.924 9.383h-3.131V23.51h8.667v-2.768h-5.536V9.382ZM52.76 18.72c0 3.016 2.023 5.02 5.078 5.02 3.035 0 5.059-2.004 5.059-5.02 0-3.017-2.024-5.04-5.06-5.04-3.054 0-5.078 2.023-5.078 5.04Zm2.958-.02c0-1.431.84-2.386 2.12-2.386 1.26 0 2.1.955 2.1 2.387 0 1.45-.84 2.405-2.1 2.405-1.28 0-2.12-.954-2.12-2.405ZM63.37 18.566c0 2.883 1.87 4.83 4.524 4.83 1.28 0 2.387-.458 2.94-1.203v1.318c0 1.317-.82 2.195-2.272 2.195-1.298 0-2.195-.61-2.252-1.7H63.33c.268 2.616 2.291 4.373 5.06 4.373 3.264 0 5.326-2.12 5.326-5.48v-8.934h-2.654l-.152.974c-.535-.783-1.661-1.298-2.96-1.298-2.672 0-4.581 2.004-4.581 4.925Zm2.978-.076c0-1.375.916-2.291 2.08-2.291 1.356 0 2.349.897 2.349 2.29 0 1.394-.974 2.349-2.33 2.349-1.164 0-2.1-.955-2.1-2.348ZM74.574 18.72c0 3.016 2.023 5.02 5.078 5.02 3.035 0 5.059-2.004 5.059-5.02 0-3.017-2.024-5.04-5.06-5.04-3.054 0-5.077 2.023-5.077 5.04Zm2.959-.02c0-1.431.84-2.386 2.119-2.386 1.26 0 2.1.955 2.1 2.387 0 1.45-.84 2.405-2.1 2.405-1.28 0-2.12-.954-2.12-2.405Z" fill="#222"/>
</svg><svg fill="none" viewBox="0 0 171 33" id="brand-logo-06" xmlns="http://www.w3.org/2000/svg">
    <g clip-path="url(#ara)">
        <path d="M67.582 7.04H64v16.162h9.916v-3.167h-6.334V7.04ZM74.258 17.72c0 3.45 2.316 5.744 5.81 5.744 3.473 0 5.788-2.293 5.788-5.744 0-3.452-2.315-5.767-5.788-5.767-3.494 0-5.81 2.315-5.81 5.767Zm3.386-.022c0-1.639.96-2.73 2.424-2.73 1.442 0 2.403 1.091 2.403 2.73 0 1.66-.961 2.752-2.403 2.752-1.463 0-2.424-1.092-2.424-2.752ZM86.398 17.55c0 3.297 2.14 5.525 5.176 5.525 1.464 0 2.73-.524 3.364-1.376v1.507c0 1.508-.94 2.512-2.6 2.512-1.484 0-2.511-.699-2.577-1.944h-3.407c.306 2.993 2.621 5.002 5.788 5.002 3.735 0 6.094-2.424 6.094-6.268V12.284H95.2l-.175 1.114c-.611-.895-1.9-1.485-3.385-1.485-3.058 0-5.242 2.293-5.242 5.635Zm3.407-.088c0-1.573 1.048-2.621 2.38-2.621 1.552 0 2.688 1.027 2.688 2.621 0 1.595-1.115 2.687-2.665 2.687-1.333 0-2.403-1.093-2.403-2.687ZM99.217 17.72c0 3.45 2.315 5.744 5.81 5.744 3.473 0 5.788-2.293 5.788-5.744 0-3.452-2.315-5.767-5.788-5.767-3.495 0-5.81 2.315-5.81 5.767Zm3.385-.022c0-1.639.961-2.73 2.425-2.73 1.441 0 2.402 1.091 2.402 2.73 0 1.66-.961 2.752-2.402 2.752-1.464 0-2.425-1.092-2.425-2.752ZM113.715 10.58c1.048 0 1.9-.852 1.9-1.922 0-1.07-.852-1.9-1.9-1.9-1.07 0-1.922.83-1.922 1.9 0 1.07.852 1.922 1.922 1.922Zm-1.704 12.625h3.386V12.284h-3.386v10.921ZM117.368 28.45h3.32v-6.334c.633.83 2.075 1.398 3.582 1.398 3.254 0 5.22-2.49 5.133-5.941-.088-3.517-2.119-5.636-5.155-5.636-1.551 0-3.014.678-3.626 1.682l-.175-1.332h-3.079V28.45Zm3.385-10.703c0-1.638 1.092-2.73 2.665-2.73 1.594 0 2.599 1.114 2.599 2.73 0 1.617-1.005 2.73-2.599 2.73-1.573 0-2.665-1.091-2.665-2.73ZM129.761 19.757c.087 2.206 1.835 3.735 4.587 3.735 2.643 0 4.478-1.398 4.478-3.648 0-1.616-.961-2.686-2.753-3.123l-1.943-.48c-.699-.175-1.136-.35-1.136-.918 0-.568.458-.94 1.136-.94.764 0 1.266.503 1.245 1.246h3.036c-.088-2.272-1.813-3.691-4.216-3.691-2.424 0-4.237 1.441-4.237 3.625 0 1.464.808 2.665 2.97 3.233l1.922.502c.568.153.808.415.808.787 0 .546-.502.895-1.354.895-.983 0-1.507-.459-1.507-1.223h-3.036ZM143.974 23.486c1.333 0 2.665-.611 3.342-1.507l.219 1.223h3.167v-10.92h-3.364v5.678c0 1.638-.48 2.534-2.031 2.534-1.202 0-1.988-.546-1.988-2.578v-5.635h-3.364v6.859c0 2.599 1.442 4.346 4.019 4.346ZM156.036 23.206v-5.962c0-1.835.983-2.36 1.944-2.36 1.07 0 1.769.656 1.769 2.01v6.313h3.32v-5.963c0-1.857.961-2.381 1.922-2.381 1.07 0 1.791.655 1.791 2.031v6.313h3.277v-7.143c0-2.49-1.311-4.15-4.129-4.15-1.572 0-2.861.764-3.429 1.944-.655-1.18-1.791-1.944-3.604-1.944-1.201 0-2.315.546-2.97 1.42l-.131-1.049h-3.146v10.921h3.386ZM0 16.758c0-8.837 7.163-16 16-16h21c8.837 0 16 7.163 16 16v16H16c-8.837 0-16-7.164-16-16Z" fill="#222"/>
        <path d="M37 6.758H16c-5.523 0-10 4.477-10 10s4.477 10 10 10h21c5.523 0 10-4.477 10-10s-4.477-10-10-10Z" fill="#222"/>
        <path d="M16 21.758a5 5 0 1 0 0-10 5 5 0 0 0 0 10Z" fill="#222"/>
        <path d="M14 15.758a1 1 0 1 0 0-2 1 1 0 0 0 0 2Z" fill="#fff"/>
        <path d="M38 21.758a5 5 0 1 0 0-10 5 5 0 0 0 0 10Z" fill="#222"/>
        <path d="M36 15.758a1 1 0 1 0 0-2 1 1 0 0 0 0 2Z" fill="#fff"/>
    </g>
    <defs>
        <clipPath id="ara">
            <path fill="#fff" transform="translate(0 .758)" d="M0 0h171v32H0z"/>
        </clipPath>
    </defs>
</svg><svg fill="none" viewBox="0 0 24 25" id="heart" xmlns="http://www.w3.org/2000/svg">
    <path fill-rule="evenodd" clip-rule="evenodd" d="M12.692 7.584a1 1 0 0 1-1.384 0l-.693-.665A4.5 4.5 0 0 0 3 10.166c0 2.383 1.29 4.35 3.152 5.967 1.863 1.618 4.091 2.691 5.423 3.239.278.114.572.114.85 0 1.332-.548 3.56-1.62 5.423-3.239C19.71 14.517 21 12.55 21 10.167a4.5 4.5 0 0 0-7.615-3.248l-.693.665ZM12 5.476a6.5 6.5 0 0 0-11 4.69c0 6.369 6.97 9.886 9.814 11.055a3.096 3.096 0 0 0 2.372 0C16.03 20.051 23 16.535 23 10.167a6.5 6.5 0 0 0-11-4.69Z" fill="#141718"/>
</svg><svg fill="none" viewBox="0 0 24 24" id="heart-line" xmlns="http://www.w3.org/2000/svg">
    <path d="M12.001 4.529a5.998 5.998 0 0 1 8.242.228 6 6 0 0 1 .236 8.236l-8.48 8.492-8.478-8.492a6 6 0 0 1 8.48-8.464Zm6.826 1.641a3.998 3.998 0 0 0-5.49-.153l-1.335 1.198-1.336-1.197a4 4 0 0 0-5.686 5.605L12 18.654l7.02-7.03a4 4 0 0 0-.193-5.454Z" fill="#000"/>
</svg><svg fill="none" viewBox="0 0 24 24" id="id-card-line" xmlns="http://www.w3.org/2000/svg">
    <path d="M3 6h18v12H3V6ZM2 4a1 1 0 0 0-1 1v14a1 1 0 0 0 1 1h20a1 1 0 0 0 1-1V5a1 1 0 0 0-1-1H2Zm11 4h6v2h-6V8Zm5 4h-5v2h5v-2Zm-7.5-2a2.5 2.5 0 1 1-5 0 2.5 2.5 0 0 1 5 0ZM8 13.5A3.5 3.5 0 0 0 4.5 17h7A3.5 3.5 0 0 0 8 13.5Z" fill="#000"/>
</svg><svg fill="none" viewBox="0 0 24 24" id="search" xmlns="http://www.w3.org/2000/svg">
    <path d="M18.5 18.5 22 22m-1-10.5a9.5 9.5 0 1 0-19 0 9.5 9.5 0 0 0 19 0Z" stroke="#141718" stroke-width="1.5" stroke-linecap="round" stroke-linejoin="round"/>
</svg><svg fill="none" viewBox="0 0 24 24" id="search-line" xmlns="http://www.w3.org/2000/svg">
    <path d="m18.031 16.617 4.283 4.282-1.415 1.415-4.282-4.283A8.96 8.96 0 0 1 11 20c-4.968 0-9-4.032-9-9s4.032-9 9-9 9 4.032 9 9a8.96 8.96 0 0 1-1.969 5.617Zm-2.006-.742A6.977 6.977 0 0 0 18 11c0-3.867-3.133-7-7-7s-7 3.133-7 7 3.133 7 7 7a6.977 6.977 0 0 0 4.875-1.975l.15-.15Z" fill="#000"/>
</svg><svg fill="none" viewBox="0 0 19 12" id="slider--slider-left" xmlns="http://www.w3.org/2000/svg">
    <path d="M.47 6.288a.75.75 0 0 1 0-1.06L5.243.454a.75.75 0 0 1 1.06 1.06L2.061 5.758 6.303 10a.75.75 0 1 1-1.06 1.06L.47 6.288Zm18.53.22H1v-1.5h18v1.5Z" fill="#fff"/>
</svg><svg fill="none" viewBox="0 0 19 12" id="slider--slider-right" xmlns="http://www.w3.org/2000/svg">
    <path d="M18.53 6.288a.75.75 0 0 0 0-1.06L13.757.454a.75.75 0 0 0-1.06 1.06l4.242 4.243L12.697 10a.75.75 0 1 0 1.06 1.06l4.773-4.773ZM0 6.508h18v-1.5H0v1.5Z" fill="#fff"/>
</svg><svg fill="none" viewBox="0 0 12 15" id="slider--slider-top" xmlns="http://www.w3.org/2000/svg">
    <path d="M6.53.329a.75.75 0 0 0-1.06 0L.697 5.102a.75.75 0 0 0 1.06 1.06L6 1.92l4.243 4.243a.75.75 0 0 0 1.06-1.061L6.53.329Zm.22 14.53v-14h-1.5v14h1.5Z" fill="#fff"/>
</svg><svg shape-rendering="geometricPrecision" text-rendering="geometricPrecision" image-rendering="optimizeQuality" fill-rule="evenodd" clip-rule="evenodd" viewBox="0 0 512 490.72" id="timeline-book-icon" xmlns="http://www.w3.org/2000/svg">
    <path fill-rule="nonzero" d="M50.09 306.91c.55-96.5 1.09-192.97 1.64-289.09.02-6.41 4.57-11.74 10.6-12.99v-.02c65.64-13.7 151.75.77 194.37 57.41C301.6 7.12 384.41-5.06 450.97 4.66c6.64.97 11.43 6.68 11.42 13.21h.01v290.22c0 7.39-5.98 13.37-13.37 13.37-1.06 0-2.1-.13-3.09-.36-3.64-.57-7.25-1.03-10.85-1.39-1.99-9.64-5.71-19.33-11.48-27.32 3.99.12 12 4.34 16.06 4.66V25.71c-58.96-5.58-136.09 10.13-170.09 64.32V150c-8.24-2.32-18.19-2.78-26.74-1.44V89.63C210.98 33.51 131.58 17.1 72.8 25.08V297.9c14.12-.51 32.12-4.27 45.9-3.13l-.49 1.03c-3.59 7.92-5.18 16.47-5.28 25.13-16.02-1.14-32.25-.91-48.43.48-8.24.68-13.97-5.91-14.41-14.5zm182.36 52.78c0 4.3-3.5 7.79-7.8 7.79-4.31 0-7.8-3.49-7.8-7.79v-14.42c-.42-.22-.82-.48-1.2-.79-4.59-3.66-9.89-7.96-14.53-11.76l-20.08-16.4c-11.45-9.4-25.14-10.47-23.87 8.95.28 4.29 1.78 9 3.76 13.51 2.98 6.74 6.31 12.19 9.22 16.07l59.75 90.36c.69 1.05 1.1 2.21 1.24 3.37 1.18 9.76 3.25 17.07 6.31 21.65 2.21 3.32 5.09 5.01 8.67 4.92 29.45-.59 63.83-1.19 93.04-.01 5.75-.08 11.02-1.78 15.79-5.06 9.84-6.78 17.52-21.8 23.34-32.4 8.39-15.31 15.28-30.83 16.19-48.51-.26-11.29-.75-22.61-.6-33.9.15-12.64.33-26.2-5.59-34.5-5.35-7.5-12.17-6.21-20.23-6.21-.02 0-.7 13.48-.79 14.84-.27 4.36-.54 7.32-.54 11.29 0 4.3-3.49 7.8-7.8 7.8-4.3 0-7.8-3.5-7.8-7.8 0-4.02.3-8.69.6-13.51.74-11.72 1.56-23.43-2.75-30.81-4.26-7.29-11.26-5.78-18.47-5.78-.58 0-1.13-.07-1.68-.18.09 5.98-.29 10.92-.67 16.89-.27 4.36-.55 8.57-.55 12.55 0 4.3-3.49 7.8-7.8 7.8-4.3 0-7.79-3.5-7.79-7.8 0-4.02.29-8.7.6-13.53.82-12.98 1.73-26.24-4.34-32.98-4.33-4.81-11.03-3.6-16.88-3.6-.71 0-1.39-.09-2.05-.27v28.95c0 4.3-3.49 7.8-7.8 7.8-4.3 0-7.8-3.5-7.8-7.8v-74.98c0-36.58-41.3-37.43-41.3.32v135.93zm-15.6-34.28v-102.9c0-58.45 72.5-57.47 72.5-.32v30.98c.66-.18 1.34-.27 2.05-.27 10.22 0 18.85-.87 27.39 6.59 4.41 3.84 6.99 9.04 8.43 14.97 1-.46 2.11-.72 3.29-.72 11.66 0 22.47-.71 30.65 10.07 2.97 3.91 4.73 8.71 5.71 13.99.39-.07.78-.09 1.19-.09 12.03 0 22.03-.63 31.28 9.57 10.52 11.6 10.28 31.32 10.08 48.17-.05 11.46.5 22.86.6 34.3-1.01 20.59-8.43 37.71-17.48 54.32-7.44 13.65-15.87 29.92-28.76 38.8-7.4 5.1-15.59 7.72-24.56 7.81l-92.91.04c-9.27.15-16.48-3.9-21.78-11.84-4.26-6.38-7.1-15.33-8.62-26.61l-58.47-88.46c-3.44-4.66-8-11.7-11.39-19.38-6.81-15.46-9.46-41.17 9.68-48.94 11.68-4.76 25.48.66 34.58 8.2l26.54 21.72zm220.48 35.12c16.53 2.43 36.64 5.71 51.93 9.65 0-101.24-.01-206.51-.01-307.73 10.37 0 22.75-2.07 22.75 13.37v307.85c0 9.23-9.1 15.58-17.68 12.66-18.27-5.23-37.22-9.58-56.46-12.67-.17-9.04-.54-14.08-.53-23.13zm-303.77 17.91c-39.37.38-79 7.33-115.88 17.89C9.1 399.25 0 392.9 0 383.67V75.82c0-15.44 12.37-13.37 22.74-13.37v307.73c28.93-7.45 64.46-12.53 96.23-13.97 3.63 9.12 8.92 14.24 14.59 22.23z"/>
</svg><svg viewBox="0 0 451.043 451.043" xml:space="preserve" id="timeline-drive-icon" xmlns="http://www.w3.org/2000/svg">
    <path d="M384.99 66.054C342.394 23.459 285.761 0 225.521 0 165.283 0 108.649 23.459 66.054 66.054S0 165.283 0 225.522 23.458 342.394 66.054 384.99s99.229 66.054 159.468 66.054c60.239 0 116.873-23.458 159.468-66.054 42.595-42.595 66.054-99.229 66.054-159.468S427.585 108.649 384.99 66.054zM225.521 433.043C111.094 433.043 18 339.949 18 225.522S111.094 18 225.521 18c114.428 0 207.522 93.094 207.522 207.521S339.95 433.043 225.521 433.043z"/>
    <path d="M225.521 38.13c-103.329 0-187.392 84.063-187.392 187.392s84.063 187.393 187.392 187.393 187.393-84.064 187.393-187.393S328.85 38.13 225.521 38.13zm22.313 321.172h-44.641c-16.87-56.333-59.586-101.839-114.825-122.151l15.428-65.49c39.619-9.641 80.54-14.541 121.728-14.541 41.202 0 82.119 4.902 121.724 14.551l15.425 65.474c-55.246 20.307-97.968 65.816-114.839 122.157zM56.129 225.522c0-14.331 1.796-28.25 5.163-41.55a513.41 513.41 0 0 1 22.784-7.099l-12.931 54.889a186.7 186.7 0 0 0-14.978-3.261c-.017-.992-.038-1.983-.038-2.979zm323.769 6.237-12.929-54.881a506.414 506.414 0 0 1 22.784 7.1 169.155 169.155 0 0 1 5.161 41.544c0 .995-.021 1.986-.038 2.977a186.696 186.696 0 0 0-14.978 3.26zM225.521 56.13c71.27 0 132.395 44.246 157.365 106.709a520.07 520.07 0 0 0-25.917-7.308c-42.686-10.888-86.91-16.409-131.445-16.409-44.517 0-88.744 5.518-131.45 16.398a525.748 525.748 0 0 0-25.917 7.317C93.128 100.374 154.252 56.13 225.521 56.13zM57.492 247.061c70.855 14.342 125.07 72.703 134.195 144.456-70.359-14.319-125.009-72.387-134.195-144.456zm152.61 147.144a187.06 187.06 0 0 0-2.472-16.903h35.769a186.697 186.697 0 0 0-2.472 16.905c-5.076.46-10.211.708-15.405.708a170.899 170.899 0 0 1-15.42-.71zm49.239-2.685c9.125-71.766 63.347-130.129 134.211-144.462-9.186 72.076-63.844 130.147-134.211 144.462z"/>
    <path d="M225.521 174.343c-28.22 0-51.179 22.959-51.179 51.179 0 28.221 22.959 51.18 51.179 51.18 28.221 0 51.18-22.959 51.18-51.18 0-28.22-22.959-51.179-51.18-51.179zm0 84.358c-18.295 0-33.179-14.884-33.179-33.18 0-18.295 14.884-33.179 33.179-33.179s33.18 14.884 33.18 33.179c0 18.296-14.884 33.18-33.18 33.18z"/>
</svg><svg viewBox="-1.5 0 32 32" id="timeline-return-icon" xmlns="http://www.w3.org/2000/svg">
    <path d="M5.867 15.467c-1.173 0-2.133.96-2.133 2.133s.96 2.133 2.133 2.133S8 18.773 8 17.6s-.96-2.133-2.133-2.133zm0 3.2c-.587 0-1.067-.48-1.067-1.067s.48-1.067 1.067-1.067 1.067.48 1.067 1.067-.48 1.067-1.067 1.067zM22.933 15.467c-1.173 0-2.133.96-2.133 2.133s.96 2.133 2.133 2.133 2.133-.96 2.133-2.133-.96-2.133-2.133-2.133zm0 3.2c-.587 0-1.067-.48-1.067-1.067s.48-1.067 1.067-1.067S24 17.013 24 17.6s-.48 1.067-1.067 1.067z"/>
    <path d="m25.12 11.2-.907-4.267c-.373-1.387-1.44-2.133-2.88-2.133H7.466c-1.493 0-2.347.747-2.773 2.133l-.96 4.267H0v1.067h3.467v.053c-1.653.107-2.933 1.493-2.933 3.2v7.413h1.6v1.6c0 1.493 1.173 2.667 2.667 2.667s2.667-1.173 2.667-2.667v-1.6h13.867v1.6c0 1.493 1.173 2.667 2.667 2.667s2.667-1.173 2.667-2.667v-1.6h1.6V15.52c0-1.653-1.28-3.04-2.88-3.2v-.053h3.413V11.2h-3.68zM5.707 7.253c.32-.96.8-1.387 1.76-1.387h13.867c1.013 0 1.6.427 1.867 1.333l1.067 5.12H4.535l1.173-5.067zm.693 17.28c0 .907-.693 1.6-1.6 1.6s-1.6-.693-1.6-1.6v-1.6h3.2v1.6zm19.2 0c0 .907-.693 1.6-1.6 1.6s-1.6-.693-1.6-1.6v-1.6h3.2v1.6zm1.6-9.013v6.347H1.6V15.52a2.14 2.14 0 0 1 2.133-2.133h21.333a2.14 2.14 0 0 1 2.133 2.133z"/>
</svg><svg viewBox="0 0 84.91 122.88" style="enable-background:new 0 0 84.91 122.88" xml:space="preserve" id="timeline-select-icon" xmlns="http://www.w3.org/2000/svg">
    <path d="M26.6 80.57a3.13 3.13 0 0 1-.37-.23c-1.49-1.18-3.13-2.51-4.54-3.66-2.06-1.69-4.43-3.64-6.09-5.02-1.13-.93-2.42-1.58-3.63-1.83-.79-.14-1.49-.14-2.06.08-.45.2-.85.56-1.1 1.13-.34.76-.51 1.83-.42 3.3.08 1.3.54 2.71 1.13 4.09.87 2 2.09 3.86 2.99 5.04.06.08.11.14.14.23l17.84 25.48c.23.34.37.71.39 1.07.37 2.93.99 5.16 1.89 6.54.68 1.01 1.52 1.52 2.62 1.49h28.07c1.75-.03 3.33-.53 4.79-1.55 1.61-1.1 3.04-2.82 4.37-5.13.03-.03.06-.08.08-.11.51-.87 1.18-2 1.83-3.07 2.85-4.68 5.33-8.77 5.61-14.57l-.17-8c-.03-.11-.03-.23-.03-.34s0-.87.03-1.89c.06-5.3.14-11.84-4.71-12.65h-3.13c-.03 1.49-.11 3.02-.2 4.48-.08 1.32-.17 2.56-.17 3.78 0 1.3-1.04 2.34-2.34 2.34a2.33 2.33 0 0 1-2.34-2.34c0-1.21.08-2.62.17-4.09.31-4.99.68-10.71-3.3-11.41h-3.1c-.17 0-.34-.03-.51-.06.03 1.8-.08 3.66-.2 5.47-.06 1.32-.14 2.56-.14 3.77 0 1.3-1.04 2.34-2.34 2.34a2.33 2.33 0 0 1-2.34-2.34c0-1.21.08-2.62.17-4.09.31-4.99.68-10.71-3.3-11.41h-3.1c-.23 0-.42-.03-.62-.08v9.1c0 1.3-1.04 2.34-2.34 2.34a2.33 2.33 0 0 1-2.34-2.34V41.99c0-4.09-1.66-6.68-3.8-7.75a5.42 5.42 0 0 0-2.45-.59c-.82 0-1.66.2-2.45.59-2.11 1.07-3.75 3.66-3.75 7.86v42.81c0 1.3-1.04 2.34-2.34 2.34a2.33 2.33 0 0 1-2.34-2.34v-4.34h-.06zm12.69-66.58a2.78 2.78 0 0 1-5.56 0V2.78a2.78 2.78 0 0 1 5.56 0v11.21zm-25.3 22.96a2.78 2.78 0 0 1 0 5.56H2.78A2.793 2.793 0 0 1 0 39.73a2.78 2.78 0 0 1 2.78-2.78h11.21zm7.93-16.62a2.788 2.788 0 0 1 0 3.93 2.788 2.788 0 0 1-3.93 0l-7.9-7.93a2.788 2.788 0 0 1 0-3.93 2.788 2.788 0 0 1 3.93 0l7.9 7.93zM58.47 42.5a2.78 2.78 0 0 1 0-5.56h11.21a2.78 2.78 0 0 1 0 5.56H58.47zm-4-18.85a2.788 2.788 0 0 1-3.93 0 2.788 2.788 0 0 1 0-3.93l7.9-7.93a2.788 2.788 0 0 1 3.93 0 2.788 2.788 0 0 1 0 3.93l-7.9 7.93zm-6 29.14c.2-.06.39-.08.62-.08h3.24c.17 0 .37.03.53.06 4.31.68 6.26 3.19 7.05 6.45.31-.14.65-.23.99-.23h3.24c.17 0 .37.03.53.06 4.65.73 6.51 3.58 7.19 7.19.11-.03.23-.03.37-.03h3.24c.17 0 .37.03.54.06 8.91 1.38 8.79 10.23 8.71 17.36v1.86l.2 8.23v.25c-.34 7.02-3.1 11.56-6.28 16.8-.54.87-1.07 1.77-1.8 3.02-.03.03-.03.06-.06.08-1.66 2.9-3.58 5.13-5.78 6.65-2.23 1.55-4.71 2.34-7.41 2.37H35.53c-2.79.06-4.96-1.16-6.57-3.55-1.3-1.92-2.14-4.62-2.59-8L8.9 86.35l-.09-.08c-1.04-1.38-2.45-3.55-3.52-5.95-.79-1.8-1.38-3.75-1.52-5.67-.14-2.28.17-4.09.82-5.52.79-1.78 2.09-2.93 3.64-3.55 1.44-.59 3.07-.68 4.71-.34 1.97.4 4 1.38 5.72 2.82 1.41 1.18 3.78 3.1 6.09 4.99l1.92 1.58v-32.5c0-6.23 2.76-10.23 6.34-12.04 1.44-.73 2.99-1.1 4.57-1.1s3.13.37 4.56 1.1c3.58 1.8 6.4 5.83 6.4 11.95V52.8l-.07-.01z"/>
</svg><svg fill="none" viewBox="0 0 24 24" id="user" xmlns="http://www.w3.org/2000/svg">
    <path d="M18.559 19.549a7.003 7.003 0 0 0-13.118 0m13.118 0A9.976 9.976 0 0 0 22 12c0-5.523-4.477-10-10-10S2 6.477 2 12a9.977 9.977 0 0 0 3.441 7.549m13.118 0A9.961 9.961 0 0 1 12 22a9.961 9.961 0 0 1-6.559-2.451M15 9a3 3 0 1 1-6 0 3 3 0 0 1 6 0Z" stroke="#141718" stroke-width="1.5" stroke-linejoin="round"/>
</svg><svg fill="none" viewBox="0 0 24 24" id="user-star-line" xmlns="http://www.w3.org/2000/svg">
    <path d="M12 14v2a6 6 0 0 0-6 6H4a8 8 0 0 1 8-8Zm0-1c-3.315 0-6-2.685-6-6s2.685-6 6-6 6 2.685 6 6-2.685 6-6 6Zm0-2c2.21 0 4-1.79 4-4s-1.79-4-4-4-4 1.79-4 4 1.79 4 4 4Zm6 10.5-2.939 1.545.561-3.273-2.377-2.317 3.286-.477L18 14l1.47 2.977 3.285.478-2.377 2.318.56 3.272L18 21.5Z" fill="#000"/>
</svg><svg viewBox="0 0 497 497" id="website" xmlns="http://www.w3.org/2000/svg">
    <path d="M497 128.5v312c0 11.046-8.954 20-20 20H20c-11.046 0-20-8.954-20-20v-312z" fill="#faf8f8"/>
    <path d="M290.498 294.5c0-23.196-18.804-42-42-42a41.823 41.823 0 0 0-19.482 4.782c-13.386 7.021-19.327 21.053-19.327 37.218 0 23.196 15.613 36.457 38.809 36.457 16.214 0 30.282-3.645 37.282-17.099a41.814 41.814 0 0 0 4.718-19.358z" fill="#dc4955"/>
    <path d="M286.468 312.47c-6.73 14.21-21.2 24.03-37.97 24.03-23.2 0-42-18.8-42-42 0-16.77 9.82-31.24 24.03-37.97-2.59 5.45-4.03 11.54-4.03 17.97 0 23.2 18.8 42 42 42 6.43 0 12.52-1.44 17.97-4.03z" fill="#d82f3c"/>
    <path d="M429.496 294.5c0-23.196-18.804-42-42-42a41.823 41.823 0 0 0-19.482 4.782c-13.386 7.021-19.327 21.053-19.327 37.218 0 23.196 15.613 36.457 38.809 36.457 16.214 0 30.282-3.645 37.282-17.099a41.814 41.814 0 0 0 4.718-19.358z" fill="#b7e546"/>
    <path d="M425.466 312.47c-6.73 14.21-21.2 24.03-37.97 24.03-23.2 0-42-18.8-42-42 0-16.77 9.82-31.24 24.03-37.97-2.59 5.45-4.03 11.54-4.03 17.97 0 23.2 18.8 42 42 42 6.43 0 12.52-1.44 17.97-4.03z" fill="#abd641"/>
    <path d="M497 148.5v-20l-276.011-12.798L0 128.5v312c0 11.046 8.954 20 20 20h15c-8.28 0-15-6.72-15-15v-291a6 6 0 0 1 6-6z" fill="#f0e9e6"/>
    <path d="M497 56.5V129H0V56.5c0-11.046 8.954-20 20-20h457c11.046 0 20 8.954 20 20z" fill="#5d748a"/>
    <g fill="#3f597d">
        <path d="M227.758 108.5c-8.255 0-14.947-6.716-14.947-15s6.692-15 14.947-15h208.315c8.255 0 14.947 6.716 14.947 15s-6.692 15-14.947 15z"/>
        <ellipse cx="160.869" cy="93.5" rx="14.947" ry="15"/>
        <path d="m171.361 104.184 12.874-12.869-13.139 1.179zM150.592 82.608l12.562-12.516-2.693 10.408z"/>
        <ellipse cx="98.034" cy="93.5" rx="14.947" ry="15"/>
        <path d="m108.553 104.157 12.382-12.499-12.674.836zM87.757 82.608l12.371-12.459L97.626 80.5z"/>
        <ellipse cx="32.947" cy="93.5" rx="14.947" ry="15"/>
        <path d="M43.769 103.846 56.49 90.66l-13.139 1.381zM22.67 82.608 34.292 70.57l-1.753 9.93z"/>
    </g>
    <ellipse cx="173.849" cy="80.5" fill="#b7e546" rx="14.947" ry="15"/>
    <path d="m217.514 82.577 12.971-12.991-3.025 14.276zM446.83 103.915l13.149-13.179-10.185 3.381z" fill="#3f597d"/>
    <ellipse cx="110.946" cy="80.5" fill="#ffbf54" rx="14.947" ry="15"/>
    <ellipse cx="45.495" cy="80.5" fill="#dc4955" rx="14.947" ry="15"/>
    <path d="M240.737 95.5c-8.255 0-14.947-6.716-14.947-15s6.692-15 14.947-15h208.315c8.255 0 14.947 6.716 14.947 15s-6.692 15-14.947 15z" fill="#faf8f8"/>
    <path d="m135.893 215 226.628 2c5.523 0 10-4.477 10-10l3.479-7v-30c0-5.523-4.477-10-10-10H142l-6.107 5c-5.523 0-10 4.477-10 10v30c0 5.523 4.477 10 10 10z" fill="#aad8de"/>
    <path d="M376 200v10c0 5.523-4.477 10-10 10H132c-5.523 0-10-4.477-10-10v-40c0-5.523 4.477-10 10-10h10v33a7 7 0 0 0 7 7z" fill="#94ccd4"/>
    <path d="M151.5 294.5c0-23.196-18.804-42-42-42a41.823 41.823 0 0 0-19.482 4.782c-13.386 7.021-19.327 21.053-19.327 37.218 0 23.196 15.613 36.457 38.809 36.457 16.214 0 30.282-3.645 37.282-17.099A41.814 41.814 0 0 0 151.5 294.5z" fill="#ffbf54"/>
    <path d="M147.47 312.47c-6.73 14.21-21.2 24.03-37.97 24.03-23.2 0-42-18.8-42-42 0-16.77 9.82-31.24 24.03-37.97-2.59 5.45-4.03 11.54-4.03 17.97 0 23.2 18.8 42 42 42 6.43 0 12.52-1.44 17.97-4.03z" fill="#ffa442"/>
    <path d="M149.5 374h-70a7.5 7.5 0 0 1 0-15h70a7.5 7.5 0 0 1 0 15zM149.5 404h-80a7.5 7.5 0 0 1 0-15h80a7.5 7.5 0 0 1 0 15zM149.5 434h-80a7.5 7.5 0 0 1 0-15h80a7.5 7.5 0 0 1 0 15zM288.5 374h-70a7.5 7.5 0 0 1 0-15h70c4.143 0 7.5 3.358 7.5 7.5s-3.357 7.5-7.5 7.5zM288.5 404h-80a7.5 7.5 0 0 1 0-15h80c4.143 0 7.5 3.358 7.5 7.5s-3.357 7.5-7.5 7.5zM288.5 434h-80a7.5 7.5 0 0 1 0-15h80c4.143 0 7.5 3.358 7.5 7.5s-3.357 7.5-7.5 7.5zM427.5 374h-70c-4.143 0-7.5-3.358-7.5-7.5s3.357-7.5 7.5-7.5h70c4.143 0 7.5 3.358 7.5 7.5s-3.357 7.5-7.5 7.5zM427.5 404h-80c-4.143 0-7.5-3.358-7.5-7.5s3.357-7.5 7.5-7.5h80c4.143 0 7.5 3.358 7.5 7.5s-3.357 7.5-7.5 7.5zM427.5 434h-80c-4.143 0-7.5-3.358-7.5-7.5s3.357-7.5 7.5-7.5h80c4.143 0 7.5 3.358 7.5 7.5s-3.357 7.5-7.5 7.5z" fill="#f0e9e6"/>
</svg></svg>