<svg width="63" height="63" viewBox="0 0 63 63" fill="none" xmlns="http://www.w3.org/2000/svg">
<g clip-path="url(#clip0_808_31)">
<path d="M54.5256 41.8403C55.3291 40.7896 55.8078 39.4779 55.8078 38.0561V35.8766C55.8078 32.4341 53.0071 29.6335 49.5648 29.6335C46.1224 29.6335 43.3217 32.4342 43.3217 35.8766V38.0561C43.3217 39.477 43.7998 40.7879 44.6023 41.8382H37.618C39.3054 40.2242 40.3594 37.9535 40.3594 35.4397V29.7734C40.3594 24.8884 36.3851 20.9141 31.5 20.9141C26.6149 20.9141 22.6406 24.8884 22.6406 29.7734V35.4397C22.6406 37.9535 23.6946 40.2242 25.3819 41.8382H18.3976C19.2001 40.7877 19.6781 39.4769 19.6781 38.0561V35.8766C19.6781 32.4341 16.8775 29.6335 13.4351 29.6335C9.99276 29.6335 7.19209 32.4341 7.19209 35.8766V38.0561C7.19209 39.478 7.67087 40.7896 8.47424 41.8403C3.79403 41.8853 0 45.7049 0 50.3956V55.0554C0 55.7348 0.551004 56.2859 1.23047 56.2859H11.0742V61.7718C11.0742 62.4512 11.6252 63.0022 12.3047 63.0022H15.7501C16.4296 63.0022 16.9806 62.4512 16.9806 61.7718C16.9806 61.0923 16.4296 60.5413 15.7501 60.5413H13.5352V54.5465C13.5352 49.1686 17.7003 44.7482 22.9736 44.3339L29.6612 60.5413H26.8236C26.1441 60.5413 25.5931 61.0923 25.5931 61.7718C25.5931 62.4512 26.1441 63.0022 26.8236 63.0022H50.6953C51.3748 63.0022 51.9258 62.4512 51.9258 61.7718V56.2859H61.7695C62.449 56.2859 63 55.7348 63 55.0554V50.3956C63 45.7049 59.206 41.8853 54.5256 41.8403ZM45.7827 38.0561V35.8766C45.7827 33.7912 47.4794 32.0945 49.5648 32.0945C51.6502 32.0945 53.3469 33.7912 53.3469 35.8766V38.0561C53.3469 40.1415 51.6502 41.8382 49.5648 41.8382C47.4794 41.8382 45.7827 40.1415 45.7827 38.0561ZM31.5 23.375C35.0281 23.375 37.8984 26.2453 37.8984 29.7734V29.7857H37.8931C35.8567 29.7857 33.8791 29.1959 32.1738 28.0801C31.7646 27.8121 31.2356 27.8121 30.8263 28.0801C29.121 29.1959 27.1433 29.7857 25.107 29.7857H25.1016V29.7734C25.1016 26.2453 27.9719 23.375 31.5 23.375ZM25.1016 35.4397V32.2467H25.1069C27.3594 32.2467 29.5534 31.6628 31.5 30.5516C33.4466 31.6628 35.6407 32.2467 37.8931 32.2467H37.8984V35.4397C37.8984 38.9679 35.0281 41.8382 31.5 41.8382C27.9719 41.8382 25.1016 38.9679 25.1016 35.4397ZM9.65303 35.8766C9.65303 33.7912 11.3497 32.0945 13.4351 32.0945C15.5205 32.0945 17.2172 33.7912 17.2172 35.8766V38.0561C17.2172 40.1415 15.5205 41.8382 13.4351 41.8382C11.3497 41.8382 9.65303 40.1415 9.65303 38.0561V35.8766ZM11.0951 53.8249H2.46094V50.3956C2.46094 47.0341 5.1959 44.2991 8.55742 44.2991H16.2757C13.3058 46.4806 11.3149 49.9198 11.0951 53.8249ZM25.6399 44.2991H30.2695V47.2522C30.2695 47.9317 30.8205 48.4827 31.5 48.4827C32.1795 48.4827 32.7305 47.9317 32.7305 47.2522V44.2991H37.3601H37.3786L31.5 58.5459L25.6214 44.2991H25.6399ZM49.4648 60.5413H33.3388L40.0264 44.3341C45.2997 44.7482 49.4648 49.1686 49.4648 54.5465V60.5413ZM60.5391 53.8249H51.9049C51.6851 49.9198 49.6942 46.4806 46.7243 44.2991H54.4426C57.8041 44.2991 60.5391 47.0341 60.5391 50.3956V53.8249Z" fill="#FD3B3B"/>
<path d="M23.0467 9.48015L25.9838 11.6044L24.8604 15.0365C24.5278 16.0527 24.8719 17.1155 25.737 17.744C26.602 18.3725 27.7192 18.3714 28.5828 17.7409L31.4997 15.6118L34.4165 17.7408C34.8491 18.0565 35.3451 18.2145 35.8415 18.2145C36.3359 18.2145 36.8305 18.0576 37.2623 17.744C38.1275 17.1156 38.4715 16.0527 38.1389 15.0363L37.0155 11.6044L39.9526 9.48015C40.8181 8.85421 41.1649 7.79305 40.8358 6.77681C40.5068 5.76069 39.6041 5.10411 38.5362 5.10411H34.9088L33.7999 1.67368C33.471 0.656947 32.5683 0 31.4997 0C30.431 0 29.5283 0.656947 29.1995 1.67381L28.0906 5.10423H24.4632C23.3952 5.10423 22.4925 5.76081 22.1636 6.77693C21.8345 7.79305 22.1812 8.85421 23.0467 9.48015ZM28.9861 7.56504C29.5198 7.56504 29.9927 7.22088 30.157 6.71307L31.4999 2.55962L32.8423 6.71307C33.0066 7.22088 33.4795 7.56504 34.0133 7.56504L38.4007 7.56541L34.8456 10.1365C34.4121 10.4501 34.2308 11.0079 34.3972 11.5164L35.7573 15.6727L32.225 13.0945C32.009 12.9368 31.7542 12.8579 31.4995 12.8579C31.2448 12.8579 30.9901 12.9368 30.7741 13.0945L27.2414 15.6726L28.6019 11.5164C28.7684 11.0079 28.5871 10.4501 28.1535 10.1365L24.5985 7.56517L28.9861 7.56504Z" fill="#FD3B3B"/>
<path d="M21.2871 60.5391C20.9635 60.5391 20.646 60.6706 20.4172 60.8996C20.1883 61.1286 20.0566 61.4459 20.0566 61.7695C20.0566 62.0931 20.1882 62.4106 20.4172 62.6393C20.646 62.8682 20.9635 63 21.2871 63C21.6107 63 21.9282 62.8683 22.1569 62.6393C22.3859 62.4106 22.5176 62.0931 22.5176 61.7695C22.5176 61.4459 22.3859 61.1285 22.1569 60.8996C21.9282 60.6706 21.6107 60.5391 21.2871 60.5391Z" fill="#FD3B3B"/>
</g>
<defs>
<clipPath id="clip0_808_31">
<rect width="63" height="63" fill="white"/>
</clipPath>
</defs>
</svg>
