<svg width="46" height="46" viewBox="0 0 46 46" fill="none" xmlns="http://www.w3.org/2000/svg">
<path fill-rule="evenodd" clip-rule="evenodd" d="M23.0009 14.1383C27.3994 14.1383 31.3821 15.9212 34.2644 18.8045C37.1468 21.6869 38.9307 25.6695 38.9307 30.069C38.9307 34.4684 37.1477 38.4502 34.2644 41.3325C31.3811 44.2149 27.3994 45.9979 23.0009 45.9979C18.6024 45.9979 14.6197 44.2149 11.7364 41.3325C8.85403 38.4502 7.07107 34.4675 7.07107 30.069C7.07107 25.6705 8.85403 21.6878 11.7364 18.8045C14.6197 15.9212 18.6024 14.1383 23.0009 14.1383ZM7.82639 5.41758C7.76567 5.2253 7.61663 5.0643 7.40963 4.99806C7.07199 4.8895 6.71043 5.07534 6.60187 5.41298L5.44543 8.9973L1.72495 8.98994C1.51059 8.9743 1.29255 9.06722 1.15731 9.25398C0.94847 9.54194 1.01287 9.94398 1.30083 10.1519L4.35247 12.3599L3.18131 15.9405L3.18315 15.9415C3.12243 16.1301 3.14911 16.3444 3.27423 16.5174C3.48307 16.8035 3.88327 16.867 4.16939 16.6581L7.21367 14.4373L10.2184 16.6287C10.3831 16.7685 10.614 16.8219 10.8339 16.7501C11.1715 16.6407 11.3564 16.2773 11.246 15.9405L10.0749 12.3599L13.1265 10.1519L13.1256 10.151C13.2866 10.0341 13.3906 9.84554 13.3906 9.63118C13.3906 9.27698 13.1035 8.98994 12.7493 8.98994L8.98191 8.9973L7.82639 5.41758ZM7.90275 9.83542L7.21275 7.69918L6.52275 9.83542C6.43995 10.0939 6.19799 10.2807 5.91187 10.2807L3.66523 10.2761L5.48499 11.5926C5.70487 11.7518 5.80699 12.0397 5.71867 12.3121L5.02039 14.4483L6.82543 13.1318C7.04531 12.9653 7.35627 12.9533 7.59087 13.1244L9.40603 14.4483L8.71511 12.336C8.61759 12.0719 8.70223 11.7656 8.94143 11.5926L10.7612 10.2761L8.54491 10.2807C8.26155 10.2945 7.99383 10.1179 7.90275 9.83542ZM39.4008 5.41758C39.3401 5.2253 39.191 5.0643 38.984 4.99806C38.6464 4.8895 38.2848 5.07534 38.1763 5.41298L37.0198 8.9973L33.2994 8.98994C33.085 8.9743 32.8669 9.06722 32.7317 9.25398C32.5229 9.54194 32.5873 9.94398 32.8752 10.1519L35.9269 12.3599L34.7557 15.9405L34.7575 15.9415C34.6968 16.1301 34.7235 16.3444 34.8486 16.5174C35.0575 16.8035 35.4577 16.867 35.7438 16.6581L38.7881 14.4373L41.7928 16.6287C41.9575 16.7685 42.1884 16.8219 42.4083 16.7501C42.7459 16.6407 42.9308 16.2773 42.8204 15.9405L41.6493 12.3599L44.7009 10.1519L44.7 10.151C44.861 10.0341 44.965 9.84554 44.965 9.63118C44.965 9.27698 44.6779 8.98994 44.3237 8.98994L40.5563 8.9973L39.4008 5.41758ZM39.4781 9.83542L38.7881 7.69918L38.0981 9.83542C38.0153 10.0939 37.7733 10.2807 37.4872 10.2807L35.2405 10.2761L37.0603 11.5926C37.2802 11.7518 37.3823 12.0397 37.294 12.3121L36.5957 14.4483L38.4007 13.1318C38.6206 12.9653 38.9316 12.9533 39.1662 13.1244L40.9813 14.4483L40.2904 12.336C40.1929 12.0719 40.2775 11.7656 40.5167 11.5926L42.3365 10.2761L40.1202 10.2807C39.8359 10.2945 39.5682 10.1179 39.4781 9.83542ZM23.6136 0.450503L24.7691 4.03022L28.5365 4.02286C28.8907 4.02286 29.1777 4.3099 29.1777 4.6641C29.1777 4.87754 29.0729 5.06706 28.9128 5.1839L28.9137 5.18482L25.8621 7.39282L27.0332 10.9735C27.1427 11.3111 26.9587 11.6736 26.6211 11.7831C26.4012 11.8548 26.1703 11.8005 26.0056 11.6616L23.0009 9.47018L19.9566 11.6911C19.6705 11.8999 19.2694 11.8364 19.0614 11.5503C18.9354 11.3773 18.9087 11.163 18.9704 10.9744L18.9685 10.9735L20.1397 7.39282L17.088 5.18482C16.8001 4.97598 16.7366 4.57394 16.9445 4.2869C17.0798 4.10014 17.2978 4.00722 17.5121 4.02286L21.2326 4.03022L22.39 0.445903C22.4986 0.108263 22.8601 -0.0775768 23.1978 0.0309832C23.4038 0.0972232 23.5529 0.258223 23.6136 0.450503ZM23.6909 4.86834L23.0009 2.7321L22.3109 4.86834C22.2281 5.12686 21.9861 5.31362 21.7 5.31362L19.4543 5.30902L21.274 6.62554C21.4939 6.7847 21.596 7.07266 21.5077 7.34498L20.8094 9.48122L22.6145 8.1647C22.8344 7.99818 23.1453 7.98622 23.3799 8.15734L25.1951 9.48122L24.5042 7.3689C24.4066 7.10486 24.4913 6.7985 24.7305 6.62554L26.5502 5.30902L24.334 5.31362C24.0487 5.3265 23.781 5.15078 23.6909 4.86834ZM19.4754 27.4405L19.4883 35.7803H27.8649C28.1446 35.7803 28.4003 35.6865 28.5972 35.5255C28.795 35.3636 28.9385 35.1336 28.9947 34.8613L30.2394 28.7994C30.2762 28.6209 30.2744 28.4498 30.2348 28.2906C30.1953 28.1315 30.118 27.9787 30.0021 27.8371C29.888 27.6963 29.7546 27.5905 29.6074 27.5206C29.4611 27.4507 29.2937 27.4157 29.1087 27.4157H24.7093C24.3533 27.4157 24.0653 27.1277 24.0653 26.7717C24.0653 26.6788 24.0846 26.5914 24.1205 26.5113L24.2604 26.1139C24.9577 24.1285 25.3276 23.0751 24.3579 22.1745C24.2604 22.0834 24.1536 22.0227 24.0432 21.9923C23.9328 21.9619 23.8086 21.9601 23.6771 21.9886C23.5455 22.0171 23.4333 22.0696 23.3459 22.1423C23.2575 22.2159 23.1858 22.3152 23.1352 22.4385L21.4065 26.5767C21.0588 27.4083 20.2225 27.4672 19.4754 27.4405ZM18.2058 36.336L18.1911 26.8315C18.0651 26.1544 16.9243 25.998 16.9243 27.1912V36.0683C16.9243 37.1456 17.9179 37.3177 18.2058 36.336ZM27.8649 37.0683C28.4464 37.0683 28.9836 36.8669 29.4077 36.5219C29.83 36.1769 30.1355 35.6902 30.2532 35.1189L31.498 29.057C31.5734 28.689 31.5679 28.3283 31.4833 27.9843C31.3986 27.6411 31.2367 27.3191 30.9993 27.0275C30.7611 26.7349 30.4777 26.5113 30.1566 26.3586C29.8356 26.2059 29.4832 26.1277 29.1097 26.1277H25.6164C26.3975 23.8847 26.7305 22.6234 25.2337 21.2333C24.9844 21.0015 24.6946 20.8405 24.3809 20.754C24.0672 20.6675 23.7369 20.6583 23.4057 20.7301C23.0736 20.8018 22.7773 20.9472 22.5262 21.156C22.2759 21.3639 22.079 21.6307 21.9475 21.9454L20.2188 26.0835C20.1765 26.1857 19.7137 26.1682 19.3163 26.1479C18.5104 24.3411 15.6354 24.7284 15.6354 27.1921V36.0692C15.6354 38.4511 18.3705 39.0739 19.2988 37.0683H27.8649ZM23.0009 16.8265C19.3448 16.8265 16.0337 18.3086 13.638 20.7052C11.2414 23.1018 9.75931 26.412 9.75931 30.0681C9.75931 33.7241 11.2414 37.0352 13.638 39.4309C16.0346 41.8275 19.3448 43.3096 23.0009 43.3096C26.6569 43.3096 29.968 41.8275 32.3637 39.4309C34.7603 37.0343 36.2424 33.7241 36.2424 30.0681C36.2424 26.412 34.7603 23.1009 32.3637 20.7052C29.968 18.3086 26.6569 16.8265 23.0009 16.8265ZM31.4529 21.616C29.29 19.4531 26.3018 18.1145 23.0009 18.1145C19.6999 18.1145 16.7118 19.4522 14.5479 21.616C12.385 23.7789 11.0464 26.7671 11.0464 30.0681C11.0464 33.369 12.3841 36.3572 14.5479 38.521C16.7108 40.6839 19.6999 42.0225 23.0009 42.0225C26.3018 42.0225 29.29 40.6849 31.4529 38.521C33.6158 36.3581 34.9544 33.369 34.9544 30.0681C34.9544 26.7671 33.6167 23.7789 31.4529 21.616ZM33.3545 19.7144C30.7049 17.0648 27.0443 15.4263 23.0009 15.4263C18.9575 15.4263 15.2968 17.0648 12.6472 19.7144C9.99759 22.364 8.35907 26.0247 8.35907 30.0681C8.35907 34.1115 9.99759 37.7721 12.6472 40.4217C15.2968 43.0714 18.9575 44.7099 23.0009 44.7099C27.0443 44.7099 30.7049 43.0714 33.3545 40.4217C36.0041 37.7721 37.6427 34.1115 37.6427 30.0681C37.6427 26.0247 36.0041 22.364 33.3545 19.7144Z" fill="#222222"/>
</svg>
