<svg width="171" height="33" viewBox="0 0 171 33" fill="none" xmlns="http://www.w3.org/2000/svg">
<g clip-path="url(#clip0_506_184)">
<path d="M67.5821 7.03906H64V23.2023H73.9164V20.0352H67.5821V7.03906Z" fill="#222222"/>
<path d="M74.2583 17.7195C74.2583 21.1706 76.5736 23.464 80.0683 23.464C83.5412 23.464 85.8565 21.1706 85.8565 17.7195C85.8565 14.2684 83.5412 11.9531 80.0683 11.9531C76.5736 11.9531 74.2583 14.2684 74.2583 17.7195ZM77.6438 17.6976C77.6438 16.0595 78.6049 14.9674 80.0683 14.9674C81.5099 14.9674 82.471 16.0595 82.471 17.6976C82.471 19.3577 81.5099 20.4498 80.0683 20.4498C78.6049 20.4498 77.6438 19.3577 77.6438 17.6976Z" fill="#222222"/>
<path d="M86.3977 17.5494C86.3977 20.8475 88.5383 23.0754 91.5743 23.0754C93.0378 23.0754 94.3046 22.5512 94.938 21.6994V23.2065C94.938 24.7136 93.9988 25.7183 92.3388 25.7183C90.8535 25.7183 89.8269 25.0194 89.7614 23.7744H86.354C86.6598 26.7668 88.9751 28.7762 92.1422 28.7762C95.8772 28.7762 98.2362 26.3518 98.2362 22.5075V12.2854H95.2001L95.0254 13.3993C94.4138 12.5038 93.1251 11.9141 91.6399 11.9141C88.5819 11.9141 86.3977 14.2075 86.3977 17.5494ZM89.8051 17.462C89.8051 15.8893 90.8535 14.8409 92.1859 14.8409C93.7367 14.8409 94.8725 15.8675 94.8725 17.462C94.8725 19.0565 93.7585 20.1486 92.2077 20.1486C90.8754 20.1486 89.8051 19.0565 89.8051 17.462Z" fill="#222222"/>
<path d="M99.2168 17.7195C99.2168 21.1706 101.532 23.464 105.027 23.464C108.5 23.464 110.815 21.1706 110.815 17.7195C110.815 14.2684 108.5 11.9531 105.027 11.9531C101.532 11.9531 99.2168 14.2684 99.2168 17.7195ZM102.602 17.6976C102.602 16.0595 103.563 14.9674 105.027 14.9674C106.468 14.9674 107.429 16.0595 107.429 17.6976C107.429 19.3577 106.468 20.4498 105.027 20.4498C103.563 20.4498 102.602 19.3577 102.602 17.6976Z" fill="#222222"/>
<path d="M113.715 10.5802C114.763 10.5802 115.615 9.72835 115.615 8.65808C115.615 7.58781 114.763 6.75781 113.715 6.75781C112.645 6.75781 111.793 7.58781 111.793 8.65808C111.793 9.72835 112.645 10.5802 113.715 10.5802ZM112.011 23.205H115.397V12.2839H112.011V23.205Z" fill="#222222"/>
<path d="M117.368 28.4502H120.688V22.116C121.321 22.946 122.763 23.5139 124.27 23.5139C127.524 23.5139 129.49 21.0239 129.403 17.5728C129.315 14.0562 127.284 11.9375 124.248 11.9375C122.697 11.9375 121.234 12.6146 120.622 13.6194L120.447 12.287H117.368V28.4502ZM120.753 17.7475C120.753 16.1094 121.845 15.0173 123.418 15.0173C125.012 15.0173 126.017 16.1312 126.017 17.7475C126.017 19.3639 125.012 20.4778 123.418 20.4778C121.845 20.4778 120.753 19.3857 120.753 17.7475Z" fill="#222222"/>
<path d="M129.761 19.757C129.848 21.9631 131.596 23.492 134.348 23.492C136.991 23.492 138.826 22.0941 138.826 19.8444C138.826 18.2281 137.865 17.1578 136.073 16.7209L134.13 16.2404C133.431 16.0657 132.994 15.8909 132.994 15.323C132.994 14.7551 133.452 14.3838 134.13 14.3838C134.894 14.3838 135.396 14.8862 135.375 15.6288H138.411C138.323 13.3572 136.598 11.9375 134.195 11.9375C131.771 11.9375 129.958 13.3791 129.958 15.5633C129.958 17.0267 130.766 18.2281 132.928 18.796L134.85 19.2983C135.418 19.4512 135.658 19.7133 135.658 20.0846C135.658 20.6307 135.156 20.9802 134.304 20.9802C133.321 20.9802 132.797 20.5215 132.797 19.757H129.761Z" fill="#222222"/>
<path d="M143.974 23.4862C145.307 23.4862 146.639 22.8747 147.316 21.9792L147.535 23.2024H150.702V12.2812H147.338V17.9602C147.338 19.5983 146.858 20.4939 145.307 20.4939C144.105 20.4939 143.319 19.9478 143.319 17.9165V12.2812H139.955V19.1397C139.955 21.739 141.397 23.4862 143.974 23.4862Z" fill="#222222"/>
<path d="M156.036 23.2065V17.2436C156.036 15.4088 157.019 14.8846 157.98 14.8846C159.05 14.8846 159.749 15.5399 159.749 16.8941V23.2065H163.069V17.2436C163.069 15.387 164.03 14.8628 164.991 14.8628C166.061 14.8628 166.782 15.518 166.782 16.8941V23.2065H170.059V16.0641C170.059 13.5741 168.748 11.9141 165.93 11.9141C164.358 11.9141 163.069 12.6785 162.501 13.858C161.846 12.6785 160.71 11.9141 158.897 11.9141C157.696 11.9141 156.582 12.4601 155.927 13.3338L155.796 12.2854H152.65V23.2065H156.036Z" fill="#222222"/>
<path d="M0 16.7578C0 7.92125 7.16344 0.757812 16 0.757812H37C45.8366 0.757812 53 7.92125 53 16.7578V32.7578H16C7.16344 32.7578 0 25.5944 0 16.7578Z" fill="#222222"/>
<path d="M37 6.75781H16C10.4772 6.75781 6 11.235 6 16.7578C6 22.2807 10.4772 26.7578 16 26.7578H37C42.5228 26.7578 47 22.2807 47 16.7578C47 11.235 42.5228 6.75781 37 6.75781Z" fill="#222222"/>
<path d="M16 21.7578C18.7614 21.7578 21 19.5192 21 16.7578C21 13.9964 18.7614 11.7578 16 11.7578C13.2386 11.7578 11 13.9964 11 16.7578C11 19.5192 13.2386 21.7578 16 21.7578Z" fill="#222222"/>
<path d="M14 15.7578C14.5523 15.7578 15 15.3101 15 14.7578C15 14.2055 14.5523 13.7578 14 13.7578C13.4477 13.7578 13 14.2055 13 14.7578C13 15.3101 13.4477 15.7578 14 15.7578Z" fill="white"/>
<path d="M38 21.7578C40.7614 21.7578 43 19.5192 43 16.7578C43 13.9964 40.7614 11.7578 38 11.7578C35.2386 11.7578 33 13.9964 33 16.7578C33 19.5192 35.2386 21.7578 38 21.7578Z" fill="#222222"/>
<path d="M36 15.7578C36.5523 15.7578 37 15.3101 37 14.7578C37 14.2055 36.5523 13.7578 36 13.7578C35.4477 13.7578 35 14.2055 35 14.7578C35 15.3101 35.4477 15.7578 36 15.7578Z" fill="white"/>
</g>
<defs>
<clipPath id="clip0_506_184">
<rect width="171" height="32" fill="white" transform="translate(0 0.757812)"/>
</clipPath>
</defs>
</svg>
