<svg width="134" height="36" viewBox="0 0 134 36" fill="none" xmlns="http://www.w3.org/2000/svg">
<path d="M39.0933 11.515H42.3519V24.515H39.0933V11.515ZM43.6513 19.625C43.6513 16.405 45.6816 14.475 48.7271 14.475C51.7725 14.475 53.8028 16.405 53.8028 19.625C53.8028 22.845 51.8436 24.795 48.7271 24.795C45.6105 24.795 43.6513 22.915 43.6513 19.625ZM50.5746 19.625C50.5746 17.855 49.8742 16.815 48.7575 16.815C47.6408 16.815 46.9505 17.815 46.9505 19.625C46.9505 21.435 47.6408 22.425 48.7575 22.425C49.8742 22.425 50.5949 21.435 50.5949 19.635L50.5746 19.625ZM55.1022 25.185H58.2492C58.3924 25.5187 58.6426 25.7972 58.9616 25.9777C59.2806 26.1583 59.6507 26.2311 60.0155 26.185C61.2642 26.185 61.9139 25.525 61.9139 24.545V22.745H61.924C61.6551 23.3055 61.2202 23.7726 60.6767 24.085C60.1331 24.3974 59.5062 24.5403 58.8786 24.495C56.493 24.495 54.9093 22.705 54.9093 19.625C54.9093 16.545 56.4219 14.625 58.9699 14.625C59.6136 14.5911 60.2523 14.7546 60.7976 15.0931C61.343 15.4316 61.7685 15.9284 62.0154 16.515H61.924V14.705H65.1522V24.445C65.1522 26.795 63.0407 28.265 59.9343 28.265C57.1122 28.255 55.3052 26.985 55.1225 25.195L55.1022 25.185ZM61.924 19.625C61.924 18.055 61.1931 17.065 60.0358 17.065C58.8786 17.065 58.168 18.065 58.168 19.625C58.168 21.185 58.8684 22.105 60.0358 22.105C61.2033 22.105 61.924 21.255 61.924 19.625ZM66.4414 19.625C66.4414 16.405 68.4717 14.475 71.5172 14.475C74.5627 14.475 76.593 16.405 76.593 19.625C76.593 22.845 74.6236 24.795 71.5172 24.795C68.4108 24.795 66.4617 22.915 66.4617 19.625H66.4414ZM73.3648 19.625C73.3648 17.855 72.6542 16.815 71.5477 16.815C70.4411 16.815 69.7407 17.815 69.7407 19.625C69.7407 21.435 70.431 22.425 71.5477 22.425C72.6643 22.425 73.3851 21.435 73.3851 19.635L73.3648 19.625ZM77.9127 12.335C77.8984 12.008 77.9839 11.6843 78.158 11.4056C78.3321 11.1268 78.5869 10.9058 78.8896 10.7709C79.1924 10.6359 79.5291 10.5933 79.8566 10.6485C80.1841 10.7036 80.4873 10.854 80.7273 11.0803C80.9672 11.3067 81.133 11.5985 81.2033 11.9184C81.2734 12.2383 81.2449 12.5716 81.1212 12.8753C80.9976 13.1791 80.7845 13.4395 80.5094 13.623C80.2343 13.8065 79.9098 13.9047 79.5775 13.905C79.3652 13.9103 79.1539 13.874 78.9559 13.7983C78.758 13.7225 78.5772 13.6087 78.4242 13.4636C78.2712 13.3185 78.149 13.1449 78.0647 12.9528C77.9804 12.7608 77.9356 12.5542 77.933 12.345L77.9127 12.335ZM77.9127 14.695H81.2119V24.555H77.9634L77.9127 14.695ZM93.079 19.625C93.079 22.835 91.6172 24.695 89.1301 24.695C88.4934 24.7337 87.8599 24.5789 87.3153 24.2517C86.7707 23.9244 86.3412 23.4404 86.0846 22.865H86.0237V27.725H82.7651V14.725H86.0034V16.485H86.0643C86.312 15.8983 86.7374 15.401 87.2823 15.061C87.8273 14.721 88.4655 14.5548 89.1098 14.585C91.668 14.565 93.1399 16.415 93.1399 19.635L93.079 19.625ZM89.7595 19.625C89.7595 18.065 89.0184 17.055 87.8713 17.055C86.7242 17.055 86.0034 18.055 85.9933 19.625C85.9831 21.195 86.7242 22.185 87.8713 22.185C89.0184 22.185 89.8204 21.255 89.8204 19.635L89.7595 19.625ZM98.642 14.465C101.373 14.465 103.068 15.735 103.088 17.775H100.114C100.114 17.065 99.5151 16.625 98.6217 16.625C97.7284 16.625 97.302 16.965 97.302 17.475C97.302 17.985 97.6777 18.145 98.4289 18.295L100.52 18.715C102.55 19.135 103.363 19.935 103.363 21.425C103.363 23.425 101.484 24.785 98.6928 24.785C95.9011 24.785 94.084 23.465 93.9521 21.455H97.1092C97.2005 22.185 97.7893 22.615 98.7436 22.615C99.6978 22.615 100.144 22.315 100.144 21.785C100.144 21.255 99.8399 21.165 99.0583 21.005L97.1701 20.615C95.2108 20.205 94.1855 19.195 94.1855 17.685C94.2464 15.725 95.9519 14.475 98.703 14.475L98.642 14.465ZM114.275 24.545H111.118V22.695H111.057C110.881 23.3121 110.496 23.8514 109.966 24.224C109.436 24.5967 108.794 24.7804 108.144 24.745C107.654 24.7607 107.164 24.6741 106.71 24.4907C106.257 24.3074 105.847 24.0315 105.509 23.6812C105.169 23.3308 104.911 22.9139 104.747 22.4579C104.584 22.0019 104.52 21.5169 104.56 21.035V14.705H107.819V20.345C107.819 21.505 108.438 22.135 109.453 22.135C109.692 22.1332 109.926 22.0811 110.143 21.9823C110.359 21.8834 110.551 21.74 110.705 21.5618C110.86 21.3836 110.975 21.1747 111.041 20.9493C111.106 20.7238 111.122 20.4871 111.088 20.255V14.705H114.336L114.275 24.545ZM115.849 14.695H119.016V16.595H119.087C119.262 15.9863 119.637 15.452 120.153 15.0756C120.67 14.6993 121.298 14.5021 121.94 14.515C122.584 14.4598 123.227 14.6434 123.741 15.0299C124.255 15.4164 124.605 15.9781 124.721 16.605H124.863C125.066 15.9747 125.475 15.4281 126.026 15.0502C126.576 14.6722 127.239 14.4841 127.909 14.515C128.355 14.4983 128.799 14.5745 129.212 14.7386C129.627 14.9026 130 15.1509 130.31 15.4672C130.619 15.7834 130.857 16.1605 131.008 16.5737C131.16 16.9869 131.221 17.4269 131.188 17.865V24.555H127.909V18.685C127.909 17.685 127.432 17.125 126.508 17.125C126.303 17.1217 126.1 17.1621 125.912 17.2433C125.724 17.3246 125.558 17.4449 125.422 17.5959C125.286 17.747 125.184 17.9251 125.124 18.1183C125.065 18.3115 125.049 18.515 125.077 18.715V24.555H121.97V18.655C121.97 17.655 121.473 17.125 120.579 17.125C120.372 17.1234 120.167 17.1654 119.979 17.2482C119.789 17.3311 119.62 17.4528 119.482 17.6053C119.345 17.7578 119.243 17.9375 119.182 18.1323C119.12 18.3272 119.101 18.5327 119.128 18.735V24.555H115.869L115.849 14.695Z" fill="#222222"/>
<path d="M32.6472 12.3649C32.6473 10.3746 32.0372 8.43061 30.8967 6.78767C29.7563 5.14473 28.1387 3.87938 26.2559 3.15738C24.3731 2.43537 22.3127 2.29037 20.3449 2.74136C18.3769 3.19235 16.5932 4.21831 15.2272 5.68485H2.55811V32.0249H29.3073V19.7149C30.3572 18.7899 31.1973 17.6572 31.7728 16.3907C32.3483 15.1242 32.6463 13.7525 32.6472 12.3649ZM27.5004 12.3649C27.5024 13.3186 27.2171 14.2515 26.6807 15.0455C26.1442 15.8394 25.3808 16.4588 24.4869 16.8251C23.5929 17.1915 22.6089 17.2884 21.659 17.1035C20.7092 16.9187 19.8364 16.4604 19.151 15.7867C18.4657 15.113 17.9987 14.2542 17.8091 13.3189C17.6195 12.3837 17.7158 11.414 18.0858 10.5327C18.4559 9.65131 19.083 8.89794 19.8878 8.36787C20.6928 7.8378 21.6392 7.55486 22.6073 7.55485C23.9033 7.55485 25.1463 8.0613 26.0636 8.96306C26.981 9.86482 27.4977 11.0883 27.5004 12.3649ZM24.1605 26.9549H7.70492V10.7549H12.7198C12.6229 11.2864 12.5719 11.825 12.5675 12.3649C12.5702 14.9871 13.6288 17.5011 15.5111 19.3553C17.3933 21.2094 19.9454 22.2523 22.6073 22.2549C23.1278 22.2522 23.6471 22.2087 24.1605 22.1249V26.9549Z" fill="#222222"/>
</svg>
