<svg width="124" height="33" viewBox="0 0 124 33" fill="none" xmlns="http://www.w3.org/2000/svg">
<path d="M36.8701 10.8275H39.8701V22.9575H36.8701V10.8275ZM41.0601 18.3775C41.0601 15.3775 42.9001 13.5875 45.7401 13.5875C48.5801 13.5875 50.4201 15.3775 50.4201 18.3775C50.4201 21.3775 48.6201 23.1775 45.7401 23.1775C42.8601 23.1775 41.0601 21.4275 41.0601 18.3775ZM47.4101 18.3775C47.4101 16.7275 46.7601 15.7575 45.7401 15.7575C44.7201 15.7575 44.0801 16.7575 44.0801 18.3775C44.0801 19.9975 44.7101 20.9775 45.7401 20.9775C46.7701 20.9775 47.4101 20.0575 47.4101 18.3875V18.3775ZM51.5501 23.5475H54.4301C54.5672 23.852 54.7989 24.1041 55.0908 24.2663C55.3827 24.4284 55.7192 24.492 56.0501 24.4475C57.1901 24.4475 57.7901 23.8275 57.7901 22.9275V21.2475H57.7301C57.4911 21.7624 57.1032 22.1938 56.6166 22.4862C56.13 22.7785 55.5669 22.9183 55.0001 22.8875C52.8101 22.8875 51.3601 21.2175 51.3601 18.3475C51.3601 15.4775 52.7401 13.6675 55.0401 13.6675C55.6247 13.6446 56.2023 13.8009 56.6956 14.1154C57.1889 14.43 57.5743 14.8878 57.8001 15.4275V13.7575H60.8001V22.8575C60.8001 25.0475 58.8701 26.4075 56.0201 26.4075C53.3701 26.4075 51.7201 25.2175 51.5501 23.5575V23.5475ZM57.8001 18.3675C57.8001 16.9075 57.1301 15.9875 56.0701 15.9875C55.0101 15.9875 54.3601 16.8975 54.3601 18.3675C54.3601 19.8375 55.0001 20.6675 56.0701 20.6675C57.1401 20.6675 57.8001 19.8575 57.8001 18.3775V18.3675ZM61.9301 18.3675C61.9301 15.3675 63.7701 13.5775 66.6101 13.5775C69.4501 13.5775 71.3001 15.3675 71.3001 18.3675C71.3001 21.3675 69.5001 23.1675 66.6101 23.1675C63.7201 23.1675 61.9301 21.4275 61.9301 18.3775V18.3675ZM68.2801 18.3675C68.2801 16.7175 67.6301 15.7475 66.6101 15.7475C65.5901 15.7475 65.0001 16.7575 65.0001 18.3875C65.0001 20.0175 65.6301 20.9875 66.6501 20.9875C67.6701 20.9875 68.2801 20.0575 68.2801 18.3875V18.3675ZM72.4401 11.5775C72.4322 11.2746 72.5145 10.9762 72.6764 10.7201C72.8384 10.464 73.0727 10.2618 73.3497 10.139C73.6267 10.0163 73.9339 9.97851 74.2324 10.0306C74.5309 10.0826 74.8072 10.2221 75.0263 10.4314C75.2455 10.6407 75.3975 10.9103 75.4632 11.2061C75.5289 11.5019 75.5053 11.8105 75.3953 12.0929C75.2854 12.3752 75.0941 12.6186 74.8457 12.7921C74.5974 12.9656 74.303 13.0615 74.0001 13.0675C73.7993 13.0813 73.5978 13.0534 73.4083 12.9856C73.2187 12.9178 73.0453 12.8116 72.8988 12.6735C72.7523 12.5355 72.6359 12.3686 72.557 12.1834C72.478 11.9983 72.4382 11.7988 72.4401 11.5975V11.5775ZM72.4401 13.7775H75.4401V22.9575H72.4401V13.7775ZM86.3301 18.3675C86.3301 21.3675 85.0001 23.0775 82.7201 23.0775C82.1355 23.115 81.5534 22.9721 81.0526 22.6681C80.5518 22.364 80.1565 21.9135 79.9201 21.3775H79.8601V25.8975H76.8601V13.7575H79.8601V15.3975H79.9201C80.1455 14.8526 80.5333 14.3904 81.0307 14.0737C81.5281 13.757 82.111 13.6012 82.7001 13.6275C85.0001 13.6675 86.3701 15.3875 86.3701 18.3875L86.3301 18.3675ZM83.3301 18.3675C83.3301 16.9075 82.6601 15.9775 81.6101 15.9775C80.5601 15.9775 79.8901 16.9175 79.8801 18.3675C79.8701 19.8175 80.5601 20.7475 81.6101 20.7475C82.6601 20.7475 83.3301 19.8375 83.3301 18.3875V18.3675ZM91.4801 13.5675C93.9701 13.5675 95.4801 14.7475 95.5501 16.6375H92.8201C92.8201 15.9875 92.2801 15.5775 91.4501 15.5775C90.6201 15.5775 90.2501 15.8975 90.2501 16.3675C90.2501 16.8375 90.5801 16.9875 91.2501 17.1275L93.1701 17.5175C95.0001 17.9075 95.7801 18.6475 95.7801 20.0375C95.7801 21.9375 94.0501 23.1575 91.5001 23.1575C88.9501 23.1575 87.2801 21.9375 87.1501 20.0675H90.0401C90.1301 20.7475 90.6701 21.1475 91.5501 21.1475C92.4301 21.1475 92.8301 20.8575 92.8301 20.3775C92.8301 19.8975 92.5501 19.7975 91.8301 19.6475L90.1001 19.2775C88.3101 18.9075 87.3701 17.9575 87.3701 16.5575C87.3901 14.7575 89.0001 13.5875 91.4801 13.5875V13.5675ZM105.79 22.9375H102.9V21.2275H102.84C102.681 21.8016 102.331 22.3041 101.847 22.6516C101.363 22.999 100.775 23.1705 100.18 23.1375C99.7243 23.1634 99.2683 23.0912 98.8428 22.9257C98.4173 22.7602 98.0323 22.5054 97.7138 22.1783C97.3953 21.8513 97.1506 21.4596 96.9965 21.0299C96.8423 20.6002 96.7822 20.1424 96.8201 19.6875V13.7575H99.8201V18.9975C99.8201 20.0875 100.38 20.6675 101.31 20.6675C101.528 20.6679 101.744 20.6218 101.943 20.5321C102.141 20.4424 102.319 20.3112 102.463 20.1474C102.606 19.9835 102.714 19.7908 102.777 19.5822C102.84 19.3735 102.859 19.1537 102.83 18.9375V13.7575H105.83L105.79 22.9375ZM107.24 13.7575H110.14V15.5275H110.2C110.359 14.961 110.702 14.4632 111.174 14.1122C111.646 13.7612 112.222 13.5766 112.81 13.5875C113.409 13.5396 114.003 13.7187 114.476 14.0893C114.948 14.4599 115.264 14.9947 115.36 15.5875H115.42C115.601 14.9884 115.977 14.4668 116.488 14.1047C116.998 13.7426 117.615 13.5606 118.24 13.5875C118.648 13.5738 119.054 13.6461 119.432 13.7997C119.811 13.9532 120.152 14.1847 120.435 14.4789C120.718 14.7732 120.936 15.1237 121.075 15.5076C121.213 15.8915 121.27 16.3004 121.24 16.7075V22.9575H118.24V17.5075C118.24 16.5075 117.79 16.0475 116.95 16.0475C116.763 16.0459 116.577 16.0845 116.406 16.1607C116.235 16.2369 116.082 16.3489 115.958 16.4892C115.834 16.6295 115.741 16.7947 115.686 16.9738C115.631 17.153 115.616 17.3418 115.64 17.5275V22.9575H112.79V17.4675C112.79 16.5475 112.34 16.0475 111.52 16.0475C111.331 16.0476 111.143 16.0878 110.971 16.1655C110.798 16.2433 110.643 16.3568 110.518 16.4985C110.392 16.6402 110.298 16.807 110.241 16.9879C110.185 17.1687 110.167 17.3594 110.19 17.5475V22.9575H107.19L107.24 13.7575Z" fill="#222222"/>
<path d="M28.4801 11.3787C27.9712 10.215 27.2977 9.13061 26.4801 8.15868C25.2716 6.67902 23.7634 5.47207 22.0548 4.61728C20.3462 3.7625 18.4759 3.27925 16.5671 3.19934C14.6583 3.11943 12.7542 3.44467 10.9801 4.15367C9.20606 4.86266 7.60226 5.93933 6.27429 7.31281C4.94631 8.68628 3.92426 10.3254 3.27541 12.1224C2.62656 13.9193 2.36561 15.8333 2.50975 17.7383C2.6539 19.6434 3.19985 21.4963 4.11169 23.1751C5.02353 24.854 6.28059 26.3207 7.80011 27.4787C8.77511 28.2366 9.85246 28.8527 11.0001 29.3087C12.6091 29.9681 14.3312 30.3077 16.0701 30.3087C19.6595 30.3008 23.0993 28.87 25.6356 26.33C28.1718 23.79 29.5975 20.3481 29.6001 16.7587C29.6027 14.9072 29.2214 13.0753 28.4801 11.3787ZM16.0601 5.94867C17.6217 5.94851 19.1644 6.28981 20.5801 6.94867C20.2349 7.09784 19.8719 7.20203 19.5001 7.25868C18.2767 7.43577 17.1434 8.00375 16.2693 8.87785C15.3952 9.75194 14.8272 10.8853 14.6501 12.1087C14.5724 12.7948 14.2603 13.4331 13.7666 13.9159C13.2729 14.3987 12.6278 14.6963 11.9401 14.7587C10.7167 14.9358 9.58336 15.5038 8.70927 16.3779C7.83518 17.252 7.2672 18.3853 7.09011 19.6087C7.03015 20.2611 6.7518 20.8742 6.30011 21.3487C5.52076 19.702 5.17065 17.8848 5.28237 16.0664C5.39409 14.248 5.964 12.4874 6.93907 10.9484C7.91413 9.40947 9.26268 8.14219 10.8592 7.26452C12.4557 6.38685 14.2483 5.92732 16.0701 5.92867L16.0601 5.94867ZM7.7901 23.7587C7.9101 23.6487 8.03011 23.5487 8.1501 23.4287C9.03975 22.5662 9.61081 21.4276 9.7701 20.1987C9.83468 19.5079 10.1431 18.8627 10.6401 18.3787C11.1184 17.8809 11.7621 17.575 12.4501 17.5187C13.6735 17.3416 14.8068 16.7736 15.6809 15.8995C16.555 15.0254 17.123 13.8921 17.3001 12.6687C17.3434 11.9462 17.6534 11.2655 18.1701 10.7587C18.6602 10.2705 19.31 9.97578 20.0001 9.92867C21.124 9.77404 22.1722 9.27439 23.0001 8.49868C23.9428 9.28075 24.7414 10.2216 25.3601 11.2787C25.3221 11.33 25.2785 11.377 25.2301 11.4187C24.7528 11.9209 24.1099 12.2335 23.4201 12.2987C22.1954 12.4727 21.0604 13.0397 20.1857 13.9143C19.3111 14.789 18.7441 15.924 18.5701 17.1487C18.4996 17.8371 18.1933 18.48 17.7031 18.9684C17.2128 19.4569 16.5688 19.7608 15.8801 19.8287C14.6531 20.0044 13.5156 20.5713 12.6364 21.445C11.7573 22.3188 11.1834 23.4528 11.0001 24.6787C10.9463 25.1674 10.7784 25.6367 10.5101 26.0487C9.4841 25.4395 8.56519 24.6659 7.7901 23.7587ZM16.0601 27.6187C15.0454 27.6198 14.0355 27.4784 13.0601 27.1987C13.3938 26.5767 13.6107 25.8988 13.7001 25.1987C13.7702 24.5118 14.0751 23.8701 14.5633 23.3819C15.0515 22.8937 15.6932 22.5888 16.3801 22.5187C17.6053 22.3436 18.7409 21.7765 19.617 20.9022C20.493 20.028 21.0625 18.8935 21.2401 17.6687C21.3102 16.9818 21.6151 16.3401 22.1033 15.8519C22.5915 15.3637 23.2332 15.0588 23.9201 14.9887C24.8421 14.8688 25.7209 14.5255 26.4801 13.9887C26.9017 15.5866 26.9516 17.2598 26.6261 18.88C26.3006 20.5002 25.6082 22.0244 24.6022 23.3355C23.5962 24.6465 22.3033 25.7098 20.8225 26.4436C19.3418 27.1774 17.7127 27.5623 16.0601 27.5687V27.6187Z" fill="#222222"/>
</svg>
