<svg width="130" height="41" viewBox="0 0 130 41" fill="none" xmlns="http://www.w3.org/2000/svg">
<path d="M19.9607 2.8125C17.6084 2.8125 15.2789 3.27681 13.1056 4.17876C10.9322 5.08081 8.95753 6.40286 7.29404 8.06953C5.63065 9.73629 4.31121 11.7149 3.41093 13.8925C2.51076 16.0701 2.04736 18.4042 2.04736 20.7612C2.04736 23.1182 2.51076 25.4523 3.41093 27.6299C4.31121 29.8076 5.63065 31.7861 7.29404 33.4529C8.95753 35.1196 10.9322 36.4416 13.1056 37.3437C15.2789 38.2456 17.6084 38.7099 19.9607 38.7099V29.7356C18.7845 29.7356 17.6198 29.5035 16.5332 29.0524C15.4465 28.6014 14.4591 27.9404 13.6274 27.1071C12.7957 26.2737 12.136 25.2844 11.6859 24.1956C11.2357 23.1068 11.0041 21.9398 11.0041 20.7612C11.0041 19.5827 11.2357 18.4157 11.6859 17.3269C12.136 16.238 12.7957 15.2487 13.6274 14.4154C14.4591 13.582 15.4465 12.921 16.5332 12.47C17.6198 12.019 18.7845 11.7869 19.9607 11.7869V2.8125Z" fill="#222222"/>
<path d="M19.9608 26.7392C23.2586 26.7392 25.9319 24.0606 25.9319 20.7563C25.9319 17.452 23.2586 14.7734 19.9608 14.7734C16.663 14.7734 13.9897 17.452 13.9897 20.7563C13.9897 24.0606 16.663 26.7392 19.9608 26.7392Z" fill="#222222"/>
<path d="M2.04736 20.7578C2.04736 23.1148 2.51076 25.4489 3.41093 27.6265C4.31121 29.8042 5.63065 31.7827 7.29404 33.4495C8.95753 35.1162 10.9322 36.4382 13.1056 37.3403C15.2789 38.2422 17.6084 38.7065 19.9607 38.7065C22.3131 38.7065 24.6426 38.2422 26.8159 37.3403C28.9893 36.4382 30.964 35.1162 32.6275 33.4495C34.2908 31.7827 35.6103 29.8042 36.5106 27.6265C37.4107 25.4489 37.8741 23.1148 37.8741 20.7578H28.9174C28.9174 21.9364 28.6858 23.1034 28.2356 24.1922C27.7855 25.281 27.1258 26.2703 26.2941 27.1037C25.4624 27.937 24.475 28.598 23.3883 29.049C22.3017 29.5001 21.137 29.7322 19.9607 29.7322C18.7845 29.7322 17.6198 29.5001 16.5332 29.049C15.4465 28.598 14.4591 27.937 13.6274 27.1037C12.7957 26.2703 12.136 25.281 11.6859 24.1922C11.2357 23.1034 11.0041 21.9364 11.0041 20.7578H2.04736Z" fill="#222222"/>
<path d="M25.932 20.7564C25.932 19.1696 25.3029 17.6479 24.1832 16.5258C23.0633 15.4038 21.5446 14.7734 19.9609 14.7734C18.3773 14.7734 16.8585 15.4038 15.7387 16.5258C14.6189 17.6479 13.9897 19.1696 13.9897 20.7564H19.9609H25.932Z" fill="#222222"/>
<path d="M47.2297 14.0156H45.0049V26.4002H47.2297V14.0156Z" fill="#222222"/>
<path d="M48.6821 22.0104C48.6821 24.8765 50.6598 26.6458 53.2731 26.6458C55.8864 26.6458 57.864 24.8765 57.864 22.0104C57.864 19.1442 55.8864 17.375 53.2731 17.375C50.6598 17.375 48.6821 19.1442 48.6821 22.0104ZM50.907 22.0104C50.907 20.3119 51.8958 19.3212 53.2731 19.3212C54.6504 19.3212 55.6392 20.3119 55.6392 22.0104C55.6392 23.7088 54.6504 24.6996 53.2731 24.6996C51.8958 24.6996 50.907 23.7088 50.907 22.0104Z" fill="#222222"/>
<path d="M65.8148 17.6227V18.808H65.6382C65.1085 18.0473 64.2609 17.375 62.7424 17.375C60.6588 17.375 58.7871 19.1442 58.7871 21.8688C58.7871 24.5935 60.6588 26.3627 62.7424 26.3627C64.2609 26.3627 65.1085 25.6726 65.6029 24.9827H65.7795V25.8319C65.7795 27.5304 64.7907 28.3088 63.3427 28.3088C61.8948 28.3088 61.1532 27.5304 60.853 26.5219L58.8577 27.3888C59.3168 28.7157 60.6588 30.1842 63.3781 30.1842C66.1679 30.1842 68.0043 28.7157 68.0043 25.8849V17.6227H65.8148ZM63.4134 24.4519C62.0361 24.4519 61.012 23.4612 61.012 21.8688C61.012 20.2765 62.0361 19.2858 63.4134 19.2858C64.7907 19.2858 65.8148 20.2765 65.8148 21.8688C65.8148 23.4612 64.7907 24.4519 63.4134 24.4519Z" fill="#222222"/>
<path d="M69.4438 22.0104C69.4438 24.8765 71.4215 26.6458 74.0348 26.6458C76.6481 26.6458 78.6256 24.8765 78.6256 22.0104C78.6256 19.1442 76.6481 17.375 74.0348 17.375C71.4215 17.375 69.4438 19.1442 69.4438 22.0104ZM71.6687 22.0104C71.6687 20.3119 72.6575 19.3212 74.0348 19.3212C75.4121 19.3212 76.4009 20.3119 76.4009 22.0104C76.4009 23.7088 75.4121 24.6996 74.0348 24.6996C72.6575 24.6996 71.6687 23.7088 71.6687 22.0104Z" fill="#222222"/>
<path d="M80.3716 15.0762C80.3716 15.9786 81.0605 16.5978 81.9439 16.5978C82.8262 16.5978 83.5151 15.9786 83.5151 15.0762C83.5151 14.174 82.8262 13.5547 81.9439 13.5547C81.0605 13.5547 80.3716 14.174 80.3716 15.0762ZM83.0555 17.6239H80.8312V26.3993H83.0555V17.6239Z" fill="#222222"/>
<path d="M85.0386 29.9365H87.2639V25.2658H87.44C87.9344 25.9735 88.782 26.6458 90.301 26.6458C92.3841 26.6458 94.2563 24.8765 94.2563 22.0104C94.2563 19.1442 92.3841 17.375 90.301 17.375C88.782 17.375 87.9344 18.0473 87.4052 18.8081H87.2281V17.6227H85.0386V29.9365ZM89.6295 24.735C88.2527 24.735 87.2281 23.7442 87.2281 22.0104C87.2281 20.2765 88.2527 19.2858 89.6295 19.2858C91.0073 19.2858 92.0309 20.2765 92.0309 22.0104C92.0309 23.7442 91.0073 24.735 89.6295 24.735Z" fill="#222222"/>
<path d="M95.5542 20.082C95.5542 21.8158 97.0016 22.4527 98.838 22.8066L99.2976 22.895C100.392 23.1073 100.886 23.3727 100.886 23.9389C100.886 24.5051 100.392 24.9473 99.3682 24.9473C98.3436 24.9473 97.5144 24.5227 97.2841 23.2488L95.2358 23.7796C95.5368 25.6196 97.0722 26.6458 99.3682 26.6458C101.593 26.6458 103.041 25.602 103.041 23.762C103.041 21.9219 101.558 21.4266 99.5801 21.0374L99.1205 20.9488C98.2023 20.7719 97.7079 20.5242 97.7079 19.9404C97.7079 19.4097 98.1675 19.0735 99.0151 19.0735C99.8626 19.0735 100.462 19.4273 100.674 20.3827L102.688 19.7635C102.264 18.3481 100.975 17.375 99.0151 17.375C96.931 17.375 95.5542 18.3481 95.5542 20.082Z" fill="#222222"/>
<path d="M113.035 26.4004V17.625H110.81V22.1542C110.81 23.7819 110.016 24.7373 108.656 24.7373C107.455 24.7373 106.784 24.0827 106.784 22.7558V17.625H104.559V22.8619C104.559 25.0381 105.919 26.5419 107.968 26.5419C109.574 26.5419 110.316 25.8342 110.669 25.0912H110.845V26.4004H113.035Z" fill="#222222"/>
<path d="M115.008 17.6259V26.4013H117.233V21.1644C117.233 19.9613 117.798 19.289 118.822 19.289C119.705 19.289 120.234 19.7844 120.234 20.7398V26.4013H122.46V21.1644C122.46 19.9613 123.025 19.289 124.048 19.289C124.932 19.289 125.461 19.7844 125.461 20.7398V26.4013H127.686V20.6336C127.686 18.5105 126.379 17.4844 124.755 17.4844C123.325 17.4844 122.672 18.1213 122.248 18.8644H122.071C121.664 18.0329 120.941 17.4844 119.669 17.4844C118.398 17.4844 117.709 18.0505 117.374 18.7228H117.197V17.6259H115.008Z" fill="#222222"/>
</svg>
