<svg width="23" height="23" viewBox="0 0 23 23" fill="none" xmlns="http://www.w3.org/2000/svg">
<g clip-path="url(#clip0_888_399)">
<path d="M19.6318 3.36824C17.4597 1.19618 14.5718 0 11.5 0C9.16271 0 6.91235 0.697861 4.99226 2.01807C4.78782 2.15863 4.73607 2.43831 4.87663 2.64275C5.01723 2.84715 5.29683 2.8989 5.50131 2.75838C7.27096 1.54158 9.34528 0.898438 11.5 0.898438C17.3457 0.898438 22.1016 5.65427 22.1016 11.5C22.1016 17.3457 17.3457 22.1016 11.5 22.1016C5.65427 22.1016 0.898438 17.3457 0.898438 11.5C0.898438 9.34501 1.54154 7.27079 2.75816 5.50163C2.89872 5.29719 2.84697 5.0175 2.64257 4.87694C2.43813 4.73643 2.1585 4.78809 2.01789 4.99253C0.697771 6.91217 0 9.16245 0 11.5C0 14.5718 1.19618 17.4597 3.36824 19.6318C5.54035 21.8038 8.42824 23 11.5 23C14.5718 23 17.4597 21.8038 19.6318 19.6318C21.8038 17.4597 23 14.5718 23 11.5C23 8.42824 21.8038 5.54035 19.6318 3.36824Z" fill="#FD3B3B"/>
<path d="M11.5 20.7578C16.6026 20.7578 20.7539 16.6065 20.7539 11.5039C20.7539 10.4436 20.5741 9.42465 20.2444 8.47523C20.2434 8.47276 20.2427 8.4702 20.2417 8.46777C18.9823 4.85196 15.5396 2.25 11.5 2.25C6.39741 2.25 2.24609 6.40128 2.24609 11.5039C2.24609 16.6065 6.39741 20.7578 11.5 20.7578ZM19.8555 11.5039C19.8555 11.7189 19.8473 11.932 19.8313 12.1429C19.3597 12.1675 18.9 12.2375 18.4562 12.3481C18.602 11.118 18.4186 9.85604 17.9308 8.7214C18.4487 8.8099 18.9647 8.90908 19.4782 9.01887C19.7233 9.8042 19.8555 10.6389 19.8555 11.5039ZM16.8495 8.55245C17.5323 9.79086 17.7655 11.2641 17.4999 12.6585C15.4494 13.486 13.8595 15.2215 13.2307 17.3642C12.1064 17.6951 10.8935 17.6951 9.76925 17.3642C9.14052 15.2215 7.55056 13.486 5.50005 12.6585C5.23448 11.2643 5.4678 9.79072 6.15048 8.55249C7.92197 8.30183 9.71202 8.17452 11.5 8.17452C13.2879 8.17452 15.0779 8.30179 16.8495 8.55245ZM4.54376 12.3481C4.09993 12.2376 3.64029 12.1675 3.16874 12.1429C3.15271 11.932 3.14453 11.7189 3.14453 11.5039C3.14453 10.6389 3.27669 9.8042 3.52183 9.01887C4.03529 8.90908 4.55121 8.8099 5.06921 8.7214C4.58154 9.85599 4.39799 11.1181 4.54376 12.3481ZM3.28873 13.0511C6.57158 13.3086 9.16406 16.0623 9.16406 19.4102C9.16406 19.4487 9.16334 19.4875 9.16263 19.5262C6.17303 18.6537 3.87168 16.1519 3.28873 13.0511ZM10.055 19.734C10.0597 19.6258 10.0625 19.5177 10.0625 19.4101C10.0625 19.0489 10.0356 18.6939 9.98456 18.3466C10.4823 18.456 10.991 18.511 11.5 18.511C12.0088 18.511 12.5177 18.456 13.0154 18.3466C12.9644 18.6939 12.9375 19.0489 12.9375 19.4102C12.9375 19.5177 12.9403 19.6259 12.945 19.734C12.4755 19.8162 11.9927 19.8594 11.5 19.8594C11.0073 19.8594 10.5245 19.8162 10.055 19.734ZM13.8374 19.5262C13.8367 19.4875 13.8359 19.4487 13.8359 19.4102C13.8359 16.0623 16.4285 13.3087 19.7113 13.0511C19.1283 16.1519 16.827 18.6537 13.8374 19.5262ZM11.5 3.14844C14.8655 3.14844 17.7722 5.14872 19.0948 8.02264C16.597 7.5276 14.0464 7.27613 11.5 7.27613C8.95351 7.27613 6.40285 7.52765 3.90519 8.02269C5.22783 5.14867 8.13454 3.14844 11.5 3.14844Z" fill="#FD3B3B"/>
<path d="M9.25391 11.4961C9.25391 12.7346 10.2615 13.7422 11.5 13.7422C12.7385 13.7422 13.7461 12.7346 13.7461 11.4961C13.7461 10.2576 12.7385 9.25 11.5 9.25C10.2615 9.25 9.25391 10.2576 9.25391 11.4961ZM11.5 10.1484C12.2431 10.1484 12.8477 10.753 12.8477 11.4961C12.8477 12.2392 12.2431 12.8438 11.5 12.8438C10.7569 12.8438 10.1523 12.2392 10.1523 11.4961C10.1523 10.753 10.7569 10.1484 11.5 10.1484Z" fill="#FD3B3B"/>
<path d="M3.68554 4.13289C3.80058 4.13289 3.91563 4.08896 4.00336 4.00122C4.17878 3.82581 4.17878 3.54136 4.00336 3.36594C3.82794 3.19052 3.54354 3.19052 3.36807 3.36594L3.36785 3.36616C3.19243 3.54158 3.19252 3.82589 3.36794 4.00131C3.45563 4.08909 3.57058 4.13289 3.68554 4.13289Z" fill="#FD3B3B"/>
</g>
<defs>
<clipPath id="clip0_888_399">
<rect width="23" height="23" fill="white"/>
</clipPath>
</defs>
</svg>
