<svg width="23" height="24" viewBox="0 0 23 24" fill="none" xmlns="http://www.w3.org/2000/svg">
<path d="M16.0971 23.3526H6.90332V17.7969H16.0971V23.3526ZM7.52494 22.7039H15.4755V18.4455H7.52494V22.7039Z" fill="#FD3B3B"/>
<path d="M16.0094 23.3521H15.7732L15.7981 22.7035C18.6607 22.8235 19.074 20.3521 19.0896 20.2483V20.2127C19.6739 17.9424 18.1944 17.4819 18.1323 17.4656C17.1626 17.1413 16.0126 18.3381 16.0032 18.351L15.5557 17.897C15.6147 17.8354 16.973 16.3986 18.3063 16.8429C18.8175 17.0133 19.2504 17.3749 19.5216 17.8581C19.8915 18.5067 19.9505 19.3597 19.6957 20.3683C19.6522 20.6408 19.0772 23.3521 16.0094 23.3521Z" fill="#FD3B3B"/>
<path d="M6.99041 23.3528C3.92271 23.3528 3.34771 20.6414 3.29798 20.3657C3.04311 19.3571 3.10217 18.5138 3.47203 17.8555C3.74886 17.3642 4.19266 16.9995 4.71527 16.8338C6.03311 16.3928 7.38825 17.8328 7.4473 17.8944L6.99973 18.3484C6.99973 18.3484 5.85284 17.1355 4.88622 17.4565C4.80852 17.4792 3.33217 17.9268 3.91338 20.2101V20.2457C3.92892 20.3495 4.33919 22.8209 7.20487 22.7009L7.22973 23.3495L6.99041 23.3528Z" fill="#FD3B3B"/>
<path d="M17.8251 17.1911C17.7847 17.0289 16.846 13.1824 17.0978 9.84187V9.80295C17.1505 9.48047 17.1417 9.1503 17.0718 8.83139C17.0019 8.51247 16.8724 8.2111 16.6906 7.94457C16.2803 7.43538 15.5779 7.16943 14.6082 7.16943H8.39195C7.41601 7.16943 6.71357 7.43538 6.3002 7.95754C6.12056 8.22502 5.99323 8.52684 5.9255 8.84572C5.85776 9.1646 5.85096 9.49429 5.90547 9.81592V9.85484C6.15722 13.1954 5.21857 17.0419 5.17817 17.204L4.5752 17.0419C4.5752 17.0029 5.52317 13.15 5.28695 9.90673C5.21906 9.49414 5.23169 9.07148 5.32409 8.6641C5.41648 8.25672 5.58674 7.873 5.82465 7.53592C6.36236 6.85484 7.22952 6.50781 8.40128 6.50781H14.6082C15.7799 6.50781 16.6471 6.85484 17.1848 7.53592C17.4233 7.8751 17.5933 8.26124 17.6847 8.67097C17.776 9.0807 17.7868 9.50551 17.7163 9.9197C17.4801 13.1629 18.4156 17.0029 18.428 17.0548L17.8251 17.1911Z" fill="#FD3B3B"/>
<path d="M14.9409 18.4448H8.05957V6.84375H8.68119V17.7962H14.3193V6.84375H14.9409V18.4448Z" fill="#FD3B3B"/>
<path d="M8.37012 11.3281H14.6298V11.9768H8.37012V11.3281Z" fill="#FD3B3B"/>
<path d="M13.2619 7.1709H9.7373V5.14062H13.2619V7.1709ZM10.3589 6.52225H12.6403V5.78927H10.3589V6.52225Z" fill="#FD3B3B"/>
<path d="M13.8811 5.78575H9.11945C8.96185 5.7858 8.806 5.75121 8.66207 5.68422C8.51813 5.61723 8.38933 5.51936 8.28406 5.39697C8.1788 5.27458 8.09942 5.13042 8.0511 4.97388C8.00278 4.81735 7.98661 4.65195 8.00364 4.48845L8.27093 1.69602C8.29949 1.40761 8.42987 1.1406 8.63669 0.94696C8.84352 0.753324 9.11199 0.646919 9.38985 0.648454H13.6107C13.89 0.647151 14.1597 0.754913 14.3667 0.950559C14.5738 1.1462 14.7032 1.41558 14.7296 1.70575L14.9969 4.49494C15.0139 4.65843 14.9977 4.82383 14.9494 4.98037C14.9011 5.13691 14.8217 5.28106 14.7165 5.40345C14.6112 5.52584 14.4824 5.62372 14.3385 5.69071C14.1945 5.75769 14.0387 5.79229 13.8811 5.79224V5.78575ZM9.38985 1.2971C9.26532 1.29646 9.14503 1.34429 9.0525 1.43126C8.95996 1.51822 8.90182 1.63807 8.88945 1.76737L8.62215 4.55981C8.61423 4.63271 8.62121 4.70654 8.64264 4.77642C8.66407 4.8463 8.69946 4.91065 8.74648 4.96521C8.7936 5.01958 8.85116 5.06298 8.91542 5.09259C8.97968 5.12221 9.0492 5.13737 9.11945 5.1371H13.8811C13.9513 5.13737 14.0208 5.12221 14.0851 5.09259C14.1494 5.06298 14.2069 5.01958 14.254 4.96521C14.3011 4.91065 14.3364 4.8463 14.3579 4.77642C14.3793 4.70654 14.3863 4.63271 14.3784 4.55981L14.1111 1.77062C14.0994 1.64073 14.0416 1.52009 13.949 1.43246C13.8564 1.34482 13.7357 1.29654 13.6107 1.2971H9.38985Z" fill="#FD3B3B"/>
</svg>
